<svg width="50" height="50" viewBox="0 0 50 50" fill="none" xmlns="http://www.w3.org/2000/svg">
<circle cx="25" cy="25" r="25" fill="#D8D8D8"/>
<path d="M34.4101 30.7693C33.5579 34.6021 26.3669 43.2791 18.6432 49.0815C13.3994 48.0409 9.08639 44.6271 6.6582 42.0548C8.68234 40.9368 21.799 35.8302 25.0885 30.5031C27.753 26.188 14.808 24.7398 24.6623 19.537C31.3739 15.9935 38.8313 14.1601 46.6614 12.084L45.7559 13.3084C45.7559 13.3084 32.5991 18.4191 29.8825 22.8375C28.7751 24.7539 35.653 25.1797 34.4101 30.7693Z" fill="#424242"/>
<path d="M30.0426 28.6931L29.1903 28.8528C29.723 26.9896 23.9169 23.9553 24.4496 22.7309C24.6094 22.0389 28.8707 17.9399 46.0226 12.5634C33.8245 17.2479 26.6335 20.3887 25.1953 22.7309C24.7614 23.9553 30.3622 26.404 30.0426 28.6931Z" fill="#D9D9D9" fill-opacity="0.53"/>
<path d="M34.8366 26.4573C35.902 28.0543 35.8915 29.6513 35.2628 31.5677C34.3572 34.7617 32.5462 36.7313 29.6165 40.1915C26.6281 44.1668 19.8154 49.5074 19.8154 49.5074C29.51 51.3705 40.2698 48.07 46.6618 37.5298C50.6035 30.8224 51.2427 22.1454 47.5674 14.1603C47.1945 14.2136 33.9311 19.2708 31.1612 22.7309C30.4688 24.0085 33.0788 24.2215 34.8366 26.4573Z" fill="#A03F03"/>
<path d="M19.8154 49.5074C29.51 51.3705 40.2698 48.0701 46.6618 37.5299C49.2165 33.1827 50.384 28.0082 49.8887 22.731C45.6497 29.2255 40.8025 25.8186 35.6842 29.5449C35.645 30.1859 35.4967 30.8547 35.2628 31.5677C34.3572 34.7617 32.5462 36.7314 29.6165 40.1915C26.6281 44.1669 19.8154 49.5074 19.8154 49.5074Z" fill="#A0510C"/>
<path d="M19.8154 49.5073C29.51 51.3705 40.2698 48.07 46.6618 37.5298C47.9531 35.4005 48.6327 33.5374 49.1121 31.7274C42.7201 38.1687 38.6718 34.9747 31.8566 37.5298C31.1977 38.3377 30.4527 39.2039 29.6165 40.1915C26.6281 44.1668 19.8154 49.5073 19.8154 49.5073Z" fill="#824B11"/>
<path d="M18.7499 34.8682C14.3287 37.4766 9.85433 39.4463 5.9126 41.203C1.17187 35.4538 0 29.7579 0 25.9252C0 20.7614 1.05529 16.7689 2.92967 13.2556C7.01938 5.58991 15.181 0.0739158 24.8223 0.000401665C34.6766 -0.0529358 41.0153 5.21718 44.2113 8.9968C44.6374 10.7535 43.8384 11.4987 43.8384 11.4987L43.7319 10.3808C43.2525 8.03855 40.9088 6.44155 38.565 6.76095C35.955 7.02711 33.1319 10.2211 35.2093 13.9475C31.5871 15.2251 28.1248 16.4494 22.4785 19.6434C21.3599 20.2762 19.8152 21.8792 19.8152 22.9439C19.5489 25.6056 23.8635 27.3091 24.0765 29.0125C24.3961 30.5563 23.171 31.7807 18.7499 34.8682Z" fill="#133455"/>
<path d="M18.7499 34.8682C14.3287 37.4766 9.85433 39.4463 5.9126 41.203C1.17187 35.4538 0 29.7579 0 25.9252C0 20.7614 1.05529 16.7689 2.92967 13.2556C6.68355 6.21937 13.8681 0.994297 22.4785 0.12677C22.8514 8.19823 31.1077 10.434 31.1077 15.4572C28.7053 16.4102 26.022 17.639 22.4785 19.6434C21.3599 20.2762 19.8152 21.8792 19.8152 22.9439C19.5489 25.6056 23.8635 27.3091 24.0765 29.0125C24.3961 30.5563 23.171 31.7807 18.7499 34.8682Z" fill="#A03F03"/>
<path d="M18.7499 34.8683C14.3287 37.4767 9.85433 39.4464 5.9126 41.2031C1.17187 35.4539 0 29.758 0 25.9253C0 20.7615 1.05529 16.769 2.92967 13.2557C4.68234 9.97051 7.18286 7.08013 10.2272 4.84375C11.3458 10.2212 21.8926 11.1794 22.4785 19.6435C21.3599 20.2763 19.8152 21.8793 19.8152 22.944C19.5489 25.6057 23.8635 27.3091 24.0765 29.0126C24.3961 30.5564 23.171 31.7807 18.7499 34.8683Z" fill="#A0510C"/>
<path d="M18.7499 34.8683C14.3287 37.4768 9.85433 39.4465 5.9126 41.2032C1.17187 35.454 0 29.7579 0 25.9252C0 21.7995 0.673679 18.4213 1.90055 15.438C7.24426 21.9857 15.98 16.6091 19.8152 22.9439C19.5489 25.6056 23.8635 27.3091 24.0765 29.0125C24.3961 30.5563 23.171 31.7808 18.7499 34.8683Z" fill="#824B11"/>
<g filter="url(#filter0_d_1131_1676)">
<path d="M32.5544 2.59998L32.1936 3.41248L31.409 3.78179L32.1936 4.15407L32.5544 4.96361L32.9124 4.15407L33.6999 3.78179L32.9124 3.41248M29.6908 3.48634L28.9749 5.11134L27.3999 5.84998L28.9749 6.58861L29.6908 8.21361L30.4067 6.58861L31.9817 5.84998L30.4067 5.11134M32.5544 6.73634L32.1936 7.54588L31.409 7.91816L32.1936 8.28748L32.5544 9.09998L32.9124 8.28748L33.6999 7.91816L32.9124 7.54588" fill="#D8D8D8"/>
</g>
<defs>
<filter id="filter0_d_1131_1676" x="26.9999" y="2.59998" width="7.0998" height="7.3" filterUnits="userSpaceOnUse" color-interpolation-filters="sRGB">
<feFlood flood-opacity="0" result="BackgroundImageFix"/>
<feColorMatrix in="SourceAlpha" type="matrix" values="0 0 0 0 0 0 0 0 0 0 0 0 0 0 0 0 0 0 127 0" result="hardAlpha"/>
<feOffset dy="0.4"/>
<feGaussianBlur stdDeviation="0.2"/>
<feComposite in2="hardAlpha" operator="out"/>
<feColorMatrix type="matrix" values="0 0 0 0 0 0 0 0 0 0 0 0 0 0 0 0 0 0 0.25 0"/>
<feBlend mode="normal" in2="BackgroundImageFix" result="effect1_dropShadow_1131_1676"/>
<feBlend mode="normal" in="SourceGraphic" in2="effect1_dropShadow_1131_1676" result="shape"/>
</filter>
</defs>
</svg>
