<svg width="30" height="32" viewBox="0 0 30 32" fill="none" xmlns="http://www.w3.org/2000/svg">
<path d="M28.0442 30.547C27.369 31.2221 26.4534 31.6013 25.4987 31.6013C24.5439 31.6013 23.6283 31.2221 22.9532 30.547L15.0002 21.457L7.04716 30.544C6.71387 30.8828 6.31681 31.1522 5.87888 31.3367C5.44095 31.5213 4.97081 31.6173 4.49559 31.6192C4.02037 31.6211 3.54946 31.529 3.11004 31.348C2.67062 31.167 2.27138 30.9008 1.93535 30.5648C1.59931 30.2288 1.33313 29.8295 1.15217 29.3901C0.971199 28.9507 0.879024 28.4798 0.880959 28.0046C0.882894 27.5293 0.9789 27.0592 1.16344 26.6213C1.34798 26.1833 1.6174 25.7863 1.95616 25.453L10.2302 16.003L1.95316 6.547C1.6144 6.21371 1.34498 5.81665 1.16044 5.37872C0.975901 4.94078 0.879895 4.47065 0.87796 3.99543C0.876024 3.52021 0.968199 3.0493 1.14917 2.60988C1.33013 2.17046 1.59631 1.77122 1.93235 1.43518C2.26838 1.09915 2.66762 0.832971 3.10704 0.652004C3.54646 0.471037 4.01737 0.378863 4.49259 0.380798C4.96781 0.382733 5.43795 0.478739 5.87588 0.663278C6.31381 0.847817 6.71087 1.11724 7.04416 1.456L15.0002 10.549L22.9532 1.456C23.2865 1.11724 23.6835 0.847817 24.1214 0.663278C24.5594 0.478739 25.0295 0.382733 25.5047 0.380798C25.98 0.378863 26.4509 0.471037 26.8903 0.652004C27.3297 0.832971 27.7289 1.09915 28.065 1.43518C28.401 1.77122 28.6672 2.17046 28.8482 2.60988C29.0291 3.0493 29.1213 3.52021 29.1194 3.99543C29.1174 4.47065 29.0214 4.94078 28.8369 5.37872C28.6523 5.81665 28.3829 6.21371 28.0442 6.547L19.7702 16.003L28.0442 25.453C28.3789 25.7873 28.6444 26.1844 28.8256 26.6214C29.0067 27.0584 29.1 27.5269 29.1 28C29.1 28.4731 29.0067 28.9415 28.8256 29.3786C28.6444 29.8156 28.3789 30.2127 28.0442 30.547Z" fill="black"/>
</svg>
