<svg width="30" height="30" viewBox="0 0 30 30" fill="none" xmlns="http://www.w3.org/2000/svg">
<g clip-path="url(#clip0_1264_4086)">
<path d="M28.0442 28.6378C27.369 29.2707 26.4534 29.6262 25.4987 29.6262C24.5439 29.6262 23.6283 29.2707 22.9532 28.6378L15.0002 20.1159L7.04716 28.635C6.71387 28.9526 6.31681 29.2052 5.87888 29.3781C5.44095 29.5512 4.97081 29.6412 4.49559 29.643C4.02037 29.6447 3.54946 29.5584 3.11004 29.3887C2.67062 29.219 2.27138 28.9695 1.93535 28.6545C1.59931 28.3395 1.33313 27.9651 1.15217 27.5532C0.971198 27.1412 0.879024 26.6998 0.880959 26.2543C0.882894 25.8087 0.9789 25.368 1.16344 24.9574C1.34798 24.5468 1.6174 24.1746 1.95616 23.8622L10.2302 15.0028L1.95316 6.13778C1.6144 5.82532 1.34498 5.45307 1.16044 5.04251C0.9759 4.63194 0.879895 4.1912 0.87796 3.74568C0.876024 3.30016 0.968199 2.85868 1.14917 2.44673C1.33013 2.03477 1.59631 1.66048 1.93235 1.34544C2.26838 1.03042 2.66762 0.780874 3.10704 0.611217C3.54646 0.441561 4.01737 0.355148 4.49259 0.356962C4.96781 0.358776 5.43795 0.448781 5.87588 0.621787C6.31381 0.794792 6.71087 1.04738 7.04416 1.36496L15.0002 9.88965L22.9532 1.36496C23.2865 1.04738 23.6835 0.794792 24.1214 0.621787C24.5594 0.448781 25.0295 0.358776 25.5047 0.356962C25.98 0.355148 26.4509 0.441561 26.8903 0.611217C27.3297 0.780874 27.7289 1.03042 28.065 1.34544C28.401 1.66048 28.6672 2.03477 28.8482 2.44673C29.0291 2.85868 29.1213 3.30016 29.1194 3.74568C29.1174 4.1912 29.0214 4.63194 28.8369 5.04251C28.6523 5.45307 28.3829 5.82532 28.0442 6.13778L19.7702 15.0028L28.0442 23.8622C28.3789 24.1756 28.6444 24.5478 28.8256 24.9575C29.0067 25.3672 29.1 25.8064 29.1 26.25C29.1 26.6935 29.0067 27.1326 28.8256 27.5424C28.6444 27.9521 28.3789 28.3244 28.0442 28.6378Z" fill="#F9FBFA"/>
</g>
<defs>
<clipPath id="clip0_1264_4086">
<rect width="30" height="30" fill="white"/>
</clipPath>
</defs>
</svg>
