<svg width="143" height="40" viewBox="0 0 143 40" fill="none" xmlns="http://www.w3.org/2000/svg">
<path d="M1.01209 32V29.5888L1.99442 29.4995C2.56992 29.44 2.85767 29.1622 2.85767 28.666V14.8242L1.16093 14.7349V12.2046H9.31721C12.2344 12.2046 14.5067 12.9786 16.134 14.5265C17.7811 16.0744 18.6047 18.3665 18.6047 21.4028C18.6047 23.2881 18.3566 24.9352 17.8605 26.3442C17.3643 27.7333 16.6896 28.8248 15.8363 29.6186C14.1296 31.2062 12.0062 32 9.46605 32H1.01209ZM6.4893 15.0921V29.1423H9.52558C11.2323 29.1423 12.5619 28.5271 13.5144 27.2967C14.467 26.0664 14.9433 24.2803 14.9433 21.9386C14.9433 17.3743 13.0084 15.0921 9.13861 15.0921H6.4893ZM36.5556 29.6484V32H31.7333V30.0651C30.6418 31.613 29.0343 32.387 26.9109 32.387C23.835 32.387 22.297 30.6704 22.297 27.2372V20.3609C22.297 19.8251 22.0489 19.5473 21.5528 19.5274L20.6002 19.4679V17.027H25.8393V26.4633C25.8393 27.515 25.9881 28.3088 26.2858 28.8447C26.5835 29.3805 27.1987 29.6484 28.1314 29.6484C29.0641 29.6484 29.8083 29.3606 30.364 28.7851C30.9395 28.2096 31.2272 27.515 31.2272 26.7014V20.4205C31.2272 20.1029 31.1677 19.8846 31.0486 19.7656C30.9494 19.6267 30.7609 19.5473 30.483 19.5274L29.5305 19.4679V17.027H34.7695V28.6958C34.7695 29.0133 34.8192 29.2316 34.9184 29.3507C35.0176 29.4499 35.2161 29.5194 35.5137 29.5591L36.5556 29.6484ZM38.1874 19.4084V17.027H43.2181V18.9619C43.7341 18.2276 44.4188 17.6521 45.2721 17.2353C46.1254 16.7988 47.0482 16.5805 48.0405 16.5805C49.5487 16.5805 50.7096 17.0171 51.5233 17.8902C52.3568 18.7436 52.7735 20.0335 52.7735 21.76V29.5293L54.4702 29.6186V32H47.3856V29.7377L48.3679 29.6484C48.6656 29.6087 48.8839 29.5293 49.0228 29.4102C49.1617 29.2713 49.2312 29.0233 49.2312 28.666V22.534C49.2312 21.4425 49.0625 20.6388 48.7251 20.1228C48.3878 19.587 47.7428 19.3191 46.7902 19.3191C45.8575 19.3191 45.1133 19.6167 44.5577 20.2121C44.002 20.8074 43.7242 21.5119 43.7242 22.3256V29.5293L45.4209 29.6186V32H38.3363V29.7377L39.3186 29.6484C39.6163 29.6087 39.8346 29.5293 39.9735 29.4102C40.1124 29.2713 40.1819 29.0233 40.1819 28.666V20.4205C40.1819 19.8251 39.9338 19.5175 39.4377 19.4977L38.1874 19.4084ZM63.6865 16.5805C65.1749 16.5805 66.3557 16.9476 67.2288 17.6819C68.102 18.3963 68.5386 19.4084 68.5386 20.7181C68.5386 21.5913 68.3501 22.3653 67.973 23.04C67.596 23.6949 67.1296 24.2109 66.574 24.5879C66.0183 24.965 65.3436 25.2726 64.5498 25.5107C63.2202 25.9076 61.7219 26.106 60.0549 26.106C60.1144 27.1578 60.4419 28.0112 61.0372 28.666C61.6326 29.3011 62.5454 29.6186 63.7758 29.6186C65.0062 29.6186 66.2366 29.182 67.467 28.3088L68.5982 30.72C68.2013 31.0772 67.5265 31.4443 66.574 31.8214C65.6413 32.1984 64.5696 32.387 63.3591 32.387C60.938 32.387 59.1619 31.7222 58.0307 30.3926C56.8995 29.0431 56.334 27.1975 56.334 24.8558C56.334 22.5141 56.9789 20.5495 58.2688 18.9619C59.5588 17.3743 61.3647 16.5805 63.6865 16.5805ZM62.3172 23.3972C63.0515 23.2583 63.7262 22.9705 64.3414 22.534C64.9566 22.0775 65.2642 21.5417 65.2642 20.9265C65.2642 19.716 64.6688 19.1107 63.4781 19.1107C62.3668 19.1107 61.5135 19.5572 60.9181 20.4502C60.3228 21.3234 59.9954 22.3752 59.9358 23.6056C60.809 23.5857 61.6028 23.5163 62.3172 23.3972ZM78.4326 19.2893C77.9563 19.1107 77.3808 19.0214 76.7061 19.0214C76.0313 19.0214 75.4856 19.1802 75.0689 19.4977C74.672 19.7953 74.4735 20.1724 74.4735 20.6288C74.4735 21.0654 74.543 21.4127 74.6819 21.6707C74.8406 21.9088 75.0788 22.1172 75.3963 22.2958C75.8924 22.5538 76.4878 22.782 77.1823 22.9805C77.8769 23.1591 78.3929 23.3079 78.7302 23.427C79.0676 23.5262 79.4844 23.7048 79.9805 23.9628C80.4965 24.2208 80.8834 24.4986 81.1414 24.7963C81.836 25.5305 82.1833 26.4732 82.1833 27.6242C82.1833 29.1126 81.6375 30.2834 80.5461 31.1367C79.4744 31.9702 78.1051 32.387 76.4382 32.387C74.0171 32.387 72.1913 32.0794 70.9609 31.4642V27.3265L73.64 27.1181V28.547C73.64 29.4202 74.4735 29.8567 76.1405 29.8567C77.8075 29.8567 78.6409 29.2515 78.6409 28.0409C78.6409 27.6043 78.4921 27.2471 78.1944 26.9693C77.9166 26.6915 77.6388 26.5029 77.3609 26.4037C77.0831 26.3045 76.7458 26.2053 76.3489 26.106C75.9718 26.0068 75.5947 25.9076 75.2177 25.8084C74.8605 25.7091 74.4636 25.5802 74.027 25.4214C73.6102 25.2428 73.1439 24.9947 72.6279 24.6772C71.6158 24.0223 71.1098 22.9309 71.1098 21.4028C71.1098 19.8549 71.6555 18.6642 72.747 17.8307C73.8385 16.9972 75.2078 16.5805 76.8549 16.5805C78.5219 16.5805 80.169 16.9774 81.7963 17.7712V21.3433L79.1172 21.5516V20.3014C79.1172 19.8053 78.889 19.4679 78.4326 19.2893ZM115.307 17.6223V28.6958C115.307 29.0133 115.357 29.2316 115.456 29.3507C115.575 29.4698 115.774 29.5392 116.051 29.5591L117.004 29.6186V32H112.271V30.2735L112.182 30.2437C111.189 31.6726 109.83 32.387 108.104 32.387C106.079 32.387 104.581 31.742 103.609 30.4521C102.636 29.1622 102.15 27.396 102.15 25.1535C102.15 22.4546 102.805 20.351 104.115 18.8428C105.424 17.3346 107.389 16.5805 110.009 16.5805C111.695 16.5805 113.462 16.9277 115.307 17.6223ZM111.854 27.267V19.5572C111.299 19.2992 110.535 19.1702 109.562 19.1702C108.232 19.1702 107.27 19.706 106.675 20.7777C106.079 21.8493 105.782 23.2682 105.782 25.0344C105.782 28.2493 106.814 29.8567 108.877 29.8567C109.751 29.8567 110.465 29.5988 111.021 29.0828C111.576 28.547 111.854 27.9417 111.854 27.267ZM129.786 31.4344V29.1721C128.694 30.72 127.087 31.494 124.963 31.494C121.887 31.494 120.349 29.7774 120.349 26.3442V20.3609C120.349 19.8251 120.101 19.5473 119.605 19.5274L118.653 19.4679V17.027H123.892V25.5702C123.892 26.622 124.04 27.4158 124.338 27.9516C124.636 28.4874 125.251 28.7553 126.184 28.7553C127.116 28.7553 127.861 28.4676 128.416 27.8921C128.992 27.3166 129.28 26.622 129.28 25.8084V20.4205C129.28 20.0831 129.22 19.8549 129.101 19.7358C129.002 19.5969 128.813 19.5274 128.535 19.5274L127.583 19.4679V17.027H132.822V31.4344C132.822 33.8357 132.236 35.5919 131.066 36.7033C129.915 37.8146 128.158 38.3702 125.797 38.3702C123.455 38.3702 121.629 38.0428 120.32 37.3879V33.2502L123.147 33.0121V34.4409C123.147 34.9767 123.396 35.334 123.892 35.5126C124.388 35.711 125.072 35.8102 125.946 35.8102C128.506 35.8102 129.786 34.3516 129.786 31.4344Z" fill="#0B1D2B"/>
<rect x="90.3601" y="12.7131" width="5.14358" height="20.5743" rx="2.42891" fill="#2A5C68"/>
<path d="M101.331 21.9666C99.0689 24.2798 95.5887 24.5449 93.5577 22.5588C91.5266 20.5728 96.8237 22.2842 99.0856 19.971C101.348 17.6579 99.7177 12.1961 101.749 14.1822C103.78 16.1683 103.593 19.6535 101.331 21.9666Z" fill="#2A5C68"/>
<path d="M85.0258 24.944C87.2877 27.2571 90.8147 27.4765 92.9035 25.4339C94.9924 23.3913 89.5939 25.2019 87.332 22.8887C85.0701 20.5756 86.8012 15.0147 84.7124 17.0573C82.6236 19.0998 82.7639 22.6308 85.0258 24.944Z" fill="#2A5C68"/>
</svg>
