<svg width="30" height="30" viewBox="0 0 30 30" fill="none" xmlns="http://www.w3.org/2000/svg">
<path d="M14.9999 14.3748C14.1711 14.3748 13.3762 14.0455 12.7902 13.4595C12.2041 12.8734 11.8749 12.0786 11.8749 11.2498C11.8749 10.421 12.2041 9.6261 12.7902 9.04005C13.3762 8.454 14.1711 8.12476 14.9999 8.12476C15.8287 8.12476 16.6235 8.454 17.2096 9.04005C17.7956 9.6261 18.1249 10.421 18.1249 11.2498C18.1249 11.6601 18.044 12.0665 17.887 12.4456C17.73 12.8248 17.4998 13.1693 17.2096 13.4595C16.9194 13.7496 16.5749 13.9798 16.1958 14.1369C15.8166 14.2939 15.4103 14.3748 14.9999 14.3748ZM14.9999 2.49976C12.6792 2.49976 10.4536 3.42163 8.81269 5.06257C7.17175 6.70351 6.24988 8.92911 6.24988 11.2498C6.24988 17.8123 14.9999 27.4998 14.9999 27.4998C14.9999 27.4998 23.7499 17.8123 23.7499 11.2498C23.7499 8.92911 22.828 6.70351 21.1871 5.06257C19.5461 3.42163 17.3205 2.49976 14.9999 2.49976Z" fill="#F9FBFA"/>
</svg>
