<svg width="34" height="26" viewBox="0 0 34 26" fill="none" xmlns="http://www.w3.org/2000/svg">
<g clip-path="url(#clip0_1264_4089)">
<path d="M0.333252 2.58333C0.333252 1.43274 1.26599 0.5 2.41658 0.5H31.5833C32.7338 0.5 33.6666 1.43274 33.6666 2.58333C33.6666 3.73393 32.7338 4.66667 31.5833 4.66667H2.41658C1.26599 4.66667 0.333252 3.73393 0.333252 2.58333ZM8.66658 13C8.66658 11.8494 9.59932 10.9167 10.7499 10.9167H31.5833C32.7338 10.9167 33.6666 11.8494 33.6666 13C33.6666 14.1506 32.7338 15.0833 31.5833 15.0833H10.7499C9.59932 15.0833 8.66658 14.1506 8.66658 13ZM19.0833 23.4167C19.0833 22.2661 20.016 21.3333 21.1666 21.3333H31.5833C32.7338 21.3333 33.6666 22.2661 33.6666 23.4167C33.6666 24.5673 32.7338 25.5 31.5832 25.5H21.1666C20.016 25.5 19.0833 24.5673 19.0833 23.4167Z" fill="#0B1D2B"/>
</g>
<defs>
<clipPath id="clip0_1264_4089">
<rect width="34" height="26" fill="white"/>
</clipPath>
</defs>
</svg>
