<svg width="900" height="600" viewBox="0 0 900 600" fill="none" xmlns="http://www.w3.org/2000/svg">
<g clip-path="url(#clip0_1396_3805)">
<path d="M900 0H0V600H900V0Z" fill="url(#paint0_linear_1396_3805)"/>
<path d="M0 360L21.5 363C43 366 86 372 128.8 379.2C171.7 386.3 214.3 394.7 257.2 398.7C300 402.7 343 402.3 385.8 404.7C428.7 407 471.3 412 514.2 406C557 400 600 383 642.8 387.3C685.7 391.7 728.3 417.3 771.2 417.3C814 417.3 857 391.7 878.5 378.8L900 366V601H878.5C857 601 814 601 771.2 601C728.3 601 685.7 601 642.8 601C600 601 557 601 514.2 601C471.3 601 428.7 601 385.8 601C343 601 300 601 257.2 601C214.3 601 171.7 601 128.8 601C86 601 43 601 21.5 601H0V360Z" fill="#BE8961"/>
<path d="M0 407L21.5 413.7C43 420.3 86 433.7 128.8 438.2C171.7 442.7 214.3 438.3 257.2 438.2C300 438 343 442 385.8 436.2C428.7 430.3 471.3 414.7 514.2 413.2C557 411.7 600 424.3 642.8 426C685.7 427.7 728.3 418.3 771.2 421C814 423.7 857 438.3 878.5 445.7L900 453V601H878.5C857 601 814 601 771.2 601C728.3 601 685.7 601 642.8 601C600 601 557 601 514.2 601C471.3 601 428.7 601 385.8 601C343 601 300 601 257.2 601C214.3 601 171.7 601 128.8 601C86 601 43 601 21.5 601H0V407Z" fill="#FFA968"/>
<path d="M0 484L21.5 484.7C43 485.3 86 486.7 128.8 485C171.7 483.3 214.3 478.7 257.2 470.3C300 462 343 450 385.8 454.7C428.7 459.3 471.3 480.7 514.2 482.3C557 484 600 466 642.8 455.8C685.7 445.7 728.3 443.3 771.2 451.8C814 460.3 857 479.7 878.5 489.3L900 499V601H878.5C857 601 814 601 771.2 601C728.3 601 685.7 601 642.8 601C600 601 557 601 514.2 601C471.3 601 428.7 601 385.8 601C343 601 300 601 257.2 601C214.3 601 171.7 601 128.8 601C86 601 43 601 21.5 601H0V484Z" fill="#2A5C68"/>
<path d="M0 510L21.5 510.8C43 511.7 86 513.3 128.8 516.2C171.7 519 214.3 523 257.2 519.3C300 515.7 343 504.3 385.8 504.7C428.7 505 471.3 517 514.2 521.5C557 526 600 523 642.8 524.2C685.7 525.3 728.3 530.7 771.2 528.8C814 527 857 518 878.5 513.5L900 509V601H878.5C857 601 814 601 771.2 601C728.3 601 685.7 601 642.8 601C600 601 557 601 514.2 601C471.3 601 428.7 601 385.8 601C343 601 300 601 257.2 601C214.3 601 171.7 601 128.8 601C86 601 43 601 21.5 601H0V510Z" fill="#F6A478"/>
<path d="M0 574L21.5 568.2C43 562.3 86 550.7 128.8 548.2C171.7 545.7 214.3 552.3 257.2 554.5C300 556.7 343 554.3 385.8 556.2C428.7 558 471.3 564 514.2 565.7C557 567.3 600 564.7 642.8 564.2C685.7 563.7 728.3 565.3 771.2 565.5C814 565.7 857 564.3 878.5 563.7L900 563V601H878.5C857 601 814 601 771.2 601C728.3 601 685.7 601 642.8 601C600 601 557 601 514.2 601C471.3 601 428.7 601 385.8 601C343 601 300 601 257.2 601C214.3 601 171.7 601 128.8 601C86 601 43 601 21.5 601H0V574Z" fill="#F7C59F"/>
<path d="M761.841 481.887C801.758 487.982 804.511 494.505 807.256 499.484C808.446 500.655 812.115 504.079 813.402 500.784C814.179 498.796 813.304 493.079 797.055 486.49C790.742 484.645 743.82 479.136 761.841 481.887Z" fill="white"/>
<path d="M816.671 522.519C818.921 540.794 816.364 542.745 814.493 544.518C814.121 545.175 813.055 547.179 814.678 547.373C815.659 547.49 818.09 546.457 819 538.554C819.035 535.563 815.656 514.269 816.671 522.519Z" fill="white"/>
<path d="M695.191 504.915C735.89 503.279 728.769 504.915 734.304 504.915C739.84 504.915 742.938 508.759 741.468 504.915C739.997 501.071 733.328 502.593 731.006 502.593C724.467 501.85 676.816 505.653 695.191 504.915Z" fill="white"/>
<path d="M807.112 515.882C805.968 511.669 804.077 508.029 801.641 504.96M801.641 504.96C786.131 485.424 748.491 489.064 740.443 515.882C744.976 533.82 759.719 564.59 782.425 544.163C805.131 523.737 796.518 507.395 789.373 501.777C780.738 501.334 768.694 502.232 760.029 506.285M801.641 504.96C817.162 508.142 801.051 544.163 792.181 555.519C783.312 566.875 768.455 565.573 752.121 532.301C745.37 518.55 750.769 510.616 760.029 506.285M780.06 495.34C761.286 508.408 728.483 538.015 747.464 551.903C771.19 569.262 765.129 522.654 760.029 506.285M766.09 498.088C734.899 495.34 723.635 554.073 747.464 561.016C774.442 573.819 809.209 545.542 801.641 527.31C801.74 513.005 795.788 486.584 771.19 495.34" stroke="#562E2E" stroke-width="3"/>
<path d="M795.09 557.431C798.791 555.007 801.698 552.077 803.875 548.827M803.875 548.827C817.734 528.136 802.016 494.47 773.483 495.71C757.611 505.72 732.644 529.341 759.749 543.742C786.854 558.143 799.86 544.873 802.976 536.438C800.606 528.301 795.834 517.441 789.109 510.733M803.875 548.827C805.828 564.227 765.785 560.986 751.933 556.455C738.08 551.924 734.524 537.748 761.395 511.842C772.501 501.136 781.921 503.563 789.109 510.733M806.181 525.729C787.464 512.584 748.211 491.811 740.937 513.884C731.844 541.475 774.937 520.759 789.109 510.733M798.996 513.687C791.545 483.92 731.116 492.526 732.127 516.838C728.493 545.963 767.097 568.985 782.269 556.07C796.13 551.526 819.742 537.453 803.306 517.518" stroke="#562E2E" stroke-width="3"/>
<path d="M199.653 176V172.112L201.381 171.968C202.213 171.904 202.629 171.456 202.629 170.624V148.304L199.893 148.16V144.08H208.533L222.117 166.112H222.213V148.304L219.045 148.16V144.08H230.757V147.968L229.029 148.112C228.261 148.176 227.877 148.672 227.877 149.6V176H222.261L208.389 153.632H208.293V171.776L211.413 171.92V176H199.653ZM243.647 172.496C247.135 172.496 248.879 169.68 248.879 164.048C248.879 161.2 248.479 159.04 247.679 157.568C246.911 156.096 245.599 155.36 243.743 155.36C241.919 155.36 240.575 156.064 239.711 157.472C238.847 158.88 238.415 160.8 238.415 163.232C238.415 167.744 239.247 170.576 240.911 171.728C241.647 172.24 242.559 172.496 243.647 172.496ZM232.607 163.904C232.607 161.536 232.959 159.488 233.663 157.76C234.367 156 235.311 154.656 236.495 153.728C238.767 152 241.279 151.136 244.031 151.136C245.951 151.136 247.567 151.456 248.879 152.096C250.223 152.704 251.263 153.424 251.999 154.256C252.767 155.056 253.407 156.24 253.919 157.808C254.463 159.344 254.735 161.168 254.735 163.28C254.735 167.696 253.663 171.04 251.519 173.312C249.375 175.584 246.623 176.72 243.263 176.72C239.935 176.72 237.327 175.648 235.439 173.504C233.551 171.328 232.607 168.128 232.607 163.904ZM286.92 149.168C286.568 148.56 285.256 148.256 282.984 148.256C280.008 148.256 277.752 149.264 276.216 151.28C274.68 153.296 273.912 156.208 273.912 160.016C273.912 167.92 276.872 171.872 282.792 171.872C282.888 171.872 283.304 171.872 284.04 171.872C284.808 171.872 285.528 171.776 286.2 171.584C286.872 171.36 287.272 171.136 287.4 170.912C287.528 170.688 287.592 170.336 287.592 169.856V166.016L292.488 166.352V174.656C289.992 175.968 286.824 176.624 282.984 176.624C278.088 176.624 274.344 175.248 271.752 172.496C269.192 169.744 267.912 165.648 267.912 160.208C267.912 157.2 268.344 154.576 269.208 152.336C270.072 150.096 271.24 148.352 272.712 147.104C275.592 144.704 279.016 143.504 282.984 143.504C286.184 143.504 289.192 144.16 292.008 145.472V153.632L287.112 153.968V150.224C287.112 149.744 287.048 149.392 286.92 149.168ZM307.491 172.496C310.979 172.496 312.723 169.68 312.723 164.048C312.723 161.2 312.323 159.04 311.523 157.568C310.755 156.096 309.443 155.36 307.587 155.36C305.763 155.36 304.419 156.064 303.555 157.472C302.691 158.88 302.259 160.8 302.259 163.232C302.259 167.744 303.091 170.576 304.755 171.728C305.491 172.24 306.403 172.496 307.491 172.496ZM296.451 163.904C296.451 161.536 296.803 159.488 297.507 157.76C298.211 156 299.155 154.656 300.339 153.728C302.611 152 305.123 151.136 307.875 151.136C309.795 151.136 311.411 151.456 312.723 152.096C314.067 152.704 315.107 153.424 315.843 154.256C316.611 155.056 317.251 156.24 317.763 157.808C318.307 159.344 318.579 161.168 318.579 163.28C318.579 167.696 317.507 171.04 315.363 173.312C313.219 175.584 310.467 176.72 307.107 176.72C303.779 176.72 301.171 175.648 299.283 173.504C297.395 171.328 296.451 168.128 296.451 163.904ZM321.523 155.696V151.856H329.635V154.976C330.467 153.792 331.571 152.864 332.947 152.192C334.323 151.488 335.811 151.136 337.411 151.136C339.843 151.136 341.715 151.84 343.027 153.248C344.371 154.624 345.043 156.704 345.043 159.488V172.016L347.779 172.16V176H336.355V172.352L337.939 172.208C338.419 172.144 338.771 172.016 338.995 171.824C339.219 171.6 339.331 171.2 339.331 170.624V160.736C339.331 158.976 339.059 157.68 338.515 156.848C337.971 155.984 336.931 155.552 335.395 155.552C333.891 155.552 332.691 156.032 331.795 156.992C330.899 157.952 330.451 159.088 330.451 160.4V172.016L333.187 172.16V176H321.763V172.352L323.347 172.208C323.827 172.144 324.179 172.016 324.403 171.824C324.627 171.6 324.739 171.2 324.739 170.624V157.328C324.739 156.368 324.339 155.872 323.539 155.84L321.523 155.696ZM353.616 170.624V155.888H349.488V151.856H353.616V150.032C353.616 146.896 354.336 144.64 355.776 143.264C357.12 141.952 359.088 141.296 361.68 141.296C364.272 141.296 366.576 141.856 368.592 142.976L367.2 146.816C365.664 146.016 364.224 145.616 362.88 145.616C361.536 145.616 360.608 145.952 360.096 146.624C359.584 147.264 359.328 148.256 359.328 149.6V151.856H366.432V155.888H359.328V171.968L363.36 172.16V176H350.64V172.352L352.224 172.208C352.704 172.144 353.056 172.016 353.28 171.824C353.504 171.6 353.616 171.2 353.616 170.624ZM377.045 151.856V172.016L379.781 172.16V176H368.357V172.352L369.941 172.208C370.869 172.112 371.333 171.6 371.333 170.672V157.328C371.333 156.784 371.237 156.416 371.045 156.224C370.885 156.032 370.581 155.936 370.133 155.936L368.453 155.84V151.856H377.045ZM370.997 147.728C370.325 147.056 369.989 146.208 369.989 145.184C369.989 144.16 370.325 143.312 370.997 142.64C371.669 141.936 372.549 141.584 373.637 141.584C374.725 141.584 375.605 141.936 376.277 142.64C376.981 143.312 377.333 144.16 377.333 145.184C377.333 146.208 376.981 147.056 376.277 147.728C375.605 148.368 374.725 148.688 373.637 148.688C372.549 148.688 371.669 148.368 370.997 147.728ZM385.537 170.624V157.328C385.537 156.816 385.441 156.464 385.249 156.272C385.089 156.048 384.785 155.92 384.337 155.888L382.321 155.744V151.856H390.433V155.456C391.009 154.208 391.905 153.184 393.121 152.384C394.337 151.552 395.729 151.136 397.297 151.136C398.897 151.136 400.417 151.488 401.857 152.192V159.344L397.393 159.68V157.472C397.393 156.832 397.233 156.432 396.913 156.272C396.561 156.112 396.129 156.032 395.617 156.032C394.337 156.032 393.281 156.496 392.449 157.424C391.649 158.32 391.249 159.472 391.249 160.88V172.016L395.425 172.208V176H382.561V172.352L384.145 172.208C384.625 172.144 384.977 172.016 385.201 171.824C385.425 171.6 385.537 171.2 385.537 170.624ZM404.444 155.744V151.856H412.556V154.976C414.348 152.416 416.796 151.136 419.9 151.136C423.036 151.136 425.148 152.416 426.236 154.976C428.028 152.416 430.46 151.136 433.532 151.136C435.836 151.136 437.612 151.84 438.86 153.248C440.108 154.624 440.732 156.704 440.732 159.488V172.016L443.468 172.16V176H432.044V172.352L433.628 172.208C434.108 172.144 434.444 172.016 434.636 171.824C434.86 171.6 434.988 171.216 435.02 170.672V160.736C435.02 158.976 434.812 157.68 434.396 156.848C434.012 155.984 433.084 155.552 431.612 155.552C430.14 155.552 429.004 156 428.204 156.896C427.436 157.792 427.052 158.992 427.052 160.496V172.016L429.692 172.16V176H418.364V172.352L419.948 172.208C420.428 172.144 420.78 172.016 421.004 171.824C421.228 171.6 421.34 171.2 421.34 170.624V160.736C421.34 158.976 421.132 157.68 420.716 156.848C420.332 155.984 419.388 155.552 417.884 155.552C416.412 155.552 415.292 156.016 414.524 156.944C413.756 157.872 413.372 159.024 413.372 160.4V172.016L415.964 172.16V176H404.636V172.352L406.22 172.208C406.7 172.144 407.052 172.016 407.276 171.824C407.5 171.6 407.612 171.2 407.612 170.624H407.66V157.376C407.66 156.832 407.564 156.464 407.372 156.272C407.212 156.048 406.908 155.92 406.46 155.888L404.444 155.744ZM458.359 151.136C460.759 151.136 462.663 151.728 464.071 152.912C465.479 154.064 466.183 155.696 466.183 157.808C466.183 159.216 465.879 160.464 465.271 161.552C464.663 162.608 463.911 163.44 463.015 164.048C462.119 164.656 461.031 165.152 459.751 165.536C457.607 166.176 455.191 166.496 452.503 166.496C452.599 168.192 453.127 169.568 454.087 170.624C455.047 171.648 456.519 172.16 458.503 172.16C460.487 172.16 462.471 171.456 464.455 170.048L466.279 173.936C465.639 174.512 464.551 175.104 463.015 175.712C461.511 176.32 459.783 176.624 457.831 176.624C453.927 176.624 451.063 175.552 449.239 173.408C447.415 171.232 446.503 168.256 446.503 164.48C446.503 160.704 447.543 157.536 449.623 154.976C451.703 152.416 454.615 151.136 458.359 151.136ZM456.151 162.128C457.335 161.904 458.423 161.44 459.415 160.736C460.407 160 460.903 159.136 460.903 158.144C460.903 156.192 459.943 155.216 458.023 155.216C456.231 155.216 454.855 155.936 453.895 157.376C452.935 158.784 452.407 160.48 452.311 162.464C453.719 162.432 454.999 162.32 456.151 162.128ZM481.609 151.136C482.985 151.136 484.297 151.328 485.545 151.712V146.864C485.545 146.16 485.129 145.776 484.297 145.712L482.233 145.568V141.776H491.161V170.96C491.193 171.696 491.593 172.064 492.361 172.064L494.041 172.16V176H486.265V173.168L486.121 173.12C484.681 175.456 482.505 176.624 479.593 176.624C475.945 176.624 473.385 175.408 471.913 172.976C470.569 170.768 469.897 168.064 469.897 164.864C469.897 160.704 470.921 157.376 472.969 154.88C475.049 152.384 477.929 151.136 481.609 151.136ZM485.545 168.512V156.08C484.393 155.568 483.177 155.312 481.897 155.312C479.785 155.312 478.233 156.16 477.241 157.856C476.281 159.552 475.801 161.712 475.801 164.336C475.801 169.712 477.529 172.4 480.985 172.4C482.297 172.4 483.385 172.032 484.249 171.296C485.113 170.528 485.545 169.6 485.545 168.512ZM506.739 144.08H520.275C527.187 144.08 530.643 146.752 530.643 152.096C530.643 155.04 529.171 157.28 526.227 158.816C528.115 159.296 529.587 160.176 530.643 161.456C531.731 162.736 532.275 164.4 532.275 166.448C532.275 169.552 531.219 171.92 529.107 173.552C527.027 175.184 523.987 176 519.987 176H506.499V172.112L508.083 171.968C509.011 171.872 509.475 171.424 509.475 170.624V148.304L506.739 148.16V144.08ZM515.331 161.456V171.488H519.843C524.003 171.488 526.083 169.792 526.083 166.4C526.083 164.8 525.555 163.584 524.499 162.752C523.475 161.888 522.003 161.456 520.083 161.456H515.331ZM515.331 148.496V157.184H518.883C520.867 157.184 522.323 156.784 523.251 155.984C524.211 155.152 524.691 154 524.691 152.528C524.691 151.056 524.211 150.016 523.251 149.408C522.323 148.8 520.979 148.496 519.219 148.496H515.331ZM546.366 172.496C549.854 172.496 551.598 169.68 551.598 164.048C551.598 161.2 551.198 159.04 550.398 157.568C549.63 156.096 548.318 155.36 546.462 155.36C544.638 155.36 543.294 156.064 542.43 157.472C541.566 158.88 541.134 160.8 541.134 163.232C541.134 167.744 541.966 170.576 543.63 171.728C544.366 172.24 545.278 172.496 546.366 172.496ZM535.326 163.904C535.326 161.536 535.678 159.488 536.382 157.76C537.086 156 538.03 154.656 539.214 153.728C541.486 152 543.998 151.136 546.75 151.136C548.67 151.136 550.286 151.456 551.598 152.096C552.942 152.704 553.982 153.424 554.718 154.256C555.486 155.056 556.126 156.24 556.638 157.808C557.182 159.344 557.454 161.168 557.454 163.28C557.454 167.696 556.382 171.04 554.238 173.312C552.094 175.584 549.342 176.72 545.982 176.72C542.654 176.72 540.046 175.648 538.158 173.504C536.27 171.328 535.326 168.128 535.326 163.904ZM571.726 172.496C575.214 172.496 576.958 169.68 576.958 164.048C576.958 161.2 576.558 159.04 575.758 157.568C574.99 156.096 573.678 155.36 571.822 155.36C569.998 155.36 568.654 156.064 567.79 157.472C566.926 158.88 566.494 160.8 566.494 163.232C566.494 167.744 567.326 170.576 568.99 171.728C569.726 172.24 570.638 172.496 571.726 172.496ZM560.686 163.904C560.686 161.536 561.038 159.488 561.742 157.76C562.446 156 563.39 154.656 564.574 153.728C566.846 152 569.358 151.136 572.11 151.136C574.03 151.136 575.646 151.456 576.958 152.096C578.302 152.704 579.342 153.424 580.078 154.256C580.846 155.056 581.486 156.24 581.998 157.808C582.542 159.344 582.814 161.168 582.814 163.28C582.814 167.696 581.742 171.04 579.598 173.312C577.454 175.584 574.702 176.72 571.342 176.72C568.014 176.72 565.406 175.648 563.518 173.504C561.63 171.328 560.686 168.128 560.686 163.904ZM589.021 170.624V147.248C589.021 146.736 588.925 146.384 588.733 146.192C588.573 146 588.269 145.888 587.821 145.856L586.141 145.76V141.776H594.685V162.56C596.445 162.4 597.981 161.856 599.293 160.928C600.605 160 601.501 158.784 601.981 157.28C602.077 156.96 602.125 156.704 602.125 156.512C602.125 155.968 601.821 155.696 601.213 155.696L599.389 155.6V151.856H609.325V155.744L607.021 155.84C606.605 159.104 605.197 161.68 602.797 163.568L607.501 172.016L610.429 172.16V176H603.421L597.949 166.016C596.893 166.304 595.805 166.528 594.685 166.688V172.016H594.733L597.469 172.16V176H586.045V172.352L587.629 172.208C588.109 172.144 588.461 172.016 588.685 171.824C588.909 171.6 589.021 171.2 589.021 170.624ZM621.405 151.856V172.016L624.141 172.16V176H612.717V172.352L614.301 172.208C615.229 172.112 615.693 171.6 615.693 170.672V157.328C615.693 156.784 615.597 156.416 615.405 156.224C615.245 156.032 614.941 155.936 614.493 155.936L612.813 155.84V151.856H621.405ZM615.357 147.728C614.685 147.056 614.349 146.208 614.349 145.184C614.349 144.16 614.685 143.312 615.357 142.64C616.029 141.936 616.909 141.584 617.997 141.584C619.085 141.584 619.965 141.936 620.637 142.64C621.341 143.312 621.693 144.16 621.693 145.184C621.693 146.208 621.341 147.056 620.637 147.728C619.965 148.368 619.085 148.688 617.997 148.688C616.909 148.688 616.029 148.368 615.357 147.728ZM626.632 155.696V151.856H634.744V154.976C635.576 153.792 636.68 152.864 638.056 152.192C639.432 151.488 640.92 151.136 642.52 151.136C644.952 151.136 646.824 151.84 648.136 153.248C649.48 154.624 650.152 156.704 650.152 159.488V172.016L652.888 172.16V176H641.464V172.352L643.048 172.208C643.528 172.144 643.88 172.016 644.104 171.824C644.328 171.6 644.44 171.2 644.44 170.624V160.736C644.44 158.976 644.168 157.68 643.624 156.848C643.08 155.984 642.04 155.552 640.504 155.552C639 155.552 637.8 156.032 636.904 156.992C636.008 157.952 635.56 159.088 635.56 160.4V172.016L638.296 172.16V176H626.872V172.352L628.456 172.208C628.936 172.144 629.288 172.016 629.512 171.824C629.736 171.6 629.848 171.2 629.848 170.624V157.328C629.848 156.368 629.448 155.872 628.648 155.84L626.632 155.696ZM677.061 175.952C676.773 179.504 675.749 182.112 673.989 183.776C672.229 185.44 669.477 186.272 665.733 186.272C661.989 186.272 659.061 185.744 656.949 184.688V178.016L661.509 177.632V179.936C661.509 180.8 661.909 181.376 662.709 181.664C663.509 181.984 664.613 182.144 666.021 182.144C668.069 182.144 669.509 181.52 670.341 180.272C671.173 179.056 671.589 177.328 671.589 175.088V172.448C670.053 174.24 667.925 175.136 665.205 175.136C663.541 175.136 662.069 174.816 660.789 174.176C659.541 173.536 658.565 172.672 657.861 171.584C656.485 169.408 655.797 166.848 655.797 163.904C655.797 159.712 656.933 156.544 659.205 154.4C661.477 152.224 664.501 151.136 668.277 151.136C671.413 151.136 674.373 151.728 677.157 152.912V170.72C677.157 173.44 677.125 175.184 677.061 175.952ZM671.589 166.208V155.888C670.469 155.504 669.189 155.312 667.749 155.312C665.797 155.312 664.293 156.032 663.237 157.472C662.213 158.912 661.701 160.864 661.701 163.328C661.701 168.384 663.365 170.912 666.693 170.912C668.069 170.912 669.221 170.496 670.149 169.664C671.109 168.8 671.589 167.648 671.589 166.208ZM694.387 155.504C693.619 155.216 692.691 155.072 691.603 155.072C690.515 155.072 689.635 155.328 688.963 155.84C688.323 156.32 688.003 156.928 688.003 157.664C688.003 158.368 688.115 158.928 688.339 159.344C688.595 159.728 688.979 160.064 689.491 160.352C690.291 160.768 691.251 161.136 692.371 161.456C693.491 161.744 694.323 161.984 694.867 162.176C695.411 162.336 696.083 162.624 696.883 163.04C697.715 163.456 698.339 163.904 698.755 164.384C699.875 165.568 700.435 167.088 700.435 168.944C700.435 171.344 699.555 173.232 697.795 174.608C696.067 175.952 693.859 176.624 691.171 176.624C687.267 176.624 684.323 176.128 682.339 175.136V168.464L686.659 168.128V170.432C686.659 171.84 688.003 172.544 690.691 172.544C693.379 172.544 694.723 171.568 694.723 169.616C694.723 168.912 694.483 168.336 694.003 167.888C693.555 167.44 693.107 167.136 692.659 166.976C692.211 166.816 691.667 166.656 691.027 166.496C690.419 166.336 689.811 166.176 689.203 166.016C688.627 165.856 687.987 165.648 687.283 165.392C686.611 165.104 685.859 164.704 685.027 164.192C683.395 163.136 682.579 161.376 682.579 158.912C682.579 156.416 683.459 154.496 685.219 153.152C686.979 151.808 689.187 151.136 691.843 151.136C694.531 151.136 697.187 151.776 699.811 153.056V158.816L695.491 159.152V157.136C695.491 156.336 695.123 155.792 694.387 155.504Z" fill="#2B1E36"/>
<path d="M259.343 558.808C235.421 560.762 236.539 563.16 235.643 591.831L234.953 613.918L219.458 613.434C219.458 613.434 223.397 583.102 213.857 573.143C205.474 564.392 199.055 569.585 189.441 562.251C179.827 554.916 188.664 520.303 191.005 512.216C193.345 504.13 204.423 502.788 205.904 512.682C207.384 522.576 199.662 540.623 204.762 549.224C209.862 557.824 217.723 554.412 221.448 549.745C225.173 545.079 223.17 494.651 228.692 489.759C234.214 484.867 239.747 485.978 241.803 490.169C243.859 494.36 239.923 550.323 239.923 550.323C259.589 550.937 250.504 517.171 260.591 518.893C270.678 520.615 270.707 557.88 259.343 558.808Z" fill="#0B1D2B"/>
<path d="M28.3906 482.479C80.2118 492.979 77.1416 497.934 71.6389 560.885L67.3999 609.38L101.42 612.353C101.42 612.353 100.698 544.978 124.159 525.676C144.775 508.715 157.465 521.746 180.403 508.205C203.342 494.663 193.021 416.647 190.006 398.349C186.991 380.051 163.108 374.232 157.294 395.49C151.481 416.747 163.676 458.236 150.281 475.721C136.886 493.207 120.577 483.697 113.644 472.519C106.71 461.341 124.217 351.554 113.412 339.416C102.607 327.278 90.2148 328.267 84.6258 336.9C79.0368 345.532 73.0809 468.973 73.0809 468.973C29.9012 465.198 58.5651 393.7 36.0513 394.842C13.5375 395.983 3.77562 477.492 28.3906 482.479Z" fill="#0B1D2B"/>
<path d="M584.547 398C585.081 398.036 585.658 398.218 586.122 398.482C586.37 398.255 586.755 397.989 587.026 398.196C587.612 398.639 587.139 399.169 586.708 399.506C586.45 401.187 585.737 403.873 587.167 404.473C589.412 405.321 589.816 398.433 592.975 398.517C594.869 398.568 594.034 401.313 595.909 401.407C597.292 401.478 597.189 398.852 598.342 398.812C599.556 398.77 600.434 399.698 601.047 402.889C602.249 402.884 602.722 403.831 603.27 405.664C603.818 407.492 603.411 411.082 603.214 413.276L602.845 409.7C602.731 410.262 602.555 410.829 602.287 411.42C602.103 412.296 602.032 413.173 602.014 414.045C602.399 414.523 602.427 415.273 602.034 415.709C602.077 416.965 602.159 418.217 602.113 419.473C600.496 419.496 599.017 419.426 597.447 419.473C597.362 418.915 598.145 418.517 599.055 418.053C599.041 417.41 599.045 416.623 599.055 415.826C598.642 415.348 598.633 414.509 599.064 414.101C599.059 413.103 599.026 412.292 598.909 412.043C598.534 411.242 597.944 410.548 597.545 409.831C596.2 410.079 594.747 409.967 593.237 409.61L593.205 413.618C593.566 414.148 593.58 414.917 593.191 415.39C592.97 416.75 593.162 418.114 593.153 419.473H590.434C590.326 418.77 591.489 418.39 592.056 418.062C592.056 417.026 592.239 416.243 592.075 415.235C591.841 414.771 591.826 414.228 592.056 413.792C592.014 412.245 591.901 410.698 591.555 409.151C591.48 409.123 591.184 408.978 591.119 408.903L590.608 413.515C590.87 414.073 590.814 414.795 590.42 415.235C590.111 416.646 590.209 418.025 590.05 419.435L587.181 419.473C587.167 418.896 588.545 418.535 589.07 418.278C589.37 417.275 589.337 416.257 589.384 415.235C589.009 414.668 589.028 413.881 589.436 413.384C589.412 411.589 589.178 409.784 588.573 408.012C583.576 407.735 584.064 404.637 583.919 401.768C583.853 400.491 581.317 401.848 581.106 401.224C580.994 400.9 580.937 400.573 581.106 400.2C581.509 399.296 582.226 399.248 582.826 399.233C583.403 398.888 583.886 398.016 584.491 398H584.547ZM584.233 398.918C584.003 399.042 584.055 399.268 584.106 399.392C584.416 399.484 584.87 399.341 585.081 399.177C584.898 399.036 584.509 398.924 584.233 398.918ZM600.494 410.909C600.351 411.275 600.225 411.64 600.149 411.996C599.998 412.714 599.919 413.435 599.881 414.162C600.232 414.645 600.246 415.385 599.853 415.803C599.865 416.815 599.914 417.828 599.925 418.835C600.137 418.484 600.53 418.179 601.094 418.034C601.086 417.359 601.114 416.515 601.144 415.662C600.82 415.184 600.816 414.462 601.196 414.054C601.228 412.789 601.212 411.739 601.019 411.518C600.834 411.307 600.66 411.106 600.494 410.909Z" fill="black"/>
<path d="M173.829 40.4698C170.564 36.585 133.855 57.9796 132.616 61.0762L152.097 86.9751C152.097 86.9751 174.505 77.1223 173.829 73.5752C173.153 70.0282 156.826 81.4575 155.587 77.629C154.349 73.8004 186.891 62.3149 182.612 57.9796C178.333 53.6444 161.161 69.2963 159.078 65.4678C156.995 61.6393 173.21 58.3175 170.901 53.9822C168.593 49.647 155.193 61.6393 152.716 57.9796C150.239 54.32 179.035 46.663 173.829 40.4698Z" fill="url(#paint1_linear_1396_3805)"/>
<path d="M165.893 70.3116C165.893 80.4992 157.634 88.7579 147.446 88.7579C137.259 88.7579 129 80.4992 129 70.3116C129 60.1239 137.259 51.8652 147.446 51.8652C157.634 51.8652 165.893 60.1239 165.893 70.3116Z" fill="#D8D8D8"/>
<path d="M153.939 74.2962C153.349 76.9525 148.369 82.966 143.019 86.9873C139.387 86.2661 136.4 83.9002 134.718 82.1175C136.12 81.3427 145.205 77.8036 147.483 74.1118C149.329 71.1213 140.363 70.1176 147.188 66.5119C151.837 64.0561 157.002 62.7855 162.425 61.3467L161.798 62.1952C161.798 62.1952 152.685 65.7371 150.804 68.7992C150.037 70.1274 154.8 70.4225 153.939 74.2962Z" fill="#424242"/>
<path d="M150.914 72.8573L150.324 72.968C150.693 71.6768 146.672 69.5739 147.041 68.7254C147.151 68.2458 150.103 65.405 161.982 61.6789C153.534 64.9254 148.553 67.1021 147.557 68.7254C147.257 69.5739 151.136 71.271 150.914 72.8573Z" fill="#D9D9D9" fill-opacity="0.53"/>
<path d="M154.235 71.3079C154.972 72.4146 154.965 73.5214 154.53 74.8496C153.903 77.0631 152.648 78.4282 150.619 80.8262C148.549 83.5812 143.831 87.2824 143.831 87.2824C150.545 88.5736 157.998 86.2863 162.425 78.9815C165.155 74.3331 165.598 68.3196 163.052 62.7857C162.794 62.8225 153.607 66.3274 151.689 68.7254C151.209 69.6108 153.017 69.7584 154.235 71.3079Z" fill="#A03F03"/>
<path d="M143.831 87.2824C150.545 88.5736 157.998 86.2863 162.425 78.9815C164.194 75.9688 165.003 72.3827 164.66 68.7254C161.724 73.2263 158.367 70.8652 154.822 73.4477C154.794 73.8919 154.692 74.3554 154.53 74.8496C153.903 77.0631 152.648 78.4282 150.619 80.8262C148.549 83.5812 143.831 87.2824 143.831 87.2824Z" fill="#A0510C"/>
<path d="M143.831 87.2824C150.545 88.5736 157.998 86.2863 162.425 78.9815C163.319 77.5059 163.79 76.2146 164.122 74.9603C159.695 79.4243 156.891 77.2107 152.171 78.9815C151.714 79.5414 151.198 80.1417 150.619 80.8262C148.549 83.5812 143.831 87.2824 143.831 87.2824Z" fill="#824B11"/>
<path d="M143.093 77.1369C140.031 78.9447 136.932 80.3097 134.202 81.5272C130.918 77.5428 130.107 73.5953 130.107 70.9391C130.107 67.3604 130.838 64.5935 132.136 62.1586C134.968 56.846 140.621 53.0232 147.299 52.9723C154.124 52.9353 158.514 56.5877 160.728 59.2071C161.023 60.4245 160.469 60.941 160.469 60.941L160.396 60.1663C160.064 58.543 158.44 57.4362 156.817 57.6576C155.009 57.8421 153.054 60.0556 154.493 62.6381C151.984 63.5235 149.586 64.3721 145.675 66.5856C144.901 67.0242 143.831 68.1351 143.831 68.873C143.646 70.7176 146.635 71.8982 146.782 73.0787C147.004 74.1486 146.155 74.9972 143.093 77.1369Z" fill="#133455"/>
<path d="M143.093 77.1369C140.031 78.9447 136.932 80.3097 134.202 81.5272C130.918 77.5428 130.107 73.5953 130.107 70.9391C130.107 67.3604 130.838 64.5935 132.136 62.1586C134.736 57.2823 139.712 53.6611 145.675 53.0599C145.934 58.6537 151.652 60.2032 151.652 63.6844C149.988 64.3449 148.13 65.1965 145.675 66.5856C144.901 67.0242 143.831 68.1351 143.831 68.873C143.646 70.7176 146.635 71.8982 146.782 73.0787C147.004 74.1486 146.155 74.9972 143.093 77.1369Z" fill="#A03F03"/>
<path d="M143.093 77.1369C140.031 78.9447 136.932 80.3097 134.202 81.5272C130.918 77.5428 130.107 73.5953 130.107 70.9391C130.107 67.3604 130.838 64.5935 132.136 62.1586C133.35 59.8819 135.082 57.8788 137.19 56.3289C137.965 60.0556 145.27 60.7197 145.675 66.5856C144.901 67.0242 143.831 68.1351 143.831 68.873C143.646 70.7176 146.635 71.8982 146.782 73.0787C147.004 74.1486 146.155 74.9972 143.093 77.1369Z" fill="#A0510C"/>
<path d="M143.093 77.1369C140.031 78.9447 136.932 80.3097 134.202 81.5272C130.918 77.5428 130.107 73.5953 130.107 70.9391C130.107 68.0798 130.573 65.7387 131.423 63.6711C135.124 68.2089 141.175 64.4827 143.831 68.873C143.646 70.7176 146.635 71.8982 146.782 73.0787C147.004 74.1486 146.155 74.9972 143.093 77.1369Z" fill="#824B11"/>
<g clip-path="url(#clip1_1396_3805)">
<path d="M153.567 55.0146L153.37 55.4458L152.94 55.6418L153.37 55.8393L153.567 56.2689L153.763 55.8393L154.194 55.6418L153.763 55.4458M151.999 55.485L151.607 56.3473L150.745 56.7393L151.607 57.1313L151.999 57.9936L152.391 57.1313L153.254 56.7393L152.391 56.3473M153.567 57.2097L153.37 57.6393L152.94 57.8368L153.37 58.0328L153.567 58.464L153.763 58.0328L154.194 57.8368L153.763 57.6393" fill="#D8D8D8"/>
</g>
<ellipse cx="466.5" cy="315.5" rx="111.5" ry="55.5" fill="#D9D9D9"/>
<path d="M578.763 398.967L526.168 356.506L546.845 339.382L578.763 398.967Z" fill="#D9D9D9"/>
<path d="M421.427 288V286.704L421.955 286.656C422.264 286.624 422.419 286.475 422.419 286.208V278.768L421.507 278.72V277.36H425.891C427.459 277.36 428.68 277.776 429.555 278.608C430.44 279.44 430.883 280.672 430.883 282.304C430.883 283.317 430.749 284.203 430.483 284.96C430.216 285.707 429.853 286.293 429.395 286.72C428.477 287.573 427.336 288 425.971 288H421.427ZM424.371 278.912V286.464H426.003C426.92 286.464 427.635 286.133 428.147 285.472C428.659 284.811 428.915 283.851 428.915 282.592C428.915 280.139 427.875 278.912 425.795 278.912H424.371ZM435.731 286.832C436.894 286.832 437.475 285.893 437.475 284.016C437.475 283.067 437.342 282.347 437.075 281.856C436.819 281.365 436.382 281.12 435.763 281.12C435.155 281.12 434.707 281.355 434.419 281.824C434.131 282.293 433.987 282.933 433.987 283.744C433.987 285.248 434.265 286.192 434.819 286.576C435.065 286.747 435.369 286.832 435.731 286.832ZM432.051 283.968C432.051 283.179 432.169 282.496 432.403 281.92C432.638 281.333 432.953 280.885 433.347 280.576C434.105 280 434.942 279.712 435.859 279.712C436.499 279.712 437.038 279.819 437.475 280.032C437.923 280.235 438.27 280.475 438.515 280.752C438.771 281.019 438.985 281.413 439.155 281.936C439.337 282.448 439.427 283.056 439.427 283.76C439.427 285.232 439.07 286.347 438.355 287.104C437.641 287.861 436.723 288.24 435.603 288.24C434.494 288.24 433.625 287.883 432.995 287.168C432.366 286.443 432.051 285.376 432.051 283.968ZM440.409 281.232V279.952H443.113V280.992C443.39 280.597 443.758 280.288 444.217 280.064C444.675 279.829 445.171 279.712 445.705 279.712C446.515 279.712 447.139 279.947 447.577 280.416C448.025 280.875 448.249 281.568 448.249 282.496V286.672L449.161 286.72V288H445.353V286.784L445.881 286.736C446.041 286.715 446.158 286.672 446.233 286.608C446.307 286.533 446.345 286.4 446.345 286.208V282.912C446.345 282.325 446.254 281.893 446.073 281.616C445.891 281.328 445.545 281.184 445.033 281.184C444.531 281.184 444.131 281.344 443.833 281.664C443.534 281.984 443.385 282.363 443.385 282.8V286.672L444.297 286.72V288H440.489V286.784L441.017 286.736C441.177 286.715 441.294 286.672 441.369 286.608C441.443 286.533 441.481 286.4 441.481 286.208V281.776C441.481 281.456 441.347 281.291 441.081 281.28L440.409 281.232ZM449.513 277.36H451.001L450.841 281.04H449.673L449.513 277.36ZM454.202 278.256H455.242V279.952H457.37L457.21 281.296H455.242V285.504C455.242 285.973 455.328 286.304 455.498 286.496C455.669 286.677 455.93 286.768 456.282 286.768C456.645 286.768 457.008 286.656 457.37 286.432L457.85 287.664C457.317 288.037 456.64 288.224 455.818 288.224C455.338 288.224 454.933 288.16 454.602 288.032C454.272 287.915 454.026 287.781 453.866 287.632C453.706 287.483 453.584 287.264 453.498 286.976C453.413 286.688 453.365 286.464 453.354 286.304C453.344 286.133 453.338 285.888 453.338 285.568V281.296H452.202L452.362 280.128C452.864 280.085 453.242 279.909 453.498 279.6C453.754 279.28 453.989 278.832 454.202 278.256ZM466.957 280.272H468.509L470.173 286.224H470.205L471.293 281.28L470.477 281.232V279.952H473.693V281.184L473.165 281.216C472.951 281.237 472.807 281.365 472.733 281.6L471.213 288H468.909L467.597 283.232H467.549L466.189 288H463.837L462.221 281.616C462.167 281.467 462.109 281.365 462.045 281.312C461.991 281.259 461.895 281.227 461.757 281.216L461.293 281.184V279.952H464.957V281.232L464.061 281.28L465.165 286.192H465.197L466.957 280.272ZM478.06 286.832C479.222 286.832 479.804 285.893 479.804 284.016C479.804 283.067 479.67 282.347 479.404 281.856C479.148 281.365 478.71 281.12 478.092 281.12C477.484 281.12 477.036 281.355 476.748 281.824C476.46 282.293 476.316 282.933 476.316 283.744C476.316 285.248 476.593 286.192 477.148 286.576C477.393 286.747 477.697 286.832 478.06 286.832ZM474.38 283.968C474.38 283.179 474.497 282.496 474.732 281.92C474.966 281.333 475.281 280.885 475.676 280.576C476.433 280 477.27 279.712 478.188 279.712C478.828 279.712 479.366 279.819 479.804 280.032C480.252 280.235 480.598 280.475 480.844 280.752C481.1 281.019 481.313 281.413 481.484 281.936C481.665 282.448 481.756 283.056 481.756 283.76C481.756 285.232 481.398 286.347 480.684 287.104C479.969 287.861 479.052 288.24 477.932 288.24C476.822 288.24 475.953 287.883 475.324 287.168C474.694 286.443 474.38 285.376 474.38 283.968ZM483.825 286.208V281.776C483.825 281.605 483.793 281.488 483.729 281.424C483.675 281.349 483.574 281.307 483.425 281.296L482.753 281.248V279.952H485.457V281.152C485.649 280.736 485.947 280.395 486.353 280.128C486.758 279.851 487.222 279.712 487.745 279.712C488.278 279.712 488.785 279.829 489.265 280.064V282.448L487.777 282.56V281.824C487.777 281.611 487.723 281.477 487.617 281.424C487.499 281.371 487.355 281.344 487.185 281.344C486.758 281.344 486.406 281.499 486.129 281.808C485.862 282.107 485.729 282.491 485.729 282.96V286.672L487.121 286.736V288H482.833V286.784L483.361 286.736C483.521 286.715 483.638 286.672 483.713 286.608C483.787 286.533 483.825 286.4 483.825 286.208ZM491.215 286.208V281.776C491.215 281.605 491.183 281.488 491.119 281.424C491.066 281.349 490.965 281.307 490.815 281.296L490.143 281.248V279.952H492.847V281.152C493.039 280.736 493.338 280.395 493.743 280.128C494.149 279.851 494.613 279.712 495.135 279.712C495.669 279.712 496.175 279.829 496.655 280.064V282.448L495.167 282.56V281.824C495.167 281.611 495.114 281.477 495.007 281.424C494.89 281.371 494.746 281.344 494.575 281.344C494.149 281.344 493.797 281.499 493.519 281.808C493.253 282.107 493.119 282.491 493.119 282.96V286.672L494.511 286.736V288H490.223V286.784L490.751 286.736C490.911 286.715 491.029 286.672 491.103 286.608C491.178 286.533 491.215 286.4 491.215 286.208ZM503.502 287.696V286.48C502.915 287.312 502.051 287.728 500.91 287.728C499.257 287.728 498.43 286.805 498.43 284.96V281.744C498.43 281.456 498.297 281.307 498.03 281.296L497.518 281.264V279.952H500.334V284.544C500.334 285.109 500.414 285.536 500.574 285.824C500.734 286.112 501.065 286.256 501.566 286.256C502.067 286.256 502.467 286.101 502.766 285.792C503.075 285.483 503.23 285.109 503.23 284.672V281.776C503.23 281.595 503.198 281.472 503.134 281.408C503.081 281.333 502.979 281.296 502.83 281.296L502.318 281.264V279.952H505.134V287.696C505.134 288.987 504.819 289.931 504.19 290.528C503.571 291.125 502.627 291.424 501.358 291.424C500.099 291.424 499.118 291.248 498.414 290.896V288.672L499.934 288.544V289.312C499.934 289.6 500.067 289.792 500.334 289.888C500.601 289.995 500.969 290.048 501.438 290.048C502.814 290.048 503.502 289.264 503.502 287.696ZM509.49 286.736L507.842 290.48L506.834 290.176L507.33 286.928C507.404 286.395 507.666 286.128 508.114 286.128C508.338 286.128 508.508 286.165 508.626 286.24C508.754 286.304 508.855 286.357 508.93 286.4C509.015 286.443 509.074 286.475 509.106 286.496C509.138 286.517 509.202 286.56 509.298 286.624C509.394 286.677 509.458 286.715 509.49 286.736ZM415.528 301.712C416.328 301.712 416.963 301.909 417.432 302.304C417.902 302.688 418.136 303.232 418.136 303.936C418.136 304.405 418.035 304.821 417.832 305.184C417.63 305.536 417.379 305.813 417.08 306.016C416.782 306.219 416.419 306.384 415.992 306.512C415.278 306.725 414.472 306.832 413.576 306.832C413.608 307.397 413.784 307.856 414.104 308.208C414.424 308.549 414.915 308.72 415.576 308.72C416.238 308.72 416.899 308.485 417.56 308.016L418.168 309.312C417.955 309.504 417.592 309.701 417.08 309.904C416.579 310.107 416.003 310.208 415.352 310.208C414.051 310.208 413.096 309.851 412.488 309.136C411.88 308.411 411.576 307.419 411.576 306.16C411.576 304.901 411.923 303.845 412.616 302.992C413.31 302.139 414.28 301.712 415.528 301.712ZM414.792 305.376C415.187 305.301 415.55 305.147 415.88 304.912C416.211 304.667 416.376 304.379 416.376 304.048C416.376 303.397 416.056 303.072 415.416 303.072C414.819 303.072 414.36 303.312 414.04 303.792C413.72 304.261 413.544 304.827 413.512 305.488C413.982 305.477 414.408 305.44 414.792 305.376ZM424.126 301.952H427.502V303.2L427.006 303.232C426.793 303.253 426.649 303.381 426.574 303.616L424.51 310H422.062L419.822 303.632C419.769 303.483 419.71 303.381 419.646 303.328C419.593 303.275 419.497 303.243 419.358 303.232L418.894 303.2V301.952H422.654V303.232L421.678 303.28L423.326 308.544H423.358L424.958 303.28L424.126 303.232V301.952ZM432.2 301.712C433 301.712 433.635 301.909 434.104 302.304C434.574 302.688 434.808 303.232 434.808 303.936C434.808 304.405 434.707 304.821 434.504 305.184C434.302 305.536 434.051 305.813 433.752 306.016C433.454 306.219 433.091 306.384 432.664 306.512C431.95 306.725 431.144 306.832 430.248 306.832C430.28 307.397 430.456 307.856 430.776 308.208C431.096 308.549 431.587 308.72 432.248 308.72C432.91 308.72 433.571 308.485 434.232 308.016L434.84 309.312C434.627 309.504 434.264 309.701 433.752 309.904C433.251 310.107 432.675 310.208 432.024 310.208C430.723 310.208 429.768 309.851 429.16 309.136C428.552 308.411 428.248 307.419 428.248 306.16C428.248 304.901 428.595 303.845 429.288 302.992C429.982 302.139 430.952 301.712 432.2 301.712ZM431.464 305.376C431.859 305.301 432.222 305.147 432.552 304.912C432.883 304.667 433.048 304.379 433.048 304.048C433.048 303.397 432.728 303.072 432.088 303.072C431.491 303.072 431.032 303.312 430.712 303.792C430.392 304.261 430.216 304.827 430.184 305.488C430.654 305.477 431.08 305.44 431.464 305.376ZM435.838 303.232V301.952H438.542V302.992C438.82 302.597 439.188 302.288 439.646 302.064C440.105 301.829 440.601 301.712 441.134 301.712C441.945 301.712 442.569 301.947 443.006 302.416C443.454 302.875 443.678 303.568 443.678 304.496V308.672L444.59 308.72V310H440.782V308.784L441.31 308.736C441.47 308.715 441.588 308.672 441.662 308.608C441.737 308.533 441.774 308.4 441.774 308.208V304.912C441.774 304.325 441.684 303.893 441.502 303.616C441.321 303.328 440.974 303.184 440.462 303.184C439.961 303.184 439.561 303.344 439.262 303.664C438.964 303.984 438.814 304.363 438.814 304.8V308.672L439.726 308.72V310H435.918V308.784L436.446 308.736C436.606 308.715 436.724 308.672 436.798 308.608C436.873 308.533 436.91 308.4 436.91 308.208V303.776C436.91 303.456 436.777 303.291 436.51 303.28L435.838 303.232ZM450.507 300.256H451.547V301.952H453.675L453.515 303.296H451.547V307.504C451.547 307.973 451.632 308.304 451.803 308.496C451.974 308.677 452.235 308.768 452.587 308.768C452.95 308.768 453.312 308.656 453.675 308.432L454.155 309.664C453.622 310.037 452.944 310.224 452.123 310.224C451.643 310.224 451.238 310.16 450.907 310.032C450.576 309.915 450.331 309.781 450.171 309.632C450.011 309.483 449.888 309.264 449.803 308.976C449.718 308.688 449.67 308.464 449.659 308.304C449.648 308.133 449.643 307.888 449.643 307.568V303.296H448.507L448.667 302.128C449.168 302.085 449.547 301.909 449.803 301.6C450.059 301.28 450.294 300.832 450.507 300.256ZM455.738 308.208V300.416C455.738 300.245 455.706 300.128 455.642 300.064C455.589 300 455.488 299.963 455.338 299.952L454.778 299.92V298.592H457.626V302.896C458.181 302.107 458.96 301.712 459.962 301.712C460.773 301.712 461.397 301.947 461.834 302.416C462.282 302.875 462.506 303.568 462.506 304.496V308.672L463.418 308.72V310H459.61V308.784L460.138 308.736C460.298 308.715 460.416 308.672 460.49 308.608C460.565 308.533 460.602 308.4 460.602 308.208V304.912C460.602 304.357 460.512 303.931 460.33 303.632C460.16 303.333 459.818 303.184 459.306 303.184C458.805 303.184 458.4 303.344 458.09 303.664C457.792 303.973 457.642 304.352 457.642 304.8V308.672L458.554 308.72V310H454.746V308.784L455.274 308.736C455.434 308.715 455.552 308.672 455.626 308.608C455.701 308.533 455.738 308.4 455.738 308.208ZM468.372 301.712C469.172 301.712 469.807 301.909 470.276 302.304C470.745 302.688 470.98 303.232 470.98 303.936C470.98 304.405 470.879 304.821 470.676 305.184C470.473 305.536 470.223 305.813 469.924 306.016C469.625 306.219 469.263 306.384 468.836 306.512C468.121 306.725 467.316 306.832 466.42 306.832C466.452 307.397 466.628 307.856 466.948 308.208C467.268 308.549 467.759 308.72 468.42 308.72C469.081 308.72 469.743 308.485 470.404 308.016L471.012 309.312C470.799 309.504 470.436 309.701 469.924 309.904C469.423 310.107 468.847 310.208 468.196 310.208C466.895 310.208 465.94 309.851 465.332 309.136C464.724 308.411 464.42 307.419 464.42 306.16C464.42 304.901 464.767 303.845 465.46 302.992C466.153 302.139 467.124 301.712 468.372 301.712ZM467.636 305.376C468.031 305.301 468.393 305.147 468.724 304.912C469.055 304.667 469.22 304.379 469.22 304.048C469.22 303.397 468.9 303.072 468.26 303.072C467.663 303.072 467.204 303.312 466.884 303.792C466.564 304.261 466.388 304.827 466.356 305.488C466.825 305.477 467.252 305.44 467.636 305.376ZM479.325 301.712C479.784 301.712 480.221 301.776 480.637 301.904V300.288C480.637 300.053 480.499 299.925 480.221 299.904L479.533 299.856V298.592H482.509V308.32C482.52 308.565 482.653 308.688 482.909 308.688L483.469 308.72V310H480.877V309.056L480.829 309.04C480.349 309.819 479.624 310.208 478.653 310.208C477.437 310.208 476.584 309.803 476.093 308.992C475.645 308.256 475.421 307.355 475.421 306.288C475.421 304.901 475.763 303.792 476.445 302.96C477.139 302.128 478.099 301.712 479.325 301.712ZM480.637 307.504V303.36C480.253 303.189 479.848 303.104 479.421 303.104C478.717 303.104 478.2 303.387 477.869 303.952C477.549 304.517 477.389 305.237 477.389 306.112C477.389 307.904 477.965 308.8 479.117 308.8C479.555 308.8 479.917 308.677 480.205 308.432C480.493 308.176 480.637 307.867 480.637 307.504ZM488.419 301.712C489.219 301.712 489.854 301.909 490.323 302.304C490.792 302.688 491.027 303.232 491.027 303.936C491.027 304.405 490.926 304.821 490.723 305.184C490.52 305.536 490.27 305.813 489.971 306.016C489.672 306.219 489.31 306.384 488.883 306.512C488.168 306.725 487.363 306.832 486.467 306.832C486.499 307.397 486.675 307.856 486.995 308.208C487.315 308.549 487.806 308.72 488.467 308.72C489.128 308.72 489.79 308.485 490.451 308.016L491.059 309.312C490.846 309.504 490.483 309.701 489.971 309.904C489.47 310.107 488.894 310.208 488.243 310.208C486.942 310.208 485.987 309.851 485.379 309.136C484.771 308.411 484.467 307.419 484.467 306.16C484.467 304.901 484.814 303.845 485.507 302.992C486.2 302.139 487.171 301.712 488.419 301.712ZM487.683 305.376C488.078 305.301 488.44 305.147 488.771 304.912C489.102 304.667 489.267 304.379 489.267 304.048C489.267 303.397 488.947 303.072 488.307 303.072C487.71 303.072 487.251 303.312 486.931 303.792C486.611 304.261 486.435 304.827 486.403 305.488C486.872 305.477 487.299 305.44 487.683 305.376ZM496.345 303.168C496.089 303.072 495.78 303.024 495.417 303.024C495.054 303.024 494.761 303.109 494.537 303.28C494.324 303.44 494.217 303.643 494.217 303.888C494.217 304.123 494.254 304.309 494.329 304.448C494.414 304.576 494.542 304.688 494.713 304.784C494.98 304.923 495.3 305.045 495.673 305.152C496.046 305.248 496.324 305.328 496.505 305.392C496.686 305.445 496.91 305.541 497.177 305.68C497.454 305.819 497.662 305.968 497.801 306.128C498.174 306.523 498.361 307.029 498.361 307.648C498.361 308.448 498.068 309.077 497.481 309.536C496.905 309.984 496.169 310.208 495.273 310.208C493.972 310.208 492.99 310.043 492.329 309.712V307.488L493.769 307.376V308.144C493.769 308.613 494.217 308.848 495.113 308.848C496.009 308.848 496.457 308.523 496.457 307.872C496.457 307.637 496.377 307.445 496.217 307.296C496.068 307.147 495.918 307.045 495.769 306.992C495.62 306.939 495.438 306.885 495.225 306.832C495.022 306.779 494.82 306.725 494.617 306.672C494.425 306.619 494.212 306.549 493.977 306.464C493.753 306.368 493.502 306.235 493.225 306.064C492.681 305.712 492.409 305.125 492.409 304.304C492.409 303.472 492.702 302.832 493.289 302.384C493.876 301.936 494.612 301.712 495.497 301.712C496.393 301.712 497.278 301.925 498.153 302.352V304.272L496.713 304.384V303.712C496.713 303.445 496.59 303.264 496.345 303.168ZM503.388 301.712C504.188 301.712 504.822 301.909 505.292 302.304C505.761 302.688 505.996 303.232 505.996 303.936C505.996 304.405 505.894 304.821 505.692 305.184C505.489 305.536 505.238 305.813 504.94 306.016C504.641 306.219 504.278 306.384 503.852 306.512C503.137 306.725 502.332 306.832 501.436 306.832C501.468 307.397 501.644 307.856 501.964 308.208C502.284 308.549 502.774 308.72 503.436 308.72C504.097 308.72 504.758 308.485 505.42 308.016L506.028 309.312C505.814 309.504 505.452 309.701 504.94 309.904C504.438 310.107 503.862 310.208 503.212 310.208C501.91 310.208 500.956 309.851 500.348 309.136C499.74 308.411 499.436 307.419 499.436 306.16C499.436 304.901 499.782 303.845 500.476 302.992C501.169 302.139 502.14 301.712 503.388 301.712ZM502.652 305.376C503.046 305.301 503.409 305.147 503.74 304.912C504.07 304.667 504.236 304.379 504.236 304.048C504.236 303.397 503.916 303.072 503.276 303.072C502.678 303.072 502.22 303.312 501.9 303.792C501.58 304.261 501.404 304.827 501.372 305.488C501.841 305.477 502.268 305.44 502.652 305.376ZM508.114 308.208V303.776C508.114 303.605 508.082 303.488 508.018 303.424C507.964 303.349 507.863 303.307 507.714 303.296L507.042 303.248V301.952H509.746V303.152C509.938 302.736 510.236 302.395 510.642 302.128C511.047 301.851 511.511 301.712 512.034 301.712C512.567 301.712 513.074 301.829 513.554 302.064V304.448L512.066 304.56V303.824C512.066 303.611 512.012 303.477 511.906 303.424C511.788 303.371 511.644 303.344 511.474 303.344C511.047 303.344 510.695 303.499 510.418 303.808C510.151 304.107 510.018 304.491 510.018 304.96V308.672L511.41 308.736V310H507.122V308.784L507.65 308.736C507.81 308.715 507.927 308.672 508.002 308.608C508.076 308.533 508.114 308.4 508.114 308.208ZM516.288 300.256H517.328V301.952H519.456L519.296 303.296H517.328V307.504C517.328 307.973 517.414 308.304 517.584 308.496C517.755 308.677 518.016 308.768 518.368 308.768C518.731 308.768 519.094 308.656 519.456 308.432L519.936 309.664C519.403 310.037 518.726 310.224 517.904 310.224C517.424 310.224 517.019 310.16 516.688 310.032C516.358 309.915 516.112 309.781 515.952 309.632C515.792 309.483 515.67 309.264 515.584 308.976C515.499 308.688 515.451 308.464 515.44 308.304C515.43 308.133 515.424 307.888 515.424 307.568V303.296H514.288L514.448 302.128C514.95 302.085 515.328 301.909 515.584 301.6C515.84 301.28 516.075 300.832 516.288 300.256ZM440.912 331.52V322.336C440.912 322.091 440.778 321.963 440.512 321.952L439.952 321.92V320.592H442.768V324.384C443.248 323.936 443.893 323.712 444.704 323.712C445.706 323.712 446.501 324.053 447.088 324.736C447.674 325.408 447.968 326.357 447.968 327.584C447.968 330.667 446.677 332.208 444.096 332.208C443.541 332.208 442.954 332.139 442.336 332C441.728 331.872 441.253 331.712 440.912 331.52ZM442.768 326.336V330.48C443.173 330.693 443.642 330.8 444.176 330.8C445.392 330.8 446 329.813 446 327.84C446 326.037 445.402 325.136 444.208 325.136C443.824 325.136 443.488 325.248 443.2 325.472C442.912 325.696 442.768 325.984 442.768 326.336ZM451.962 320.592V330.672L452.874 330.72V332H449.066V330.784L449.594 330.736C449.904 330.704 450.058 330.533 450.058 330.224V322.336C450.058 322.101 449.925 321.973 449.658 321.952L449.098 321.92V320.592H451.962ZM457.544 330.832C458.707 330.832 459.288 329.893 459.288 328.016C459.288 327.067 459.155 326.347 458.888 325.856C458.632 325.365 458.195 325.12 457.576 325.12C456.968 325.12 456.52 325.355 456.232 325.824C455.944 326.293 455.8 326.933 455.8 327.744C455.8 329.248 456.077 330.192 456.632 330.576C456.877 330.747 457.181 330.832 457.544 330.832ZM453.864 327.968C453.864 327.179 453.981 326.496 454.216 325.92C454.451 325.333 454.765 324.885 455.16 324.576C455.917 324 456.755 323.712 457.672 323.712C458.312 323.712 458.851 323.819 459.288 324.032C459.736 324.235 460.083 324.475 460.328 324.752C460.584 325.019 460.797 325.413 460.968 325.936C461.149 326.448 461.24 327.056 461.24 327.76C461.24 329.232 460.883 330.347 460.168 331.104C459.453 331.861 458.536 332.24 457.416 332.24C456.307 332.24 455.437 331.883 454.808 331.168C454.179 330.443 453.864 329.376 453.864 327.968ZM465.997 330.832C467.16 330.832 467.741 329.893 467.741 328.016C467.741 327.067 467.608 326.347 467.341 325.856C467.085 325.365 466.648 325.12 466.029 325.12C465.421 325.12 464.973 325.355 464.685 325.824C464.397 326.293 464.253 326.933 464.253 327.744C464.253 329.248 464.53 330.192 465.085 330.576C465.33 330.747 465.634 330.832 465.997 330.832ZM462.317 327.968C462.317 327.179 462.434 326.496 462.669 325.92C462.904 325.333 463.218 324.885 463.613 324.576C464.37 324 465.208 323.712 466.125 323.712C466.765 323.712 467.304 323.819 467.741 324.032C468.189 324.235 468.536 324.475 468.781 324.752C469.037 325.019 469.25 325.413 469.421 325.936C469.602 326.448 469.693 327.056 469.693 327.76C469.693 329.232 469.336 330.347 468.621 331.104C467.906 331.861 466.989 332.24 465.869 332.24C464.76 332.24 463.89 331.883 463.261 331.168C462.632 330.443 462.317 329.376 462.317 327.968ZM470.674 325.248V323.952H473.378V324.992C473.976 324.139 474.792 323.712 475.826 323.712C476.872 323.712 477.576 324.139 477.938 324.992C478.536 324.139 479.346 323.712 480.37 323.712C481.138 323.712 481.73 323.947 482.146 324.416C482.562 324.875 482.77 325.568 482.77 326.496V330.672L483.682 330.72V332H479.874V330.784L480.402 330.736C480.562 330.715 480.674 330.672 480.738 330.608C480.813 330.533 480.856 330.405 480.866 330.224V326.912C480.866 326.325 480.797 325.893 480.658 325.616C480.53 325.328 480.221 325.184 479.73 325.184C479.24 325.184 478.861 325.333 478.594 325.632C478.338 325.931 478.21 326.331 478.21 326.832V330.672L479.09 330.72V332H475.314V330.784L475.842 330.736C476.002 330.715 476.12 330.672 476.194 330.608C476.269 330.533 476.306 330.4 476.306 330.208V326.912C476.306 326.325 476.237 325.893 476.098 325.616C475.97 325.328 475.656 325.184 475.154 325.184C474.664 325.184 474.29 325.339 474.034 325.648C473.778 325.957 473.65 326.341 473.65 326.8V330.672L474.514 330.72V332H470.738V330.784L471.266 330.736C471.426 330.715 471.544 330.672 471.618 330.608C471.693 330.533 471.73 330.4 471.73 330.208H471.746V325.792C471.746 325.611 471.714 325.488 471.65 325.424C471.597 325.349 471.496 325.307 471.346 325.296L470.674 325.248ZM488.822 325.168C488.566 325.072 488.256 325.024 487.894 325.024C487.531 325.024 487.238 325.109 487.014 325.28C486.8 325.44 486.694 325.643 486.694 325.888C486.694 326.123 486.731 326.309 486.806 326.448C486.891 326.576 487.019 326.688 487.19 326.784C487.456 326.923 487.776 327.045 488.15 327.152C488.523 327.248 488.8 327.328 488.982 327.392C489.163 327.445 489.387 327.541 489.654 327.68C489.931 327.819 490.139 327.968 490.278 328.128C490.651 328.523 490.838 329.029 490.838 329.648C490.838 330.448 490.544 331.077 489.958 331.536C489.382 331.984 488.646 332.208 487.75 332.208C486.448 332.208 485.467 332.043 484.806 331.712V329.488L486.246 329.376V330.144C486.246 330.613 486.694 330.848 487.59 330.848C488.486 330.848 488.934 330.523 488.934 329.872C488.934 329.637 488.854 329.445 488.694 329.296C488.544 329.147 488.395 329.045 488.246 328.992C488.096 328.939 487.915 328.885 487.702 328.832C487.499 328.779 487.296 328.725 487.094 328.672C486.902 328.619 486.688 328.549 486.454 328.464C486.23 328.368 485.979 328.235 485.702 328.064C485.158 327.712 484.886 327.125 484.886 326.304C484.886 325.472 485.179 324.832 485.766 324.384C486.352 323.936 487.088 323.712 487.974 323.712C488.87 323.712 489.755 323.925 490.63 324.352V326.272L489.19 326.384V325.712C489.19 325.445 489.067 325.264 488.822 325.168ZM429.661 345.712C430.461 345.712 431.096 345.909 431.565 346.304C432.035 346.688 432.269 347.232 432.269 347.936C432.269 348.405 432.168 348.821 431.965 349.184C431.763 349.536 431.512 349.813 431.213 350.016C430.915 350.219 430.552 350.384 430.125 350.512C429.411 350.725 428.605 350.832 427.709 350.832C427.741 351.397 427.917 351.856 428.237 352.208C428.557 352.549 429.048 352.72 429.709 352.72C430.371 352.72 431.032 352.485 431.693 352.016L432.301 353.312C432.088 353.504 431.725 353.701 431.213 353.904C430.712 354.107 430.136 354.208 429.485 354.208C428.184 354.208 427.229 353.851 426.621 353.136C426.013 352.411 425.709 351.419 425.709 350.16C425.709 348.901 426.056 347.845 426.749 346.992C427.443 346.139 428.413 345.712 429.661 345.712ZM428.925 349.376C429.32 349.301 429.683 349.147 430.013 348.912C430.344 348.667 430.509 348.379 430.509 348.048C430.509 347.397 430.189 347.072 429.549 347.072C428.952 347.072 428.493 347.312 428.173 347.792C427.853 348.261 427.677 348.827 427.645 349.488C428.115 349.477 428.541 349.44 428.925 349.376ZM438.259 345.952H441.635V347.2L441.139 347.232C440.926 347.253 440.782 347.381 440.707 347.616L438.643 354H436.195L433.955 347.632C433.902 347.483 433.843 347.381 433.779 347.328C433.726 347.275 433.63 347.243 433.491 347.232L433.027 347.2V345.952H436.787V347.232L435.811 347.28L437.459 352.544H437.491L439.091 347.28L438.259 347.232V345.952ZM446.333 345.712C447.133 345.712 447.768 345.909 448.237 346.304C448.706 346.688 448.941 347.232 448.941 347.936C448.941 348.405 448.84 348.821 448.637 349.184C448.434 349.536 448.184 349.813 447.885 350.016C447.586 350.219 447.224 350.384 446.797 350.512C446.082 350.725 445.277 350.832 444.381 350.832C444.413 351.397 444.589 351.856 444.909 352.208C445.229 352.549 445.72 352.72 446.381 352.72C447.042 352.72 447.704 352.485 448.365 352.016L448.973 353.312C448.76 353.504 448.397 353.701 447.885 353.904C447.384 354.107 446.808 354.208 446.157 354.208C444.856 354.208 443.901 353.851 443.293 353.136C442.685 352.411 442.381 351.419 442.381 350.16C442.381 348.901 442.728 347.845 443.421 346.992C444.114 346.139 445.085 345.712 446.333 345.712ZM445.597 349.376C445.992 349.301 446.354 349.147 446.685 348.912C447.016 348.667 447.181 348.379 447.181 348.048C447.181 347.397 446.861 347.072 446.221 347.072C445.624 347.072 445.165 347.312 444.845 347.792C444.525 348.261 444.349 348.827 444.317 349.488C444.786 349.477 445.213 349.44 445.597 349.376ZM449.971 347.232V345.952H452.675V346.992C452.952 346.597 453.32 346.288 453.779 346.064C454.238 345.829 454.734 345.712 455.267 345.712C456.078 345.712 456.702 345.947 457.139 346.416C457.587 346.875 457.811 347.568 457.811 348.496V352.672L458.723 352.72V354H454.915V352.784L455.443 352.736C455.603 352.715 455.72 352.672 455.795 352.608C455.87 352.533 455.907 352.4 455.907 352.208V348.912C455.907 348.325 455.816 347.893 455.635 347.616C455.454 347.328 455.107 347.184 454.595 347.184C454.094 347.184 453.694 347.344 453.395 347.664C453.096 347.984 452.947 348.363 452.947 348.8V352.672L453.859 352.72V354H450.051V352.784L450.579 352.736C450.739 352.715 450.856 352.672 450.931 352.608C451.006 352.533 451.043 352.4 451.043 352.208V347.776C451.043 347.456 450.91 347.291 450.643 347.28L449.971 347.232ZM460.796 344.256H461.836V345.952H463.964L463.804 347.296H461.836V351.504C461.836 351.973 461.922 352.304 462.092 352.496C462.263 352.677 462.524 352.768 462.876 352.768C463.239 352.768 463.602 352.656 463.964 352.432L464.444 353.664C463.911 354.037 463.234 354.224 462.412 354.224C461.932 354.224 461.527 354.16 461.196 354.032C460.866 353.915 460.62 353.781 460.46 353.632C460.3 353.483 460.178 353.264 460.092 352.976C460.007 352.688 459.959 352.464 459.948 352.304C459.938 352.133 459.932 351.888 459.932 351.568V347.296H458.796L458.956 346.128C459.458 346.085 459.836 345.909 460.092 345.6C460.348 345.28 460.583 344.832 460.796 344.256ZM473.219 352.736V354H470.627V352.96C470.04 353.792 469.176 354.208 468.035 354.208C466.382 354.208 465.555 353.285 465.555 351.44V347.744C465.555 347.456 465.422 347.307 465.155 347.296L464.643 347.264V345.952H467.459V351.024C467.459 351.589 467.539 352.016 467.699 352.304C467.859 352.592 468.19 352.736 468.691 352.736C469.192 352.736 469.592 352.581 469.891 352.272C470.2 351.963 470.355 351.589 470.355 351.152V347.776C470.355 347.605 470.323 347.488 470.259 347.424C470.206 347.349 470.104 347.307 469.955 347.296L469.443 347.264V345.952H472.259V352.224C472.259 352.395 472.286 352.512 472.339 352.576C472.392 352.629 472.499 352.667 472.659 352.688L473.219 352.736ZM481.376 346.272V352.224C481.376 352.395 481.403 352.512 481.456 352.576C481.52 352.64 481.627 352.677 481.776 352.688L482.288 352.72V354H479.744V353.072L479.696 353.056C479.163 353.824 478.432 354.208 477.504 354.208C476.416 354.208 475.611 353.861 475.088 353.168C474.565 352.475 474.304 351.525 474.304 350.32C474.304 348.869 474.656 347.739 475.36 346.928C476.064 346.117 477.12 345.712 478.528 345.712C479.435 345.712 480.384 345.899 481.376 346.272ZM479.52 351.456V347.312C479.221 347.173 478.811 347.104 478.288 347.104C477.573 347.104 477.056 347.392 476.736 347.968C476.416 348.544 476.256 349.307 476.256 350.256C476.256 351.984 476.811 352.848 477.92 352.848C478.389 352.848 478.773 352.709 479.072 352.432C479.371 352.144 479.52 351.819 479.52 351.456ZM486.134 342.592V352.672L487.046 352.72V354H483.238V352.784L483.766 352.736C484.076 352.704 484.23 352.533 484.23 352.224V344.336C484.23 344.101 484.097 343.973 483.83 343.952L483.27 343.92V342.592H486.134ZM490.9 342.592V352.672L491.812 352.72V354H488.004V352.784L488.532 352.736C488.841 352.704 488.996 352.533 488.996 352.224V344.336C488.996 344.101 488.862 343.973 488.596 343.952L488.036 343.92V342.592H490.9ZM498.689 353.696V352.48C498.103 353.312 497.239 353.728 496.097 353.728C494.444 353.728 493.617 352.805 493.617 350.96V347.744C493.617 347.456 493.484 347.307 493.217 347.296L492.705 347.264V345.952H495.521V350.544C495.521 351.109 495.601 351.536 495.761 351.824C495.921 352.112 496.252 352.256 496.753 352.256C497.255 352.256 497.655 352.101 497.953 351.792C498.263 351.483 498.417 351.109 498.417 350.672V347.776C498.417 347.595 498.385 347.472 498.321 347.408C498.268 347.333 498.167 347.296 498.017 347.296L497.505 347.264V345.952H500.321V353.696C500.321 354.987 500.007 355.931 499.377 356.528C498.759 357.125 497.815 357.424 496.545 357.424C495.287 357.424 494.305 357.248 493.601 356.896V354.672L495.121 354.544V355.312C495.121 355.6 495.255 355.792 495.521 355.888C495.788 355.995 496.156 356.048 496.625 356.048C498.001 356.048 498.689 355.264 498.689 353.696ZM502.789 345.536V343.632C502.789 343.131 503.088 342.88 503.685 342.88C504.283 342.88 504.581 343.141 504.581 343.664V345.536L504.261 351.12H503.125L502.789 345.536ZM503.653 354.272C503.323 354.272 503.056 354.171 502.853 353.968C502.661 353.765 502.565 353.515 502.565 353.216C502.565 352.917 502.667 352.667 502.869 352.464C503.072 352.251 503.333 352.144 503.653 352.144C503.984 352.144 504.251 352.245 504.453 352.448C504.656 352.64 504.757 352.885 504.757 353.184C504.757 353.483 504.656 353.739 504.453 353.952C504.261 354.165 503.995 354.272 503.653 354.272Z" fill="black"/>
</g>
<defs>
<linearGradient id="paint0_linear_1396_3805" x1="450" y1="0" x2="450" y2="600" gradientUnits="userSpaceOnUse">
<stop stop-color="#1D9DBE"/>
<stop offset="1" stop-color="#F7C59F"/>
</linearGradient>
<linearGradient id="paint1_linear_1396_3805" x1="148" y1="75" x2="179.5" y2="57.5" gradientUnits="userSpaceOnUse">
<stop offset="0.277153" stop-color="#2A5C68"/>
<stop offset="1" stop-color="#2B1E36"/>
</linearGradient>
<clipPath id="clip0_1396_3805">
<rect width="900" height="600" fill="white"/>
</clipPath>
<clipPath id="clip1_1396_3805">
<rect width="3.59929" height="3.59929" fill="white" transform="translate(150.596 54.8643)"/>
</clipPath>
</defs>
</svg>
