<svg width="900" height="600" viewBox="0 0 900 600" fill="none" xmlns="http://www.w3.org/2000/svg">
<g clip-path="url(#clip0_1273_4097)">
<path d="M900 0H0V600H900V0Z" fill="url(#paint0_linear_1273_4097)"/>
<path d="M0 360L21.5 363C43 366 86 372 128.8 379.2C171.7 386.3 214.3 394.7 257.2 398.7C300 402.7 343 402.3 385.8 404.7C428.7 407 471.3 412 514.2 406C557 400 600 383 642.8 387.3C685.7 391.7 728.3 417.3 771.2 417.3C814 417.3 857 391.7 878.5 378.8L900 366V601H878.5C857 601 814 601 771.2 601C728.3 601 685.7 601 642.8 601C600 601 557 601 514.2 601C471.3 601 428.7 601 385.8 601C343 601 300 601 257.2 601C214.3 601 171.7 601 128.8 601C86 601 43 601 21.5 601H0V360Z" fill="#BE8961"/>
<path d="M0 407L21.5 413.7C43 420.3 86 433.7 128.8 438.2C171.7 442.7 214.3 438.3 257.2 438.2C300 438 343 442 385.8 436.2C428.7 430.3 471.3 414.7 514.2 413.2C557 411.7 600 424.3 642.8 426C685.7 427.7 728.3 418.3 771.2 421C814 423.7 857 438.3 878.5 445.7L900 453V601H878.5C857 601 814 601 771.2 601C728.3 601 685.7 601 642.8 601C600 601 557 601 514.2 601C471.3 601 428.7 601 385.8 601C343 601 300 601 257.2 601C214.3 601 171.7 601 128.8 601C86 601 43 601 21.5 601H0V407Z" fill="#FFA968"/>
<path d="M0 484L21.5 484.7C43 485.3 86 486.7 128.8 485C171.7 483.3 214.3 478.7 257.2 470.3C300 462 343 450 385.8 454.7C428.7 459.3 471.3 480.7 514.2 482.3C557 484 600 466 642.8 455.8C685.7 445.7 728.3 443.3 771.2 451.8C814 460.3 857 479.7 878.5 489.3L900 499V601H878.5C857 601 814 601 771.2 601C728.3 601 685.7 601 642.8 601C600 601 557 601 514.2 601C471.3 601 428.7 601 385.8 601C343 601 300 601 257.2 601C214.3 601 171.7 601 128.8 601C86 601 43 601 21.5 601H0V484Z" fill="#2A5C68"/>
<path d="M0 510L21.5 510.8C43 511.7 86 513.3 128.8 516.2C171.7 519 214.3 523 257.2 519.3C300 515.7 343 504.3 385.8 504.7C428.7 505 471.3 517 514.2 521.5C557 526 600 523 642.8 524.2C685.7 525.3 728.3 530.7 771.2 528.8C814 527 857 518 878.5 513.5L900 509V601H878.5C857 601 814 601 771.2 601C728.3 601 685.7 601 642.8 601C600 601 557 601 514.2 601C471.3 601 428.7 601 385.8 601C343 601 300 601 257.2 601C214.3 601 171.7 601 128.8 601C86 601 43 601 21.5 601H0V510Z" fill="#F6A478"/>
<path d="M0 573.999L21.5 568.199C43 562.299 86 550.699 128.8 548.199C171.7 545.699 214.3 552.299 257.2 554.499C300 556.699 343 554.299 385.8 556.199C428.7 557.999 471.3 563.999 514.2 565.699C557 567.299 600 564.699 642.8 564.199C685.7 563.699 728.3 565.299 771.2 565.499C814 565.699 857 564.299 878.5 563.699L900 562.999V600.999H878.5C857 600.999 814 600.999 771.2 600.999C728.3 600.999 685.7 600.999 642.8 600.999C600 600.999 557 600.999 514.2 600.999C471.3 600.999 428.7 600.999 385.8 600.999C343 600.999 300 600.999 257.2 600.999C214.3 600.999 171.7 600.999 128.8 600.999C86 600.999 43 600.999 21.5 600.999H0V573.999Z" fill="#F7C59F"/>
<path d="M761.841 481.887C801.758 487.982 804.511 494.505 807.256 499.484C808.446 500.655 812.115 504.079 813.402 500.784C814.179 498.796 813.304 493.079 797.055 486.49C790.742 484.645 743.82 479.136 761.841 481.887Z" fill="white"/>
<path d="M816.671 522.519C818.921 540.794 816.364 542.745 814.493 544.518C814.121 545.175 813.055 547.179 814.678 547.373C815.659 547.49 818.09 546.457 819 538.554C819.035 535.563 815.656 514.269 816.671 522.519Z" fill="white"/>
<path d="M695.191 504.915C735.89 503.279 728.769 504.915 734.304 504.915C739.84 504.915 742.938 508.759 741.468 504.915C739.997 501.071 733.328 502.593 731.006 502.593C724.467 501.85 676.816 505.653 695.191 504.915Z" fill="white"/>
<path d="M807.112 515.882C805.968 511.669 804.077 508.029 801.641 504.96M801.641 504.96C786.131 485.424 748.491 489.064 740.443 515.882C744.976 533.82 759.719 564.59 782.425 544.163C805.131 523.737 796.518 507.395 789.373 501.777C780.738 501.334 768.694 502.232 760.029 506.285M801.641 504.96C817.162 508.142 801.051 544.163 792.181 555.519C783.312 566.875 768.455 565.573 752.121 532.301C745.37 518.55 750.769 510.616 760.029 506.285M780.06 495.34C761.286 508.408 728.483 538.015 747.464 551.903C771.19 569.262 765.129 522.654 760.029 506.285M766.09 498.088C734.899 495.34 723.635 554.073 747.464 561.016C774.442 573.819 809.209 545.542 801.641 527.31C801.74 513.005 795.788 486.584 771.19 495.34" stroke="#562E2E" stroke-width="3"/>
<path d="M795.09 557.431C798.791 555.007 801.698 552.077 803.875 548.827M803.875 548.827C817.734 528.136 802.016 494.47 773.483 495.71C757.611 505.72 732.644 529.341 759.749 543.742C786.854 558.143 799.86 544.873 802.976 536.438C800.606 528.301 795.834 517.441 789.109 510.733M803.875 548.827C805.828 564.227 765.785 560.986 751.933 556.455C738.08 551.924 734.524 537.748 761.395 511.842C772.501 501.136 781.921 503.563 789.109 510.733M806.181 525.729C787.464 512.584 748.211 491.811 740.937 513.884C731.844 541.475 774.937 520.759 789.109 510.733M798.996 513.687C791.545 483.92 731.116 492.526 732.127 516.838C728.493 545.963 767.097 568.985 782.269 556.07C796.13 551.526 819.742 537.453 803.306 517.518" stroke="#562E2E" stroke-width="3"/>
<path d="M279.739 170.384V148.304L277.003 148.16V144.08H288.619V147.968L287.035 148.112C286.107 148.208 285.643 148.72 285.643 149.648V171.776L288.379 171.92V176H276.763V172.112L278.347 171.968C278.827 171.904 279.179 171.776 279.403 171.584C279.627 171.36 279.739 170.96 279.739 170.384ZM291.241 155.744V151.856H299.353V154.976C301.145 152.416 303.593 151.136 306.697 151.136C309.833 151.136 311.945 152.416 313.033 154.976C314.825 152.416 317.257 151.136 320.329 151.136C322.633 151.136 324.409 151.84 325.657 153.248C326.905 154.624 327.529 156.704 327.529 159.488V172.016L330.265 172.16V176H318.841V172.352L320.425 172.208C320.905 172.144 321.241 172.016 321.433 171.824C321.657 171.6 321.785 171.216 321.817 170.672V160.736C321.817 158.976 321.609 157.68 321.193 156.848C320.809 155.984 319.881 155.552 318.409 155.552C316.937 155.552 315.801 156 315.001 156.896C314.233 157.792 313.849 158.992 313.849 160.496V172.016L316.489 172.16V176H305.161V172.352L306.745 172.208C307.225 172.144 307.577 172.016 307.801 171.824C308.025 171.6 308.137 171.2 308.137 170.624V160.736C308.137 158.976 307.929 157.68 307.513 156.848C307.129 155.984 306.185 155.552 304.681 155.552C303.209 155.552 302.089 156.016 301.321 156.944C300.553 157.872 300.169 159.024 300.169 160.4V172.016L302.761 172.16V176H291.433V172.352L293.017 172.208C293.497 172.144 293.849 172.016 294.073 171.824C294.297 171.6 294.409 171.2 294.409 170.624H294.457V157.376C294.457 156.832 294.361 156.464 294.169 156.272C294.009 156.048 293.705 155.92 293.257 155.888L291.241 155.744ZM354.659 152.816V170.672C354.659 171.184 354.739 171.536 354.899 171.728C355.091 171.92 355.411 172.032 355.859 172.064L357.395 172.16V176H349.763V173.216L349.619 173.168C348.019 175.472 345.827 176.624 343.043 176.624C339.779 176.624 337.363 175.584 335.795 173.504C334.227 171.424 333.443 168.576 333.443 164.96C333.443 160.608 334.499 157.216 336.611 154.784C338.723 152.352 341.891 151.136 346.115 151.136C348.835 151.136 351.683 151.696 354.659 152.816ZM349.091 168.368V155.936C348.195 155.52 346.963 155.312 345.395 155.312C343.251 155.312 341.699 156.176 340.739 157.904C339.779 159.632 339.299 161.92 339.299 164.768C339.299 169.952 340.963 172.544 344.291 172.544C345.699 172.544 346.851 172.128 347.747 171.296C348.643 170.432 349.091 169.456 349.091 168.368ZM381.702 175.952C381.414 179.504 380.39 182.112 378.63 183.776C376.87 185.44 374.118 186.272 370.374 186.272C366.63 186.272 363.702 185.744 361.59 184.688V178.016L366.15 177.632V179.936C366.15 180.8 366.55 181.376 367.35 181.664C368.15 181.984 369.254 182.144 370.662 182.144C372.71 182.144 374.15 181.52 374.982 180.272C375.814 179.056 376.23 177.328 376.23 175.088V172.448C374.694 174.24 372.566 175.136 369.846 175.136C368.182 175.136 366.71 174.816 365.43 174.176C364.182 173.536 363.206 172.672 362.502 171.584C361.126 169.408 360.438 166.848 360.438 163.904C360.438 159.712 361.574 156.544 363.846 154.4C366.118 152.224 369.142 151.136 372.918 151.136C376.054 151.136 379.014 151.728 381.798 152.912V170.72C381.798 173.44 381.766 175.184 381.702 175.952ZM376.23 166.208V155.888C375.11 155.504 373.83 155.312 372.39 155.312C370.438 155.312 368.934 156.032 367.878 157.472C366.854 158.912 366.342 160.864 366.342 163.328C366.342 168.384 368.006 170.912 371.334 170.912C372.71 170.912 373.862 170.496 374.79 169.664C375.75 168.8 376.23 167.648 376.23 166.208ZM398.499 151.136C400.899 151.136 402.803 151.728 404.211 152.912C405.619 154.064 406.323 155.696 406.323 157.808C406.323 159.216 406.019 160.464 405.411 161.552C404.803 162.608 404.051 163.44 403.155 164.048C402.259 164.656 401.171 165.152 399.891 165.536C397.747 166.176 395.331 166.496 392.643 166.496C392.739 168.192 393.267 169.568 394.227 170.624C395.187 171.648 396.659 172.16 398.643 172.16C400.627 172.16 402.611 171.456 404.595 170.048L406.419 173.936C405.779 174.512 404.691 175.104 403.155 175.712C401.651 176.32 399.923 176.624 397.971 176.624C394.067 176.624 391.203 175.552 389.379 173.408C387.555 171.232 386.643 168.256 386.643 164.48C386.643 160.704 387.683 157.536 389.763 154.976C391.843 152.416 394.755 151.136 398.499 151.136ZM396.291 162.128C397.475 161.904 398.563 161.44 399.555 160.736C400.547 160 401.043 159.136 401.043 158.144C401.043 156.192 400.083 155.216 398.163 155.216C396.371 155.216 394.995 155.936 394.035 157.376C393.075 158.784 392.547 160.48 392.451 162.464C393.859 162.432 395.139 162.32 396.291 162.128ZM419.023 155.696V151.856H427.135V154.976C427.967 153.792 429.071 152.864 430.447 152.192C431.823 151.488 433.311 151.136 434.911 151.136C437.343 151.136 439.215 151.84 440.527 153.248C441.871 154.624 442.543 156.704 442.543 159.488V172.016L445.279 172.16V176H433.855V172.352L435.439 172.208C435.919 172.144 436.271 172.016 436.495 171.824C436.719 171.6 436.831 171.2 436.831 170.624V160.736C436.831 158.976 436.559 157.68 436.015 156.848C435.471 155.984 434.431 155.552 432.895 155.552C431.391 155.552 430.191 156.032 429.295 156.992C428.399 157.952 427.951 159.088 427.951 160.4V172.016L430.687 172.16V176H419.263V172.352L420.847 172.208C421.327 172.144 421.679 172.016 421.903 171.824C422.127 171.6 422.239 171.2 422.239 170.624V157.328C422.239 156.368 421.839 155.872 421.039 155.84L419.023 155.696ZM458.663 172.496C462.151 172.496 463.895 169.68 463.895 164.048C463.895 161.2 463.495 159.04 462.695 157.568C461.927 156.096 460.615 155.36 458.759 155.36C456.935 155.36 455.591 156.064 454.727 157.472C453.863 158.88 453.431 160.8 453.431 163.232C453.431 167.744 454.263 170.576 455.927 171.728C456.663 172.24 457.575 172.496 458.663 172.496ZM447.623 163.904C447.623 161.536 447.975 159.488 448.679 157.76C449.383 156 450.327 154.656 451.511 153.728C453.783 152 456.295 151.136 459.047 151.136C460.967 151.136 462.583 151.456 463.895 152.096C465.239 152.704 466.279 153.424 467.015 154.256C467.783 155.056 468.423 156.24 468.935 157.808C469.479 159.344 469.751 161.168 469.751 163.28C469.751 167.696 468.679 171.04 466.535 173.312C464.391 175.584 461.639 176.72 458.279 176.72C454.951 176.72 452.343 175.648 450.455 173.504C448.567 171.328 447.623 168.128 447.623 163.904ZM477.607 146.768H480.727V151.856H487.111L486.631 155.888H480.727V168.512C480.727 169.92 480.983 170.912 481.495 171.488C482.007 172.032 482.791 172.304 483.847 172.304C484.935 172.304 486.023 171.968 487.111 171.296L488.551 174.992C486.951 176.112 484.919 176.672 482.455 176.672C481.015 176.672 479.799 176.48 478.807 176.096C477.815 175.744 477.079 175.344 476.599 174.896C476.119 174.448 475.751 173.792 475.495 172.928C475.239 172.064 475.095 171.392 475.063 170.912C475.031 170.4 475.015 169.664 475.015 168.704V155.888H471.607L472.087 152.384C473.591 152.256 474.727 151.728 475.495 150.8C476.263 149.84 476.967 148.496 477.607 146.768ZM503.006 170.624V155.888H498.878V151.856H503.006V150.032C503.006 146.896 503.726 144.64 505.166 143.264C506.51 141.952 508.478 141.296 511.07 141.296C513.662 141.296 515.966 141.856 517.982 142.976L516.59 146.816C515.054 146.016 513.614 145.616 512.27 145.616C510.926 145.616 509.998 145.952 509.486 146.624C508.974 147.264 508.718 148.256 508.718 149.6V151.856H515.822V155.888H508.718V171.968L512.75 172.16V176H500.03V172.352L501.614 172.208C502.094 172.144 502.446 172.016 502.67 171.824C502.894 171.6 503.006 171.2 503.006 170.624ZM528.319 172.496C531.807 172.496 533.551 169.68 533.551 164.048C533.551 161.2 533.151 159.04 532.351 157.568C531.583 156.096 530.271 155.36 528.415 155.36C526.591 155.36 525.247 156.064 524.383 157.472C523.519 158.88 523.087 160.8 523.087 163.232C523.087 167.744 523.919 170.576 525.583 171.728C526.319 172.24 527.231 172.496 528.319 172.496ZM517.279 163.904C517.279 161.536 517.631 159.488 518.335 157.76C519.039 156 519.983 154.656 521.167 153.728C523.439 152 525.951 151.136 528.703 151.136C530.623 151.136 532.239 151.456 533.551 152.096C534.895 152.704 535.935 153.424 536.671 154.256C537.439 155.056 538.079 156.24 538.591 157.808C539.135 159.344 539.407 161.168 539.407 163.28C539.407 167.696 538.335 171.04 536.191 173.312C534.047 175.584 531.295 176.72 527.935 176.72C524.607 176.72 521.999 175.648 520.111 173.504C518.223 171.328 517.279 168.128 517.279 163.904ZM567.376 172.208V176H559.6V172.88C557.84 175.376 555.248 176.624 551.824 176.624C546.864 176.624 544.384 173.856 544.384 168.32V157.232C544.384 156.368 543.984 155.92 543.184 155.888L541.648 155.792V151.856H550.096V167.072C550.096 168.768 550.336 170.048 550.816 170.912C551.296 171.776 552.288 172.208 553.792 172.208C555.296 172.208 556.496 171.744 557.392 170.816C558.32 169.888 558.784 168.768 558.784 167.456V157.328C558.784 156.816 558.688 156.464 558.496 156.272C558.336 156.048 558.032 155.92 557.584 155.888L556.048 155.792V151.856H564.496V170.672C564.496 171.184 564.576 171.536 564.736 171.728C564.896 171.888 565.216 172 565.696 172.064L567.376 172.208ZM570.007 155.696V151.856H578.119V154.976C578.951 153.792 580.055 152.864 581.431 152.192C582.807 151.488 584.295 151.136 585.895 151.136C588.327 151.136 590.199 151.84 591.511 153.248C592.855 154.624 593.527 156.704 593.527 159.488V172.016L596.263 172.16V176H584.839V172.352L586.423 172.208C586.903 172.144 587.255 172.016 587.479 171.824C587.703 171.6 587.815 171.2 587.815 170.624V160.736C587.815 158.976 587.543 157.68 586.999 156.848C586.455 155.984 585.415 155.552 583.879 155.552C582.375 155.552 581.175 156.032 580.279 156.992C579.383 157.952 578.935 159.088 578.935 160.4V172.016L581.671 172.16V176H570.247V172.352L571.831 172.208C572.311 172.144 572.663 172.016 572.887 171.824C573.111 171.6 573.223 171.2 573.223 170.624V157.328C573.223 156.368 572.823 155.872 572.023 155.84L570.007 155.696ZM611.124 151.136C612.5 151.136 613.812 151.328 615.06 151.712V146.864C615.06 146.16 614.644 145.776 613.812 145.712L611.748 145.568V141.776H620.676V170.96C620.708 171.696 621.108 172.064 621.876 172.064L623.556 172.16V176H615.78V173.168L615.636 173.12C614.196 175.456 612.02 176.624 609.108 176.624C605.46 176.624 602.9 175.408 601.428 172.976C600.084 170.768 599.412 168.064 599.412 164.864C599.412 160.704 600.436 157.376 602.484 154.88C604.564 152.384 607.444 151.136 611.124 151.136ZM615.06 168.512V156.08C613.908 155.568 612.692 155.312 611.412 155.312C609.3 155.312 607.748 156.16 606.756 157.856C605.796 159.552 605.316 161.712 605.316 164.336C605.316 169.712 607.044 172.4 610.5 172.4C611.812 172.4 612.9 172.032 613.764 171.296C614.628 170.528 615.06 169.6 615.06 168.512Z" fill="#2B1E36"/>
<path d="M259.343 558.808C235.421 560.762 236.539 563.16 235.643 591.831L234.953 613.918L219.458 613.434C219.458 613.434 223.397 583.102 213.857 573.143C205.474 564.392 199.055 569.585 189.441 562.251C179.827 554.916 188.664 520.303 191.005 512.216C193.345 504.13 204.423 502.788 205.904 512.682C207.384 522.576 199.662 540.623 204.762 549.224C209.862 557.824 217.723 554.412 221.448 549.745C225.173 545.079 223.17 494.651 228.692 489.759C234.214 484.867 239.747 485.978 241.803 490.169C243.859 494.36 239.923 550.323 239.923 550.323C259.589 550.937 250.504 517.171 260.591 518.893C270.678 520.615 270.707 557.88 259.343 558.808Z" fill="#0B1D2B"/>
<path d="M28.3906 482.479C80.2118 492.979 77.1416 497.934 71.6389 560.885L67.3999 609.38L101.42 612.353C101.42 612.353 100.698 544.978 124.159 525.676C144.775 508.715 157.465 521.746 180.403 508.205C203.342 494.663 193.021 416.647 190.006 398.349C186.991 380.051 163.108 374.232 157.294 395.49C151.481 416.747 163.676 458.236 150.281 475.721C136.886 493.207 120.577 483.697 113.644 472.519C106.71 461.341 124.217 351.554 113.412 339.416C102.607 327.278 90.2148 328.267 84.6258 336.9C79.0368 345.532 73.0809 468.973 73.0809 468.973C29.9012 465.198 58.5651 393.7 36.0513 394.842C13.5375 395.983 3.77562 477.492 28.3906 482.479Z" fill="#0B1D2B"/>
<path d="M584.547 398C585.081 398.036 585.658 398.218 586.122 398.482C586.37 398.255 586.755 397.989 587.026 398.196C587.612 398.639 587.139 399.169 586.708 399.506C586.45 401.187 585.737 403.873 587.167 404.473C589.412 405.321 589.816 398.433 592.975 398.517C594.869 398.568 594.034 401.313 595.909 401.407C597.292 401.478 597.189 398.852 598.342 398.812C599.556 398.77 600.434 399.698 601.047 402.889C602.249 402.884 602.722 403.831 603.27 405.664C603.818 407.492 603.411 411.082 603.214 413.276L602.845 409.7C602.731 410.262 602.555 410.829 602.287 411.42C602.103 412.296 602.032 413.173 602.014 414.045C602.399 414.523 602.427 415.273 602.034 415.709C602.077 416.965 602.159 418.217 602.113 419.473C600.496 419.496 599.017 419.426 597.447 419.473C597.362 418.915 598.145 418.517 599.055 418.053C599.041 417.41 599.045 416.623 599.055 415.826C598.642 415.348 598.633 414.509 599.064 414.101C599.059 413.103 599.026 412.292 598.909 412.043C598.534 411.242 597.944 410.548 597.545 409.831C596.2 410.079 594.747 409.967 593.237 409.61L593.205 413.618C593.566 414.148 593.58 414.917 593.191 415.39C592.97 416.75 593.162 418.114 593.153 419.473H590.434C590.326 418.77 591.489 418.39 592.056 418.062C592.056 417.026 592.239 416.243 592.075 415.235C591.841 414.771 591.826 414.228 592.056 413.792C592.014 412.245 591.901 410.698 591.555 409.151C591.48 409.123 591.184 408.978 591.119 408.903L590.608 413.515C590.87 414.073 590.814 414.795 590.42 415.235C590.111 416.646 590.209 418.025 590.05 419.435L587.181 419.473C587.167 418.896 588.545 418.535 589.07 418.278C589.37 417.275 589.337 416.257 589.384 415.235C589.009 414.668 589.028 413.881 589.436 413.384C589.412 411.589 589.178 409.784 588.573 408.012C583.576 407.735 584.064 404.637 583.919 401.768C583.853 400.491 581.317 401.848 581.106 401.224C580.994 400.9 580.937 400.573 581.106 400.2C581.509 399.296 582.226 399.248 582.826 399.233C583.403 398.888 583.886 398.016 584.491 398H584.547ZM584.233 398.918C584.003 399.042 584.055 399.268 584.106 399.392C584.416 399.484 584.87 399.341 585.081 399.177C584.898 399.036 584.509 398.924 584.233 398.918ZM600.494 410.909C600.351 411.275 600.225 411.64 600.149 411.996C599.998 412.714 599.919 413.435 599.881 414.162C600.232 414.645 600.246 415.385 599.853 415.803C599.865 416.815 599.914 417.828 599.925 418.835C600.137 418.484 600.53 418.179 601.094 418.034C601.086 417.359 601.114 416.515 601.144 415.662C600.82 415.184 600.816 414.462 601.196 414.054C601.228 412.789 601.212 411.739 601.019 411.518C600.834 411.307 600.66 411.106 600.494 410.909Z" fill="black"/>
<path d="M173.829 40.4698C170.564 36.585 133.855 57.9796 132.616 61.0762L152.097 86.9751C152.097 86.9751 174.505 77.1223 173.829 73.5752C173.153 70.0282 156.826 81.4575 155.587 77.629C154.349 73.8004 186.891 62.3149 182.612 57.9796C178.333 53.6444 161.161 69.2963 159.078 65.4678C156.995 61.6393 173.21 58.3175 170.901 53.9822C168.593 49.647 155.193 61.6393 152.716 57.9796C150.239 54.32 179.035 46.663 173.829 40.4698Z" fill="url(#paint1_linear_1273_4097)"/>
<path d="M165.893 70.3116C165.893 80.4992 157.634 88.7579 147.446 88.7579C137.259 88.7579 129 80.4992 129 70.3116C129 60.1239 137.259 51.8652 147.446 51.8652C157.634 51.8652 165.893 60.1239 165.893 70.3116Z" fill="#D8D8D8"/>
<path d="M153.939 74.2962C153.349 76.9525 148.369 82.966 143.019 86.9873C139.387 86.2661 136.4 83.9002 134.718 82.1175C136.12 81.3427 145.205 77.8036 147.483 74.1118C149.329 71.1213 140.363 70.1176 147.188 66.5119C151.837 64.0561 157.002 62.7855 162.425 61.3467L161.798 62.1952C161.798 62.1952 152.685 65.7371 150.804 68.7992C150.037 70.1274 154.8 70.4225 153.939 74.2962Z" fill="#424242"/>
<path d="M150.914 72.8573L150.324 72.968C150.693 71.6768 146.672 69.5739 147.041 68.7254C147.151 68.2458 150.103 65.405 161.982 61.6789C153.534 64.9254 148.553 67.1021 147.557 68.7254C147.257 69.5739 151.136 71.271 150.914 72.8573Z" fill="#D9D9D9" fill-opacity="0.53"/>
<path d="M154.235 71.3079C154.972 72.4146 154.965 73.5214 154.53 74.8496C153.903 77.0631 152.648 78.4282 150.619 80.8262C148.549 83.5812 143.831 87.2824 143.831 87.2824C150.545 88.5736 157.998 86.2863 162.425 78.9815C165.155 74.3331 165.598 68.3196 163.052 62.7857C162.794 62.8225 153.607 66.3274 151.689 68.7254C151.209 69.6108 153.017 69.7584 154.235 71.3079Z" fill="#A03F03"/>
<path d="M143.831 87.2824C150.545 88.5736 157.998 86.2863 162.425 78.9815C164.194 75.9688 165.003 72.3827 164.66 68.7254C161.724 73.2263 158.367 70.8652 154.822 73.4477C154.794 73.8919 154.692 74.3554 154.53 74.8496C153.903 77.0631 152.648 78.4282 150.619 80.8262C148.549 83.5812 143.831 87.2824 143.831 87.2824Z" fill="#A0510C"/>
<path d="M143.831 87.2824C150.545 88.5736 157.998 86.2863 162.425 78.9815C163.319 77.5059 163.79 76.2146 164.122 74.9603C159.695 79.4243 156.891 77.2107 152.171 78.9815C151.714 79.5414 151.198 80.1417 150.619 80.8262C148.549 83.5812 143.831 87.2824 143.831 87.2824Z" fill="#824B11"/>
<path d="M143.093 77.1369C140.031 78.9447 136.932 80.3097 134.202 81.5272C130.918 77.5428 130.107 73.5953 130.107 70.9391C130.107 67.3604 130.838 64.5935 132.136 62.1586C134.968 56.846 140.621 53.0232 147.299 52.9723C154.124 52.9353 158.514 56.5877 160.728 59.2071C161.023 60.4245 160.469 60.941 160.469 60.941L160.396 60.1663C160.064 58.543 158.44 57.4362 156.817 57.6576C155.009 57.8421 153.054 60.0556 154.493 62.6381C151.984 63.5235 149.586 64.3721 145.675 66.5856C144.901 67.0242 143.831 68.1351 143.831 68.873C143.646 70.7176 146.635 71.8982 146.782 73.0787C147.004 74.1486 146.155 74.9972 143.093 77.1369Z" fill="#133455"/>
<path d="M143.093 77.1369C140.031 78.9447 136.932 80.3097 134.202 81.5272C130.918 77.5428 130.107 73.5953 130.107 70.9391C130.107 67.3604 130.838 64.5935 132.136 62.1586C134.736 57.2823 139.712 53.6611 145.675 53.0599C145.934 58.6537 151.652 60.2032 151.652 63.6844C149.988 64.3449 148.13 65.1965 145.675 66.5856C144.901 67.0242 143.831 68.1351 143.831 68.873C143.646 70.7176 146.635 71.8982 146.782 73.0787C147.004 74.1486 146.155 74.9972 143.093 77.1369Z" fill="#A03F03"/>
<path d="M143.093 77.1369C140.031 78.9447 136.932 80.3097 134.202 81.5272C130.918 77.5428 130.107 73.5953 130.107 70.9391C130.107 67.3604 130.838 64.5935 132.136 62.1586C133.35 59.8819 135.082 57.8788 137.19 56.3289C137.965 60.0556 145.27 60.7197 145.675 66.5856C144.901 67.0242 143.831 68.1351 143.831 68.873C143.646 70.7176 146.635 71.8982 146.782 73.0787C147.004 74.1486 146.155 74.9972 143.093 77.1369Z" fill="#A0510C"/>
<path d="M143.093 77.1369C140.031 78.9447 136.932 80.3097 134.202 81.5272C130.918 77.5428 130.107 73.5953 130.107 70.9391C130.107 68.0798 130.573 65.7387 131.423 63.6711C135.124 68.2089 141.175 64.4827 143.831 68.873C143.646 70.7176 146.635 71.8982 146.782 73.0787C147.004 74.1486 146.155 74.9972 143.093 77.1369Z" fill="#824B11"/>
<g clip-path="url(#clip1_1273_4097)">
<path d="M153.567 55.0146L153.37 55.4458L152.94 55.6418L153.37 55.8393L153.567 56.2689L153.763 55.8393L154.194 55.6418L153.763 55.4458M151.999 55.485L151.607 56.3473L150.745 56.7393L151.607 57.1313L151.999 57.9936L152.391 57.1313L153.254 56.7393L152.391 56.3473M153.567 57.2097L153.37 57.6393L152.94 57.8368L153.37 58.0328L153.567 58.464L153.763 58.0328L154.194 57.8368L153.763 57.6393" fill="#D8D8D8"/>
</g>
<ellipse cx="474.5" cy="322.5" rx="103.5" ry="48.5" fill="#D9D9D9"/>
<path d="M578.763 398.967L526.168 356.506L546.845 339.382L578.763 398.967Z" fill="#D9D9D9"/>
<path d="M415.301 295.168C416.571 295.168 417.632 295.616 418.485 296.512C419.339 297.408 419.765 298.779 419.765 300.624C419.765 302.459 419.339 303.851 418.485 304.8C417.643 305.739 416.496 306.208 415.045 306.208C413.605 306.208 412.475 305.739 411.653 304.8C410.832 303.861 410.421 302.496 410.421 300.704C410.421 299.723 410.565 298.864 410.853 298.128C411.141 297.381 411.52 296.805 411.989 296.4C412.939 295.579 414.043 295.168 415.301 295.168ZM412.421 300.624C412.421 303.269 413.339 304.592 415.173 304.592C416.155 304.592 416.843 304.187 417.237 303.376C417.6 302.661 417.781 301.787 417.781 300.752C417.781 299.824 417.621 298.971 417.301 298.192C417.12 297.765 416.843 297.429 416.469 297.184C416.107 296.939 415.632 296.816 415.045 296.816C414.459 296.816 413.952 297.008 413.525 297.392C413.109 297.776 412.821 298.24 412.661 298.784C412.501 299.328 412.421 299.941 412.421 300.624ZM429.258 304.736V306H426.666V304.96C426.079 305.792 425.215 306.208 424.074 306.208C422.421 306.208 421.594 305.285 421.594 303.44V299.744C421.594 299.456 421.461 299.307 421.194 299.296L420.682 299.264V297.952H423.498V303.024C423.498 303.589 423.578 304.016 423.738 304.304C423.898 304.592 424.229 304.736 424.73 304.736C425.231 304.736 425.631 304.581 425.93 304.272C426.239 303.963 426.394 303.589 426.394 303.152V299.776C426.394 299.605 426.362 299.488 426.298 299.424C426.245 299.349 426.143 299.307 425.994 299.296L425.482 299.264V297.952H428.298V304.224C428.298 304.395 428.325 304.512 428.378 304.576C428.431 304.629 428.538 304.667 428.698 304.688L429.258 304.736ZM431.223 304.208V299.776C431.223 299.605 431.191 299.488 431.127 299.424C431.074 299.349 430.972 299.307 430.823 299.296L430.151 299.248V297.952H432.855V299.152C433.047 298.736 433.346 298.395 433.751 298.128C434.156 297.851 434.62 297.712 435.143 297.712C435.676 297.712 436.183 297.829 436.663 298.064V300.448L435.175 300.56V299.824C435.175 299.611 435.122 299.477 435.015 299.424C434.898 299.371 434.754 299.344 434.583 299.344C434.156 299.344 433.804 299.499 433.527 299.808C433.26 300.107 433.127 300.491 433.127 300.96V304.672L434.519 304.736V306H430.231V304.784L430.759 304.736C430.919 304.715 431.036 304.672 431.111 304.608C431.186 304.533 431.223 304.4 431.223 304.208ZM441.721 307.52V299.776C441.721 299.595 441.689 299.472 441.625 299.408C441.572 299.333 441.47 299.296 441.321 299.296L440.649 299.248V297.952H443.353V298.992C443.524 298.672 443.833 298.379 444.281 298.112C444.729 297.845 445.262 297.712 445.881 297.712C447.812 297.712 448.777 299.067 448.777 301.776C448.777 303.216 448.462 304.32 447.833 305.088C447.204 305.856 446.35 306.24 445.273 306.24C444.633 306.24 444.062 306.085 443.561 305.776V307.984L444.857 308.048V309.312H440.729V308.096L441.257 308.048C441.417 308.027 441.534 307.979 441.609 307.904C441.684 307.84 441.721 307.712 441.721 307.52ZM446.793 301.936C446.793 300.155 446.254 299.264 445.177 299.264C444.729 299.264 444.345 299.403 444.025 299.68C443.716 299.947 443.561 300.267 443.561 300.64V304.32C443.966 304.587 444.457 304.72 445.033 304.72C445.62 304.72 446.057 304.453 446.345 303.92C446.644 303.387 446.793 302.725 446.793 301.936ZM450.895 304.208V296.416C450.895 296.245 450.863 296.128 450.799 296.064C450.745 296 450.644 295.963 450.495 295.952L449.935 295.92V294.592H452.783V298.896C453.337 298.107 454.116 297.712 455.119 297.712C455.929 297.712 456.553 297.947 456.991 298.416C457.439 298.875 457.663 299.568 457.663 300.496V304.672L458.575 304.72V306H454.767V304.784L455.295 304.736C455.455 304.715 455.572 304.672 455.647 304.608C455.721 304.533 455.759 304.4 455.759 304.208V300.912C455.759 300.357 455.668 299.931 455.487 299.632C455.316 299.333 454.975 299.184 454.463 299.184C453.961 299.184 453.556 299.344 453.247 299.664C452.948 299.973 452.799 300.352 452.799 300.8V304.672L453.711 304.72V306H449.903V304.784L450.431 304.736C450.591 304.715 450.708 304.672 450.783 304.608C450.857 304.533 450.895 304.4 450.895 304.208ZM463.192 304.832C464.355 304.832 464.936 303.893 464.936 302.016C464.936 301.067 464.803 300.347 464.536 299.856C464.28 299.365 463.843 299.12 463.224 299.12C462.616 299.12 462.168 299.355 461.88 299.824C461.592 300.293 461.448 300.933 461.448 301.744C461.448 303.248 461.726 304.192 462.28 304.576C462.526 304.747 462.83 304.832 463.192 304.832ZM459.512 301.968C459.512 301.179 459.63 300.496 459.864 299.92C460.099 299.333 460.414 298.885 460.808 298.576C461.566 298 462.403 297.712 463.32 297.712C463.96 297.712 464.499 297.819 464.936 298.032C465.384 298.235 465.731 298.475 465.976 298.752C466.232 299.019 466.446 299.413 466.616 299.936C466.798 300.448 466.888 301.056 466.888 301.76C466.888 303.232 466.531 304.347 465.816 305.104C465.102 305.861 464.184 306.24 463.064 306.24C461.955 306.24 461.086 305.883 460.456 305.168C459.827 304.443 459.512 303.376 459.512 301.968ZM469.507 296.256H470.547V297.952H472.675L472.515 299.296H470.547V303.504C470.547 303.973 470.632 304.304 470.803 304.496C470.974 304.677 471.235 304.768 471.587 304.768C471.95 304.768 472.312 304.656 472.675 304.432L473.155 305.664C472.622 306.037 471.944 306.224 471.123 306.224C470.643 306.224 470.238 306.16 469.907 306.032C469.576 305.915 469.331 305.781 469.171 305.632C469.011 305.483 468.888 305.264 468.803 304.976C468.718 304.688 468.67 304.464 468.659 304.304C468.648 304.133 468.643 303.888 468.643 303.568V299.296H467.507L467.667 298.128C468.168 298.085 468.547 297.909 468.803 297.6C469.059 297.28 469.294 296.832 469.507 296.256ZM477.13 304.832C478.293 304.832 478.874 303.893 478.874 302.016C478.874 301.067 478.741 300.347 478.474 299.856C478.218 299.365 477.781 299.12 477.162 299.12C476.554 299.12 476.106 299.355 475.818 299.824C475.53 300.293 475.386 300.933 475.386 301.744C475.386 303.248 475.663 304.192 476.218 304.576C476.463 304.747 476.767 304.832 477.13 304.832ZM473.45 301.968C473.45 301.179 473.567 300.496 473.802 299.92C474.037 299.333 474.351 298.885 474.746 298.576C475.503 298 476.341 297.712 477.258 297.712C477.898 297.712 478.437 297.819 478.874 298.032C479.322 298.235 479.669 298.475 479.914 298.752C480.17 299.019 480.383 299.413 480.554 299.936C480.735 300.448 480.826 301.056 480.826 301.76C480.826 303.232 480.469 304.347 479.754 305.104C479.039 305.861 478.122 306.24 477.002 306.24C475.893 306.24 475.023 305.883 474.394 305.168C473.765 304.443 473.45 303.376 473.45 301.968ZM489.023 305.984C488.927 307.168 488.586 308.037 487.999 308.592C487.412 309.147 486.495 309.424 485.247 309.424C483.999 309.424 483.023 309.248 482.319 308.896V306.672L483.839 306.544V307.312C483.839 307.6 483.972 307.792 484.239 307.888C484.506 307.995 484.874 308.048 485.343 308.048C486.026 308.048 486.506 307.84 486.783 307.424C487.06 307.019 487.199 306.443 487.199 305.696V304.816C486.687 305.413 485.978 305.712 485.071 305.712C484.516 305.712 484.026 305.605 483.599 305.392C483.183 305.179 482.858 304.891 482.623 304.528C482.164 303.803 481.935 302.949 481.935 301.968C481.935 300.571 482.314 299.515 483.071 298.8C483.828 298.075 484.836 297.712 486.095 297.712C487.14 297.712 488.127 297.909 489.055 298.304V304.24C489.055 305.147 489.044 305.728 489.023 305.984ZM487.199 302.736V299.296C486.826 299.168 486.399 299.104 485.919 299.104C485.268 299.104 484.767 299.344 484.415 299.824C484.074 300.304 483.903 300.955 483.903 301.776C483.903 303.461 484.458 304.304 485.567 304.304C486.026 304.304 486.41 304.165 486.719 303.888C487.039 303.6 487.199 303.216 487.199 302.736ZM491.598 304.208V299.776C491.598 299.605 491.566 299.488 491.502 299.424C491.449 299.349 491.347 299.307 491.198 299.296L490.526 299.248V297.952H493.23V299.152C493.422 298.736 493.721 298.395 494.126 298.128C494.531 297.851 494.995 297.712 495.518 297.712C496.051 297.712 496.558 297.829 497.038 298.064V300.448L495.55 300.56V299.824C495.55 299.611 495.497 299.477 495.39 299.424C495.273 299.371 495.129 299.344 494.958 299.344C494.531 299.344 494.179 299.499 493.902 299.808C493.635 300.107 493.502 300.491 493.502 300.96V304.672L494.894 304.736V306H490.606V304.784L491.134 304.736C491.294 304.715 491.411 304.672 491.486 304.608C491.561 304.533 491.598 304.4 491.598 304.208ZM505.181 298.272V304.224C505.181 304.395 505.207 304.512 505.261 304.576C505.325 304.64 505.431 304.677 505.581 304.688L506.093 304.72V306H503.549V305.072L503.501 305.056C502.967 305.824 502.237 306.208 501.309 306.208C500.221 306.208 499.415 305.861 498.893 305.168C498.37 304.475 498.109 303.525 498.109 302.32C498.109 300.869 498.461 299.739 499.165 298.928C499.869 298.117 500.925 297.712 502.333 297.712C503.239 297.712 504.189 297.899 505.181 298.272ZM503.325 303.456V299.312C503.026 299.173 502.615 299.104 502.093 299.104C501.378 299.104 500.861 299.392 500.541 299.968C500.221 300.544 500.061 301.307 500.061 302.256C500.061 303.984 500.615 304.848 501.725 304.848C502.194 304.848 502.578 304.709 502.877 304.432C503.175 304.144 503.325 303.819 503.325 303.456ZM507.815 307.52V299.776C507.815 299.595 507.783 299.472 507.719 299.408C507.665 299.333 507.564 299.296 507.415 299.296L506.743 299.248V297.952H509.447V298.992C509.617 298.672 509.927 298.379 510.375 298.112C510.823 297.845 511.356 297.712 511.975 297.712C513.905 297.712 514.871 299.067 514.871 301.776C514.871 303.216 514.556 304.32 513.927 305.088C513.297 305.856 512.444 306.24 511.367 306.24C510.727 306.24 510.156 306.085 509.655 305.776V307.984L510.951 308.048V309.312H506.823V308.096L507.351 308.048C507.511 308.027 507.628 307.979 507.703 307.904C507.777 307.84 507.815 307.712 507.815 307.52ZM512.887 301.936C512.887 300.155 512.348 299.264 511.271 299.264C510.823 299.264 510.439 299.403 510.119 299.68C509.809 299.947 509.655 300.267 509.655 300.64V304.32C510.06 304.587 510.551 304.72 511.127 304.72C511.713 304.72 512.151 304.453 512.439 303.92C512.737 303.387 512.887 302.725 512.887 301.936ZM516.988 304.208V296.416C516.988 296.245 516.956 296.128 516.892 296.064C516.839 296 516.738 295.963 516.588 295.952L516.028 295.92V294.592H518.876V298.896C519.431 298.107 520.21 297.712 521.212 297.712C522.023 297.712 522.647 297.947 523.084 298.416C523.532 298.875 523.756 299.568 523.756 300.496V304.672L524.668 304.72V306H520.86V304.784L521.388 304.736C521.548 304.715 521.666 304.672 521.74 304.608C521.815 304.533 521.852 304.4 521.852 304.208V300.912C521.852 300.357 521.762 299.931 521.58 299.632C521.41 299.333 521.068 299.184 520.556 299.184C520.055 299.184 519.65 299.344 519.34 299.664C519.042 299.973 518.892 300.352 518.892 300.8V304.672L519.804 304.72V306H515.996V304.784L516.524 304.736C516.684 304.715 516.802 304.672 516.876 304.608C516.951 304.533 516.988 304.4 516.988 304.208ZM529.622 297.712C530.422 297.712 531.057 297.909 531.526 298.304C531.995 298.688 532.23 299.232 532.23 299.936C532.23 300.405 532.129 300.821 531.926 301.184C531.723 301.536 531.473 301.813 531.174 302.016C530.875 302.219 530.513 302.384 530.086 302.512C529.371 302.725 528.566 302.832 527.67 302.832C527.702 303.397 527.878 303.856 528.198 304.208C528.518 304.549 529.009 304.72 529.67 304.72C530.331 304.72 530.993 304.485 531.654 304.016L532.262 305.312C532.049 305.504 531.686 305.701 531.174 305.904C530.673 306.107 530.097 306.208 529.446 306.208C528.145 306.208 527.19 305.851 526.582 305.136C525.974 304.411 525.67 303.419 525.67 302.16C525.67 300.901 526.017 299.845 526.71 298.992C527.403 298.139 528.374 297.712 529.622 297.712ZM528.886 301.376C529.281 301.301 529.643 301.147 529.974 300.912C530.305 300.667 530.47 300.379 530.47 300.048C530.47 299.397 530.15 299.072 529.51 299.072C528.913 299.072 528.454 299.312 528.134 299.792C527.814 300.261 527.638 300.827 527.606 301.488C528.075 301.477 528.502 301.44 528.886 301.376ZM534.348 304.208V299.776C534.348 299.605 534.316 299.488 534.252 299.424C534.199 299.349 534.097 299.307 533.948 299.296L533.276 299.248V297.952H535.98V299.152C536.172 298.736 536.471 298.395 536.876 298.128C537.281 297.851 537.745 297.712 538.268 297.712C538.801 297.712 539.308 297.829 539.788 298.064V300.448L538.3 300.56V299.824C538.3 299.611 538.247 299.477 538.14 299.424C538.023 299.371 537.879 299.344 537.708 299.344C537.281 299.344 536.929 299.499 536.652 299.808C536.385 300.107 536.252 300.491 536.252 300.96V304.672L537.644 304.736V306H533.356V304.784L533.884 304.736C534.044 304.715 534.161 304.672 534.236 304.608C534.311 304.533 534.348 304.4 534.348 304.208ZM434.437 327.984C434.341 329.168 434 330.037 433.413 330.592C432.826 331.147 431.909 331.424 430.661 331.424C429.413 331.424 428.437 331.248 427.733 330.896V328.672L429.253 328.544V329.312C429.253 329.6 429.386 329.792 429.653 329.888C429.92 329.995 430.288 330.048 430.757 330.048C431.44 330.048 431.92 329.84 432.197 329.424C432.474 329.019 432.613 328.443 432.613 327.696V326.816C432.101 327.413 431.392 327.712 430.485 327.712C429.93 327.712 429.44 327.605 429.013 327.392C428.597 327.179 428.272 326.891 428.037 326.528C427.578 325.803 427.349 324.949 427.349 323.968C427.349 322.571 427.728 321.515 428.485 320.8C429.242 320.075 430.25 319.712 431.509 319.712C432.554 319.712 433.541 319.909 434.469 320.304V326.24C434.469 327.147 434.458 327.728 434.437 327.984ZM432.613 324.736V321.296C432.24 321.168 431.813 321.104 431.333 321.104C430.682 321.104 430.181 321.344 429.829 321.824C429.488 322.304 429.317 322.955 429.317 323.776C429.317 325.461 429.872 326.304 430.981 326.304C431.44 326.304 431.824 326.165 432.133 325.888C432.453 325.6 432.613 325.216 432.613 324.736ZM439.544 326.832C440.707 326.832 441.288 325.893 441.288 324.016C441.288 323.067 441.155 322.347 440.888 321.856C440.632 321.365 440.195 321.12 439.576 321.12C438.968 321.12 438.52 321.355 438.232 321.824C437.944 322.293 437.8 322.933 437.8 323.744C437.8 325.248 438.077 326.192 438.632 326.576C438.877 326.747 439.181 326.832 439.544 326.832ZM435.864 323.968C435.864 323.179 435.981 322.496 436.216 321.92C436.451 321.333 436.765 320.885 437.16 320.576C437.917 320 438.755 319.712 439.672 319.712C440.312 319.712 440.851 319.819 441.288 320.032C441.736 320.235 442.083 320.475 442.328 320.752C442.584 321.019 442.797 321.413 442.968 321.936C443.149 322.448 443.24 323.056 443.24 323.76C443.24 325.232 442.883 326.347 442.168 327.104C441.453 327.861 440.536 328.24 439.416 328.24C438.307 328.24 437.437 327.883 436.808 327.168C436.179 326.443 435.864 325.376 435.864 323.968ZM445.859 318.256H446.899V319.952H449.027L448.867 321.296H446.899V325.504C446.899 325.973 446.984 326.304 447.155 326.496C447.325 326.677 447.587 326.768 447.939 326.768C448.301 326.768 448.664 326.656 449.027 326.432L449.507 327.664C448.973 328.037 448.296 328.224 447.475 328.224C446.995 328.224 446.589 328.16 446.259 328.032C445.928 327.915 445.683 327.781 445.523 327.632C445.363 327.483 445.24 327.264 445.155 326.976C445.069 326.688 445.021 326.464 445.011 326.304C445 326.133 444.995 325.888 444.995 325.568V321.296H443.859L444.019 320.128C444.52 320.085 444.899 319.909 445.155 319.6C445.411 319.28 445.645 318.832 445.859 318.256ZM456.181 316.592V326.672L457.093 326.72V328H453.285V326.784L453.813 326.736C454.122 326.704 454.277 326.533 454.277 326.224V318.336C454.277 318.101 454.144 317.973 453.877 317.952L453.317 317.92V316.592H456.181ZM461.763 326.832C462.925 326.832 463.507 325.893 463.507 324.016C463.507 323.067 463.373 322.347 463.107 321.856C462.851 321.365 462.413 321.12 461.795 321.12C461.187 321.12 460.739 321.355 460.451 321.824C460.163 322.293 460.019 322.933 460.019 323.744C460.019 325.248 460.296 326.192 460.851 326.576C461.096 326.747 461.4 326.832 461.763 326.832ZM458.083 323.968C458.083 323.179 458.2 322.496 458.435 321.92C458.669 321.333 458.984 320.885 459.379 320.576C460.136 320 460.973 319.712 461.891 319.712C462.531 319.712 463.069 319.819 463.507 320.032C463.955 320.235 464.301 320.475 464.547 320.752C464.803 321.019 465.016 321.413 465.187 321.936C465.368 322.448 465.459 323.056 465.459 323.76C465.459 325.232 465.101 326.347 464.387 327.104C463.672 327.861 462.755 328.24 461.635 328.24C460.525 328.24 459.656 327.883 459.027 327.168C458.397 326.443 458.083 325.376 458.083 323.968ZM470.728 321.168C470.472 321.072 470.162 321.024 469.8 321.024C469.437 321.024 469.144 321.109 468.92 321.28C468.706 321.44 468.6 321.643 468.6 321.888C468.6 322.123 468.637 322.309 468.712 322.448C468.797 322.576 468.925 322.688 469.096 322.784C469.362 322.923 469.682 323.045 470.056 323.152C470.429 323.248 470.706 323.328 470.888 323.392C471.069 323.445 471.293 323.541 471.56 323.68C471.837 323.819 472.045 323.968 472.184 324.128C472.557 324.523 472.744 325.029 472.744 325.648C472.744 326.448 472.45 327.077 471.864 327.536C471.288 327.984 470.552 328.208 469.656 328.208C468.354 328.208 467.373 328.043 466.712 327.712V325.488L468.152 325.376V326.144C468.152 326.613 468.6 326.848 469.496 326.848C470.392 326.848 470.84 326.523 470.84 325.872C470.84 325.637 470.76 325.445 470.6 325.296C470.45 325.147 470.301 325.045 470.152 324.992C470.002 324.939 469.821 324.885 469.608 324.832C469.405 324.779 469.202 324.725 469 324.672C468.808 324.619 468.594 324.549 468.36 324.464C468.136 324.368 467.885 324.235 467.608 324.064C467.064 323.712 466.792 323.125 466.792 322.304C466.792 321.472 467.085 320.832 467.672 320.384C468.258 319.936 468.994 319.712 469.88 319.712C470.776 319.712 471.661 319.925 472.536 320.352V322.272L471.096 322.384V321.712C471.096 321.445 470.973 321.264 470.728 321.168ZM475.374 318.256H476.414V319.952H478.542L478.382 321.296H476.414V325.504C476.414 325.973 476.5 326.304 476.67 326.496C476.841 326.677 477.102 326.768 477.454 326.768C477.817 326.768 478.18 326.656 478.542 326.432L479.022 327.664C478.489 328.037 477.812 328.224 476.99 328.224C476.51 328.224 476.105 328.16 475.774 328.032C475.444 327.915 475.198 327.781 475.038 327.632C474.878 327.483 474.756 327.264 474.67 326.976C474.585 326.688 474.537 326.464 474.526 326.304C474.516 326.133 474.51 325.888 474.51 325.568V321.296H473.374L473.534 320.128C474.036 320.085 474.414 319.909 474.67 319.6C474.926 319.28 475.161 318.832 475.374 318.256ZM485.729 319.952V326.672L486.641 326.72V328H482.833V326.784L483.361 326.736C483.67 326.704 483.825 326.533 483.825 326.224V321.776C483.825 321.595 483.793 321.472 483.729 321.408C483.675 321.344 483.574 321.312 483.425 321.312L482.865 321.28V319.952H485.729ZM483.713 318.576C483.489 318.352 483.377 318.069 483.377 317.728C483.377 317.387 483.489 317.104 483.713 316.88C483.937 316.645 484.23 316.528 484.593 316.528C484.955 316.528 485.249 316.645 485.473 316.88C485.707 317.104 485.825 317.387 485.825 317.728C485.825 318.069 485.707 318.352 485.473 318.576C485.249 318.789 484.955 318.896 484.593 318.896C484.23 318.896 483.937 318.789 483.713 318.576ZM487.471 321.232V319.952H490.175V320.992C490.452 320.597 490.82 320.288 491.279 320.064C491.738 319.829 492.234 319.712 492.767 319.712C493.578 319.712 494.202 319.947 494.639 320.416C495.087 320.875 495.311 321.568 495.311 322.496V326.672L496.223 326.72V328H492.415V326.784L492.943 326.736C493.103 326.715 493.22 326.672 493.295 326.608C493.37 326.533 493.407 326.4 493.407 326.208V322.912C493.407 322.325 493.316 321.893 493.135 321.616C492.954 321.328 492.607 321.184 492.095 321.184C491.594 321.184 491.194 321.344 490.895 321.664C490.596 321.984 490.447 322.363 490.447 322.8V326.672L491.359 326.72V328H487.551V326.784L488.079 326.736C488.239 326.715 488.356 326.672 488.431 326.608C488.506 326.533 488.543 326.4 488.543 326.208V321.776C488.543 321.456 488.41 321.291 488.143 321.28L487.471 321.232ZM502.14 318.256H503.18V319.952H505.308L505.148 321.296H503.18V325.504C503.18 325.973 503.265 326.304 503.436 326.496C503.607 326.677 503.868 326.768 504.22 326.768C504.583 326.768 504.945 326.656 505.308 326.432L505.788 327.664C505.255 328.037 504.577 328.224 503.756 328.224C503.276 328.224 502.871 328.16 502.54 328.032C502.209 327.915 501.964 327.781 501.804 327.632C501.644 327.483 501.521 327.264 501.436 326.976C501.351 326.688 501.303 326.464 501.292 326.304C501.281 326.133 501.276 325.888 501.276 325.568V321.296H500.14L500.3 320.128C500.801 320.085 501.18 319.909 501.436 319.6C501.692 319.28 501.927 318.832 502.14 318.256ZM507.371 326.208V318.416C507.371 318.245 507.339 318.128 507.275 318.064C507.222 318 507.121 317.963 506.971 317.952L506.411 317.92V316.592H509.259V320.896C509.814 320.107 510.593 319.712 511.595 319.712C512.406 319.712 513.03 319.947 513.467 320.416C513.915 320.875 514.139 321.568 514.139 322.496V326.672L515.051 326.72V328H511.243V326.784L511.771 326.736C511.931 326.715 512.049 326.672 512.123 326.608C512.198 326.533 512.235 326.4 512.235 326.208V322.912C512.235 322.357 512.145 321.931 511.963 321.632C511.793 321.333 511.451 321.184 510.939 321.184C510.438 321.184 510.033 321.344 509.723 321.664C509.425 321.973 509.275 322.352 509.275 322.8V326.672L510.187 326.72V328H506.379V326.784L506.907 326.736C507.067 326.715 507.185 326.672 507.259 326.608C507.334 326.533 507.371 326.4 507.371 326.208ZM520.005 319.712C520.805 319.712 521.44 319.909 521.909 320.304C522.378 320.688 522.613 321.232 522.613 321.936C522.613 322.405 522.512 322.821 522.309 323.184C522.106 323.536 521.856 323.813 521.557 324.016C521.258 324.219 520.896 324.384 520.469 324.512C519.754 324.725 518.949 324.832 518.053 324.832C518.085 325.397 518.261 325.856 518.581 326.208C518.901 326.549 519.392 326.72 520.053 326.72C520.714 326.72 521.376 326.485 522.037 326.016L522.645 327.312C522.432 327.504 522.069 327.701 521.557 327.904C521.056 328.107 520.48 328.208 519.829 328.208C518.528 328.208 517.573 327.851 516.965 327.136C516.357 326.411 516.053 325.419 516.053 324.16C516.053 322.901 516.4 321.845 517.093 320.992C517.786 320.139 518.757 319.712 520.005 319.712ZM519.269 323.376C519.664 323.301 520.026 323.147 520.357 322.912C520.688 322.667 520.853 322.379 520.853 322.048C520.853 321.397 520.533 321.072 519.893 321.072C519.296 321.072 518.837 321.312 518.517 321.792C518.197 322.261 518.021 322.827 517.989 323.488C518.458 323.477 518.885 323.44 519.269 323.376ZM457.989 341.712C458.448 341.712 458.885 341.776 459.301 341.904V340.288C459.301 340.053 459.163 339.925 458.885 339.904L458.197 339.856V338.592H461.173V348.32C461.184 348.565 461.317 348.688 461.573 348.688L462.133 348.72V350H459.541V349.056L459.493 349.04C459.013 349.819 458.288 350.208 457.317 350.208C456.101 350.208 455.248 349.803 454.757 348.992C454.309 348.256 454.085 347.355 454.085 346.288C454.085 344.901 454.427 343.792 455.109 342.96C455.803 342.128 456.763 341.712 457.989 341.712ZM459.301 347.504V343.36C458.917 343.189 458.512 343.104 458.085 343.104C457.381 343.104 456.864 343.387 456.533 343.952C456.213 344.517 456.053 345.237 456.053 346.112C456.053 347.904 456.629 348.8 457.781 348.8C458.219 348.8 458.581 348.677 458.869 348.432C459.157 348.176 459.301 347.867 459.301 347.504ZM471.547 348.736V350H468.955V348.96C468.368 349.792 467.504 350.208 466.363 350.208C464.71 350.208 463.883 349.285 463.883 347.44V343.744C463.883 343.456 463.75 343.307 463.483 343.296L462.971 343.264V341.952H465.787V347.024C465.787 347.589 465.867 348.016 466.027 348.304C466.187 348.592 466.518 348.736 467.019 348.736C467.52 348.736 467.92 348.581 468.219 348.272C468.528 347.963 468.683 347.589 468.683 347.152V343.776C468.683 343.605 468.651 343.488 468.587 343.424C468.534 343.349 468.432 343.307 468.283 343.296L467.771 343.264V341.952H470.587V348.224C470.587 348.395 470.614 348.512 470.667 348.576C470.72 348.629 470.827 348.667 470.987 348.688L471.547 348.736ZM472.424 343.232V341.952H475.128V342.992C475.406 342.597 475.774 342.288 476.232 342.064C476.691 341.829 477.187 341.712 477.72 341.712C478.531 341.712 479.155 341.947 479.592 342.416C480.04 342.875 480.264 343.568 480.264 344.496V348.672L481.176 348.72V350H477.368V348.784L477.896 348.736C478.056 348.715 478.174 348.672 478.248 348.608C478.323 348.533 478.36 348.4 478.36 348.208V344.912C478.36 344.325 478.27 343.893 478.088 343.616C477.907 343.328 477.56 343.184 477.048 343.184C476.547 343.184 476.147 343.344 475.848 343.664C475.55 343.984 475.4 344.363 475.4 344.8V348.672L476.312 348.72V350H472.504V348.784L473.032 348.736C473.192 348.715 473.31 348.672 473.384 348.608C473.459 348.533 473.496 348.4 473.496 348.208V343.776C473.496 343.456 473.363 343.291 473.096 343.28L472.424 343.232ZM486.13 341.712C486.93 341.712 487.565 341.909 488.034 342.304C488.503 342.688 488.738 343.232 488.738 343.936C488.738 344.405 488.637 344.821 488.434 345.184C488.231 345.536 487.981 345.813 487.682 346.016C487.383 346.219 487.021 346.384 486.594 346.512C485.879 346.725 485.074 346.832 484.178 346.832C484.21 347.397 484.386 347.856 484.706 348.208C485.026 348.549 485.517 348.72 486.178 348.72C486.839 348.72 487.501 348.485 488.162 348.016L488.77 349.312C488.557 349.504 488.194 349.701 487.682 349.904C487.181 350.107 486.605 350.208 485.954 350.208C484.653 350.208 483.698 349.851 483.09 349.136C482.482 348.411 482.178 347.419 482.178 346.16C482.178 344.901 482.525 343.845 483.218 342.992C483.911 342.139 484.882 341.712 486.13 341.712ZM485.394 345.376C485.789 345.301 486.151 345.147 486.482 344.912C486.813 344.667 486.978 344.379 486.978 344.048C486.978 343.397 486.658 343.072 486.018 343.072C485.421 343.072 484.962 343.312 484.642 343.792C484.322 344.261 484.146 344.827 484.114 345.488C484.583 345.477 485.01 345.44 485.394 345.376ZM494.056 343.168C493.8 343.072 493.491 343.024 493.128 343.024C492.765 343.024 492.472 343.109 492.248 343.28C492.035 343.44 491.928 343.643 491.928 343.888C491.928 344.123 491.965 344.309 492.04 344.448C492.125 344.576 492.253 344.688 492.424 344.784C492.691 344.923 493.011 345.045 493.384 345.152C493.757 345.248 494.035 345.328 494.216 345.392C494.397 345.445 494.621 345.541 494.888 345.68C495.165 345.819 495.373 345.968 495.512 346.128C495.885 346.523 496.072 347.029 496.072 347.648C496.072 348.448 495.779 349.077 495.192 349.536C494.616 349.984 493.88 350.208 492.984 350.208C491.683 350.208 490.701 350.043 490.04 349.712V347.488L491.48 347.376V348.144C491.48 348.613 491.928 348.848 492.824 348.848C493.72 348.848 494.168 348.523 494.168 347.872C494.168 347.637 494.088 347.445 493.928 347.296C493.779 347.147 493.629 347.045 493.48 346.992C493.331 346.939 493.149 346.885 492.936 346.832C492.733 346.779 492.531 346.725 492.328 346.672C492.136 346.619 491.923 346.549 491.688 346.464C491.464 346.368 491.213 346.235 490.936 346.064C490.392 345.712 490.12 345.125 490.12 344.304C490.12 343.472 490.413 342.832 491 342.384C491.587 341.936 492.323 341.712 493.208 341.712C494.104 341.712 494.989 341.925 495.864 342.352V344.272L494.424 344.384V343.712C494.424 343.445 494.301 343.264 494.056 343.168Z" fill="black"/>
</g>
<defs>
<linearGradient id="paint0_linear_1273_4097" x1="450" y1="0" x2="450" y2="600" gradientUnits="userSpaceOnUse">
<stop stop-color="#1D9DBE"/>
<stop offset="1" stop-color="#F7C59F"/>
</linearGradient>
<linearGradient id="paint1_linear_1273_4097" x1="148" y1="75" x2="179.5" y2="57.5" gradientUnits="userSpaceOnUse">
<stop offset="0.277153" stop-color="#2A5C68"/>
<stop offset="1" stop-color="#2B1E36"/>
</linearGradient>
<clipPath id="clip0_1273_4097">
<rect width="900" height="600" fill="white"/>
</clipPath>
<clipPath id="clip1_1273_4097">
<rect width="3.59929" height="3.59929" fill="white" transform="translate(150.596 54.8643)"/>
</clipPath>
</defs>
</svg>
