<svg width="900" height="600" viewBox="0 0 900 600" fill="none" xmlns="http://www.w3.org/2000/svg">
<g clip-path="url(#clip0_1273_4097)">
<path d="M900 0H0V600H900V0Z" fill="url(#paint0_linear_1273_4097)"/>
<path d="M0 360L21.5 363C43 366 86 372 128.8 379.2C171.7 386.3 214.3 394.7 257.2 398.7C300 402.7 343 402.3 385.8 404.7C428.7 407 471.3 412 514.2 406C557 400 600 383 642.8 387.3C685.7 391.7 728.3 417.3 771.2 417.3C814 417.3 857 391.7 878.5 378.8L900 366V601H878.5C857 601 814 601 771.2 601C728.3 601 685.7 601 642.8 601C600 601 557 601 514.2 601C471.3 601 428.7 601 385.8 601C343 601 300 601 257.2 601C214.3 601 171.7 601 128.8 601C86 601 43 601 21.5 601H0V360Z" fill="#BE8961"/>
<path d="M0 407L21.5 413.7C43 420.3 86 433.7 128.8 438.2C171.7 442.7 214.3 438.3 257.2 438.2C300 438 343 442 385.8 436.2C428.7 430.3 471.3 414.7 514.2 413.2C557 411.7 600 424.3 642.8 426C685.7 427.7 728.3 418.3 771.2 421C814 423.7 857 438.3 878.5 445.7L900 453V601H878.5C857 601 814 601 771.2 601C728.3 601 685.7 601 642.8 601C600 601 557 601 514.2 601C471.3 601 428.7 601 385.8 601C343 601 300 601 257.2 601C214.3 601 171.7 601 128.8 601C86 601 43 601 21.5 601H0V407Z" fill="#FFA968"/>
<path d="M0 484L21.5 484.7C43 485.3 86 486.7 128.8 485C171.7 483.3 214.3 478.7 257.2 470.3C300 462 343 450 385.8 454.7C428.7 459.3 471.3 480.7 514.2 482.3C557 484 600 466 642.8 455.8C685.7 445.7 728.3 443.3 771.2 451.8C814 460.3 857 479.7 878.5 489.3L900 499V601H878.5C857 601 814 601 771.2 601C728.3 601 685.7 601 642.8 601C600 601 557 601 514.2 601C471.3 601 428.7 601 385.8 601C343 601 300 601 257.2 601C214.3 601 171.7 601 128.8 601C86 601 43 601 21.5 601H0V484Z" fill="#2A5C68"/>
<path d="M0 510L21.5 510.8C43 511.7 86 513.3 128.8 516.2C171.7 519 214.3 523 257.2 519.3C300 515.7 343 504.3 385.8 504.7C428.7 505 471.3 517 514.2 521.5C557 526 600 523 642.8 524.2C685.7 525.3 728.3 530.7 771.2 528.8C814 527 857 518 878.5 513.5L900 509V601H878.5C857 601 814 601 771.2 601C728.3 601 685.7 601 642.8 601C600 601 557 601 514.2 601C471.3 601 428.7 601 385.8 601C343 601 300 601 257.2 601C214.3 601 171.7 601 128.8 601C86 601 43 601 21.5 601H0V510Z" fill="#F6A478"/>
<path d="M0 574L21.5 568.2C43 562.3 86 550.7 128.8 548.2C171.7 545.7 214.3 552.3 257.2 554.5C300 556.7 343 554.3 385.8 556.2C428.7 558 471.3 564 514.2 565.7C557 567.3 600 564.7 642.8 564.2C685.7 563.7 728.3 565.3 771.2 565.5C814 565.7 857 564.3 878.5 563.7L900 563V601H878.5C857 601 814 601 771.2 601C728.3 601 685.7 601 642.8 601C600 601 557 601 514.2 601C471.3 601 428.7 601 385.8 601C343 601 300 601 257.2 601C214.3 601 171.7 601 128.8 601C86 601 43 601 21.5 601H0V574Z" fill="#F7C59F"/>
<path d="M761.841 481.887C801.758 487.982 804.511 494.505 807.256 499.484C808.446 500.655 812.115 504.079 813.402 500.784C814.179 498.796 813.304 493.079 797.055 486.49C790.742 484.645 743.82 479.136 761.841 481.887Z" fill="white"/>
<path d="M816.671 522.519C818.921 540.794 816.364 542.745 814.493 544.518C814.121 545.175 813.055 547.179 814.678 547.373C815.659 547.49 818.09 546.457 819 538.553C819.035 535.563 815.656 514.269 816.671 522.519Z" fill="white"/>
<path d="M695.191 504.915C735.89 503.279 728.769 504.915 734.304 504.915C739.84 504.915 742.938 508.759 741.468 504.915C739.997 501.071 733.328 502.593 731.006 502.593C724.467 501.85 676.816 505.653 695.191 504.915Z" fill="white"/>
<path d="M807.112 515.882C805.968 511.67 804.077 508.029 801.641 504.96M801.641 504.96C786.131 485.424 748.491 489.065 740.443 515.882C744.976 533.82 759.719 564.59 782.425 544.164C805.131 523.737 796.518 507.395 789.373 501.778C780.738 501.335 768.694 502.233 760.029 506.285M801.641 504.96C817.162 508.143 801.051 544.164 792.181 555.52C783.312 566.876 768.455 565.574 752.121 532.301C745.37 518.55 750.769 510.616 760.029 506.285M780.06 495.34C761.286 508.408 728.483 538.016 747.464 551.903C771.19 569.263 765.129 522.655 760.029 506.285M766.09 498.089C734.899 495.34 723.635 554.073 747.464 561.017C774.442 573.819 809.209 545.542 801.641 527.311C801.74 513.005 795.788 486.584 771.19 495.34" stroke="#562E2E" stroke-width="3"/>
<path d="M795.09 557.431C798.791 555.007 801.698 552.077 803.875 548.827M803.875 548.827C817.734 528.136 802.016 494.47 773.483 495.71C757.611 505.72 732.644 529.341 759.749 543.742C786.854 558.143 799.86 544.873 802.976 536.438C800.606 528.301 795.834 517.441 789.109 510.733M803.875 548.827C805.828 564.227 765.785 560.986 751.933 556.455C738.08 551.924 734.524 537.748 761.395 511.843C772.501 501.136 781.921 503.563 789.109 510.733M806.181 525.73C787.464 512.584 748.211 491.811 740.937 513.884C731.844 541.475 774.937 520.76 789.109 510.733M798.996 513.688C791.545 483.921 731.116 492.527 732.127 516.838C728.493 545.963 767.097 568.985 782.269 556.07C796.13 551.526 819.742 537.453 803.306 517.518" stroke="#562E2E" stroke-width="3"/>
<path d="M279.739 170.384V148.304L277.003 148.16V144.08H288.619V147.968L287.035 148.112C286.107 148.208 285.643 148.72 285.643 149.648V171.776L288.379 171.92V176H276.763V172.112L278.347 171.968C278.827 171.904 279.179 171.776 279.403 171.584C279.627 171.36 279.739 170.96 279.739 170.384ZM291.241 155.744V151.856H299.353V154.976C301.145 152.416 303.593 151.136 306.697 151.136C309.833 151.136 311.945 152.416 313.033 154.976C314.825 152.416 317.257 151.136 320.329 151.136C322.633 151.136 324.409 151.84 325.657 153.248C326.905 154.624 327.529 156.704 327.529 159.488V172.016L330.265 172.16V176H318.841V172.352L320.425 172.208C320.905 172.144 321.241 172.016 321.433 171.824C321.657 171.6 321.785 171.216 321.817 170.672V160.736C321.817 158.976 321.609 157.68 321.193 156.848C320.809 155.984 319.881 155.552 318.409 155.552C316.937 155.552 315.801 156 315.001 156.896C314.233 157.792 313.849 158.992 313.849 160.496V172.016L316.489 172.16V176H305.161V172.352L306.745 172.208C307.225 172.144 307.577 172.016 307.801 171.824C308.025 171.6 308.137 171.2 308.137 170.624V160.736C308.137 158.976 307.929 157.68 307.513 156.848C307.129 155.984 306.185 155.552 304.681 155.552C303.209 155.552 302.089 156.016 301.321 156.944C300.553 157.872 300.169 159.024 300.169 160.4V172.016L302.761 172.16V176H291.433V172.352L293.017 172.208C293.497 172.144 293.849 172.016 294.073 171.824C294.297 171.6 294.409 171.2 294.409 170.624H294.457V157.376C294.457 156.832 294.361 156.464 294.169 156.272C294.009 156.048 293.705 155.92 293.257 155.888L291.241 155.744ZM354.659 152.816V170.672C354.659 171.184 354.739 171.536 354.899 171.728C355.091 171.92 355.411 172.032 355.859 172.064L357.395 172.16V176H349.763V173.216L349.619 173.168C348.019 175.472 345.827 176.624 343.043 176.624C339.779 176.624 337.363 175.584 335.795 173.504C334.227 171.424 333.443 168.576 333.443 164.96C333.443 160.608 334.499 157.216 336.611 154.784C338.723 152.352 341.891 151.136 346.115 151.136C348.835 151.136 351.683 151.696 354.659 152.816ZM349.091 168.368V155.936C348.195 155.52 346.963 155.312 345.395 155.312C343.251 155.312 341.699 156.176 340.739 157.904C339.779 159.632 339.299 161.92 339.299 164.768C339.299 169.952 340.963 172.544 344.291 172.544C345.699 172.544 346.851 172.128 347.747 171.296C348.643 170.432 349.091 169.456 349.091 168.368ZM381.702 175.952C381.414 179.504 380.39 182.112 378.63 183.776C376.87 185.44 374.118 186.272 370.374 186.272C366.63 186.272 363.702 185.744 361.59 184.688V178.016L366.15 177.632V179.936C366.15 180.8 366.55 181.376 367.35 181.664C368.15 181.984 369.254 182.144 370.662 182.144C372.71 182.144 374.15 181.52 374.982 180.272C375.814 179.056 376.23 177.328 376.23 175.088V172.448C374.694 174.24 372.566 175.136 369.846 175.136C368.182 175.136 366.71 174.816 365.43 174.176C364.182 173.536 363.206 172.672 362.502 171.584C361.126 169.408 360.438 166.848 360.438 163.904C360.438 159.712 361.574 156.544 363.846 154.4C366.118 152.224 369.142 151.136 372.918 151.136C376.054 151.136 379.014 151.728 381.798 152.912V170.72C381.798 173.44 381.766 175.184 381.702 175.952ZM376.23 166.208V155.888C375.11 155.504 373.83 155.312 372.39 155.312C370.438 155.312 368.934 156.032 367.878 157.472C366.854 158.912 366.342 160.864 366.342 163.328C366.342 168.384 368.006 170.912 371.334 170.912C372.71 170.912 373.862 170.496 374.79 169.664C375.75 168.8 376.23 167.648 376.23 166.208ZM398.499 151.136C400.899 151.136 402.803 151.728 404.211 152.912C405.619 154.064 406.323 155.696 406.323 157.808C406.323 159.216 406.019 160.464 405.411 161.552C404.803 162.608 404.051 163.44 403.155 164.048C402.259 164.656 401.171 165.152 399.891 165.536C397.747 166.176 395.331 166.496 392.643 166.496C392.739 168.192 393.267 169.568 394.227 170.624C395.187 171.648 396.659 172.16 398.643 172.16C400.627 172.16 402.611 171.456 404.595 170.048L406.419 173.936C405.779 174.512 404.691 175.104 403.155 175.712C401.651 176.32 399.923 176.624 397.971 176.624C394.067 176.624 391.203 175.552 389.379 173.408C387.555 171.232 386.643 168.256 386.643 164.48C386.643 160.704 387.683 157.536 389.763 154.976C391.843 152.416 394.755 151.136 398.499 151.136ZM396.291 162.128C397.475 161.904 398.563 161.44 399.555 160.736C400.547 160 401.043 159.136 401.043 158.144C401.043 156.192 400.083 155.216 398.163 155.216C396.371 155.216 394.995 155.936 394.035 157.376C393.075 158.784 392.547 160.48 392.451 162.464C393.859 162.432 395.139 162.32 396.291 162.128ZM419.023 155.696V151.856H427.135V154.976C427.967 153.792 429.071 152.864 430.447 152.192C431.823 151.488 433.311 151.136 434.911 151.136C437.343 151.136 439.215 151.84 440.527 153.248C441.871 154.624 442.543 156.704 442.543 159.488V172.016L445.279 172.16V176H433.855V172.352L435.439 172.208C435.919 172.144 436.271 172.016 436.495 171.824C436.719 171.6 436.831 171.2 436.831 170.624V160.736C436.831 158.976 436.559 157.68 436.015 156.848C435.471 155.984 434.431 155.552 432.895 155.552C431.391 155.552 430.191 156.032 429.295 156.992C428.399 157.952 427.951 159.088 427.951 160.4V172.016L430.687 172.16V176H419.263V172.352L420.847 172.208C421.327 172.144 421.679 172.016 421.903 171.824C422.127 171.6 422.239 171.2 422.239 170.624V157.328C422.239 156.368 421.839 155.872 421.039 155.84L419.023 155.696ZM458.663 172.496C462.151 172.496 463.895 169.68 463.895 164.048C463.895 161.2 463.495 159.04 462.695 157.568C461.927 156.096 460.615 155.36 458.759 155.36C456.935 155.36 455.591 156.064 454.727 157.472C453.863 158.88 453.431 160.8 453.431 163.232C453.431 167.744 454.263 170.576 455.927 171.728C456.663 172.24 457.575 172.496 458.663 172.496ZM447.623 163.904C447.623 161.536 447.975 159.488 448.679 157.76C449.383 156 450.327 154.656 451.511 153.728C453.783 152 456.295 151.136 459.047 151.136C460.967 151.136 462.583 151.456 463.895 152.096C465.239 152.704 466.279 153.424 467.015 154.256C467.783 155.056 468.423 156.24 468.935 157.808C469.479 159.344 469.751 161.168 469.751 163.28C469.751 167.696 468.679 171.04 466.535 173.312C464.391 175.584 461.639 176.72 458.279 176.72C454.951 176.72 452.343 175.648 450.455 173.504C448.567 171.328 447.623 168.128 447.623 163.904ZM477.607 146.768H480.727V151.856H487.111L486.631 155.888H480.727V168.512C480.727 169.92 480.983 170.912 481.495 171.488C482.007 172.032 482.791 172.304 483.847 172.304C484.935 172.304 486.023 171.968 487.111 171.296L488.551 174.992C486.951 176.112 484.919 176.672 482.455 176.672C481.015 176.672 479.799 176.48 478.807 176.096C477.815 175.744 477.079 175.344 476.599 174.896C476.119 174.448 475.751 173.792 475.495 172.928C475.239 172.064 475.095 171.392 475.063 170.912C475.031 170.4 475.015 169.664 475.015 168.704V155.888H471.607L472.087 152.384C473.591 152.256 474.727 151.728 475.495 150.8C476.263 149.84 476.967 148.496 477.607 146.768ZM503.006 170.624V155.888H498.878V151.856H503.006V150.032C503.006 146.896 503.726 144.64 505.166 143.264C506.51 141.952 508.478 141.296 511.07 141.296C513.662 141.296 515.966 141.856 517.982 142.976L516.59 146.816C515.054 146.016 513.614 145.616 512.27 145.616C510.926 145.616 509.998 145.952 509.486 146.624C508.974 147.264 508.718 148.256 508.718 149.6V151.856H515.822V155.888H508.718V171.968L512.75 172.16V176H500.03V172.352L501.614 172.208C502.094 172.144 502.446 172.016 502.67 171.824C502.894 171.6 503.006 171.2 503.006 170.624ZM528.319 172.496C531.807 172.496 533.551 169.68 533.551 164.048C533.551 161.2 533.151 159.04 532.351 157.568C531.583 156.096 530.271 155.36 528.415 155.36C526.591 155.36 525.247 156.064 524.383 157.472C523.519 158.88 523.087 160.8 523.087 163.232C523.087 167.744 523.919 170.576 525.583 171.728C526.319 172.24 527.231 172.496 528.319 172.496ZM517.279 163.904C517.279 161.536 517.631 159.488 518.335 157.76C519.039 156 519.983 154.656 521.167 153.728C523.439 152 525.951 151.136 528.703 151.136C530.623 151.136 532.239 151.456 533.551 152.096C534.895 152.704 535.935 153.424 536.671 154.256C537.439 155.056 538.079 156.24 538.591 157.808C539.135 159.344 539.407 161.168 539.407 163.28C539.407 167.696 538.335 171.04 536.191 173.312C534.047 175.584 531.295 176.72 527.935 176.72C524.607 176.72 521.999 175.648 520.111 173.504C518.223 171.328 517.279 168.128 517.279 163.904ZM567.376 172.208V176H559.6V172.88C557.84 175.376 555.248 176.624 551.824 176.624C546.864 176.624 544.384 173.856 544.384 168.32V157.232C544.384 156.368 543.984 155.92 543.184 155.888L541.648 155.792V151.856H550.096V167.072C550.096 168.768 550.336 170.048 550.816 170.912C551.296 171.776 552.288 172.208 553.792 172.208C555.296 172.208 556.496 171.744 557.392 170.816C558.32 169.888 558.784 168.768 558.784 167.456V157.328C558.784 156.816 558.688 156.464 558.496 156.272C558.336 156.048 558.032 155.92 557.584 155.888L556.048 155.792V151.856H564.496V170.672C564.496 171.184 564.576 171.536 564.736 171.728C564.896 171.888 565.216 172 565.696 172.064L567.376 172.208ZM570.007 155.696V151.856H578.119V154.976C578.951 153.792 580.055 152.864 581.431 152.192C582.807 151.488 584.295 151.136 585.895 151.136C588.327 151.136 590.199 151.84 591.511 153.248C592.855 154.624 593.527 156.704 593.527 159.488V172.016L596.263 172.16V176H584.839V172.352L586.423 172.208C586.903 172.144 587.255 172.016 587.479 171.824C587.703 171.6 587.815 171.2 587.815 170.624V160.736C587.815 158.976 587.543 157.68 586.999 156.848C586.455 155.984 585.415 155.552 583.879 155.552C582.375 155.552 581.175 156.032 580.279 156.992C579.383 157.952 578.935 159.088 578.935 160.4V172.016L581.671 172.16V176H570.247V172.352L571.831 172.208C572.311 172.144 572.663 172.016 572.887 171.824C573.111 171.6 573.223 171.2 573.223 170.624V157.328C573.223 156.368 572.823 155.872 572.023 155.84L570.007 155.696ZM611.124 151.136C612.5 151.136 613.812 151.328 615.06 151.712V146.864C615.06 146.16 614.644 145.776 613.812 145.712L611.748 145.568V141.776H620.676V170.96C620.708 171.696 621.108 172.064 621.876 172.064L623.556 172.16V176H615.78V173.168L615.636 173.12C614.196 175.456 612.02 176.624 609.108 176.624C605.46 176.624 602.9 175.408 601.428 172.976C600.084 170.768 599.412 168.064 599.412 164.864C599.412 160.704 600.436 157.376 602.484 154.88C604.564 152.384 607.444 151.136 611.124 151.136ZM615.06 168.512V156.08C613.908 155.568 612.692 155.312 611.412 155.312C609.3 155.312 607.748 156.16 606.756 157.856C605.796 159.552 605.316 161.712 605.316 164.336C605.316 169.712 607.044 172.4 610.5 172.4C611.812 172.4 612.9 172.032 613.764 171.296C614.628 170.528 615.06 169.6 615.06 168.512Z" fill="#2B1E36"/>
<path d="M259.343 558.808C235.421 560.762 236.539 563.16 235.643 591.831L234.953 613.918L219.458 613.434C219.458 613.434 223.397 583.102 213.857 573.143C205.474 564.392 199.055 569.585 189.441 562.251C179.827 554.916 188.664 520.303 191.005 512.216C193.345 504.13 204.423 502.788 205.904 512.682C207.384 522.576 199.662 540.623 204.762 549.224C209.862 557.824 217.723 554.412 221.448 549.745C225.173 545.079 223.17 494.651 228.692 489.759C234.214 484.867 239.747 485.978 241.803 490.169C243.859 494.36 239.923 550.323 239.923 550.323C259.589 550.937 250.504 517.171 260.591 518.893C270.678 520.615 270.707 557.88 259.343 558.808Z" fill="#0B1D2B"/>
<path d="M28.3906 482.479C80.2118 492.979 77.1416 497.934 71.6389 560.885L67.3999 609.38L101.42 612.353C101.42 612.353 100.698 544.978 124.159 525.676C144.775 508.715 157.465 521.746 180.403 508.205C203.342 494.663 193.021 416.647 190.006 398.349C186.991 380.051 163.108 374.232 157.294 395.49C151.481 416.747 163.676 458.236 150.281 475.721C136.886 493.207 120.577 483.697 113.644 472.519C106.71 461.341 124.217 351.554 113.412 339.416C102.607 327.278 90.2148 328.267 84.6258 336.9C79.0368 345.532 73.0809 468.973 73.0809 468.973C29.9012 465.198 58.5651 393.7 36.0513 394.842C13.5375 395.983 3.77562 477.492 28.3906 482.479Z" fill="#0B1D2B"/>
<path d="M584.547 398C585.081 398.036 585.658 398.218 586.122 398.482C586.37 398.255 586.755 397.989 587.026 398.196C587.612 398.639 587.139 399.169 586.708 399.506C586.45 401.187 585.737 403.873 587.167 404.473C589.412 405.321 589.816 398.433 592.975 398.517C594.869 398.568 594.034 401.313 595.909 401.407C597.292 401.478 597.189 398.852 598.342 398.812C599.556 398.77 600.434 399.698 601.047 402.889C602.249 402.884 602.722 403.831 603.27 405.664C603.818 407.492 603.411 411.082 603.214 413.276L602.845 409.7C602.731 410.262 602.555 410.829 602.287 411.42C602.103 412.296 602.032 413.173 602.014 414.045C602.399 414.523 602.427 415.273 602.034 415.709C602.077 416.965 602.159 418.217 602.113 419.473C600.496 419.496 599.017 419.426 597.447 419.473C597.362 418.915 598.145 418.517 599.055 418.053C599.041 417.41 599.045 416.623 599.055 415.826C598.642 415.348 598.633 414.509 599.064 414.101C599.059 413.103 599.026 412.292 598.909 412.043C598.534 411.242 597.944 410.548 597.545 409.831C596.2 410.079 594.747 409.967 593.237 409.61L593.205 413.618C593.566 414.148 593.58 414.917 593.191 415.39C592.97 416.75 593.162 418.114 593.153 419.473H590.434C590.326 418.77 591.489 418.39 592.056 418.062C592.056 417.026 592.239 416.243 592.075 415.235C591.841 414.771 591.826 414.228 592.056 413.792C592.014 412.245 591.901 410.698 591.555 409.151C591.48 409.123 591.184 408.978 591.119 408.903L590.608 413.515C590.87 414.073 590.814 414.795 590.42 415.235C590.111 416.646 590.209 418.025 590.05 419.435L587.181 419.473C587.167 418.896 588.545 418.535 589.07 418.278C589.37 417.275 589.337 416.257 589.384 415.235C589.009 414.668 589.028 413.881 589.436 413.384C589.412 411.589 589.178 409.784 588.573 408.012C583.576 407.735 584.064 404.637 583.919 401.768C583.853 400.491 581.317 401.848 581.106 401.224C580.994 400.9 580.937 400.573 581.106 400.2C581.509 399.296 582.226 399.248 582.826 399.233C583.403 398.888 583.886 398.016 584.491 398H584.547ZM584.233 398.918C584.003 399.042 584.055 399.268 584.106 399.392C584.416 399.484 584.87 399.341 585.081 399.177C584.898 399.036 584.509 398.924 584.233 398.918ZM600.494 410.909C600.351 411.275 600.225 411.64 600.149 411.996C599.998 412.714 599.919 413.435 599.881 414.162C600.232 414.645 600.246 415.385 599.853 415.803C599.865 416.815 599.914 417.828 599.925 418.835C600.137 418.484 600.53 418.179 601.094 418.034C601.086 417.359 601.114 416.515 601.144 415.662C600.82 415.184 600.816 414.462 601.196 414.054C601.228 412.789 601.212 411.739 601.019 411.518C600.834 411.307 600.66 411.106 600.494 410.909Z" fill="black"/>
<path d="M173.829 40.4698C170.564 36.585 133.855 57.9796 132.616 61.0762L152.097 86.9751C152.097 86.9751 174.505 77.1223 173.829 73.5752C173.153 70.0282 156.826 81.4575 155.587 77.629C154.349 73.8004 186.891 62.3149 182.612 57.9796C178.333 53.6444 161.161 69.2963 159.078 65.4678C156.995 61.6393 173.21 58.3175 170.901 53.9822C168.593 49.647 155.193 61.6393 152.716 57.9796C150.239 54.32 179.035 46.663 173.829 40.4698Z" fill="url(#paint1_linear_1273_4097)"/>
<path d="M165.893 70.3111C165.893 80.4987 157.634 88.7574 147.446 88.7574C137.259 88.7574 129 80.4987 129 70.3111C129 60.1235 137.259 51.8647 147.446 51.8647C157.634 51.8647 165.893 60.1235 165.893 70.3111Z" fill="#D8D8D8"/>
<path d="M153.939 74.2957C153.349 76.952 148.369 82.9655 143.019 86.9868C139.387 86.2656 136.4 83.8997 134.718 82.117C136.12 81.3422 145.205 77.8031 147.483 74.1113C149.329 71.1208 140.363 70.1171 147.188 66.5114C151.837 64.0556 157.002 62.785 162.425 61.3462L161.798 62.1947C161.798 62.1947 152.685 65.7366 150.804 68.7987C150.037 70.1269 154.8 70.422 153.939 74.2957Z" fill="#424242"/>
<path d="M150.914 72.8569L150.324 72.9675C150.693 71.6763 146.672 69.5734 147.041 68.7249C147.151 68.2453 150.103 65.4045 161.982 61.6784C153.534 64.9249 148.553 67.1016 147.557 68.7249C147.257 69.5734 151.136 71.2705 150.914 72.8569Z" fill="#D9D9D9" fill-opacity="0.53"/>
<path d="M154.235 71.3074C154.972 72.4142 154.965 73.5209 154.53 74.8491C153.903 77.0626 152.648 78.4277 150.619 80.8257C148.549 83.5807 143.831 87.2819 143.831 87.2819C150.545 88.5732 157.998 86.2858 162.425 78.9811C165.155 74.3326 165.598 68.3191 163.052 62.7852C162.794 62.8221 153.607 66.3269 151.689 68.7249C151.209 69.6103 153.017 69.7579 154.235 71.3074Z" fill="#A03F03"/>
<path d="M143.831 87.2819C150.545 88.5732 157.998 86.2858 162.425 78.9811C164.194 75.9683 165.003 72.3822 164.66 68.7249C161.724 73.2258 158.367 70.8647 154.822 73.4472C154.794 73.8914 154.692 74.3549 154.53 74.8491C153.903 77.0626 152.648 78.4277 150.619 80.8257C148.549 83.5807 143.831 87.2819 143.831 87.2819Z" fill="#A0510C"/>
<path d="M143.831 87.2819C150.545 88.5732 157.998 86.2858 162.425 78.9811C163.319 77.5054 163.79 76.2141 164.122 74.9598C159.695 79.4238 156.891 77.2102 152.171 78.9811C151.714 79.541 151.198 80.1412 150.619 80.8257C148.549 83.5807 143.831 87.2819 143.831 87.2819Z" fill="#824B11"/>
<path d="M143.093 77.1364C140.031 78.9442 136.932 80.3092 134.202 81.5267C130.918 77.5423 130.107 73.5948 130.107 70.9386C130.107 67.36 130.838 64.593 132.136 62.1582C134.968 56.8455 140.621 53.0228 147.299 52.9718C154.124 52.9348 158.514 56.5872 160.728 59.2066C161.023 60.4241 160.469 60.9406 160.469 60.9406L160.396 60.1658C160.064 58.5425 158.44 57.4358 156.817 57.6571C155.009 57.8416 153.054 60.0551 154.493 62.6376C151.984 63.523 149.586 64.3716 145.675 66.5851C144.901 67.0237 143.831 68.1346 143.831 68.8725C143.646 70.7171 146.635 71.8977 146.782 73.0783C147.004 74.1481 146.155 74.9967 143.093 77.1364Z" fill="#133455"/>
<path d="M143.093 77.1364C140.031 78.9442 136.932 80.3092 134.202 81.5267C130.918 77.5423 130.107 73.5948 130.107 70.9386C130.107 67.36 130.838 64.593 132.136 62.1582C134.736 57.2818 139.712 53.6606 145.675 53.0594C145.934 58.6532 151.652 60.2027 151.652 63.6839C149.988 64.3444 148.13 65.196 145.675 66.5851C144.901 67.0237 143.831 68.1346 143.831 68.8725C143.646 70.7171 146.635 71.8977 146.782 73.0783C147.004 74.1481 146.155 74.9967 143.093 77.1364Z" fill="#A03F03"/>
<path d="M143.093 77.1364C140.031 78.9442 136.932 80.3092 134.202 81.5267C130.918 77.5423 130.107 73.5948 130.107 70.9386C130.107 67.36 130.838 64.593 132.136 62.1582C133.35 59.8814 135.082 57.8783 137.19 56.3284C137.965 60.0552 145.27 60.7192 145.675 66.5851C144.901 67.0237 143.831 68.1346 143.831 68.8725C143.646 70.7171 146.635 71.8977 146.782 73.0783C147.004 74.1481 146.155 74.9967 143.093 77.1364Z" fill="#A0510C"/>
<path d="M143.093 77.1364C140.031 78.9442 136.932 80.3092 134.202 81.5267C130.918 77.5423 130.107 73.5948 130.107 70.9386C130.107 68.0793 130.573 65.7382 131.423 63.6706C135.124 68.2084 141.175 64.4823 143.831 68.8725C143.646 70.7171 146.635 71.8977 146.782 73.0783C147.004 74.1481 146.155 74.9967 143.093 77.1364Z" fill="#824B11"/>
<g clip-path="url(#clip1_1273_4097)">
<path d="M153.567 55.0142L153.37 55.4453L152.94 55.6413L153.37 55.8389L153.567 56.2685L153.763 55.8389L154.194 55.6413L153.763 55.4453M151.999 55.4845L151.607 56.3469L150.745 56.7388L151.607 57.1308L151.999 57.9931L152.391 57.1308L153.254 56.7388L152.391 56.3469M153.567 57.2092L153.37 57.6388L152.94 57.8363L153.37 58.0323L153.567 58.4635L153.763 58.0323L154.194 57.8363L153.763 57.6388" fill="#D8D8D8"/>
</g>
<ellipse cx="475.5" cy="328.5" rx="102.5" ry="42.5" fill="#D9D9D9"/>
<path d="M578.763 398.966L526.168 356.506L546.845 339.382L578.763 398.966Z" fill="#D9D9D9"/>
<path d="M416.301 302.168C417.571 302.168 418.632 302.616 419.485 303.512C420.339 304.408 420.765 305.779 420.765 307.624C420.765 309.459 420.339 310.851 419.485 311.8C418.643 312.739 417.496 313.208 416.045 313.208C414.605 313.208 413.475 312.739 412.653 311.8C411.832 310.861 411.421 309.496 411.421 307.704C411.421 306.723 411.565 305.864 411.853 305.128C412.141 304.381 412.52 303.805 412.989 303.4C413.939 302.579 415.043 302.168 416.301 302.168ZM413.421 307.624C413.421 310.269 414.339 311.592 416.173 311.592C417.155 311.592 417.843 311.187 418.237 310.376C418.6 309.661 418.781 308.787 418.781 307.752C418.781 306.824 418.621 305.971 418.301 305.192C418.12 304.765 417.843 304.429 417.469 304.184C417.107 303.939 416.632 303.816 416.045 303.816C415.459 303.816 414.952 304.008 414.525 304.392C414.109 304.776 413.821 305.24 413.661 305.784C413.501 306.328 413.421 306.941 413.421 307.624ZM430.258 311.736V313H427.666V311.96C427.079 312.792 426.215 313.208 425.074 313.208C423.421 313.208 422.594 312.285 422.594 310.44V306.744C422.594 306.456 422.461 306.307 422.194 306.296L421.682 306.264V304.952H424.498V310.024C424.498 310.589 424.578 311.016 424.738 311.304C424.898 311.592 425.229 311.736 425.73 311.736C426.231 311.736 426.631 311.581 426.93 311.272C427.239 310.963 427.394 310.589 427.394 310.152V306.776C427.394 306.605 427.362 306.488 427.298 306.424C427.245 306.349 427.143 306.307 426.994 306.296L426.482 306.264V304.952H429.298V311.224C429.298 311.395 429.325 311.512 429.378 311.576C429.431 311.629 429.538 311.667 429.698 311.688L430.258 311.736ZM432.223 311.208V306.776C432.223 306.605 432.191 306.488 432.127 306.424C432.074 306.349 431.972 306.307 431.823 306.296L431.151 306.248V304.952H433.855V306.152C434.047 305.736 434.346 305.395 434.751 305.128C435.156 304.851 435.62 304.712 436.143 304.712C436.676 304.712 437.183 304.829 437.663 305.064V307.448L436.175 307.56V306.824C436.175 306.611 436.122 306.477 436.015 306.424C435.898 306.371 435.754 306.344 435.583 306.344C435.156 306.344 434.804 306.499 434.527 306.808C434.26 307.107 434.127 307.491 434.127 307.96V311.672L435.519 311.736V313H431.231V311.784L431.759 311.736C431.919 311.715 432.036 311.672 432.111 311.608C432.186 311.533 432.223 311.4 432.223 311.208ZM442.721 314.52V306.776C442.721 306.595 442.689 306.472 442.625 306.408C442.572 306.333 442.47 306.296 442.321 306.296L441.649 306.248V304.952H444.353V305.992C444.524 305.672 444.833 305.379 445.281 305.112C445.729 304.845 446.262 304.712 446.881 304.712C448.812 304.712 449.777 306.067 449.777 308.776C449.777 310.216 449.462 311.32 448.833 312.088C448.204 312.856 447.35 313.24 446.273 313.24C445.633 313.24 445.062 313.085 444.561 312.776V314.984L445.857 315.048V316.312H441.729V315.096L442.257 315.048C442.417 315.027 442.534 314.979 442.609 314.904C442.684 314.84 442.721 314.712 442.721 314.52ZM447.793 308.936C447.793 307.155 447.254 306.264 446.177 306.264C445.729 306.264 445.345 306.403 445.025 306.68C444.716 306.947 444.561 307.267 444.561 307.64V311.32C444.966 311.587 445.457 311.72 446.033 311.72C446.62 311.72 447.057 311.453 447.345 310.92C447.644 310.387 447.793 309.725 447.793 308.936ZM451.895 311.208V303.416C451.895 303.245 451.863 303.128 451.799 303.064C451.745 303 451.644 302.963 451.495 302.952L450.935 302.92V301.592H453.783V305.896C454.337 305.107 455.116 304.712 456.119 304.712C456.929 304.712 457.553 304.947 457.991 305.416C458.439 305.875 458.663 306.568 458.663 307.496V311.672L459.575 311.72V313H455.767V311.784L456.295 311.736C456.455 311.715 456.572 311.672 456.647 311.608C456.721 311.533 456.759 311.4 456.759 311.208V307.912C456.759 307.357 456.668 306.931 456.487 306.632C456.316 306.333 455.975 306.184 455.463 306.184C454.961 306.184 454.556 306.344 454.247 306.664C453.948 306.973 453.799 307.352 453.799 307.8V311.672L454.711 311.72V313H450.903V311.784L451.431 311.736C451.591 311.715 451.708 311.672 451.783 311.608C451.857 311.533 451.895 311.4 451.895 311.208ZM464.192 311.832C465.355 311.832 465.936 310.893 465.936 309.016C465.936 308.067 465.803 307.347 465.536 306.856C465.28 306.365 464.843 306.12 464.224 306.12C463.616 306.12 463.168 306.355 462.88 306.824C462.592 307.293 462.448 307.933 462.448 308.744C462.448 310.248 462.726 311.192 463.28 311.576C463.526 311.747 463.83 311.832 464.192 311.832ZM460.512 308.968C460.512 308.179 460.63 307.496 460.864 306.92C461.099 306.333 461.414 305.885 461.808 305.576C462.566 305 463.403 304.712 464.32 304.712C464.96 304.712 465.499 304.819 465.936 305.032C466.384 305.235 466.731 305.475 466.976 305.752C467.232 306.019 467.446 306.413 467.616 306.936C467.798 307.448 467.888 308.056 467.888 308.76C467.888 310.232 467.531 311.347 466.816 312.104C466.102 312.861 465.184 313.24 464.064 313.24C462.955 313.24 462.086 312.883 461.456 312.168C460.827 311.443 460.512 310.376 460.512 308.968ZM470.507 303.256H471.547V304.952H473.675L473.515 306.296H471.547V310.504C471.547 310.973 471.632 311.304 471.803 311.496C471.974 311.677 472.235 311.768 472.587 311.768C472.95 311.768 473.312 311.656 473.675 311.432L474.155 312.664C473.622 313.037 472.944 313.224 472.123 313.224C471.643 313.224 471.238 313.16 470.907 313.032C470.576 312.915 470.331 312.781 470.171 312.632C470.011 312.483 469.888 312.264 469.803 311.976C469.718 311.688 469.67 311.464 469.659 311.304C469.648 311.133 469.643 310.888 469.643 310.568V306.296H468.507L468.667 305.128C469.168 305.085 469.547 304.909 469.803 304.6C470.059 304.28 470.294 303.832 470.507 303.256ZM478.13 311.832C479.293 311.832 479.874 310.893 479.874 309.016C479.874 308.067 479.741 307.347 479.474 306.856C479.218 306.365 478.781 306.12 478.162 306.12C477.554 306.12 477.106 306.355 476.818 306.824C476.53 307.293 476.386 307.933 476.386 308.744C476.386 310.248 476.663 311.192 477.218 311.576C477.463 311.747 477.767 311.832 478.13 311.832ZM474.45 308.968C474.45 308.179 474.567 307.496 474.802 306.92C475.037 306.333 475.351 305.885 475.746 305.576C476.503 305 477.341 304.712 478.258 304.712C478.898 304.712 479.437 304.819 479.874 305.032C480.322 305.235 480.669 305.475 480.914 305.752C481.17 306.019 481.383 306.413 481.554 306.936C481.735 307.448 481.826 308.056 481.826 308.76C481.826 310.232 481.469 311.347 480.754 312.104C480.039 312.861 479.122 313.24 478.002 313.24C476.893 313.24 476.023 312.883 475.394 312.168C474.765 311.443 474.45 310.376 474.45 308.968ZM490.023 312.984C489.927 314.168 489.586 315.037 488.999 315.592C488.412 316.147 487.495 316.424 486.247 316.424C484.999 316.424 484.023 316.248 483.319 315.896V313.672L484.839 313.544V314.312C484.839 314.6 484.972 314.792 485.239 314.888C485.506 314.995 485.874 315.048 486.343 315.048C487.026 315.048 487.506 314.84 487.783 314.424C488.06 314.019 488.199 313.443 488.199 312.696V311.816C487.687 312.413 486.978 312.712 486.071 312.712C485.516 312.712 485.026 312.605 484.599 312.392C484.183 312.179 483.858 311.891 483.623 311.528C483.164 310.803 482.935 309.949 482.935 308.968C482.935 307.571 483.314 306.515 484.071 305.8C484.828 305.075 485.836 304.712 487.095 304.712C488.14 304.712 489.127 304.909 490.055 305.304V311.24C490.055 312.147 490.044 312.728 490.023 312.984ZM488.199 309.736V306.296C487.826 306.168 487.399 306.104 486.919 306.104C486.268 306.104 485.767 306.344 485.415 306.824C485.074 307.304 484.903 307.955 484.903 308.776C484.903 310.461 485.458 311.304 486.567 311.304C487.026 311.304 487.41 311.165 487.719 310.888C488.039 310.6 488.199 310.216 488.199 309.736ZM492.598 311.208V306.776C492.598 306.605 492.566 306.488 492.502 306.424C492.449 306.349 492.347 306.307 492.198 306.296L491.526 306.248V304.952H494.23V306.152C494.422 305.736 494.721 305.395 495.126 305.128C495.531 304.851 495.995 304.712 496.518 304.712C497.051 304.712 497.558 304.829 498.038 305.064V307.448L496.55 307.56V306.824C496.55 306.611 496.497 306.477 496.39 306.424C496.273 306.371 496.129 306.344 495.958 306.344C495.531 306.344 495.179 306.499 494.902 306.808C494.635 307.107 494.502 307.491 494.502 307.96V311.672L495.894 311.736V313H491.606V311.784L492.134 311.736C492.294 311.715 492.411 311.672 492.486 311.608C492.561 311.533 492.598 311.4 492.598 311.208ZM506.181 305.272V311.224C506.181 311.395 506.207 311.512 506.261 311.576C506.325 311.64 506.431 311.677 506.581 311.688L507.093 311.72V313H504.549V312.072L504.501 312.056C503.967 312.824 503.237 313.208 502.309 313.208C501.221 313.208 500.415 312.861 499.893 312.168C499.37 311.475 499.109 310.525 499.109 309.32C499.109 307.869 499.461 306.739 500.165 305.928C500.869 305.117 501.925 304.712 503.333 304.712C504.239 304.712 505.189 304.899 506.181 305.272ZM504.325 310.456V306.312C504.026 306.173 503.615 306.104 503.093 306.104C502.378 306.104 501.861 306.392 501.541 306.968C501.221 307.544 501.061 308.307 501.061 309.256C501.061 310.984 501.615 311.848 502.725 311.848C503.194 311.848 503.578 311.709 503.877 311.432C504.175 311.144 504.325 310.819 504.325 310.456ZM508.815 314.52V306.776C508.815 306.595 508.783 306.472 508.719 306.408C508.665 306.333 508.564 306.296 508.415 306.296L507.743 306.248V304.952H510.447V305.992C510.617 305.672 510.927 305.379 511.375 305.112C511.823 304.845 512.356 304.712 512.975 304.712C514.905 304.712 515.871 306.067 515.871 308.776C515.871 310.216 515.556 311.32 514.927 312.088C514.297 312.856 513.444 313.24 512.367 313.24C511.727 313.24 511.156 313.085 510.655 312.776V314.984L511.951 315.048V316.312H507.823V315.096L508.351 315.048C508.511 315.027 508.628 314.979 508.703 314.904C508.777 314.84 508.815 314.712 508.815 314.52ZM513.887 308.936C513.887 307.155 513.348 306.264 512.271 306.264C511.823 306.264 511.439 306.403 511.119 306.68C510.809 306.947 510.655 307.267 510.655 307.64V311.32C511.06 311.587 511.551 311.72 512.127 311.72C512.713 311.72 513.151 311.453 513.439 310.92C513.737 310.387 513.887 309.725 513.887 308.936ZM517.988 311.208V303.416C517.988 303.245 517.956 303.128 517.892 303.064C517.839 303 517.738 302.963 517.588 302.952L517.028 302.92V301.592H519.876V305.896C520.431 305.107 521.21 304.712 522.212 304.712C523.023 304.712 523.647 304.947 524.084 305.416C524.532 305.875 524.756 306.568 524.756 307.496V311.672L525.668 311.72V313H521.86V311.784L522.388 311.736C522.548 311.715 522.666 311.672 522.74 311.608C522.815 311.533 522.852 311.4 522.852 311.208V307.912C522.852 307.357 522.762 306.931 522.58 306.632C522.41 306.333 522.068 306.184 521.556 306.184C521.055 306.184 520.65 306.344 520.34 306.664C520.042 306.973 519.892 307.352 519.892 307.8V311.672L520.804 311.72V313H516.996V311.784L517.524 311.736C517.684 311.715 517.802 311.672 517.876 311.608C517.951 311.533 517.988 311.4 517.988 311.208ZM530.622 304.712C531.422 304.712 532.057 304.909 532.526 305.304C532.995 305.688 533.23 306.232 533.23 306.936C533.23 307.405 533.129 307.821 532.926 308.184C532.723 308.536 532.473 308.813 532.174 309.016C531.875 309.219 531.513 309.384 531.086 309.512C530.371 309.725 529.566 309.832 528.67 309.832C528.702 310.397 528.878 310.856 529.198 311.208C529.518 311.549 530.009 311.72 530.67 311.72C531.331 311.72 531.993 311.485 532.654 311.016L533.262 312.312C533.049 312.504 532.686 312.701 532.174 312.904C531.673 313.107 531.097 313.208 530.446 313.208C529.145 313.208 528.19 312.851 527.582 312.136C526.974 311.411 526.67 310.419 526.67 309.16C526.67 307.901 527.017 306.845 527.71 305.992C528.403 305.139 529.374 304.712 530.622 304.712ZM529.886 308.376C530.281 308.301 530.643 308.147 530.974 307.912C531.305 307.667 531.47 307.379 531.47 307.048C531.47 306.397 531.15 306.072 530.51 306.072C529.913 306.072 529.454 306.312 529.134 306.792C528.814 307.261 528.638 307.827 528.606 308.488C529.075 308.477 529.502 308.44 529.886 308.376ZM535.348 311.208V306.776C535.348 306.605 535.316 306.488 535.252 306.424C535.199 306.349 535.097 306.307 534.948 306.296L534.276 306.248V304.952H536.98V306.152C537.172 305.736 537.471 305.395 537.876 305.128C538.281 304.851 538.745 304.712 539.268 304.712C539.801 304.712 540.308 304.829 540.788 305.064V307.448L539.3 307.56V306.824C539.3 306.611 539.247 306.477 539.14 306.424C539.023 306.371 538.879 306.344 538.708 306.344C538.281 306.344 537.929 306.499 537.652 306.808C537.385 307.107 537.252 307.491 537.252 307.96V311.672L538.644 311.736V313H534.356V311.784L534.884 311.736C535.044 311.715 535.161 311.672 535.236 311.608C535.311 311.533 535.348 311.4 535.348 311.208ZM435.437 334.984C435.341 336.168 435 337.037 434.413 337.592C433.826 338.147 432.909 338.424 431.661 338.424C430.413 338.424 429.437 338.248 428.733 337.896V335.672L430.253 335.544V336.312C430.253 336.6 430.386 336.792 430.653 336.888C430.92 336.995 431.288 337.048 431.757 337.048C432.44 337.048 432.92 336.84 433.197 336.424C433.474 336.019 433.613 335.443 433.613 334.696V333.816C433.101 334.413 432.392 334.712 431.485 334.712C430.93 334.712 430.44 334.605 430.013 334.392C429.597 334.179 429.272 333.891 429.037 333.528C428.578 332.803 428.349 331.949 428.349 330.968C428.349 329.571 428.728 328.515 429.485 327.8C430.242 327.075 431.25 326.712 432.509 326.712C433.554 326.712 434.541 326.909 435.469 327.304V333.24C435.469 334.147 435.458 334.728 435.437 334.984ZM433.613 331.736V328.296C433.24 328.168 432.813 328.104 432.333 328.104C431.682 328.104 431.181 328.344 430.829 328.824C430.488 329.304 430.317 329.955 430.317 330.776C430.317 332.461 430.872 333.304 431.981 333.304C432.44 333.304 432.824 333.165 433.133 332.888C433.453 332.6 433.613 332.216 433.613 331.736ZM440.544 333.832C441.707 333.832 442.288 332.893 442.288 331.016C442.288 330.067 442.155 329.347 441.888 328.856C441.632 328.365 441.195 328.12 440.576 328.12C439.968 328.12 439.52 328.355 439.232 328.824C438.944 329.293 438.8 329.933 438.8 330.744C438.8 332.248 439.077 333.192 439.632 333.576C439.877 333.747 440.181 333.832 440.544 333.832ZM436.864 330.968C436.864 330.179 436.981 329.496 437.216 328.92C437.451 328.333 437.765 327.885 438.16 327.576C438.917 327 439.755 326.712 440.672 326.712C441.312 326.712 441.851 326.819 442.288 327.032C442.736 327.235 443.083 327.475 443.328 327.752C443.584 328.019 443.797 328.413 443.968 328.936C444.149 329.448 444.24 330.056 444.24 330.76C444.24 332.232 443.883 333.347 443.168 334.104C442.453 334.861 441.536 335.24 440.416 335.24C439.307 335.24 438.437 334.883 437.808 334.168C437.179 333.443 436.864 332.376 436.864 330.968ZM446.859 325.256H447.899V326.952H450.027L449.867 328.296H447.899V332.504C447.899 332.973 447.984 333.304 448.155 333.496C448.325 333.677 448.587 333.768 448.939 333.768C449.301 333.768 449.664 333.656 450.027 333.432L450.507 334.664C449.973 335.037 449.296 335.224 448.475 335.224C447.995 335.224 447.589 335.16 447.259 335.032C446.928 334.915 446.683 334.781 446.523 334.632C446.363 334.483 446.24 334.264 446.155 333.976C446.069 333.688 446.021 333.464 446.011 333.304C446 333.133 445.995 332.888 445.995 332.568V328.296H444.859L445.019 327.128C445.52 327.085 445.899 326.909 446.155 326.6C446.411 326.28 446.645 325.832 446.859 325.256ZM457.181 323.592V333.672L458.093 333.72V335H454.285V333.784L454.813 333.736C455.122 333.704 455.277 333.533 455.277 333.224V325.336C455.277 325.101 455.144 324.973 454.877 324.952L454.317 324.92V323.592H457.181ZM462.763 333.832C463.925 333.832 464.507 332.893 464.507 331.016C464.507 330.067 464.373 329.347 464.107 328.856C463.851 328.365 463.413 328.12 462.795 328.12C462.187 328.12 461.739 328.355 461.451 328.824C461.163 329.293 461.019 329.933 461.019 330.744C461.019 332.248 461.296 333.192 461.851 333.576C462.096 333.747 462.4 333.832 462.763 333.832ZM459.083 330.968C459.083 330.179 459.2 329.496 459.435 328.92C459.669 328.333 459.984 327.885 460.379 327.576C461.136 327 461.973 326.712 462.891 326.712C463.531 326.712 464.069 326.819 464.507 327.032C464.955 327.235 465.301 327.475 465.547 327.752C465.803 328.019 466.016 328.413 466.187 328.936C466.368 329.448 466.459 330.056 466.459 330.76C466.459 332.232 466.101 333.347 465.387 334.104C464.672 334.861 463.755 335.24 462.635 335.24C461.525 335.24 460.656 334.883 460.027 334.168C459.397 333.443 459.083 332.376 459.083 330.968ZM471.728 328.168C471.472 328.072 471.162 328.024 470.8 328.024C470.437 328.024 470.144 328.109 469.92 328.28C469.706 328.44 469.6 328.643 469.6 328.888C469.6 329.123 469.637 329.309 469.712 329.448C469.797 329.576 469.925 329.688 470.096 329.784C470.362 329.923 470.682 330.045 471.056 330.152C471.429 330.248 471.706 330.328 471.888 330.392C472.069 330.445 472.293 330.541 472.56 330.68C472.837 330.819 473.045 330.968 473.184 331.128C473.557 331.523 473.744 332.029 473.744 332.648C473.744 333.448 473.45 334.077 472.864 334.536C472.288 334.984 471.552 335.208 470.656 335.208C469.354 335.208 468.373 335.043 467.712 334.712V332.488L469.152 332.376V333.144C469.152 333.613 469.6 333.848 470.496 333.848C471.392 333.848 471.84 333.523 471.84 332.872C471.84 332.637 471.76 332.445 471.6 332.296C471.45 332.147 471.301 332.045 471.152 331.992C471.002 331.939 470.821 331.885 470.608 331.832C470.405 331.779 470.202 331.725 470 331.672C469.808 331.619 469.594 331.549 469.36 331.464C469.136 331.368 468.885 331.235 468.608 331.064C468.064 330.712 467.792 330.125 467.792 329.304C467.792 328.472 468.085 327.832 468.672 327.384C469.258 326.936 469.994 326.712 470.88 326.712C471.776 326.712 472.661 326.925 473.536 327.352V329.272L472.096 329.384V328.712C472.096 328.445 471.973 328.264 471.728 328.168ZM476.374 325.256H477.414V326.952H479.542L479.382 328.296H477.414V332.504C477.414 332.973 477.5 333.304 477.67 333.496C477.841 333.677 478.102 333.768 478.454 333.768C478.817 333.768 479.18 333.656 479.542 333.432L480.022 334.664C479.489 335.037 478.812 335.224 477.99 335.224C477.51 335.224 477.105 335.16 476.774 335.032C476.444 334.915 476.198 334.781 476.038 334.632C475.878 334.483 475.756 334.264 475.67 333.976C475.585 333.688 475.537 333.464 475.526 333.304C475.516 333.133 475.51 332.888 475.51 332.568V328.296H474.374L474.534 327.128C475.036 327.085 475.414 326.909 475.67 326.6C475.926 326.28 476.161 325.832 476.374 325.256ZM486.729 326.952V333.672L487.641 333.72V335H483.833V333.784L484.361 333.736C484.67 333.704 484.825 333.533 484.825 333.224V328.776C484.825 328.595 484.793 328.472 484.729 328.408C484.675 328.344 484.574 328.312 484.425 328.312L483.865 328.28V326.952H486.729ZM484.713 325.576C484.489 325.352 484.377 325.069 484.377 324.728C484.377 324.387 484.489 324.104 484.713 323.88C484.937 323.645 485.23 323.528 485.593 323.528C485.955 323.528 486.249 323.645 486.473 323.88C486.707 324.104 486.825 324.387 486.825 324.728C486.825 325.069 486.707 325.352 486.473 325.576C486.249 325.789 485.955 325.896 485.593 325.896C485.23 325.896 484.937 325.789 484.713 325.576ZM488.471 328.232V326.952H491.175V327.992C491.452 327.597 491.82 327.288 492.279 327.064C492.738 326.829 493.234 326.712 493.767 326.712C494.578 326.712 495.202 326.947 495.639 327.416C496.087 327.875 496.311 328.568 496.311 329.496V333.672L497.223 333.72V335H493.415V333.784L493.943 333.736C494.103 333.715 494.22 333.672 494.295 333.608C494.37 333.533 494.407 333.4 494.407 333.208V329.912C494.407 329.325 494.316 328.893 494.135 328.616C493.954 328.328 493.607 328.184 493.095 328.184C492.594 328.184 492.194 328.344 491.895 328.664C491.596 328.984 491.447 329.363 491.447 329.8V333.672L492.359 333.72V335H488.551V333.784L489.079 333.736C489.239 333.715 489.356 333.672 489.431 333.608C489.506 333.533 489.543 333.4 489.543 333.208V328.776C489.543 328.456 489.41 328.291 489.143 328.28L488.471 328.232ZM503.14 325.256H504.18V326.952H506.308L506.148 328.296H504.18V332.504C504.18 332.973 504.265 333.304 504.436 333.496C504.607 333.677 504.868 333.768 505.22 333.768C505.583 333.768 505.945 333.656 506.308 333.432L506.788 334.664C506.255 335.037 505.577 335.224 504.756 335.224C504.276 335.224 503.871 335.16 503.54 335.032C503.209 334.915 502.964 334.781 502.804 334.632C502.644 334.483 502.521 334.264 502.436 333.976C502.351 333.688 502.303 333.464 502.292 333.304C502.281 333.133 502.276 332.888 502.276 332.568V328.296H501.14L501.3 327.128C501.801 327.085 502.18 326.909 502.436 326.6C502.692 326.28 502.927 325.832 503.14 325.256ZM508.371 333.208V325.416C508.371 325.245 508.339 325.128 508.275 325.064C508.222 325 508.121 324.963 507.971 324.952L507.411 324.92V323.592H510.259V327.896C510.814 327.107 511.593 326.712 512.595 326.712C513.406 326.712 514.03 326.947 514.467 327.416C514.915 327.875 515.139 328.568 515.139 329.496V333.672L516.051 333.72V335H512.243V333.784L512.771 333.736C512.931 333.715 513.049 333.672 513.123 333.608C513.198 333.533 513.235 333.4 513.235 333.208V329.912C513.235 329.357 513.145 328.931 512.963 328.632C512.793 328.333 512.451 328.184 511.939 328.184C511.438 328.184 511.033 328.344 510.723 328.664C510.425 328.973 510.275 329.352 510.275 329.8V333.672L511.187 333.72V335H507.379V333.784L507.907 333.736C508.067 333.715 508.185 333.672 508.259 333.608C508.334 333.533 508.371 333.4 508.371 333.208ZM521.005 326.712C521.805 326.712 522.44 326.909 522.909 327.304C523.378 327.688 523.613 328.232 523.613 328.936C523.613 329.405 523.512 329.821 523.309 330.184C523.106 330.536 522.856 330.813 522.557 331.016C522.258 331.219 521.896 331.384 521.469 331.512C520.754 331.725 519.949 331.832 519.053 331.832C519.085 332.397 519.261 332.856 519.581 333.208C519.901 333.549 520.392 333.72 521.053 333.72C521.714 333.72 522.376 333.485 523.037 333.016L523.645 334.312C523.432 334.504 523.069 334.701 522.557 334.904C522.056 335.107 521.48 335.208 520.829 335.208C519.528 335.208 518.573 334.851 517.965 334.136C517.357 333.411 517.053 332.419 517.053 331.16C517.053 329.901 517.4 328.845 518.093 327.992C518.786 327.139 519.757 326.712 521.005 326.712ZM520.269 330.376C520.664 330.301 521.026 330.147 521.357 329.912C521.688 329.667 521.853 329.379 521.853 329.048C521.853 328.397 521.533 328.072 520.893 328.072C520.296 328.072 519.837 328.312 519.517 328.792C519.197 329.261 519.021 329.827 518.989 330.488C519.458 330.477 519.885 330.44 520.269 330.376ZM458.989 348.712C459.448 348.712 459.885 348.776 460.301 348.904V347.288C460.301 347.053 460.163 346.925 459.885 346.904L459.197 346.856V345.592H462.173V355.32C462.184 355.565 462.317 355.688 462.573 355.688L463.133 355.72V357H460.541V356.056L460.493 356.04C460.013 356.819 459.288 357.208 458.317 357.208C457.101 357.208 456.248 356.803 455.757 355.992C455.309 355.256 455.085 354.355 455.085 353.288C455.085 351.901 455.427 350.792 456.109 349.96C456.803 349.128 457.763 348.712 458.989 348.712ZM460.301 354.504V350.36C459.917 350.189 459.512 350.104 459.085 350.104C458.381 350.104 457.864 350.387 457.533 350.952C457.213 351.517 457.053 352.237 457.053 353.112C457.053 354.904 457.629 355.8 458.781 355.8C459.219 355.8 459.581 355.677 459.869 355.432C460.157 355.176 460.301 354.867 460.301 354.504ZM472.547 355.736V357H469.955V355.96C469.368 356.792 468.504 357.208 467.363 357.208C465.71 357.208 464.883 356.285 464.883 354.44V350.744C464.883 350.456 464.75 350.307 464.483 350.296L463.971 350.264V348.952H466.787V354.024C466.787 354.589 466.867 355.016 467.027 355.304C467.187 355.592 467.518 355.736 468.019 355.736C468.52 355.736 468.92 355.581 469.219 355.272C469.528 354.963 469.683 354.589 469.683 354.152V350.776C469.683 350.605 469.651 350.488 469.587 350.424C469.534 350.349 469.432 350.307 469.283 350.296L468.771 350.264V348.952H471.587V355.224C471.587 355.395 471.614 355.512 471.667 355.576C471.72 355.629 471.827 355.667 471.987 355.688L472.547 355.736ZM473.424 350.232V348.952H476.128V349.992C476.406 349.597 476.774 349.288 477.232 349.064C477.691 348.829 478.187 348.712 478.72 348.712C479.531 348.712 480.155 348.947 480.592 349.416C481.04 349.875 481.264 350.568 481.264 351.496V355.672L482.176 355.72V357H478.368V355.784L478.896 355.736C479.056 355.715 479.174 355.672 479.248 355.608C479.323 355.533 479.36 355.4 479.36 355.208V351.912C479.36 351.325 479.27 350.893 479.088 350.616C478.907 350.328 478.56 350.184 478.048 350.184C477.547 350.184 477.147 350.344 476.848 350.664C476.55 350.984 476.4 351.363 476.4 351.8V355.672L477.312 355.72V357H473.504V355.784L474.032 355.736C474.192 355.715 474.31 355.672 474.384 355.608C474.459 355.533 474.496 355.4 474.496 355.208V350.776C474.496 350.456 474.363 350.291 474.096 350.28L473.424 350.232ZM487.13 348.712C487.93 348.712 488.565 348.909 489.034 349.304C489.503 349.688 489.738 350.232 489.738 350.936C489.738 351.405 489.637 351.821 489.434 352.184C489.231 352.536 488.981 352.813 488.682 353.016C488.383 353.219 488.021 353.384 487.594 353.512C486.879 353.725 486.074 353.832 485.178 353.832C485.21 354.397 485.386 354.856 485.706 355.208C486.026 355.549 486.517 355.72 487.178 355.72C487.839 355.72 488.501 355.485 489.162 355.016L489.77 356.312C489.557 356.504 489.194 356.701 488.682 356.904C488.181 357.107 487.605 357.208 486.954 357.208C485.653 357.208 484.698 356.851 484.09 356.136C483.482 355.411 483.178 354.419 483.178 353.16C483.178 351.901 483.525 350.845 484.218 349.992C484.911 349.139 485.882 348.712 487.13 348.712ZM486.394 352.376C486.789 352.301 487.151 352.147 487.482 351.912C487.813 351.667 487.978 351.379 487.978 351.048C487.978 350.397 487.658 350.072 487.018 350.072C486.421 350.072 485.962 350.312 485.642 350.792C485.322 351.261 485.146 351.827 485.114 352.488C485.583 352.477 486.01 352.44 486.394 352.376ZM495.056 350.168C494.8 350.072 494.491 350.024 494.128 350.024C493.765 350.024 493.472 350.109 493.248 350.28C493.035 350.44 492.928 350.643 492.928 350.888C492.928 351.123 492.965 351.309 493.04 351.448C493.125 351.576 493.253 351.688 493.424 351.784C493.691 351.923 494.011 352.045 494.384 352.152C494.757 352.248 495.035 352.328 495.216 352.392C495.397 352.445 495.621 352.541 495.888 352.68C496.165 352.819 496.373 352.968 496.512 353.128C496.885 353.523 497.072 354.029 497.072 354.648C497.072 355.448 496.779 356.077 496.192 356.536C495.616 356.984 494.88 357.208 493.984 357.208C492.683 357.208 491.701 357.043 491.04 356.712V354.488L492.48 354.376V355.144C492.48 355.613 492.928 355.848 493.824 355.848C494.72 355.848 495.168 355.523 495.168 354.872C495.168 354.637 495.088 354.445 494.928 354.296C494.779 354.147 494.629 354.045 494.48 353.992C494.331 353.939 494.149 353.885 493.936 353.832C493.733 353.779 493.531 353.725 493.328 353.672C493.136 353.619 492.923 353.549 492.688 353.464C492.464 353.368 492.213 353.235 491.936 353.064C491.392 352.712 491.12 352.125 491.12 351.304C491.12 350.472 491.413 349.832 492 349.384C492.587 348.936 493.323 348.712 494.208 348.712C495.104 348.712 495.989 348.925 496.864 349.352V351.272L495.424 351.384V350.712C495.424 350.445 495.301 350.264 495.056 350.168Z" fill="black"/>
</g>
<defs>
<linearGradient id="paint0_linear_1273_4097" x1="450" y1="0" x2="450" y2="600" gradientUnits="userSpaceOnUse">
<stop stop-color="#1D9DBE"/>
<stop offset="1" stop-color="#F7C59F"/>
</linearGradient>
<linearGradient id="paint1_linear_1273_4097" x1="148" y1="75" x2="179.5" y2="57.5" gradientUnits="userSpaceOnUse">
<stop offset="0.277153" stop-color="#2A5C68"/>
<stop offset="1" stop-color="#2B1E36"/>
</linearGradient>
<clipPath id="clip0_1273_4097">
<rect width="900" height="600" fill="white"/>
</clipPath>
<clipPath id="clip1_1273_4097">
<rect width="3.59929" height="3.59929" fill="white" transform="translate(150.596 54.8642)"/>
</clipPath>
</defs>
</svg>
