<svg width="900" height="600" viewBox="0 0 900 600" fill="none" xmlns="http://www.w3.org/2000/svg">
<g clip-path="url(#clip0_1405_3853)">
<path d="M900 0H0V600H900V0Z" fill="url(#paint0_linear_1405_3853)"/>
<path d="M0 360L21.5 363C43 366 86 372 128.8 379.2C171.7 386.3 214.3 394.7 257.2 398.7C300 402.7 343 402.3 385.8 404.7C428.7 407 471.3 412 514.2 406C557 400 600 383 642.8 387.3C685.7 391.7 728.3 417.3 771.2 417.3C814 417.3 857 391.7 878.5 378.8L900 366V601H878.5C857 601 814 601 771.2 601C728.3 601 685.7 601 642.8 601C600 601 557 601 514.2 601C471.3 601 428.7 601 385.8 601C343 601 300 601 257.2 601C214.3 601 171.7 601 128.8 601C86 601 43 601 21.5 601H0V360Z" fill="#BE8961"/>
<path d="M0 407L21.5 413.7C43 420.3 86 433.7 128.8 438.2C171.7 442.7 214.3 438.3 257.2 438.2C300 438 343 442 385.8 436.2C428.7 430.3 471.3 414.7 514.2 413.2C557 411.7 600 424.3 642.8 426C685.7 427.7 728.3 418.3 771.2 421C814 423.7 857 438.3 878.5 445.7L900 453V601H878.5C857 601 814 601 771.2 601C728.3 601 685.7 601 642.8 601C600 601 557 601 514.2 601C471.3 601 428.7 601 385.8 601C343 601 300 601 257.2 601C214.3 601 171.7 601 128.8 601C86 601 43 601 21.5 601H0V407Z" fill="#FFA968"/>
<path d="M0 484L21.5 484.7C43 485.3 86 486.7 128.8 485C171.7 483.3 214.3 478.7 257.2 470.3C300 462 343 450 385.8 454.7C428.7 459.3 471.3 480.7 514.2 482.3C557 484 600 466 642.8 455.8C685.7 445.7 728.3 443.3 771.2 451.8C814 460.3 857 479.7 878.5 489.3L900 499V601H878.5C857 601 814 601 771.2 601C728.3 601 685.7 601 642.8 601C600 601 557 601 514.2 601C471.3 601 428.7 601 385.8 601C343 601 300 601 257.2 601C214.3 601 171.7 601 128.8 601C86 601 43 601 21.5 601H0V484Z" fill="#2A5C68"/>
<path d="M0 510L21.5 510.8C43 511.7 86 513.3 128.8 516.2C171.7 519 214.3 523 257.2 519.3C300 515.7 343 504.3 385.8 504.7C428.7 505 471.3 517 514.2 521.5C557 526 600 523 642.8 524.2C685.7 525.3 728.3 530.7 771.2 528.8C814 527 857 518 878.5 513.5L900 509V601H878.5C857 601 814 601 771.2 601C728.3 601 685.7 601 642.8 601C600 601 557 601 514.2 601C471.3 601 428.7 601 385.8 601C343 601 300 601 257.2 601C214.3 601 171.7 601 128.8 601C86 601 43 601 21.5 601H0V510Z" fill="#F6A478"/>
<path d="M0 574L21.5 568.2C43 562.3 86 550.7 128.8 548.2C171.7 545.7 214.3 552.3 257.2 554.5C300 556.7 343 554.3 385.8 556.2C428.7 558 471.3 564 514.2 565.7C557 567.3 600 564.7 642.8 564.2C685.7 563.7 728.3 565.3 771.2 565.5C814 565.7 857 564.3 878.5 563.7L900 563V601H878.5C857 601 814 601 771.2 601C728.3 601 685.7 601 642.8 601C600 601 557 601 514.2 601C471.3 601 428.7 601 385.8 601C343 601 300 601 257.2 601C214.3 601 171.7 601 128.8 601C86 601 43 601 21.5 601H0V574Z" fill="#F7C59F"/>
<path d="M761.841 481.887C801.758 487.982 804.511 494.505 807.256 499.484C808.446 500.655 812.115 504.079 813.402 500.784C814.179 498.796 813.304 493.079 797.055 486.49C790.742 484.645 743.82 479.136 761.841 481.887Z" fill="white"/>
<path d="M816.671 522.519C818.921 540.794 816.364 542.745 814.493 544.518C814.121 545.175 813.055 547.179 814.678 547.373C815.659 547.49 818.09 546.457 819 538.553C819.035 535.563 815.656 514.269 816.671 522.519Z" fill="white"/>
<path d="M695.191 504.915C735.89 503.279 728.769 504.915 734.304 504.915C739.84 504.915 742.938 508.759 741.468 504.915C739.997 501.071 733.328 502.593 731.006 502.593C724.467 501.85 676.816 505.653 695.191 504.915Z" fill="white"/>
<path d="M807.112 515.882C805.968 511.67 804.077 508.029 801.641 504.96M801.641 504.96C786.131 485.424 748.491 489.065 740.443 515.882C744.976 533.82 759.719 564.59 782.425 544.164C805.131 523.737 796.518 507.395 789.373 501.778C780.738 501.335 768.694 502.233 760.029 506.285M801.641 504.96C817.162 508.143 801.051 544.164 792.181 555.52C783.312 566.875 768.455 565.574 752.121 532.301C745.37 518.55 750.769 510.616 760.029 506.285M780.06 495.34C761.286 508.408 728.483 538.015 747.464 551.903C771.19 569.262 765.129 522.655 760.029 506.285M766.09 498.089C734.899 495.34 723.635 554.073 747.464 561.017C774.442 573.819 809.209 545.542 801.641 527.31C801.74 513.005 795.788 486.584 771.19 495.34" stroke="#562E2E" stroke-width="3"/>
<path d="M795.09 557.431C798.791 555.007 801.698 552.077 803.875 548.827M803.875 548.827C817.734 528.136 802.016 494.47 773.483 495.71C757.611 505.72 732.644 529.341 759.749 543.742C786.854 558.143 799.86 544.873 802.976 536.438C800.606 528.301 795.834 517.441 789.109 510.733M803.875 548.827C805.828 564.227 765.785 560.986 751.933 556.455C738.08 551.924 734.524 537.748 761.395 511.843C772.501 501.136 781.921 503.563 789.109 510.733M806.181 525.73C787.464 512.584 748.211 491.811 740.937 513.884C731.844 541.475 774.937 520.76 789.109 510.733M798.996 513.688C791.545 483.921 731.116 492.527 732.127 516.838C728.493 545.963 767.097 568.985 782.269 556.07C796.13 551.526 819.742 537.453 803.306 517.518" stroke="#562E2E" stroke-width="3"/>
<path d="M244.234 153.824H247.594V162.8H251.866V167.36H247.546V171.68L251.53 171.92V176H237.418V172.064L240.394 171.824C241.322 171.76 241.786 171.312 241.786 170.48V167.312H229.498V163.328L238.522 144.368L243.082 146.624L235.354 162.8H242.218V160.208L244.234 153.824ZM266.369 144.464C273.633 144.464 277.265 149.728 277.265 160.256C277.265 165.856 276.321 169.968 274.433 172.592C272.545 175.184 269.745 176.48 266.033 176.48C262.321 176.48 259.553 175.2 257.729 172.64C255.905 170.048 254.993 166.032 254.993 160.592C254.993 155.152 256.001 151.104 258.017 148.448C260.033 145.792 262.817 144.464 266.369 144.464ZM262.145 169.424C263.073 171.056 264.401 171.872 266.129 171.872C267.857 171.872 269.185 171.024 270.113 169.328C271.073 167.632 271.553 164.688 271.553 160.496C271.553 156.272 271.089 153.328 270.161 151.664C269.265 150 267.937 149.168 266.177 149.168C264.417 149.168 263.073 150.064 262.145 151.856C261.249 153.616 260.801 156.576 260.801 160.736C260.801 164.864 261.249 167.76 262.145 169.424ZM295.656 153.824H299.016V162.8H303.288V167.36H298.968V171.68L302.952 171.92V176H288.84V172.064L291.816 171.824C292.744 171.76 293.208 171.312 293.208 170.48V167.312H280.92V163.328L289.944 144.368L294.504 146.624L286.776 162.8H293.64V160.208L295.656 153.824ZM315.784 164.384V159.968H328.36V164.384H315.784ZM340.958 176V172.112L342.542 171.968C343.47 171.872 343.934 171.424 343.934 170.624V148.304L341.198 148.16V144.08H354.926C358.51 144.08 361.294 144.928 363.278 146.624C365.294 148.288 366.302 150.8 366.302 154.16C366.302 157.52 365.166 160.144 362.894 162.032C360.622 163.888 357.614 164.816 353.87 164.816H349.79V171.776L354.398 171.92V176H340.958ZM349.79 160.16H353.246C357.918 160.16 360.254 158.256 360.254 154.448C360.254 152.144 359.646 150.624 358.43 149.888C357.246 149.12 355.342 148.736 352.718 148.736H349.79V160.16ZM390.87 152.816V170.672C390.87 171.184 390.95 171.536 391.11 171.728C391.302 171.92 391.622 172.032 392.07 172.064L393.606 172.16V176H385.974V173.216L385.83 173.168C384.23 175.472 382.038 176.624 379.254 176.624C375.99 176.624 373.574 175.584 372.006 173.504C370.438 171.424 369.654 168.576 369.654 164.96C369.654 160.608 370.71 157.216 372.822 154.784C374.934 152.352 378.102 151.136 382.326 151.136C385.046 151.136 387.894 151.696 390.87 152.816ZM385.302 168.368V155.936C384.406 155.52 383.174 155.312 381.606 155.312C379.462 155.312 377.91 156.176 376.95 157.904C375.99 159.632 375.51 161.92 375.51 164.768C375.51 169.952 377.174 172.544 380.502 172.544C381.91 172.544 383.062 172.128 383.958 171.296C384.854 170.432 385.302 169.456 385.302 168.368ZM417.913 175.952C417.625 179.504 416.601 182.112 414.841 183.776C413.081 185.44 410.329 186.272 406.585 186.272C402.841 186.272 399.913 185.744 397.801 184.688V178.016L402.361 177.632V179.936C402.361 180.8 402.761 181.376 403.561 181.664C404.361 181.984 405.465 182.144 406.873 182.144C408.921 182.144 410.361 181.52 411.193 180.272C412.025 179.056 412.441 177.328 412.441 175.088V172.448C410.905 174.24 408.777 175.136 406.057 175.136C404.393 175.136 402.921 174.816 401.641 174.176C400.393 173.536 399.417 172.672 398.713 171.584C397.337 169.408 396.649 166.848 396.649 163.904C396.649 159.712 397.785 156.544 400.057 154.4C402.329 152.224 405.353 151.136 409.129 151.136C412.265 151.136 415.225 151.728 418.009 152.912V170.72C418.009 173.44 417.977 175.184 417.913 175.952ZM412.441 166.208V155.888C411.321 155.504 410.041 155.312 408.601 155.312C406.649 155.312 405.145 156.032 404.089 157.472C403.065 158.912 402.553 160.864 402.553 163.328C402.553 168.384 404.217 170.912 407.545 170.912C408.921 170.912 410.073 170.496 411.001 169.664C411.961 168.8 412.441 167.648 412.441 166.208ZM434.71 151.136C437.11 151.136 439.014 151.728 440.422 152.912C441.83 154.064 442.534 155.696 442.534 157.808C442.534 159.216 442.23 160.464 441.622 161.552C441.014 162.608 440.262 163.44 439.366 164.048C438.47 164.656 437.382 165.152 436.102 165.536C433.958 166.176 431.542 166.496 428.854 166.496C428.95 168.192 429.478 169.568 430.438 170.624C431.398 171.648 432.87 172.16 434.854 172.16C436.838 172.16 438.822 171.456 440.806 170.048L442.63 173.936C441.99 174.512 440.902 175.104 439.366 175.712C437.862 176.32 436.134 176.624 434.182 176.624C430.278 176.624 427.414 175.552 425.59 173.408C423.766 171.232 422.854 168.256 422.854 164.48C422.854 160.704 423.894 157.536 425.974 154.976C428.054 152.416 430.966 151.136 434.71 151.136ZM432.502 162.128C433.686 161.904 434.774 161.44 435.766 160.736C436.758 160 437.254 159.136 437.254 158.144C437.254 156.192 436.294 155.216 434.374 155.216C432.582 155.216 431.206 155.936 430.246 157.376C429.286 158.784 428.758 160.48 428.662 162.464C430.07 162.432 431.35 162.32 432.502 162.128ZM455.474 176V172.112L457.202 171.968C458.034 171.904 458.45 171.456 458.45 170.624V148.304L455.714 148.16V144.08H464.354L477.938 166.112H478.034V148.304L474.866 148.16V144.08H486.578V147.968L484.85 148.112C484.082 148.176 483.698 148.672 483.698 149.6V176H478.082L464.21 153.632H464.114V171.776L467.234 171.92V176H455.474ZM499.468 172.496C502.956 172.496 504.7 169.68 504.7 164.048C504.7 161.2 504.3 159.04 503.5 157.568C502.732 156.096 501.42 155.36 499.564 155.36C497.74 155.36 496.396 156.064 495.532 157.472C494.668 158.88 494.236 160.8 494.236 163.232C494.236 167.744 495.068 170.576 496.732 171.728C497.468 172.24 498.38 172.496 499.468 172.496ZM488.428 163.904C488.428 161.536 488.78 159.488 489.484 157.76C490.188 156 491.132 154.656 492.316 153.728C494.588 152 497.1 151.136 499.852 151.136C501.772 151.136 503.388 151.456 504.7 152.096C506.044 152.704 507.084 153.424 507.82 154.256C508.588 155.056 509.228 156.24 509.74 157.808C510.284 159.344 510.556 161.168 510.556 163.28C510.556 167.696 509.484 171.04 507.34 173.312C505.196 175.584 502.444 176.72 499.084 176.72C495.756 176.72 493.148 175.648 491.26 173.504C489.372 171.328 488.428 168.128 488.428 163.904ZM518.412 146.768H521.532V151.856H527.916L527.436 155.888H521.532V168.512C521.532 169.92 521.788 170.912 522.3 171.488C522.812 172.032 523.596 172.304 524.652 172.304C525.74 172.304 526.828 171.968 527.916 171.296L529.356 174.992C527.756 176.112 525.724 176.672 523.26 176.672C521.82 176.672 520.604 176.48 519.612 176.096C518.62 175.744 517.884 175.344 517.404 174.896C516.924 174.448 516.556 173.792 516.3 172.928C516.044 172.064 515.9 171.392 515.868 170.912C515.836 170.4 515.82 169.664 515.82 168.704V155.888H512.412L512.892 152.384C514.396 152.256 515.532 151.728 516.3 150.8C517.068 149.84 517.772 148.496 518.412 146.768ZM540.835 176V172.112L542.419 171.968C543.347 171.872 543.811 171.424 543.811 170.624V148.304L541.075 148.16V144.08H564.259V152.048L559.363 152.384V150.464C559.363 149.92 559.283 149.536 559.123 149.312C558.963 149.088 558.579 148.976 557.971 148.976H549.667V157.472H561.475V162.368H549.667V171.776L553.939 171.92V176H540.835ZM575.968 172.496C579.456 172.496 581.2 169.68 581.2 164.048C581.2 161.2 580.8 159.04 580 157.568C579.232 156.096 577.92 155.36 576.064 155.36C574.24 155.36 572.896 156.064 572.032 157.472C571.168 158.88 570.736 160.8 570.736 163.232C570.736 167.744 571.568 170.576 573.232 171.728C573.968 172.24 574.88 172.496 575.968 172.496ZM564.928 163.904C564.928 161.536 565.28 159.488 565.984 157.76C566.688 156 567.632 154.656 568.816 153.728C571.088 152 573.6 151.136 576.352 151.136C578.272 151.136 579.888 151.456 581.2 152.096C582.544 152.704 583.584 153.424 584.32 154.256C585.088 155.056 585.728 156.24 586.24 157.808C586.784 159.344 587.056 161.168 587.056 163.28C587.056 167.696 585.984 171.04 583.84 173.312C581.696 175.584 578.944 176.72 575.584 176.72C572.256 176.72 569.648 175.648 567.76 173.504C565.872 171.328 564.928 168.128 564.928 163.904ZM615.024 172.208V176H607.248V172.88C605.488 175.376 602.896 176.624 599.472 176.624C594.512 176.624 592.032 173.856 592.032 168.32V157.232C592.032 156.368 591.632 155.92 590.832 155.888L589.296 155.792V151.856H597.744V167.072C597.744 168.768 597.984 170.048 598.464 170.912C598.944 171.776 599.936 172.208 601.44 172.208C602.944 172.208 604.144 171.744 605.04 170.816C605.968 169.888 606.432 168.768 606.432 167.456V157.328C606.432 156.816 606.336 156.464 606.144 156.272C605.984 156.048 605.68 155.92 605.232 155.888L603.696 155.792V151.856H612.144V170.672C612.144 171.184 612.224 171.536 612.384 171.728C612.544 171.888 612.864 172 613.344 172.064L615.024 172.208ZM617.655 155.696V151.856H625.767V154.976C626.599 153.792 627.703 152.864 629.079 152.192C630.455 151.488 631.943 151.136 633.543 151.136C635.975 151.136 637.847 151.84 639.159 153.248C640.503 154.624 641.175 156.704 641.175 159.488V172.016L643.911 172.16V176H632.487V172.352L634.071 172.208C634.551 172.144 634.903 172.016 635.127 171.824C635.351 171.6 635.463 171.2 635.463 170.624V160.736C635.463 158.976 635.191 157.68 634.647 156.848C634.103 155.984 633.063 155.552 631.527 155.552C630.023 155.552 628.823 156.032 627.927 156.992C627.031 157.952 626.583 159.088 626.583 160.4V172.016L629.319 172.16V176H617.895V172.352L619.479 172.208C619.959 172.144 620.311 172.016 620.535 171.824C620.759 171.6 620.871 171.2 620.871 170.624V157.328C620.871 156.368 620.471 155.872 619.671 155.84L617.655 155.696ZM658.773 151.136C660.149 151.136 661.461 151.328 662.709 151.712V146.864C662.709 146.16 662.293 145.776 661.461 145.712L659.397 145.568V141.776H668.325V170.96C668.357 171.696 668.757 172.064 669.525 172.064L671.205 172.16V176H663.429V173.168L663.285 173.12C661.845 175.456 659.669 176.624 656.757 176.624C653.109 176.624 650.549 175.408 649.077 172.976C647.733 170.768 647.061 168.064 647.061 164.864C647.061 160.704 648.085 157.376 650.133 154.88C652.213 152.384 655.093 151.136 658.773 151.136ZM662.709 168.512V156.08C661.557 155.568 660.341 155.312 659.061 155.312C656.949 155.312 655.397 156.16 654.405 157.856C653.445 159.552 652.965 161.712 652.965 164.336C652.965 169.712 654.693 172.4 658.149 172.4C659.461 172.4 660.549 172.032 661.413 171.296C662.277 170.528 662.709 169.6 662.709 168.512Z" fill="#2B1E36"/>
<path d="M259.343 558.808C235.421 560.762 236.539 563.16 235.643 591.831L234.953 613.918L219.458 613.434C219.458 613.434 223.397 583.102 213.857 573.143C205.474 564.392 199.055 569.585 189.441 562.251C179.827 554.916 188.664 520.303 191.005 512.216C193.345 504.13 204.423 502.788 205.904 512.682C207.384 522.576 199.662 540.623 204.762 549.224C209.862 557.824 217.723 554.412 221.448 549.745C225.173 545.079 223.17 494.651 228.692 489.759C234.214 484.867 239.747 485.978 241.803 490.169C243.859 494.36 239.923 550.323 239.923 550.323C259.589 550.937 250.504 517.171 260.591 518.893C270.678 520.615 270.707 557.88 259.343 558.808Z" fill="#0B1D2B"/>
<path d="M28.3906 482.479C80.2118 492.979 77.1416 497.934 71.6389 560.885L67.3999 609.38L101.42 612.353C101.42 612.353 100.698 544.978 124.159 525.676C144.775 508.715 157.465 521.746 180.403 508.205C203.342 494.663 193.021 416.647 190.006 398.349C186.991 380.051 163.108 374.232 157.294 395.49C151.481 416.747 163.676 458.236 150.281 475.721C136.886 493.207 120.577 483.697 113.644 472.519C106.71 461.341 124.217 351.554 113.412 339.416C102.607 327.278 90.2148 328.267 84.6258 336.9C79.0368 345.532 73.0809 468.973 73.0809 468.973C29.9012 465.198 58.5651 393.7 36.0513 394.842C13.5375 395.983 3.77562 477.492 28.3906 482.479Z" fill="#0B1D2B"/>
<path d="M584.547 398C585.081 398.036 585.658 398.218 586.122 398.482C586.37 398.255 586.755 397.989 587.026 398.196C587.612 398.639 587.139 399.169 586.708 399.506C586.45 401.187 585.737 403.873 587.167 404.473C589.412 405.321 589.816 398.433 592.975 398.517C594.869 398.568 594.034 401.313 595.909 401.407C597.292 401.478 597.189 398.852 598.342 398.812C599.556 398.77 600.434 399.698 601.047 402.889C602.249 402.884 602.722 403.831 603.27 405.664C603.818 407.492 603.411 411.082 603.214 413.276L602.845 409.7C602.731 410.262 602.555 410.829 602.287 411.42C602.103 412.296 602.032 413.173 602.014 414.045C602.399 414.523 602.427 415.273 602.034 415.709C602.077 416.965 602.159 418.217 602.113 419.473C600.496 419.496 599.017 419.426 597.447 419.473C597.362 418.915 598.145 418.517 599.055 418.053C599.041 417.41 599.045 416.623 599.055 415.826C598.642 415.348 598.633 414.509 599.064 414.101C599.059 413.103 599.026 412.292 598.909 412.043C598.534 411.242 597.944 410.548 597.545 409.831C596.2 410.079 594.747 409.967 593.237 409.61L593.205 413.618C593.566 414.148 593.58 414.917 593.191 415.39C592.97 416.75 593.162 418.114 593.153 419.473H590.434C590.326 418.77 591.489 418.39 592.056 418.062C592.056 417.026 592.239 416.243 592.075 415.235C591.841 414.771 591.826 414.228 592.056 413.792C592.014 412.245 591.901 410.698 591.555 409.151C591.48 409.123 591.184 408.978 591.119 408.903L590.608 413.515C590.87 414.073 590.814 414.795 590.42 415.235C590.111 416.646 590.209 418.025 590.05 419.435L587.181 419.473C587.167 418.896 588.545 418.535 589.07 418.278C589.37 417.275 589.337 416.257 589.384 415.235C589.009 414.668 589.028 413.881 589.436 413.384C589.412 411.589 589.178 409.784 588.573 408.012C583.576 407.735 584.064 404.637 583.919 401.768C583.853 400.491 581.317 401.848 581.106 401.224C580.994 400.9 580.937 400.573 581.106 400.2C581.509 399.296 582.226 399.248 582.826 399.233C583.403 398.888 583.886 398.016 584.491 398H584.547ZM584.233 398.918C584.003 399.042 584.055 399.268 584.106 399.392C584.416 399.484 584.87 399.341 585.081 399.177C584.898 399.036 584.509 398.924 584.233 398.918ZM600.494 410.909C600.351 411.275 600.225 411.64 600.149 411.996C599.998 412.714 599.919 413.435 599.881 414.162C600.232 414.645 600.246 415.385 599.853 415.803C599.865 416.815 599.914 417.828 599.925 418.835C600.137 418.484 600.53 418.179 601.094 418.034C601.086 417.359 601.114 416.515 601.144 415.662C600.82 415.184 600.816 414.462 601.196 414.054C601.228 412.789 601.212 411.739 601.019 411.518C600.834 411.307 600.66 411.106 600.494 410.909Z" fill="black"/>
<path d="M173.829 40.4698C170.564 36.585 133.855 57.9796 132.616 61.0762L152.097 86.9751C152.097 86.9751 174.505 77.1223 173.829 73.5752C173.153 70.0282 156.826 81.4575 155.587 77.629C154.349 73.8004 186.891 62.3149 182.612 57.9796C178.333 53.6444 161.161 69.2963 159.078 65.4678C156.995 61.6393 173.21 58.3175 170.901 53.9822C168.593 49.647 155.193 61.6393 152.716 57.9796C150.239 54.32 179.035 46.663 173.829 40.4698Z" fill="url(#paint1_linear_1405_3853)"/>
<path d="M165.893 70.3111C165.893 80.4987 157.634 88.7574 147.446 88.7574C137.259 88.7574 129 80.4987 129 70.3111C129 60.1235 137.259 51.8647 147.446 51.8647C157.634 51.8647 165.893 60.1235 165.893 70.3111Z" fill="#D8D8D8"/>
<path d="M153.939 74.2957C153.349 76.952 148.369 82.9655 143.019 86.9868C139.387 86.2656 136.4 83.8997 134.718 82.117C136.12 81.3422 145.205 77.8031 147.483 74.1113C149.329 71.1208 140.363 70.1171 147.188 66.5114C151.837 64.0556 157.002 62.785 162.425 61.3462L161.798 62.1947C161.798 62.1947 152.685 65.7366 150.804 68.7987C150.037 70.1269 154.8 70.422 153.939 74.2957Z" fill="#424242"/>
<path d="M150.914 72.8569L150.324 72.9675C150.693 71.6763 146.672 69.5734 147.041 68.7249C147.151 68.2453 150.103 65.4045 161.982 61.6784C153.534 64.9249 148.553 67.1016 147.557 68.7249C147.257 69.5734 151.136 71.2705 150.914 72.8569Z" fill="#D9D9D9" fill-opacity="0.53"/>
<path d="M154.235 71.3074C154.972 72.4142 154.965 73.5209 154.53 74.8491C153.903 77.0626 152.648 78.4277 150.619 80.8257C148.549 83.5807 143.831 87.2819 143.831 87.2819C150.545 88.5732 157.998 86.2858 162.425 78.9811C165.155 74.3326 165.598 68.3191 163.052 62.7852C162.794 62.8221 153.607 66.3269 151.689 68.7249C151.209 69.6103 153.017 69.7579 154.235 71.3074Z" fill="#A03F03"/>
<path d="M143.831 87.2819C150.545 88.5732 157.998 86.2858 162.425 78.9811C164.194 75.9683 165.003 72.3822 164.66 68.7249C161.724 73.2258 158.367 70.8647 154.822 73.4472C154.794 73.8914 154.692 74.3549 154.53 74.8491C153.903 77.0626 152.648 78.4277 150.619 80.8257C148.549 83.5807 143.831 87.2819 143.831 87.2819Z" fill="#A0510C"/>
<path d="M143.831 87.2819C150.545 88.5732 157.998 86.2858 162.425 78.9811C163.319 77.5054 163.79 76.2141 164.122 74.9598C159.695 79.4238 156.891 77.2102 152.171 78.9811C151.714 79.541 151.198 80.1412 150.619 80.8257C148.549 83.5807 143.831 87.2819 143.831 87.2819Z" fill="#824B11"/>
<path d="M143.093 77.1364C140.031 78.9442 136.932 80.3092 134.202 81.5267C130.918 77.5423 130.107 73.5948 130.107 70.9386C130.107 67.36 130.838 64.593 132.136 62.1582C134.968 56.8455 140.621 53.0228 147.299 52.9718C154.124 52.9348 158.514 56.5872 160.728 59.2066C161.023 60.4241 160.469 60.9406 160.469 60.9406L160.396 60.1658C160.064 58.5425 158.44 57.4358 156.817 57.6571C155.009 57.8416 153.054 60.0551 154.493 62.6376C151.984 63.523 149.586 64.3716 145.675 66.5851C144.901 67.0237 143.831 68.1346 143.831 68.8725C143.646 70.7171 146.635 71.8977 146.782 73.0783C147.004 74.1481 146.155 74.9967 143.093 77.1364Z" fill="#133455"/>
<path d="M143.093 77.1364C140.031 78.9442 136.932 80.3092 134.202 81.5267C130.918 77.5423 130.107 73.5948 130.107 70.9386C130.107 67.36 130.838 64.593 132.136 62.1582C134.736 57.2818 139.712 53.6606 145.675 53.0594C145.934 58.6532 151.652 60.2027 151.652 63.6839C149.988 64.3444 148.13 65.196 145.675 66.5851C144.901 67.0237 143.831 68.1346 143.831 68.8725C143.646 70.7171 146.635 71.8977 146.782 73.0783C147.004 74.1481 146.155 74.9967 143.093 77.1364Z" fill="#A03F03"/>
<path d="M143.093 77.1364C140.031 78.9442 136.932 80.3092 134.202 81.5267C130.918 77.5423 130.107 73.5948 130.107 70.9386C130.107 67.36 130.838 64.593 132.136 62.1582C133.35 59.8814 135.082 57.8783 137.19 56.3284C137.965 60.0552 145.27 60.7192 145.675 66.5851C144.901 67.0237 143.831 68.1346 143.831 68.8725C143.646 70.7171 146.635 71.8977 146.782 73.0783C147.004 74.1481 146.155 74.9967 143.093 77.1364Z" fill="#A0510C"/>
<path d="M143.093 77.1364C140.031 78.9442 136.932 80.3092 134.202 81.5267C130.918 77.5423 130.107 73.5948 130.107 70.9386C130.107 68.0793 130.573 65.7382 131.423 63.6706C135.124 68.2084 141.175 64.4823 143.831 68.8725C143.646 70.7171 146.635 71.8977 146.782 73.0783C147.004 74.1481 146.155 74.9967 143.093 77.1364Z" fill="#824B11"/>
<g clip-path="url(#clip1_1405_3853)">
<path d="M153.567 55.0142L153.37 55.4453L152.94 55.6413L153.37 55.8389L153.567 56.2685L153.763 55.8389L154.194 55.6413L153.763 55.4453M151.999 55.4845L151.607 56.3469L150.745 56.7388L151.607 57.1308L151.999 57.9931L152.391 57.1308L153.254 56.7388L152.391 56.3469M153.567 57.2092L153.37 57.6388L152.94 57.8363L153.37 58.0323L153.567 58.4635L153.763 58.0323L154.194 57.8363L153.763 57.6388" fill="#D8D8D8"/>
</g>
<ellipse cx="471.5" cy="318.5" rx="106.5" ry="52.5" fill="#D9D9D9"/>
<path d="M578.763 398.966L526.168 356.506L546.845 339.382L578.763 398.966Z" fill="#D9D9D9"/>
<path d="M422.152 312H414.552V310.704L415.08 310.656C415.389 310.624 415.544 310.475 415.544 310.208V302.768L414.632 302.72V301.36H421.96V304.016L420.328 304.128V303.488C420.328 303.307 420.301 303.179 420.248 303.104C420.194 303.029 420.066 302.992 419.864 302.992H417.496V305.728H421.192V307.36H417.496V310.352H420.072C420.264 310.352 420.386 310.315 420.44 310.24C420.493 310.155 420.52 310.021 420.52 309.84V309.04L422.152 309.152V312ZM428.181 303.952H431.557V305.2L431.061 305.232C430.848 305.253 430.704 305.381 430.629 305.616L428.565 312H426.117L423.877 305.632C423.824 305.483 423.765 305.381 423.701 305.328C423.648 305.275 423.552 305.243 423.413 305.232L422.949 305.2V303.952H426.709V305.232L425.733 305.28L427.381 310.544H427.413L429.013 305.28L428.181 305.232V303.952ZM436.255 303.712C437.055 303.712 437.69 303.909 438.159 304.304C438.628 304.688 438.863 305.232 438.863 305.936C438.863 306.405 438.762 306.821 438.559 307.184C438.356 307.536 438.106 307.813 437.807 308.016C437.508 308.219 437.146 308.384 436.719 308.512C436.004 308.725 435.199 308.832 434.303 308.832C434.335 309.397 434.511 309.856 434.831 310.208C435.151 310.549 435.642 310.72 436.303 310.72C436.964 310.72 437.626 310.485 438.287 310.016L438.895 311.312C438.682 311.504 438.319 311.701 437.807 311.904C437.306 312.107 436.73 312.208 436.079 312.208C434.778 312.208 433.823 311.851 433.215 311.136C432.607 310.411 432.303 309.419 432.303 308.16C432.303 306.901 432.65 305.845 433.343 304.992C434.036 304.139 435.007 303.712 436.255 303.712ZM435.519 307.376C435.914 307.301 436.276 307.147 436.607 306.912C436.938 306.667 437.103 306.379 437.103 306.048C437.103 305.397 436.783 305.072 436.143 305.072C435.546 305.072 435.087 305.312 434.767 305.792C434.447 306.261 434.271 306.827 434.239 307.488C434.708 307.477 435.135 307.44 435.519 307.376ZM440.981 310.208V305.776C440.981 305.605 440.949 305.488 440.885 305.424C440.832 305.349 440.73 305.307 440.581 305.296L439.909 305.248V303.952H442.613V305.152C442.805 304.736 443.104 304.395 443.509 304.128C443.914 303.851 444.378 303.712 444.901 303.712C445.434 303.712 445.941 303.829 446.421 304.064V306.448L444.933 306.56V305.824C444.933 305.611 444.88 305.477 444.773 305.424C444.656 305.371 444.512 305.344 444.341 305.344C443.914 305.344 443.562 305.499 443.285 305.808C443.018 306.107 442.885 306.491 442.885 306.96V310.672L444.277 310.736V312H439.989V310.784L440.517 310.736C440.677 310.715 440.794 310.672 440.869 310.608C440.944 310.533 440.981 310.4 440.981 310.208ZM453.268 311.696V310.48C452.681 311.312 451.817 311.728 450.676 311.728C449.022 311.728 448.196 310.805 448.196 308.96V305.744C448.196 305.456 448.062 305.307 447.796 305.296L447.284 305.264V303.952H450.1V308.544C450.1 309.109 450.18 309.536 450.34 309.824C450.5 310.112 450.83 310.256 451.332 310.256C451.833 310.256 452.233 310.101 452.532 309.792C452.841 309.483 452.996 309.109 452.996 308.672V305.776C452.996 305.595 452.964 305.472 452.9 305.408C452.846 305.333 452.745 305.296 452.596 305.296L452.084 305.264V303.952H454.9V311.696C454.9 312.987 454.585 313.931 453.956 314.528C453.337 315.125 452.393 315.424 451.124 315.424C449.865 315.424 448.884 315.248 448.18 314.896V312.672L449.7 312.544V313.312C449.7 313.6 449.833 313.792 450.1 313.888C450.366 313.995 450.734 314.048 451.204 314.048C452.58 314.048 453.268 313.264 453.268 311.696ZM465.051 304.272H466.603L468.267 310.224H468.299L469.387 305.28L468.571 305.232V303.952H471.787V305.184L471.259 305.216C471.045 305.237 470.901 305.365 470.827 305.6L469.307 312H467.003L465.691 307.232H465.643L464.283 312H461.931L460.315 305.616C460.261 305.467 460.203 305.365 460.139 305.312C460.085 305.259 459.989 305.227 459.851 305.216L459.387 305.184V303.952H463.051V305.232L462.155 305.28L463.259 310.192H463.291L465.051 304.272ZM479.657 304.272V310.224C479.657 310.395 479.684 310.512 479.737 310.576C479.801 310.64 479.908 310.677 480.057 310.688L480.569 310.72V312H478.025V311.072L477.977 311.056C477.444 311.824 476.713 312.208 475.785 312.208C474.697 312.208 473.892 311.861 473.369 311.168C472.847 310.475 472.585 309.525 472.585 308.32C472.585 306.869 472.937 305.739 473.641 304.928C474.345 304.117 475.401 303.712 476.809 303.712C477.716 303.712 478.665 303.899 479.657 304.272ZM477.801 309.456V305.312C477.503 305.173 477.092 305.104 476.569 305.104C475.855 305.104 475.337 305.392 475.017 305.968C474.697 306.544 474.537 307.307 474.537 308.256C474.537 309.984 475.092 310.848 476.201 310.848C476.671 310.848 477.055 310.709 477.353 310.432C477.652 310.144 477.801 309.819 477.801 309.456ZM481.455 305.232V303.952H484.159V304.992C484.437 304.597 484.805 304.288 485.263 304.064C485.722 303.829 486.218 303.712 486.751 303.712C487.562 303.712 488.186 303.947 488.623 304.416C489.071 304.875 489.295 305.568 489.295 306.496V310.672L490.207 310.72V312H486.399V310.784L486.927 310.736C487.087 310.715 487.205 310.672 487.279 310.608C487.354 310.533 487.391 310.4 487.391 310.208V306.912C487.391 306.325 487.301 305.893 487.119 305.616C486.938 305.328 486.591 305.184 486.079 305.184C485.578 305.184 485.178 305.344 484.879 305.664C484.581 305.984 484.431 306.363 484.431 306.8V310.672L485.343 310.72V312H481.535V310.784L482.063 310.736C482.223 310.715 482.341 310.672 482.415 310.608C482.49 310.533 482.527 310.4 482.527 310.208V305.776C482.527 305.456 482.394 305.291 482.127 305.28L481.455 305.232ZM495.161 303.712C495.62 303.712 496.057 303.776 496.473 303.904V302.288C496.473 302.053 496.335 301.925 496.057 301.904L495.369 301.856V300.592H498.345V310.32C498.356 310.565 498.489 310.688 498.745 310.688L499.305 310.72V312H496.713V311.056L496.665 311.04C496.185 311.819 495.46 312.208 494.489 312.208C493.273 312.208 492.42 311.803 491.929 310.992C491.481 310.256 491.257 309.355 491.257 308.288C491.257 306.901 491.599 305.792 492.281 304.96C492.975 304.128 493.935 303.712 495.161 303.712ZM496.473 309.504V305.36C496.089 305.189 495.684 305.104 495.257 305.104C494.553 305.104 494.036 305.387 493.705 305.952C493.385 306.517 493.225 307.237 493.225 308.112C493.225 309.904 493.801 310.8 494.953 310.8C495.391 310.8 495.753 310.677 496.041 310.432C496.329 310.176 496.473 309.867 496.473 309.504ZM504.255 303.712C505.055 303.712 505.69 303.909 506.159 304.304C506.628 304.688 506.863 305.232 506.863 305.936C506.863 306.405 506.762 306.821 506.559 307.184C506.356 307.536 506.106 307.813 505.807 308.016C505.508 308.219 505.146 308.384 504.719 308.512C504.004 308.725 503.199 308.832 502.303 308.832C502.335 309.397 502.511 309.856 502.831 310.208C503.151 310.549 503.642 310.72 504.303 310.72C504.964 310.72 505.626 310.485 506.287 310.016L506.895 311.312C506.682 311.504 506.319 311.701 505.807 311.904C505.306 312.107 504.73 312.208 504.079 312.208C502.778 312.208 501.823 311.851 501.215 311.136C500.607 310.411 500.303 309.419 500.303 308.16C500.303 306.901 500.65 305.845 501.343 304.992C502.036 304.139 503.007 303.712 504.255 303.712ZM503.519 307.376C503.914 307.301 504.276 307.147 504.607 306.912C504.938 306.667 505.103 306.379 505.103 306.048C505.103 305.397 504.783 305.072 504.143 305.072C503.546 305.072 503.087 305.312 502.767 305.792C502.447 306.261 502.271 306.827 502.239 307.488C502.708 307.477 503.135 307.44 503.519 307.376ZM508.981 310.208V305.776C508.981 305.605 508.949 305.488 508.885 305.424C508.832 305.349 508.73 305.307 508.581 305.296L507.909 305.248V303.952H510.613V305.152C510.805 304.736 511.104 304.395 511.509 304.128C511.914 303.851 512.378 303.712 512.901 303.712C513.434 303.712 513.941 303.829 514.421 304.064V306.448L512.933 306.56V305.824C512.933 305.611 512.88 305.477 512.773 305.424C512.656 305.371 512.512 305.344 512.341 305.344C511.914 305.344 511.562 305.499 511.285 305.808C511.018 306.107 510.885 306.491 510.885 306.96V310.672L512.277 310.736V312H507.989V310.784L508.517 310.736C508.677 310.715 508.794 310.672 508.869 310.608C508.944 310.533 508.981 310.4 508.981 310.208ZM519.396 303.712C520.196 303.712 520.83 303.909 521.3 304.304C521.769 304.688 522.004 305.232 522.004 305.936C522.004 306.405 521.902 306.821 521.7 307.184C521.497 307.536 521.246 307.813 520.948 308.016C520.649 308.219 520.286 308.384 519.86 308.512C519.145 308.725 518.34 308.832 517.444 308.832C517.476 309.397 517.652 309.856 517.972 310.208C518.292 310.549 518.782 310.72 519.444 310.72C520.105 310.72 520.766 310.485 521.428 310.016L522.036 311.312C521.822 311.504 521.46 311.701 520.948 311.904C520.446 312.107 519.87 312.208 519.22 312.208C517.918 312.208 516.964 311.851 516.356 311.136C515.748 310.411 515.444 309.419 515.444 308.16C515.444 306.901 515.79 305.845 516.484 304.992C517.177 304.139 518.148 303.712 519.396 303.712ZM518.66 307.376C519.054 307.301 519.417 307.147 519.748 306.912C520.078 306.667 520.244 306.379 520.244 306.048C520.244 305.397 519.924 305.072 519.284 305.072C518.686 305.072 518.228 305.312 517.908 305.792C517.588 306.261 517.412 306.827 517.38 307.488C517.849 307.477 518.276 307.44 518.66 307.376ZM524.122 310.208V305.776C524.122 305.605 524.09 305.488 524.026 305.424C523.972 305.349 523.871 305.307 523.722 305.296L523.05 305.248V303.952H525.754V305.152C525.946 304.736 526.244 304.395 526.65 304.128C527.055 303.851 527.519 303.712 528.042 303.712C528.575 303.712 529.082 303.829 529.562 304.064V306.448L528.074 306.56V305.824C528.074 305.611 528.02 305.477 527.914 305.424C527.796 305.371 527.652 305.344 527.482 305.344C527.055 305.344 526.703 305.499 526.426 305.808C526.159 306.107 526.026 306.491 526.026 306.96V310.672L527.418 310.736V312H523.13V310.784L523.658 310.736C523.818 310.715 523.935 310.672 524.01 310.608C524.084 310.533 524.122 310.4 524.122 310.208ZM407.716 325.712C408.516 325.712 409.151 325.909 409.62 326.304C410.089 326.688 410.324 327.232 410.324 327.936C410.324 328.405 410.223 328.821 410.02 329.184C409.817 329.536 409.567 329.813 409.268 330.016C408.969 330.219 408.607 330.384 408.18 330.512C407.465 330.725 406.66 330.832 405.764 330.832C405.796 331.397 405.972 331.856 406.292 332.208C406.612 332.549 407.103 332.72 407.764 332.72C408.425 332.72 409.087 332.485 409.748 332.016L410.356 333.312C410.143 333.504 409.78 333.701 409.268 333.904C408.767 334.107 408.191 334.208 407.54 334.208C406.239 334.208 405.284 333.851 404.676 333.136C404.068 332.411 403.764 331.419 403.764 330.16C403.764 328.901 404.111 327.845 404.804 326.992C405.497 326.139 406.468 325.712 407.716 325.712ZM406.98 329.376C407.375 329.301 407.737 329.147 408.068 328.912C408.399 328.667 408.564 328.379 408.564 328.048C408.564 327.397 408.244 327.072 407.604 327.072C407.007 327.072 406.548 327.312 406.228 327.792C405.908 328.261 405.732 328.827 405.7 329.488C406.169 329.477 406.596 329.44 406.98 329.376ZM416.314 325.952H419.69V327.2L419.194 327.232C418.981 327.253 418.837 327.381 418.762 327.616L416.698 334H414.25L412.01 327.632C411.957 327.483 411.898 327.381 411.834 327.328C411.781 327.275 411.685 327.243 411.546 327.232L411.082 327.2V325.952H414.842V327.232L413.866 327.28L415.514 332.544H415.546L417.146 327.28L416.314 327.232V325.952ZM424.388 325.712C425.188 325.712 425.822 325.909 426.292 326.304C426.761 326.688 426.996 327.232 426.996 327.936C426.996 328.405 426.894 328.821 426.692 329.184C426.489 329.536 426.238 329.813 425.94 330.016C425.641 330.219 425.278 330.384 424.852 330.512C424.137 330.725 423.332 330.832 422.436 330.832C422.468 331.397 422.644 331.856 422.964 332.208C423.284 332.549 423.774 332.72 424.436 332.72C425.097 332.72 425.758 332.485 426.42 332.016L427.028 333.312C426.814 333.504 426.452 333.701 425.94 333.904C425.438 334.107 424.862 334.208 424.212 334.208C422.91 334.208 421.956 333.851 421.348 333.136C420.74 332.411 420.436 331.419 420.436 330.16C420.436 328.901 420.782 327.845 421.476 326.992C422.169 326.139 423.14 325.712 424.388 325.712ZM423.652 329.376C424.046 329.301 424.409 329.147 424.74 328.912C425.07 328.667 425.236 328.379 425.236 328.048C425.236 327.397 424.916 327.072 424.276 327.072C423.678 327.072 423.22 327.312 422.9 327.792C422.58 328.261 422.404 328.827 422.372 329.488C422.841 329.477 423.268 329.44 423.652 329.376ZM428.026 327.232V325.952H430.73V326.992C431.007 326.597 431.375 326.288 431.834 326.064C432.292 325.829 432.788 325.712 433.322 325.712C434.132 325.712 434.756 325.947 435.194 326.416C435.642 326.875 435.866 327.568 435.866 328.496V332.672L436.778 332.72V334H432.97V332.784L433.498 332.736C433.658 332.715 433.775 332.672 433.85 332.608C433.924 332.533 433.962 332.4 433.962 332.208V328.912C433.962 328.325 433.871 327.893 433.69 327.616C433.508 327.328 433.162 327.184 432.65 327.184C432.148 327.184 431.748 327.344 431.45 327.664C431.151 327.984 431.002 328.363 431.002 328.8V332.672L431.914 332.72V334H428.106V332.784L428.634 332.736C428.794 332.715 428.911 332.672 428.986 332.608C429.06 332.533 429.098 332.4 429.098 332.208V327.776C429.098 327.456 428.964 327.291 428.698 327.28L428.026 327.232ZM438.851 324.256H439.891V325.952H442.019L441.859 327.296H439.891V331.504C439.891 331.973 439.976 332.304 440.147 332.496C440.318 332.677 440.579 332.768 440.931 332.768C441.294 332.768 441.656 332.656 442.019 332.432L442.499 333.664C441.966 334.037 441.288 334.224 440.467 334.224C439.987 334.224 439.582 334.16 439.251 334.032C438.92 333.915 438.675 333.781 438.515 333.632C438.355 333.483 438.232 333.264 438.147 332.976C438.062 332.688 438.014 332.464 438.003 332.304C437.992 332.133 437.987 331.888 437.987 331.568V327.296H436.851L437.011 326.128C437.512 326.085 437.891 325.909 438.147 325.6C438.403 325.28 438.638 324.832 438.851 324.256ZM451.274 332.736V334H448.682V332.96C448.095 333.792 447.231 334.208 446.09 334.208C444.436 334.208 443.61 333.285 443.61 331.44V327.744C443.61 327.456 443.476 327.307 443.21 327.296L442.698 327.264V325.952H445.514V331.024C445.514 331.589 445.594 332.016 445.754 332.304C445.914 332.592 446.244 332.736 446.746 332.736C447.247 332.736 447.647 332.581 447.946 332.272C448.255 331.963 448.41 331.589 448.41 331.152V327.776C448.41 327.605 448.378 327.488 448.314 327.424C448.26 327.349 448.159 327.307 448.01 327.296L447.498 327.264V325.952H450.314V332.224C450.314 332.395 450.34 332.512 450.394 332.576C450.447 332.629 450.554 332.667 450.714 332.688L451.274 332.736ZM459.431 326.272V332.224C459.431 332.395 459.457 332.512 459.511 332.576C459.575 332.64 459.681 332.677 459.831 332.688L460.343 332.72V334H457.799V333.072L457.751 333.056C457.217 333.824 456.487 334.208 455.559 334.208C454.471 334.208 453.665 333.861 453.143 333.168C452.62 332.475 452.359 331.525 452.359 330.32C452.359 328.869 452.711 327.739 453.415 326.928C454.119 326.117 455.175 325.712 456.583 325.712C457.489 325.712 458.439 325.899 459.431 326.272ZM457.575 331.456V327.312C457.276 327.173 456.865 327.104 456.343 327.104C455.628 327.104 455.111 327.392 454.791 327.968C454.471 328.544 454.311 329.307 454.311 330.256C454.311 331.984 454.865 332.848 455.975 332.848C456.444 332.848 456.828 332.709 457.127 332.432C457.425 332.144 457.575 331.819 457.575 331.456ZM464.189 322.592V332.672L465.101 332.72V334H461.293V332.784L461.821 332.736C462.13 332.704 462.285 332.533 462.285 332.224V324.336C462.285 324.101 462.152 323.973 461.885 323.952L461.325 323.92V322.592H464.189ZM468.955 322.592V332.672L469.867 332.72V334H466.059V332.784L466.587 332.736C466.896 332.704 467.051 332.533 467.051 332.224V324.336C467.051 324.101 466.917 323.973 466.651 323.952L466.09 323.92V322.592H468.955ZM476.744 333.696V332.48C476.157 333.312 475.293 333.728 474.152 333.728C472.499 333.728 471.672 332.805 471.672 330.96V327.744C471.672 327.456 471.539 327.307 471.272 327.296L470.76 327.264V325.952H473.576V330.544C473.576 331.109 473.656 331.536 473.816 331.824C473.976 332.112 474.307 332.256 474.808 332.256C475.309 332.256 475.709 332.101 476.008 331.792C476.317 331.483 476.472 331.109 476.472 330.672V327.776C476.472 327.595 476.44 327.472 476.376 327.408C476.323 327.333 476.221 327.296 476.072 327.296L475.56 327.264V325.952H478.376V333.696C478.376 334.987 478.061 335.931 477.432 336.528C476.813 337.125 475.869 337.424 474.6 337.424C473.341 337.424 472.36 337.248 471.656 336.896V334.672L473.176 334.544V335.312C473.176 335.6 473.309 335.792 473.576 335.888C473.843 335.995 474.211 336.048 474.68 336.048C476.056 336.048 476.744 335.264 476.744 333.696ZM484.223 332.208V327.776C484.223 327.605 484.191 327.488 484.127 327.424C484.074 327.349 483.972 327.307 483.823 327.296L483.151 327.248V325.952H485.855V327.152C486.047 326.736 486.346 326.395 486.751 326.128C487.156 325.851 487.62 325.712 488.143 325.712C488.676 325.712 489.183 325.829 489.663 326.064V328.448L488.175 328.56V327.824C488.175 327.611 488.122 327.477 488.015 327.424C487.898 327.371 487.754 327.344 487.583 327.344C487.156 327.344 486.804 327.499 486.527 327.808C486.26 328.107 486.127 328.491 486.127 328.96V332.672L487.519 332.736V334H483.231V332.784L483.759 332.736C483.919 332.715 484.036 332.672 484.111 332.608C484.186 332.533 484.223 332.4 484.223 332.208ZM494.638 325.712C495.438 325.712 496.072 325.909 496.542 326.304C497.011 326.688 497.246 327.232 497.246 327.936C497.246 328.405 497.144 328.821 496.942 329.184C496.739 329.536 496.488 329.813 496.19 330.016C495.891 330.219 495.528 330.384 495.102 330.512C494.387 330.725 493.582 330.832 492.686 330.832C492.718 331.397 492.894 331.856 493.214 332.208C493.534 332.549 494.024 332.72 494.686 332.72C495.347 332.72 496.008 332.485 496.67 332.016L497.278 333.312C497.064 333.504 496.702 333.701 496.19 333.904C495.688 334.107 495.112 334.208 494.462 334.208C493.16 334.208 492.206 333.851 491.598 333.136C490.99 332.411 490.686 331.419 490.686 330.16C490.686 328.901 491.032 327.845 491.726 326.992C492.419 326.139 493.39 325.712 494.638 325.712ZM493.902 329.376C494.296 329.301 494.659 329.147 494.99 328.912C495.32 328.667 495.486 328.379 495.486 328.048C495.486 327.397 495.166 327.072 494.526 327.072C493.928 327.072 493.47 327.312 493.15 327.792C492.83 328.261 492.654 328.827 492.622 329.488C493.091 329.477 493.518 329.44 493.902 329.376ZM500.148 324.256H501.188V325.952H503.316L503.156 327.296H501.188V331.504C501.188 331.973 501.273 332.304 501.444 332.496C501.614 332.677 501.876 332.768 502.228 332.768C502.59 332.768 502.953 332.656 503.316 332.432L503.796 333.664C503.262 334.037 502.585 334.224 501.764 334.224C501.284 334.224 500.878 334.16 500.548 334.032C500.217 333.915 499.972 333.781 499.812 333.632C499.652 333.483 499.529 333.264 499.444 332.976C499.358 332.688 499.31 332.464 499.3 332.304C499.289 332.133 499.284 331.888 499.284 331.568V327.296H498.148L498.308 326.128C498.809 326.085 499.188 325.909 499.444 325.6C499.7 325.28 499.934 324.832 500.148 324.256ZM512.571 332.736V334H509.979V332.96C509.392 333.792 508.528 334.208 507.387 334.208C505.733 334.208 504.907 333.285 504.907 331.44V327.744C504.907 327.456 504.773 327.307 504.507 327.296L503.995 327.264V325.952H506.811V331.024C506.811 331.589 506.891 332.016 507.051 332.304C507.211 332.592 507.541 332.736 508.043 332.736C508.544 332.736 508.944 332.581 509.243 332.272C509.552 331.963 509.707 331.589 509.707 331.152V327.776C509.707 327.605 509.675 327.488 509.611 327.424C509.557 327.349 509.456 327.307 509.307 327.296L508.795 327.264V325.952H511.611V332.224C511.611 332.395 511.637 332.512 511.691 332.576C511.744 332.629 511.851 332.667 512.01 332.688L512.571 332.736ZM514.536 332.208V327.776C514.536 327.605 514.504 327.488 514.44 327.424C514.386 327.349 514.285 327.307 514.136 327.296L513.464 327.248V325.952H516.168V327.152C516.36 326.736 516.658 326.395 517.064 326.128C517.469 325.851 517.933 325.712 518.456 325.712C518.989 325.712 519.496 325.829 519.976 326.064V328.448L518.488 328.56V327.824C518.488 327.611 518.434 327.477 518.328 327.424C518.21 327.371 518.066 327.344 517.896 327.344C517.469 327.344 517.117 327.499 516.84 327.808C516.573 328.107 516.44 328.491 516.44 328.96V332.672L517.832 332.736V334H513.544V332.784L514.072 332.736C514.232 332.715 514.349 332.672 514.424 332.608C514.498 332.533 514.536 332.4 514.536 332.208ZM520.838 327.232V325.952H523.542V326.992C523.82 326.597 524.188 326.288 524.646 326.064C525.105 325.829 525.601 325.712 526.134 325.712C526.945 325.712 527.569 325.947 528.006 326.416C528.454 326.875 528.678 327.568 528.678 328.496V332.672L529.59 332.72V334H525.782V332.784L526.31 332.736C526.47 332.715 526.588 332.672 526.662 332.608C526.737 332.533 526.774 332.4 526.774 332.208V328.912C526.774 328.325 526.684 327.893 526.502 327.616C526.321 327.328 525.974 327.184 525.462 327.184C524.961 327.184 524.561 327.344 524.262 327.664C523.964 327.984 523.814 328.363 523.814 328.8V332.672L524.726 332.72V334H520.918V332.784L521.446 332.736C521.606 332.715 521.724 332.672 521.798 332.608C521.873 332.533 521.91 332.4 521.91 332.208V327.776C521.91 327.456 521.777 327.291 521.51 327.28L520.838 327.232ZM534.72 327.168C534.464 327.072 534.155 327.024 533.792 327.024C533.429 327.024 533.136 327.109 532.912 327.28C532.699 327.44 532.592 327.643 532.592 327.888C532.592 328.123 532.629 328.309 532.704 328.448C532.789 328.576 532.917 328.688 533.088 328.784C533.355 328.923 533.675 329.045 534.048 329.152C534.421 329.248 534.699 329.328 534.88 329.392C535.061 329.445 535.285 329.541 535.552 329.68C535.829 329.819 536.037 329.968 536.176 330.128C536.549 330.523 536.736 331.029 536.736 331.648C536.736 332.448 536.443 333.077 535.856 333.536C535.28 333.984 534.544 334.208 533.648 334.208C532.347 334.208 531.365 334.043 530.704 333.712V331.488L532.144 331.376V332.144C532.144 332.613 532.592 332.848 533.488 332.848C534.384 332.848 534.832 332.523 534.832 331.872C534.832 331.637 534.752 331.445 534.592 331.296C534.443 331.147 534.293 331.045 534.144 330.992C533.995 330.939 533.813 330.885 533.6 330.832C533.397 330.779 533.195 330.725 532.992 330.672C532.8 330.619 532.587 330.549 532.352 330.464C532.128 330.368 531.877 330.235 531.6 330.064C531.056 329.712 530.784 329.125 530.784 328.304C530.784 327.472 531.077 326.832 531.664 326.384C532.251 325.936 532.987 325.712 533.872 325.712C534.768 325.712 535.653 325.925 536.528 326.352V328.272L535.088 328.384V327.712C535.088 327.445 534.965 327.264 534.72 327.168ZM539.027 334.24C538.653 334.24 538.365 334.139 538.163 333.936C537.96 333.723 537.859 333.451 537.859 333.12C537.859 332.779 537.96 332.501 538.163 332.288C538.376 332.064 538.659 331.952 539.011 331.952C539.373 331.952 539.661 332.059 539.875 332.272C540.088 332.475 540.195 332.747 540.195 333.088C540.195 333.419 540.093 333.696 539.891 333.92C539.688 334.133 539.4 334.24 539.027 334.24Z" fill="black"/>
</g>
<defs>
<linearGradient id="paint0_linear_1405_3853" x1="450" y1="0" x2="450" y2="600" gradientUnits="userSpaceOnUse">
<stop stop-color="#1D9DBE"/>
<stop offset="1" stop-color="#F7C59F"/>
</linearGradient>
<linearGradient id="paint1_linear_1405_3853" x1="148" y1="75" x2="179.5" y2="57.5" gradientUnits="userSpaceOnUse">
<stop offset="0.277153" stop-color="#2A5C68"/>
<stop offset="1" stop-color="#2B1E36"/>
</linearGradient>
<clipPath id="clip0_1405_3853">
<rect width="900" height="600" fill="white"/>
</clipPath>
<clipPath id="clip1_1405_3853">
<rect width="3.59929" height="3.59929" fill="white" transform="translate(150.596 54.8643)"/>
</clipPath>
</defs>
</svg>
