<svg width="900" height="600" viewBox="0 0 900 600" fill="none" xmlns="http://www.w3.org/2000/svg">
<g clip-path="url(#clip0_1338_2525)">
<path d="M900 0H0V600H900V0Z" fill="url(#paint0_linear_1338_2525)"/>
<path d="M0 360L21.5 363C43 366 86 372 128.8 379.2C171.7 386.3 214.3 394.7 257.2 398.7C300 402.7 343 402.3 385.8 404.7C428.7 407 471.3 412 514.2 406C557 400 600 383 642.8 387.3C685.7 391.7 728.3 417.3 771.2 417.3C814 417.3 857 391.7 878.5 378.8L900 366V601H878.5C857 601 814 601 771.2 601C728.3 601 685.7 601 642.8 601C600 601 557 601 514.2 601C471.3 601 428.7 601 385.8 601C343 601 300 601 257.2 601C214.3 601 171.7 601 128.8 601C86 601 43 601 21.5 601H0V360Z" fill="#BE8961"/>
<path d="M0 407L21.5 413.7C43 420.3 86 433.7 128.8 438.2C171.7 442.7 214.3 438.3 257.2 438.2C300 438 343 442 385.8 436.2C428.7 430.3 471.3 414.7 514.2 413.2C557 411.7 600 424.3 642.8 426C685.7 427.7 728.3 418.3 771.2 421C814 423.7 857 438.3 878.5 445.7L900 453V601H878.5C857 601 814 601 771.2 601C728.3 601 685.7 601 642.8 601C600 601 557 601 514.2 601C471.3 601 428.7 601 385.8 601C343 601 300 601 257.2 601C214.3 601 171.7 601 128.8 601C86 601 43 601 21.5 601H0V407Z" fill="#FFA968"/>
<path d="M0 484L21.5 484.7C43 485.3 86 486.7 128.8 485C171.7 483.3 214.3 478.7 257.2 470.3C300 462 343 450 385.8 454.7C428.7 459.3 471.3 480.7 514.2 482.3C557 484 600 466 642.8 455.8C685.7 445.7 728.3 443.3 771.2 451.8C814 460.3 857 479.7 878.5 489.3L900 499V601H878.5C857 601 814 601 771.2 601C728.3 601 685.7 601 642.8 601C600 601 557 601 514.2 601C471.3 601 428.7 601 385.8 601C343 601 300 601 257.2 601C214.3 601 171.7 601 128.8 601C86 601 43 601 21.5 601H0V484Z" fill="#2A5C68"/>
<path d="M0 510L21.5 510.8C43 511.7 86 513.3 128.8 516.2C171.7 519 214.3 523 257.2 519.3C300 515.7 343 504.3 385.8 504.7C428.7 505 471.3 517 514.2 521.5C557 526 600 523 642.8 524.2C685.7 525.3 728.3 530.7 771.2 528.8C814 527 857 518 878.5 513.5L900 509V601H878.5C857 601 814 601 771.2 601C728.3 601 685.7 601 642.8 601C600 601 557 601 514.2 601C471.3 601 428.7 601 385.8 601C343 601 300 601 257.2 601C214.3 601 171.7 601 128.8 601C86 601 43 601 21.5 601H0V510Z" fill="#F6A478"/>
<path d="M0 574L21.5 568.2C43 562.3 86 550.7 128.8 548.2C171.7 545.7 214.3 552.3 257.2 554.5C300 556.7 343 554.3 385.8 556.2C428.7 558 471.3 564 514.2 565.7C557 567.3 600 564.7 642.8 564.2C685.7 563.7 728.3 565.3 771.2 565.5C814 565.7 857 564.3 878.5 563.7L900 563V601H878.5C857 601 814 601 771.2 601C728.3 601 685.7 601 642.8 601C600 601 557 601 514.2 601C471.3 601 428.7 601 385.8 601C343 601 300 601 257.2 601C214.3 601 171.7 601 128.8 601C86 601 43 601 21.5 601H0V574Z" fill="#F7C59F"/>
<path d="M761.841 481.887C801.758 487.982 804.511 494.505 807.256 499.484C808.446 500.655 812.115 504.079 813.402 500.784C814.179 498.796 813.304 493.079 797.055 486.49C790.742 484.645 743.82 479.136 761.841 481.887Z" fill="white"/>
<path d="M816.671 522.519C818.921 540.794 816.364 542.745 814.493 544.518C814.121 545.175 813.055 547.179 814.678 547.373C815.659 547.49 818.09 546.457 819 538.554C819.035 535.563 815.656 514.269 816.671 522.519Z" fill="white"/>
<path d="M695.191 504.915C735.89 503.279 728.769 504.915 734.304 504.915C739.84 504.915 742.938 508.759 741.468 504.915C739.997 501.071 733.328 502.593 731.006 502.593C724.467 501.85 676.816 505.653 695.191 504.915Z" fill="white"/>
<path d="M807.112 515.882C805.968 511.669 804.077 508.029 801.641 504.96M801.641 504.96C786.131 485.424 748.491 489.064 740.443 515.882C744.976 533.82 759.719 564.59 782.425 544.163C805.131 523.737 796.518 507.395 789.373 501.777C780.738 501.334 768.694 502.232 760.029 506.285M801.641 504.96C817.162 508.142 801.051 544.163 792.181 555.519C783.312 566.875 768.455 565.573 752.121 532.301C745.37 518.55 750.769 510.616 760.029 506.285M780.06 495.34C761.286 508.408 728.483 538.015 747.464 551.903C771.19 569.262 765.129 522.654 760.029 506.285M766.09 498.088C734.899 495.34 723.635 554.073 747.464 561.016C774.442 573.819 809.209 545.542 801.641 527.31C801.74 513.005 795.788 486.584 771.19 495.34" stroke="#562E2E" stroke-width="3"/>
<path d="M795.09 557.431C798.791 555.007 801.698 552.077 803.875 548.827M803.875 548.827C817.734 528.136 802.016 494.47 773.483 495.71C757.611 505.72 732.644 529.341 759.749 543.742C786.854 558.143 799.86 544.873 802.976 536.438C800.606 528.301 795.834 517.441 789.109 510.733M803.875 548.827C805.828 564.227 765.785 560.986 751.933 556.455C738.08 551.924 734.524 537.748 761.395 511.842C772.501 501.136 781.921 503.563 789.109 510.733M806.181 525.729C787.464 512.584 748.211 491.811 740.937 513.884C731.844 541.475 774.937 520.759 789.109 510.733M798.996 513.687C791.545 483.92 731.116 492.526 732.127 516.838C728.493 545.963 767.097 568.985 782.269 556.07C796.13 551.526 819.742 537.453 803.306 517.518" stroke="#562E2E" stroke-width="3"/>
<path d="M205.747 176V172.112L207.475 171.968C208.307 171.904 208.723 171.456 208.723 170.624V148.304L205.987 148.16V144.08H214.627L228.211 166.112H228.307V148.304L225.139 148.16V144.08H236.851V147.968L235.123 148.112C234.355 148.176 233.971 148.672 233.971 149.6V176H228.355L214.483 153.632H214.387V171.776L217.507 171.92V176H205.747ZM249.741 172.496C253.229 172.496 254.973 169.68 254.973 164.048C254.973 161.2 254.573 159.04 253.773 157.568C253.005 156.096 251.693 155.36 249.837 155.36C248.013 155.36 246.669 156.064 245.805 157.472C244.941 158.88 244.509 160.8 244.509 163.232C244.509 167.744 245.341 170.576 247.005 171.728C247.741 172.24 248.653 172.496 249.741 172.496ZM238.701 163.904C238.701 161.536 239.053 159.488 239.757 157.76C240.461 156 241.405 154.656 242.589 153.728C244.861 152 247.373 151.136 250.125 151.136C252.045 151.136 253.661 151.456 254.973 152.096C256.317 152.704 257.357 153.424 258.093 154.256C258.861 155.056 259.501 156.24 260.013 157.808C260.557 159.344 260.829 161.168 260.829 163.28C260.829 167.696 259.757 171.04 257.613 173.312C255.469 175.584 252.717 176.72 249.357 176.72C246.029 176.72 243.421 175.648 241.533 173.504C239.645 171.328 238.701 168.128 238.701 163.904ZM281.734 149.696V165.632C281.734 167.872 282.262 169.456 283.318 170.384C284.406 171.28 285.942 171.728 287.926 171.728C289.942 171.728 291.494 171.232 292.582 170.24C293.702 169.248 294.262 167.792 294.262 165.872V148.304L291.478 148.16V144.08H302.854V147.968L301.27 148.112C300.342 148.208 299.878 148.688 299.878 149.552V166.688C299.878 169.792 298.79 172.224 296.614 173.984C294.438 175.744 291.43 176.624 287.59 176.624C283.75 176.624 280.838 175.776 278.854 174.08C276.902 172.352 275.926 169.632 275.926 165.92V148.304L273.142 148.16V144.08H284.758V147.968L283.174 148.112C282.662 148.176 282.294 148.32 282.07 148.544C281.846 148.736 281.734 149.12 281.734 149.696ZM307.999 180.56V157.328C307.999 156.784 307.903 156.416 307.711 156.224C307.551 156 307.247 155.888 306.799 155.888L304.783 155.744V151.856H312.895V154.976C313.407 154.016 314.335 153.136 315.679 152.336C317.023 151.536 318.623 151.136 320.479 151.136C326.271 151.136 329.167 155.2 329.167 163.328C329.167 167.648 328.223 170.96 326.335 173.264C324.447 175.568 321.887 176.72 318.655 176.72C316.735 176.72 315.023 176.256 313.519 175.328V181.952L317.407 182.144V185.936H305.023V182.288L306.607 182.144C307.087 182.08 307.439 181.936 307.663 181.712C307.887 181.52 307.999 181.136 307.999 180.56ZM323.215 163.808C323.215 158.464 321.599 155.792 318.367 155.792C317.023 155.792 315.871 156.208 314.911 157.04C313.983 157.84 313.519 158.8 313.519 159.92V170.96C314.735 171.76 316.207 172.16 317.935 172.16C319.695 172.16 321.007 171.36 321.871 169.76C322.767 168.16 323.215 166.176 323.215 163.808ZM338.4 163.664C338.4 166.384 338.912 168.496 339.936 170C340.96 171.504 342.432 172.256 344.352 172.256C346.304 172.256 348.224 171.568 350.112 170.192L352.176 173.888C349.904 175.744 347.056 176.672 343.632 176.672C340.208 176.672 337.504 175.6 335.52 173.456C333.568 171.28 332.592 168.08 332.592 163.856C332.592 159.632 333.712 156.464 335.952 154.352C338.224 152.208 340.768 151.136 343.584 151.136C346.432 151.136 349.072 151.792 351.504 153.104V159.344L347.088 159.68V157.376C347.088 156.512 346.768 155.984 346.128 155.792C345.52 155.568 344.88 155.456 344.208 155.456C340.336 155.456 338.4 158.192 338.4 163.664ZM365.757 172.496C369.245 172.496 370.989 169.68 370.989 164.048C370.989 161.2 370.589 159.04 369.789 157.568C369.021 156.096 367.709 155.36 365.853 155.36C364.029 155.36 362.685 156.064 361.821 157.472C360.957 158.88 360.525 160.8 360.525 163.232C360.525 167.744 361.357 170.576 363.021 171.728C363.757 172.24 364.669 172.496 365.757 172.496ZM354.717 163.904C354.717 161.536 355.069 159.488 355.773 157.76C356.477 156 357.421 154.656 358.605 153.728C360.877 152 363.389 151.136 366.141 151.136C368.061 151.136 369.677 151.456 370.989 152.096C372.333 152.704 373.373 153.424 374.109 154.256C374.877 155.056 375.517 156.24 376.029 157.808C376.573 159.344 376.845 161.168 376.845 163.28C376.845 167.696 375.773 171.04 373.629 173.312C371.485 175.584 368.733 176.72 365.373 176.72C362.045 176.72 359.437 175.648 357.549 173.504C355.661 171.328 354.717 168.128 354.717 163.904ZM379.788 155.744V151.856H387.9V154.976C389.692 152.416 392.14 151.136 395.244 151.136C398.38 151.136 400.492 152.416 401.58 154.976C403.372 152.416 405.804 151.136 408.876 151.136C411.18 151.136 412.956 151.84 414.204 153.248C415.452 154.624 416.076 156.704 416.076 159.488V172.016L418.812 172.16V176H407.388V172.352L408.972 172.208C409.452 172.144 409.788 172.016 409.98 171.824C410.204 171.6 410.332 171.216 410.364 170.672V160.736C410.364 158.976 410.156 157.68 409.74 156.848C409.356 155.984 408.428 155.552 406.956 155.552C405.484 155.552 404.348 156 403.548 156.896C402.78 157.792 402.396 158.992 402.396 160.496V172.016L405.036 172.16V176H393.708V172.352L395.292 172.208C395.772 172.144 396.124 172.016 396.348 171.824C396.572 171.6 396.684 171.2 396.684 170.624V160.736C396.684 158.976 396.476 157.68 396.06 156.848C395.676 155.984 394.732 155.552 393.228 155.552C391.756 155.552 390.636 156.016 389.868 156.944C389.1 157.872 388.716 159.024 388.716 160.4V172.016L391.308 172.16V176H379.98V172.352L381.564 172.208C382.044 172.144 382.396 172.016 382.62 171.824C382.844 171.6 382.956 171.2 382.956 170.624H383.004V157.376C383.004 156.832 382.908 156.464 382.716 156.272C382.556 156.048 382.252 155.92 381.804 155.888L379.788 155.744ZM430.342 151.856V172.016L433.078 172.16V176H421.654V172.352L423.238 172.208C424.166 172.112 424.63 171.6 424.63 170.672V157.328C424.63 156.784 424.534 156.416 424.342 156.224C424.182 156.032 423.878 155.936 423.43 155.936L421.75 155.84V151.856H430.342ZM424.294 147.728C423.622 147.056 423.286 146.208 423.286 145.184C423.286 144.16 423.622 143.312 424.294 142.64C424.966 141.936 425.846 141.584 426.934 141.584C428.022 141.584 428.902 141.936 429.574 142.64C430.278 143.312 430.63 144.16 430.63 145.184C430.63 146.208 430.278 147.056 429.574 147.728C428.902 148.368 428.022 148.688 426.934 148.688C425.846 148.688 424.966 148.368 424.294 147.728ZM435.569 155.696V151.856H443.681V154.976C444.513 153.792 445.617 152.864 446.993 152.192C448.369 151.488 449.857 151.136 451.457 151.136C453.889 151.136 455.761 151.84 457.073 153.248C458.417 154.624 459.089 156.704 459.089 159.488V172.016L461.825 172.16V176H450.401V172.352L451.985 172.208C452.465 172.144 452.817 172.016 453.041 171.824C453.265 171.6 453.377 171.2 453.377 170.624V160.736C453.377 158.976 453.105 157.68 452.561 156.848C452.017 155.984 450.977 155.552 449.441 155.552C447.937 155.552 446.737 156.032 445.841 156.992C444.945 157.952 444.497 159.088 444.497 160.4V172.016L447.233 172.16V176H435.809V172.352L437.393 172.208C437.873 172.144 438.225 172.016 438.449 171.824C438.673 171.6 438.785 171.2 438.785 170.624V157.328C438.785 156.368 438.385 155.872 437.585 155.84L435.569 155.696ZM485.999 175.952C485.711 179.504 484.687 182.112 482.927 183.776C481.167 185.44 478.415 186.272 474.671 186.272C470.927 186.272 467.999 185.744 465.887 184.688V178.016L470.447 177.632V179.936C470.447 180.8 470.847 181.376 471.647 181.664C472.447 181.984 473.551 182.144 474.959 182.144C477.007 182.144 478.447 181.52 479.279 180.272C480.111 179.056 480.527 177.328 480.527 175.088V172.448C478.991 174.24 476.863 175.136 474.143 175.136C472.479 175.136 471.007 174.816 469.727 174.176C468.479 173.536 467.503 172.672 466.799 171.584C465.423 169.408 464.735 166.848 464.735 163.904C464.735 159.712 465.871 156.544 468.143 154.4C470.415 152.224 473.439 151.136 477.215 151.136C480.351 151.136 483.311 151.728 486.095 152.912V170.72C486.095 173.44 486.063 175.184 485.999 175.952ZM480.527 166.208V155.888C479.407 155.504 478.127 155.312 476.687 155.312C474.735 155.312 473.231 156.032 472.175 157.472C471.151 158.912 470.639 160.864 470.639 163.328C470.639 168.384 472.303 170.912 475.631 170.912C477.007 170.912 478.159 170.496 479.087 169.664C480.047 168.8 480.527 167.648 480.527 166.208ZM500.645 144.08H514.181C521.093 144.08 524.549 146.752 524.549 152.096C524.549 155.04 523.077 157.28 520.133 158.816C522.021 159.296 523.493 160.176 524.549 161.456C525.637 162.736 526.181 164.4 526.181 166.448C526.181 169.552 525.125 171.92 523.013 173.552C520.933 175.184 517.893 176 513.893 176H500.405V172.112L501.989 171.968C502.917 171.872 503.381 171.424 503.381 170.624V148.304L500.645 148.16V144.08ZM509.237 161.456V171.488H513.749C517.909 171.488 519.989 169.792 519.989 166.4C519.989 164.8 519.461 163.584 518.405 162.752C517.381 161.888 515.909 161.456 513.989 161.456H509.237ZM509.237 148.496V157.184H512.789C514.773 157.184 516.229 156.784 517.157 155.984C518.117 155.152 518.597 154 518.597 152.528C518.597 151.056 518.117 150.016 517.157 149.408C516.229 148.8 514.885 148.496 513.125 148.496H509.237ZM540.272 172.496C543.76 172.496 545.504 169.68 545.504 164.048C545.504 161.2 545.104 159.04 544.304 157.568C543.536 156.096 542.224 155.36 540.368 155.36C538.544 155.36 537.2 156.064 536.336 157.472C535.472 158.88 535.04 160.8 535.04 163.232C535.04 167.744 535.872 170.576 537.536 171.728C538.272 172.24 539.184 172.496 540.272 172.496ZM529.232 163.904C529.232 161.536 529.584 159.488 530.288 157.76C530.992 156 531.936 154.656 533.12 153.728C535.392 152 537.904 151.136 540.656 151.136C542.576 151.136 544.192 151.456 545.504 152.096C546.848 152.704 547.888 153.424 548.624 154.256C549.392 155.056 550.032 156.24 550.544 157.808C551.088 159.344 551.36 161.168 551.36 163.28C551.36 167.696 550.288 171.04 548.144 173.312C546 175.584 543.248 176.72 539.888 176.72C536.56 176.72 533.952 175.648 532.064 173.504C530.176 171.328 529.232 168.128 529.232 163.904ZM565.632 172.496C569.12 172.496 570.864 169.68 570.864 164.048C570.864 161.2 570.464 159.04 569.664 157.568C568.896 156.096 567.584 155.36 565.728 155.36C563.904 155.36 562.56 156.064 561.696 157.472C560.832 158.88 560.4 160.8 560.4 163.232C560.4 167.744 561.232 170.576 562.896 171.728C563.632 172.24 564.544 172.496 565.632 172.496ZM554.592 163.904C554.592 161.536 554.944 159.488 555.648 157.76C556.352 156 557.296 154.656 558.48 153.728C560.752 152 563.264 151.136 566.016 151.136C567.936 151.136 569.552 151.456 570.864 152.096C572.208 152.704 573.248 153.424 573.984 154.256C574.752 155.056 575.392 156.24 575.904 157.808C576.448 159.344 576.72 161.168 576.72 163.28C576.72 167.696 575.648 171.04 573.504 173.312C571.36 175.584 568.608 176.72 565.248 176.72C561.92 176.72 559.312 175.648 557.424 173.504C555.536 171.328 554.592 168.128 554.592 163.904ZM582.927 170.624V147.248C582.927 146.736 582.831 146.384 582.639 146.192C582.479 146 582.175 145.888 581.727 145.856L580.047 145.76V141.776H588.591V162.56C590.351 162.4 591.887 161.856 593.199 160.928C594.511 160 595.407 158.784 595.887 157.28C595.983 156.96 596.031 156.704 596.031 156.512C596.031 155.968 595.727 155.696 595.119 155.696L593.295 155.6V151.856H603.231V155.744L600.927 155.84C600.511 159.104 599.103 161.68 596.703 163.568L601.407 172.016L604.335 172.16V176H597.327L591.855 166.016C590.799 166.304 589.711 166.528 588.591 166.688V172.016H588.639L591.375 172.16V176H579.951V172.352L581.535 172.208C582.015 172.144 582.367 172.016 582.591 171.824C582.815 171.6 582.927 171.2 582.927 170.624ZM615.311 151.856V172.016L618.047 172.16V176H606.623V172.352L608.207 172.208C609.135 172.112 609.599 171.6 609.599 170.672V157.328C609.599 156.784 609.503 156.416 609.311 156.224C609.151 156.032 608.847 155.936 608.399 155.936L606.719 155.84V151.856H615.311ZM609.263 147.728C608.591 147.056 608.255 146.208 608.255 145.184C608.255 144.16 608.591 143.312 609.263 142.64C609.935 141.936 610.815 141.584 611.903 141.584C612.991 141.584 613.871 141.936 614.543 142.64C615.247 143.312 615.599 144.16 615.599 145.184C615.599 146.208 615.247 147.056 614.543 147.728C613.871 148.368 612.991 148.688 611.903 148.688C610.815 148.688 609.935 148.368 609.263 147.728ZM620.538 155.696V151.856H628.65V154.976C629.482 153.792 630.586 152.864 631.962 152.192C633.338 151.488 634.826 151.136 636.426 151.136C638.858 151.136 640.73 151.84 642.042 153.248C643.386 154.624 644.058 156.704 644.058 159.488V172.016L646.794 172.16V176H635.37V172.352L636.954 172.208C637.434 172.144 637.786 172.016 638.01 171.824C638.234 171.6 638.346 171.2 638.346 170.624V160.736C638.346 158.976 638.074 157.68 637.53 156.848C636.986 155.984 635.946 155.552 634.41 155.552C632.906 155.552 631.706 156.032 630.81 156.992C629.914 157.952 629.466 159.088 629.466 160.4V172.016L632.202 172.16V176H620.778V172.352L622.362 172.208C622.842 172.144 623.194 172.016 623.418 171.824C623.642 171.6 623.754 171.2 623.754 170.624V157.328C623.754 156.368 623.354 155.872 622.554 155.84L620.538 155.696ZM670.967 175.952C670.679 179.504 669.655 182.112 667.895 183.776C666.135 185.44 663.383 186.272 659.639 186.272C655.895 186.272 652.967 185.744 650.855 184.688V178.016L655.415 177.632V179.936C655.415 180.8 655.815 181.376 656.615 181.664C657.415 181.984 658.519 182.144 659.927 182.144C661.975 182.144 663.415 181.52 664.247 180.272C665.079 179.056 665.495 177.328 665.495 175.088V172.448C663.959 174.24 661.831 175.136 659.111 175.136C657.447 175.136 655.975 174.816 654.695 174.176C653.447 173.536 652.471 172.672 651.767 171.584C650.391 169.408 649.703 166.848 649.703 163.904C649.703 159.712 650.839 156.544 653.111 154.4C655.383 152.224 658.407 151.136 662.183 151.136C665.319 151.136 668.279 151.728 671.063 152.912V170.72C671.063 173.44 671.031 175.184 670.967 175.952ZM665.495 166.208V155.888C664.375 155.504 663.095 155.312 661.655 155.312C659.703 155.312 658.199 156.032 657.143 157.472C656.119 158.912 655.607 160.864 655.607 163.328C655.607 168.384 657.271 170.912 660.599 170.912C661.975 170.912 663.127 170.496 664.055 169.664C665.015 168.8 665.495 167.648 665.495 166.208ZM688.293 155.504C687.525 155.216 686.597 155.072 685.509 155.072C684.421 155.072 683.541 155.328 682.869 155.84C682.229 156.32 681.909 156.928 681.909 157.664C681.909 158.368 682.021 158.928 682.245 159.344C682.501 159.728 682.885 160.064 683.397 160.352C684.197 160.768 685.157 161.136 686.277 161.456C687.397 161.744 688.229 161.984 688.773 162.176C689.317 162.336 689.989 162.624 690.789 163.04C691.621 163.456 692.245 163.904 692.661 164.384C693.781 165.568 694.341 167.088 694.341 168.944C694.341 171.344 693.461 173.232 691.701 174.608C689.973 175.952 687.765 176.624 685.077 176.624C681.173 176.624 678.229 176.128 676.245 175.136V168.464L680.565 168.128V170.432C680.565 171.84 681.909 172.544 684.597 172.544C687.285 172.544 688.629 171.568 688.629 169.616C688.629 168.912 688.389 168.336 687.909 167.888C687.461 167.44 687.013 167.136 686.565 166.976C686.117 166.816 685.573 166.656 684.933 166.496C684.325 166.336 683.717 166.176 683.109 166.016C682.533 165.856 681.893 165.648 681.189 165.392C680.517 165.104 679.765 164.704 678.933 164.192C677.301 163.136 676.485 161.376 676.485 158.912C676.485 156.416 677.365 154.496 679.125 153.152C680.885 151.808 683.093 151.136 685.749 151.136C688.437 151.136 691.093 151.776 693.717 153.056V158.816L689.397 159.152V157.136C689.397 156.336 689.029 155.792 688.293 155.504Z" fill="#2B1E36"/>
<path d="M259.343 558.808C235.421 560.762 236.539 563.16 235.643 591.831L234.953 613.918L219.458 613.434C219.458 613.434 223.397 583.102 213.857 573.143C205.474 564.392 199.055 569.585 189.441 562.251C179.827 554.916 188.664 520.303 191.005 512.216C193.345 504.13 204.423 502.788 205.904 512.682C207.384 522.576 199.662 540.623 204.762 549.224C209.862 557.824 217.723 554.412 221.448 549.745C225.173 545.079 223.17 494.651 228.692 489.759C234.214 484.867 239.747 485.978 241.803 490.169C243.859 494.36 239.923 550.323 239.923 550.323C259.589 550.937 250.504 517.171 260.591 518.893C270.678 520.615 270.707 557.88 259.343 558.808Z" fill="#0B1D2B"/>
<path d="M28.3906 482.479C80.2118 492.979 77.1416 497.934 71.6389 560.885L67.3999 609.38L101.42 612.353C101.42 612.353 100.698 544.978 124.159 525.676C144.775 508.715 157.465 521.746 180.403 508.205C203.342 494.663 193.021 416.647 190.006 398.349C186.991 380.051 163.108 374.232 157.294 395.49C151.481 416.747 163.676 458.236 150.281 475.721C136.886 493.207 120.577 483.697 113.644 472.519C106.71 461.341 124.217 351.554 113.412 339.416C102.607 327.278 90.2148 328.267 84.6258 336.9C79.0368 345.532 73.0809 468.973 73.0809 468.973C29.9012 465.198 58.5651 393.7 36.0513 394.842C13.5375 395.983 3.77562 477.492 28.3906 482.479Z" fill="#0B1D2B"/>
<path d="M584.547 398C585.081 398.036 585.658 398.218 586.122 398.482C586.37 398.255 586.755 397.989 587.026 398.196C587.612 398.639 587.139 399.169 586.708 399.506C586.45 401.187 585.737 403.873 587.167 404.473C589.412 405.321 589.816 398.433 592.975 398.517C594.869 398.568 594.034 401.313 595.909 401.407C597.292 401.478 597.189 398.852 598.342 398.812C599.556 398.77 600.434 399.698 601.047 402.889C602.249 402.884 602.722 403.831 603.27 405.664C603.818 407.492 603.411 411.082 603.214 413.276L602.845 409.7C602.731 410.262 602.555 410.829 602.287 411.42C602.103 412.296 602.032 413.173 602.014 414.045C602.399 414.523 602.427 415.273 602.034 415.709C602.077 416.965 602.159 418.217 602.113 419.473C600.496 419.496 599.017 419.426 597.447 419.473C597.362 418.915 598.145 418.517 599.055 418.053C599.041 417.41 599.045 416.623 599.055 415.826C598.642 415.348 598.633 414.509 599.064 414.101C599.059 413.103 599.026 412.292 598.909 412.043C598.534 411.242 597.944 410.548 597.545 409.831C596.2 410.079 594.747 409.967 593.237 409.61L593.205 413.618C593.566 414.148 593.58 414.917 593.191 415.39C592.97 416.75 593.162 418.114 593.153 419.473H590.434C590.326 418.77 591.489 418.39 592.056 418.062C592.056 417.026 592.239 416.243 592.075 415.235C591.841 414.771 591.826 414.228 592.056 413.792C592.014 412.245 591.901 410.698 591.555 409.151C591.48 409.123 591.184 408.978 591.119 408.903L590.608 413.515C590.87 414.073 590.814 414.795 590.42 415.235C590.111 416.646 590.209 418.025 590.05 419.435L587.181 419.473C587.167 418.896 588.545 418.535 589.07 418.278C589.37 417.275 589.337 416.257 589.384 415.235C589.009 414.668 589.028 413.881 589.436 413.384C589.412 411.589 589.178 409.784 588.573 408.012C583.576 407.735 584.064 404.637 583.919 401.768C583.853 400.491 581.317 401.848 581.106 401.224C580.994 400.9 580.937 400.573 581.106 400.2C581.509 399.296 582.226 399.248 582.826 399.233C583.403 398.888 583.886 398.016 584.491 398H584.547ZM584.233 398.918C584.003 399.042 584.055 399.268 584.106 399.392C584.416 399.484 584.87 399.341 585.081 399.177C584.898 399.036 584.509 398.924 584.233 398.918ZM600.494 410.909C600.351 411.275 600.225 411.64 600.149 411.996C599.998 412.714 599.919 413.435 599.881 414.162C600.232 414.645 600.246 415.385 599.853 415.803C599.865 416.815 599.914 417.828 599.925 418.835C600.137 418.484 600.53 418.179 601.094 418.034C601.086 417.359 601.114 416.515 601.144 415.662C600.82 415.184 600.816 414.462 601.196 414.054C601.228 412.789 601.212 411.739 601.019 411.518C600.834 411.307 600.66 411.106 600.494 410.909Z" fill="black"/>
<path d="M173.829 40.4698C170.564 36.585 133.855 57.9796 132.616 61.0762L152.097 86.9751C152.097 86.9751 174.505 77.1223 173.829 73.5752C173.153 70.0282 156.826 81.4575 155.587 77.629C154.349 73.8004 186.891 62.3149 182.612 57.9796C178.333 53.6444 161.161 69.2963 159.078 65.4678C156.995 61.6393 173.21 58.3175 170.901 53.9822C168.593 49.647 155.193 61.6393 152.716 57.9796C150.239 54.32 179.035 46.663 173.829 40.4698Z" fill="url(#paint1_linear_1338_2525)"/>
<path d="M165.893 70.3116C165.893 80.4992 157.634 88.7579 147.446 88.7579C137.259 88.7579 129 80.4992 129 70.3116C129 60.1239 137.259 51.8652 147.446 51.8652C157.634 51.8652 165.893 60.1239 165.893 70.3116Z" fill="#D8D8D8"/>
<path d="M153.939 74.2962C153.349 76.9525 148.369 82.966 143.019 86.9873C139.387 86.2661 136.4 83.9002 134.718 82.1175C136.12 81.3427 145.205 77.8036 147.483 74.1118C149.329 71.1213 140.363 70.1176 147.188 66.5119C151.837 64.0561 157.002 62.7855 162.425 61.3467L161.798 62.1952C161.798 62.1952 152.685 65.7371 150.804 68.7992C150.037 70.1274 154.8 70.4225 153.939 74.2962Z" fill="#424242"/>
<path d="M150.914 72.8573L150.324 72.968C150.693 71.6768 146.672 69.5739 147.041 68.7254C147.151 68.2458 150.103 65.405 161.982 61.6789C153.534 64.9254 148.553 67.1021 147.557 68.7254C147.257 69.5739 151.136 71.271 150.914 72.8573Z" fill="#D9D9D9" fill-opacity="0.53"/>
<path d="M154.235 71.3079C154.972 72.4146 154.965 73.5214 154.53 74.8496C153.903 77.0631 152.648 78.4282 150.619 80.8262C148.549 83.5812 143.831 87.2824 143.831 87.2824C150.545 88.5736 157.998 86.2863 162.425 78.9815C165.155 74.3331 165.598 68.3196 163.052 62.7857C162.794 62.8225 153.607 66.3274 151.689 68.7254C151.209 69.6108 153.017 69.7584 154.235 71.3079Z" fill="#A03F03"/>
<path d="M143.831 87.2824C150.545 88.5736 157.998 86.2863 162.425 78.9815C164.194 75.9688 165.003 72.3827 164.66 68.7254C161.724 73.2263 158.367 70.8652 154.822 73.4477C154.794 73.8919 154.692 74.3554 154.53 74.8496C153.903 77.0631 152.648 78.4282 150.619 80.8262C148.549 83.5812 143.831 87.2824 143.831 87.2824Z" fill="#A0510C"/>
<path d="M143.831 87.2824C150.545 88.5736 157.998 86.2863 162.425 78.9815C163.319 77.5059 163.79 76.2146 164.122 74.9603C159.695 79.4243 156.891 77.2107 152.171 78.9815C151.714 79.5414 151.198 80.1417 150.619 80.8262C148.549 83.5812 143.831 87.2824 143.831 87.2824Z" fill="#824B11"/>
<path d="M143.093 77.1369C140.031 78.9447 136.932 80.3097 134.202 81.5272C130.918 77.5428 130.107 73.5953 130.107 70.9391C130.107 67.3604 130.838 64.5935 132.136 62.1586C134.968 56.846 140.621 53.0232 147.299 52.9723C154.124 52.9353 158.514 56.5877 160.728 59.2071C161.023 60.4245 160.469 60.941 160.469 60.941L160.396 60.1663C160.064 58.543 158.44 57.4362 156.817 57.6576C155.009 57.8421 153.054 60.0556 154.493 62.6381C151.984 63.5235 149.586 64.3721 145.675 66.5856C144.901 67.0242 143.831 68.1351 143.831 68.873C143.646 70.7176 146.635 71.8982 146.782 73.0787C147.004 74.1486 146.155 74.9972 143.093 77.1369Z" fill="#133455"/>
<path d="M143.093 77.1369C140.031 78.9447 136.932 80.3097 134.202 81.5272C130.918 77.5428 130.107 73.5953 130.107 70.9391C130.107 67.3604 130.838 64.5935 132.136 62.1586C134.736 57.2823 139.712 53.6611 145.675 53.0599C145.934 58.6537 151.652 60.2032 151.652 63.6844C149.988 64.3449 148.13 65.1965 145.675 66.5856C144.901 67.0242 143.831 68.1351 143.831 68.873C143.646 70.7176 146.635 71.8982 146.782 73.0787C147.004 74.1486 146.155 74.9972 143.093 77.1369Z" fill="#A03F03"/>
<path d="M143.093 77.1369C140.031 78.9447 136.932 80.3097 134.202 81.5272C130.918 77.5428 130.107 73.5953 130.107 70.9391C130.107 67.3604 130.838 64.5935 132.136 62.1586C133.35 59.8819 135.082 57.8788 137.19 56.3289C137.965 60.0556 145.27 60.7197 145.675 66.5856C144.901 67.0242 143.831 68.1351 143.831 68.873C143.646 70.7176 146.635 71.8982 146.782 73.0787C147.004 74.1486 146.155 74.9972 143.093 77.1369Z" fill="#A0510C"/>
<path d="M143.093 77.1369C140.031 78.9447 136.932 80.3097 134.202 81.5272C130.918 77.5428 130.107 73.5953 130.107 70.9391C130.107 68.0798 130.573 65.7387 131.423 63.6711C135.124 68.2089 141.175 64.4827 143.831 68.873C143.646 70.7176 146.635 71.8982 146.782 73.0787C147.004 74.1486 146.155 74.9972 143.093 77.1369Z" fill="#824B11"/>
<g clip-path="url(#clip1_1338_2525)">
<path d="M153.567 55.0146L153.37 55.4458L152.94 55.6418L153.37 55.8393L153.567 56.2689L153.763 55.8393L154.194 55.6418L153.763 55.4458M151.999 55.485L151.607 56.3473L150.745 56.7393L151.607 57.1313L151.999 57.9936L152.391 57.1313L153.254 56.7393L152.391 56.3473M153.567 57.2097L153.37 57.6393L152.94 57.8368L153.37 58.0328L153.567 58.464L153.763 58.0328L154.194 57.8368L153.763 57.6393" fill="#D8D8D8"/>
</g>
<ellipse cx="474" cy="319" rx="104" ry="52" fill="#D9D9D9"/>
<path d="M578.763 398.967L526.168 356.506L546.845 339.382L578.763 398.967Z" fill="#D9D9D9"/>
<path d="M420.682 293.656L420.154 293.704C419.876 293.725 419.7 293.917 419.626 294.28L417.61 303H415.418L413.738 295.88H413.69L412.058 303H409.802L407.594 293.768L406.682 293.72V292.36H410.65V293.656L410.122 293.704C409.791 293.736 409.626 293.875 409.626 294.12C409.626 294.163 409.631 294.211 409.642 294.264L411.034 300.44H411.098L412.762 293.208H414.826L416.554 300.472H416.586L417.946 293.784L417.082 293.72V292.36H420.682V293.656ZM424.182 294.952V301.672L425.094 301.72V303H421.286V301.784L421.814 301.736C422.123 301.704 422.278 301.533 422.278 301.224V296.776C422.278 296.595 422.246 296.472 422.182 296.408C422.128 296.344 422.027 296.312 421.878 296.312L421.318 296.28V294.952H424.182ZM422.166 293.576C421.942 293.352 421.83 293.069 421.83 292.728C421.83 292.387 421.942 292.104 422.166 291.88C422.39 291.645 422.683 291.528 423.046 291.528C423.408 291.528 423.702 291.645 423.926 291.88C424.16 292.104 424.278 292.387 424.278 292.728C424.278 293.069 424.16 293.352 423.926 293.576C423.702 293.789 423.408 293.896 423.046 293.896C422.683 293.896 422.39 293.789 422.166 293.576ZM427.796 293.256H428.836V294.952H430.964L430.804 296.296H428.836V300.504C428.836 300.973 428.922 301.304 429.092 301.496C429.263 301.677 429.524 301.768 429.876 301.768C430.239 301.768 430.602 301.656 430.964 301.432L431.444 302.664C430.911 303.037 430.234 303.224 429.412 303.224C428.932 303.224 428.527 303.16 428.196 303.032C427.866 302.915 427.62 302.781 427.46 302.632C427.3 302.483 427.178 302.264 427.092 301.976C427.007 301.688 426.959 301.464 426.948 301.304C426.938 301.133 426.932 300.888 426.932 300.568V296.296H425.796L425.956 295.128C426.458 295.085 426.836 294.909 427.092 294.6C427.348 294.28 427.583 293.832 427.796 293.256ZM433.027 301.208V293.416C433.027 293.245 432.995 293.128 432.931 293.064C432.878 293 432.777 292.963 432.627 292.952L432.067 292.92V291.592H434.915V295.896C435.47 295.107 436.249 294.712 437.251 294.712C438.062 294.712 438.686 294.947 439.123 295.416C439.571 295.875 439.795 296.568 439.795 297.496V301.672L440.707 301.72V303H436.899V301.784L437.427 301.736C437.587 301.715 437.705 301.672 437.779 301.608C437.854 301.533 437.891 301.4 437.891 301.208V297.912C437.891 297.357 437.801 296.931 437.619 296.632C437.449 296.333 437.107 296.184 436.595 296.184C436.094 296.184 435.689 296.344 435.379 296.664C435.081 296.973 434.931 297.352 434.931 297.8V301.672L435.843 301.72V303H432.035V301.784L432.563 301.736C432.723 301.715 432.841 301.672 432.915 301.608C432.99 301.533 433.027 301.4 433.027 301.208ZM445.325 301.832C446.488 301.832 447.069 300.893 447.069 299.016C447.069 298.067 446.936 297.347 446.669 296.856C446.413 296.365 445.976 296.12 445.357 296.12C444.749 296.12 444.301 296.355 444.013 296.824C443.725 297.293 443.581 297.933 443.581 298.744C443.581 300.248 443.859 301.192 444.413 301.576C444.659 301.747 444.963 301.832 445.325 301.832ZM441.645 298.968C441.645 298.179 441.763 297.496 441.997 296.92C442.232 296.333 442.547 295.885 442.941 295.576C443.699 295 444.536 294.712 445.453 294.712C446.093 294.712 446.632 294.819 447.069 295.032C447.517 295.235 447.864 295.475 448.109 295.752C448.365 296.019 448.579 296.413 448.749 296.936C448.931 297.448 449.021 298.056 449.021 298.76C449.021 300.232 448.664 301.347 447.949 302.104C447.235 302.861 446.317 303.24 445.197 303.24C444.088 303.24 443.219 302.883 442.589 302.168C441.96 301.443 441.645 300.376 441.645 298.968ZM458.344 301.736V303H455.752V301.96C455.165 302.792 454.301 303.208 453.16 303.208C451.507 303.208 450.68 302.285 450.68 300.44V296.744C450.68 296.456 450.547 296.307 450.28 296.296L449.768 296.264V294.952H452.584V300.024C452.584 300.589 452.664 301.016 452.824 301.304C452.984 301.592 453.315 301.736 453.816 301.736C454.317 301.736 454.717 301.581 455.016 301.272C455.325 300.963 455.48 300.589 455.48 300.152V296.776C455.48 296.605 455.448 296.488 455.384 296.424C455.331 296.349 455.229 296.307 455.08 296.296L454.568 296.264V294.952H457.384V301.224C457.384 301.395 457.411 301.512 457.464 301.576C457.517 301.629 457.624 301.667 457.784 301.688L458.344 301.736ZM460.609 293.256H461.649V294.952H463.777L463.617 296.296H461.649V300.504C461.649 300.973 461.734 301.304 461.905 301.496C462.075 301.677 462.337 301.768 462.689 301.768C463.051 301.768 463.414 301.656 463.777 301.432L464.257 302.664C463.723 303.037 463.046 303.224 462.225 303.224C461.745 303.224 461.339 303.16 461.009 303.032C460.678 302.915 460.433 302.781 460.273 302.632C460.113 302.483 459.99 302.264 459.905 301.976C459.819 301.688 459.771 301.464 459.761 301.304C459.75 301.133 459.745 300.888 459.745 300.568V296.296H458.609L458.769 295.128C459.27 295.085 459.649 294.909 459.905 294.6C460.161 294.28 460.395 293.832 460.609 293.256ZM475.251 295.272V301.224C475.251 301.395 475.278 301.512 475.331 301.576C475.395 301.64 475.502 301.677 475.651 301.688L476.163 301.72V303H473.619V302.072L473.571 302.056C473.038 302.824 472.307 303.208 471.379 303.208C470.291 303.208 469.486 302.861 468.963 302.168C468.44 301.475 468.179 300.525 468.179 299.32C468.179 297.869 468.531 296.739 469.235 295.928C469.939 295.117 470.995 294.712 472.403 294.712C473.31 294.712 474.259 294.899 475.251 295.272ZM473.395 300.456V296.312C473.096 296.173 472.686 296.104 472.163 296.104C471.448 296.104 470.931 296.392 470.611 296.968C470.291 297.544 470.131 298.307 470.131 299.256C470.131 300.984 470.686 301.848 471.795 301.848C472.264 301.848 472.648 301.709 472.947 301.432C473.246 301.144 473.395 300.819 473.395 300.456ZM481.052 302.52V293.336C481.052 293.091 480.919 292.963 480.652 292.952L480.092 292.92V291.592H482.908V295.384C483.388 294.936 484.034 294.712 484.844 294.712C485.847 294.712 486.642 295.053 487.228 295.736C487.815 296.408 488.108 297.357 488.108 298.584C488.108 301.667 486.818 303.208 484.236 303.208C483.682 303.208 483.095 303.139 482.476 303C481.868 302.872 481.394 302.712 481.052 302.52ZM482.908 297.336V301.48C483.314 301.693 483.783 301.8 484.316 301.8C485.532 301.8 486.14 300.813 486.14 298.84C486.14 297.037 485.543 296.136 484.348 296.136C483.964 296.136 483.628 296.248 483.34 296.472C483.052 296.696 482.908 296.984 482.908 297.336ZM492.919 301.832C494.082 301.832 494.663 300.893 494.663 299.016C494.663 298.067 494.53 297.347 494.263 296.856C494.007 296.365 493.57 296.12 492.951 296.12C492.343 296.12 491.895 296.355 491.607 296.824C491.319 297.293 491.175 297.933 491.175 298.744C491.175 300.248 491.452 301.192 492.007 301.576C492.252 301.747 492.556 301.832 492.919 301.832ZM489.239 298.968C489.239 298.179 489.356 297.496 489.591 296.92C489.826 296.333 490.14 295.885 490.535 295.576C491.292 295 492.13 294.712 493.047 294.712C493.687 294.712 494.226 294.819 494.663 295.032C495.111 295.235 495.458 295.475 495.703 295.752C495.959 296.019 496.172 296.413 496.343 296.936C496.524 297.448 496.615 298.056 496.615 298.76C496.615 300.232 496.258 301.347 495.543 302.104C494.828 302.861 493.911 303.24 492.791 303.24C491.682 303.24 490.812 302.883 490.183 302.168C489.554 301.443 489.239 300.376 489.239 298.968ZM501.372 301.832C502.535 301.832 503.116 300.893 503.116 299.016C503.116 298.067 502.983 297.347 502.716 296.856C502.46 296.365 502.023 296.12 501.404 296.12C500.796 296.12 500.348 296.355 500.06 296.824C499.772 297.293 499.628 297.933 499.628 298.744C499.628 300.248 499.905 301.192 500.46 301.576C500.705 301.747 501.009 301.832 501.372 301.832ZM497.692 298.968C497.692 298.179 497.809 297.496 498.044 296.92C498.279 296.333 498.593 295.885 498.988 295.576C499.745 295 500.583 294.712 501.5 294.712C502.14 294.712 502.679 294.819 503.116 295.032C503.564 295.235 503.911 295.475 504.156 295.752C504.412 296.019 504.625 296.413 504.796 296.936C504.977 297.448 505.068 298.056 505.068 298.76C505.068 300.232 504.711 301.347 503.996 302.104C503.281 302.861 502.364 303.24 501.244 303.24C500.135 303.24 499.265 302.883 498.636 302.168C498.007 301.443 497.692 300.376 497.692 298.968ZM507.137 301.208V293.416C507.137 293.245 507.105 293.128 507.041 293.064C506.988 293 506.887 292.963 506.737 292.952L506.177 292.92V291.592H509.025V298.52C509.612 298.467 510.124 298.285 510.561 297.976C510.999 297.667 511.297 297.261 511.457 296.76C511.489 296.653 511.505 296.568 511.505 296.504C511.505 296.323 511.404 296.232 511.201 296.232L510.593 296.2V294.952H513.905V296.248L513.137 296.28C512.999 297.368 512.529 298.227 511.729 298.856L513.297 301.672L514.273 301.72V303H511.937L510.113 299.672C509.761 299.768 509.399 299.843 509.025 299.896V301.672H509.041L509.953 301.72V303H506.145V301.784L506.673 301.736C506.833 301.715 506.951 301.672 507.025 301.608C507.1 301.533 507.137 301.4 507.137 301.208ZM517.932 294.952V301.672L518.844 301.72V303H515.036V301.784L515.564 301.736C515.873 301.704 516.028 301.533 516.028 301.224V296.776C516.028 296.595 515.996 296.472 515.932 296.408C515.878 296.344 515.777 296.312 515.628 296.312L515.068 296.28V294.952H517.932ZM515.916 293.576C515.692 293.352 515.58 293.069 515.58 292.728C515.58 292.387 515.692 292.104 515.916 291.88C516.14 291.645 516.433 291.528 516.796 291.528C517.158 291.528 517.452 291.645 517.676 291.88C517.91 292.104 518.028 292.387 518.028 292.728C518.028 293.069 517.91 293.352 517.676 293.576C517.452 293.789 517.158 293.896 516.796 293.896C516.433 293.896 516.14 293.789 515.916 293.576ZM519.674 296.232V294.952H522.378V295.992C522.656 295.597 523.024 295.288 523.482 295.064C523.941 294.829 524.437 294.712 524.97 294.712C525.781 294.712 526.405 294.947 526.842 295.416C527.29 295.875 527.514 296.568 527.514 297.496V301.672L528.426 301.72V303H524.618V301.784L525.146 301.736C525.306 301.715 525.424 301.672 525.498 301.608C525.573 301.533 525.61 301.4 525.61 301.208V297.912C525.61 297.325 525.52 296.893 525.338 296.616C525.157 296.328 524.81 296.184 524.298 296.184C523.797 296.184 523.397 296.344 523.098 296.664C522.8 296.984 522.65 297.363 522.65 297.8V301.672L523.562 301.72V303H519.754V301.784L520.282 301.736C520.442 301.715 520.56 301.672 520.634 301.608C520.709 301.533 520.746 301.4 520.746 301.208V296.776C520.746 296.456 520.613 296.291 520.346 296.28L519.674 296.232ZM536.484 302.984C536.388 304.168 536.047 305.037 535.46 305.592C534.873 306.147 533.956 306.424 532.708 306.424C531.46 306.424 530.484 306.248 529.78 305.896V303.672L531.3 303.544V304.312C531.3 304.6 531.433 304.792 531.7 304.888C531.967 304.995 532.335 305.048 532.804 305.048C533.487 305.048 533.967 304.84 534.244 304.424C534.521 304.019 534.66 303.443 534.66 302.696V301.816C534.148 302.413 533.439 302.712 532.532 302.712C531.977 302.712 531.487 302.605 531.06 302.392C530.644 302.179 530.319 301.891 530.084 301.528C529.625 300.803 529.396 299.949 529.396 298.968C529.396 297.571 529.775 296.515 530.532 295.8C531.289 295.075 532.297 294.712 533.556 294.712C534.601 294.712 535.588 294.909 536.516 295.304V301.24C536.516 302.147 536.505 302.728 536.484 302.984ZM534.66 299.736V296.296C534.287 296.168 533.86 296.104 533.38 296.104C532.729 296.104 532.228 296.344 531.876 296.824C531.535 297.304 531.364 297.955 531.364 298.776C531.364 300.461 531.919 301.304 533.028 301.304C533.487 301.304 533.871 301.165 534.18 300.888C534.5 300.6 534.66 300.216 534.66 299.736ZM540.771 301.736L539.123 305.48L538.115 305.176L538.611 301.928C538.686 301.395 538.947 301.128 539.395 301.128C539.619 301.128 539.79 301.165 539.907 301.24C540.035 301.304 540.136 301.357 540.211 301.4C540.296 301.443 540.355 301.475 540.387 301.496C540.419 301.517 540.483 301.56 540.579 301.624C540.675 301.677 540.739 301.715 540.771 301.736ZM404.757 315.256H405.797V316.952H407.925L407.765 318.296H405.797V322.504C405.797 322.973 405.882 323.304 406.053 323.496C406.224 323.677 406.485 323.768 406.837 323.768C407.2 323.768 407.562 323.656 407.925 323.432L408.405 324.664C407.872 325.037 407.194 325.224 406.373 325.224C405.893 325.224 405.488 325.16 405.157 325.032C404.826 324.915 404.581 324.781 404.421 324.632C404.261 324.483 404.138 324.264 404.053 323.976C403.968 323.688 403.92 323.464 403.909 323.304C403.898 323.133 403.893 322.888 403.893 322.568V318.296H402.757L402.917 317.128C403.418 317.085 403.797 316.909 404.053 316.6C404.309 316.28 404.544 315.832 404.757 315.256ZM409.988 323.208V315.416C409.988 315.245 409.956 315.128 409.892 315.064C409.839 315 409.738 314.963 409.588 314.952L409.028 314.92V313.592H411.876V317.896C412.431 317.107 413.21 316.712 414.212 316.712C415.023 316.712 415.647 316.947 416.084 317.416C416.532 317.875 416.756 318.568 416.756 319.496V323.672L417.668 323.72V325H413.86V323.784L414.388 323.736C414.548 323.715 414.666 323.672 414.74 323.608C414.815 323.533 414.852 323.4 414.852 323.208V319.912C414.852 319.357 414.762 318.931 414.58 318.632C414.41 318.333 414.068 318.184 413.556 318.184C413.055 318.184 412.65 318.344 412.34 318.664C412.042 318.973 411.892 319.352 411.892 319.8V323.672L412.804 323.72V325H408.996V323.784L409.524 323.736C409.684 323.715 409.802 323.672 409.876 323.608C409.951 323.533 409.988 323.4 409.988 323.208ZM422.622 316.712C423.422 316.712 424.057 316.909 424.526 317.304C424.995 317.688 425.23 318.232 425.23 318.936C425.23 319.405 425.129 319.821 424.926 320.184C424.723 320.536 424.473 320.813 424.174 321.016C423.875 321.219 423.513 321.384 423.086 321.512C422.371 321.725 421.566 321.832 420.67 321.832C420.702 322.397 420.878 322.856 421.198 323.208C421.518 323.549 422.009 323.72 422.67 323.72C423.331 323.72 423.993 323.485 424.654 323.016L425.262 324.312C425.049 324.504 424.686 324.701 424.174 324.904C423.673 325.107 423.097 325.208 422.446 325.208C421.145 325.208 420.19 324.851 419.582 324.136C418.974 323.411 418.67 322.419 418.67 321.16C418.67 319.901 419.017 318.845 419.71 317.992C420.403 317.139 421.374 316.712 422.622 316.712ZM421.886 320.376C422.281 320.301 422.643 320.147 422.974 319.912C423.305 319.667 423.47 319.379 423.47 319.048C423.47 318.397 423.15 318.072 422.51 318.072C421.913 318.072 421.454 318.312 421.134 318.792C420.814 319.261 420.638 319.827 420.606 320.488C421.075 320.477 421.502 320.44 421.886 320.376ZM433.575 316.712C434.034 316.712 434.471 316.776 434.887 316.904V315.288C434.887 315.053 434.749 314.925 434.471 314.904L433.783 314.856V313.592H436.759V323.32C436.77 323.565 436.903 323.688 437.159 323.688L437.719 323.72V325H435.127V324.056L435.079 324.04C434.599 324.819 433.874 325.208 432.903 325.208C431.687 325.208 430.834 324.803 430.343 323.992C429.895 323.256 429.671 322.355 429.671 321.288C429.671 319.901 430.013 318.792 430.695 317.96C431.389 317.128 432.349 316.712 433.575 316.712ZM434.887 322.504V318.36C434.503 318.189 434.098 318.104 433.671 318.104C432.967 318.104 432.45 318.387 432.119 318.952C431.799 319.517 431.639 320.237 431.639 321.112C431.639 322.904 432.215 323.8 433.367 323.8C433.805 323.8 434.167 323.677 434.455 323.432C434.743 323.176 434.887 322.867 434.887 322.504ZM442.669 316.712C443.469 316.712 444.104 316.909 444.573 317.304C445.042 317.688 445.277 318.232 445.277 318.936C445.277 319.405 445.176 319.821 444.973 320.184C444.77 320.536 444.52 320.813 444.221 321.016C443.922 321.219 443.56 321.384 443.133 321.512C442.418 321.725 441.613 321.832 440.717 321.832C440.749 322.397 440.925 322.856 441.245 323.208C441.565 323.549 442.056 323.72 442.717 323.72C443.378 323.72 444.04 323.485 444.701 323.016L445.309 324.312C445.096 324.504 444.733 324.701 444.221 324.904C443.72 325.107 443.144 325.208 442.493 325.208C441.192 325.208 440.237 324.851 439.629 324.136C439.021 323.411 438.717 322.419 438.717 321.16C438.717 319.901 439.064 318.845 439.757 317.992C440.45 317.139 441.421 316.712 442.669 316.712ZM441.933 320.376C442.328 320.301 442.69 320.147 443.021 319.912C443.352 319.667 443.517 319.379 443.517 319.048C443.517 318.397 443.197 318.072 442.557 318.072C441.96 318.072 441.501 318.312 441.181 318.792C440.861 319.261 440.685 319.827 440.653 320.488C441.122 320.477 441.549 320.44 441.933 320.376ZM450.595 318.168C450.339 318.072 450.03 318.024 449.667 318.024C449.304 318.024 449.011 318.109 448.787 318.28C448.574 318.44 448.467 318.643 448.467 318.888C448.467 319.123 448.504 319.309 448.579 319.448C448.664 319.576 448.792 319.688 448.963 319.784C449.23 319.923 449.55 320.045 449.923 320.152C450.296 320.248 450.574 320.328 450.755 320.392C450.936 320.445 451.16 320.541 451.427 320.68C451.704 320.819 451.912 320.968 452.051 321.128C452.424 321.523 452.611 322.029 452.611 322.648C452.611 323.448 452.318 324.077 451.731 324.536C451.155 324.984 450.419 325.208 449.523 325.208C448.222 325.208 447.24 325.043 446.579 324.712V322.488L448.019 322.376V323.144C448.019 323.613 448.467 323.848 449.363 323.848C450.259 323.848 450.707 323.523 450.707 322.872C450.707 322.637 450.627 322.445 450.467 322.296C450.318 322.147 450.168 322.045 450.019 321.992C449.87 321.939 449.688 321.885 449.475 321.832C449.272 321.779 449.07 321.725 448.867 321.672C448.675 321.619 448.462 321.549 448.227 321.464C448.003 321.368 447.752 321.235 447.475 321.064C446.931 320.712 446.659 320.125 446.659 319.304C446.659 318.472 446.952 317.832 447.539 317.384C448.126 316.936 448.862 316.712 449.747 316.712C450.643 316.712 451.528 316.925 452.403 317.352V319.272L450.963 319.384V318.712C450.963 318.445 450.84 318.264 450.595 318.168ZM457.638 316.712C458.438 316.712 459.072 316.909 459.542 317.304C460.011 317.688 460.246 318.232 460.246 318.936C460.246 319.405 460.144 319.821 459.942 320.184C459.739 320.536 459.488 320.813 459.19 321.016C458.891 321.219 458.528 321.384 458.102 321.512C457.387 321.725 456.582 321.832 455.686 321.832C455.718 322.397 455.894 322.856 456.214 323.208C456.534 323.549 457.024 323.72 457.686 323.72C458.347 323.72 459.008 323.485 459.67 323.016L460.278 324.312C460.064 324.504 459.702 324.701 459.19 324.904C458.688 325.107 458.112 325.208 457.462 325.208C456.16 325.208 455.206 324.851 454.598 324.136C453.99 323.411 453.686 322.419 453.686 321.16C453.686 319.901 454.032 318.845 454.726 317.992C455.419 317.139 456.39 316.712 457.638 316.712ZM456.902 320.376C457.296 320.301 457.659 320.147 457.99 319.912C458.32 319.667 458.486 319.379 458.486 319.048C458.486 318.397 458.166 318.072 457.526 318.072C456.928 318.072 456.47 318.312 456.15 318.792C455.83 319.261 455.654 319.827 455.622 320.488C456.091 320.477 456.518 320.44 456.902 320.376ZM462.364 323.208V318.776C462.364 318.605 462.332 318.488 462.268 318.424C462.214 318.349 462.113 318.307 461.964 318.296L461.292 318.248V316.952H463.996V318.152C464.188 317.736 464.486 317.395 464.892 317.128C465.297 316.851 465.761 316.712 466.284 316.712C466.817 316.712 467.324 316.829 467.804 317.064V319.448L466.316 319.56V318.824C466.316 318.611 466.262 318.477 466.156 318.424C466.038 318.371 465.894 318.344 465.724 318.344C465.297 318.344 464.945 318.499 464.668 318.808C464.401 319.107 464.268 319.491 464.268 319.96V323.672L465.66 323.736V325H461.372V323.784L461.9 323.736C462.06 323.715 462.177 323.672 462.252 323.608C462.326 323.533 462.364 323.4 462.364 323.208ZM470.538 315.256H471.578V316.952H473.706L473.546 318.296H471.578V322.504C471.578 322.973 471.664 323.304 471.834 323.496C472.005 323.677 472.266 323.768 472.618 323.768C472.981 323.768 473.344 323.656 473.706 323.432L474.186 324.664C473.653 325.037 472.976 325.224 472.154 325.224C471.674 325.224 471.269 325.16 470.938 325.032C470.608 324.915 470.362 324.781 470.202 324.632C470.042 324.483 469.92 324.264 469.834 323.976C469.749 323.688 469.701 323.464 469.69 323.304C469.68 323.133 469.674 322.888 469.674 322.568V318.296H468.538L468.698 317.128C469.2 317.085 469.578 316.909 469.834 316.6C470.09 316.28 470.325 315.832 470.538 315.256ZM478.973 323.208V315.416C478.973 315.245 478.941 315.128 478.877 315.064C478.823 315 478.722 314.963 478.573 314.952L478.013 314.92V313.592H480.861V317.896C481.415 317.107 482.194 316.712 483.197 316.712C484.007 316.712 484.631 316.947 485.069 317.416C485.517 317.875 485.741 318.568 485.741 319.496V323.672L486.653 323.72V325H482.845V323.784L483.373 323.736C483.533 323.715 483.65 323.672 483.725 323.608C483.799 323.533 483.837 323.4 483.837 323.208V319.912C483.837 319.357 483.746 318.931 483.565 318.632C483.394 318.333 483.053 318.184 482.541 318.184C482.039 318.184 481.634 318.344 481.325 318.664C481.026 318.973 480.877 319.352 480.877 319.8V323.672L481.789 323.72V325H477.981V323.784L478.509 323.736C478.669 323.715 478.786 323.672 478.861 323.608C478.935 323.533 478.973 323.4 478.973 323.208ZM494.775 317.272V323.224C494.775 323.395 494.801 323.512 494.855 323.576C494.919 323.64 495.025 323.677 495.175 323.688L495.687 323.72V325H493.143V324.072L493.095 324.056C492.561 324.824 491.831 325.208 490.903 325.208C489.815 325.208 489.009 324.861 488.487 324.168C487.964 323.475 487.703 322.525 487.703 321.32C487.703 319.869 488.055 318.739 488.759 317.928C489.463 317.117 490.519 316.712 491.927 316.712C492.833 316.712 493.783 316.899 494.775 317.272ZM492.919 322.456V318.312C492.62 318.173 492.209 318.104 491.687 318.104C490.972 318.104 490.455 318.392 490.135 318.968C489.815 319.544 489.655 320.307 489.655 321.256C489.655 322.984 490.209 323.848 491.319 323.848C491.788 323.848 492.172 323.709 492.471 323.432C492.769 323.144 492.919 322.819 492.919 322.456ZM500.861 318.168C500.605 318.072 500.295 318.024 499.933 318.024C499.57 318.024 499.277 318.109 499.053 318.28C498.839 318.44 498.733 318.643 498.733 318.888C498.733 319.123 498.77 319.309 498.845 319.448C498.93 319.576 499.058 319.688 499.229 319.784C499.495 319.923 499.815 320.045 500.189 320.152C500.562 320.248 500.839 320.328 501.021 320.392C501.202 320.445 501.426 320.541 501.693 320.68C501.97 320.819 502.178 320.968 502.317 321.128C502.69 321.523 502.877 322.029 502.877 322.648C502.877 323.448 502.583 324.077 501.997 324.536C501.421 324.984 500.685 325.208 499.789 325.208C498.487 325.208 497.506 325.043 496.845 324.712V322.488L498.285 322.376V323.144C498.285 323.613 498.733 323.848 499.629 323.848C500.525 323.848 500.973 323.523 500.973 322.872C500.973 322.637 500.893 322.445 500.733 322.296C500.583 322.147 500.434 322.045 500.285 321.992C500.135 321.939 499.954 321.885 499.741 321.832C499.538 321.779 499.335 321.725 499.133 321.672C498.941 321.619 498.727 321.549 498.493 321.464C498.269 321.368 498.018 321.235 497.741 321.064C497.197 320.712 496.925 320.125 496.925 319.304C496.925 318.472 497.218 317.832 497.805 317.384C498.391 316.936 499.127 316.712 500.013 316.712C500.909 316.712 501.794 316.925 502.669 317.352V319.272L501.229 319.384V318.712C501.229 318.445 501.106 318.264 500.861 318.168ZM510.771 323.832C511.933 323.832 512.515 322.893 512.515 321.016C512.515 320.067 512.381 319.347 512.115 318.856C511.859 318.365 511.421 318.12 510.803 318.12C510.195 318.12 509.747 318.355 509.459 318.824C509.171 319.293 509.027 319.933 509.027 320.744C509.027 322.248 509.304 323.192 509.859 323.576C510.104 323.747 510.408 323.832 510.771 323.832ZM507.09 320.968C507.09 320.179 507.208 319.496 507.443 318.92C507.677 318.333 507.992 317.885 508.387 317.576C509.144 317 509.981 316.712 510.899 316.712C511.539 316.712 512.077 316.819 512.515 317.032C512.963 317.235 513.309 317.475 513.555 317.752C513.811 318.019 514.024 318.413 514.195 318.936C514.376 319.448 514.467 320.056 514.467 320.76C514.467 322.232 514.109 323.347 513.395 324.104C512.68 324.861 511.763 325.24 510.643 325.24C509.533 325.24 508.664 324.883 508.035 324.168C507.405 323.443 507.09 322.376 507.09 320.968ZM517.085 315.256H518.125V316.952H520.253L520.093 318.296H518.125V322.504C518.125 322.973 518.211 323.304 518.381 323.496C518.552 323.677 518.813 323.768 519.165 323.768C519.528 323.768 519.891 323.656 520.253 323.432L520.733 324.664C520.2 325.037 519.523 325.224 518.701 325.224C518.221 325.224 517.816 325.16 517.485 325.032C517.155 324.915 516.909 324.781 516.749 324.632C516.589 324.483 516.467 324.264 516.381 323.976C516.296 323.688 516.248 323.464 516.237 323.304C516.227 323.133 516.221 322.888 516.221 322.568V318.296H515.085L515.245 317.128C515.747 317.085 516.125 316.909 516.381 316.6C516.637 316.28 516.872 315.832 517.085 315.256ZM522.317 323.208V315.416C522.317 315.245 522.285 315.128 522.221 315.064C522.167 315 522.066 314.963 521.917 314.952L521.357 314.92V313.592H524.205V317.896C524.759 317.107 525.538 316.712 526.541 316.712C527.351 316.712 527.975 316.947 528.413 317.416C528.861 317.875 529.085 318.568 529.085 319.496V323.672L529.997 323.72V325H526.189V323.784L526.717 323.736C526.877 323.715 526.994 323.672 527.069 323.608C527.143 323.533 527.181 323.4 527.181 323.208V319.912C527.181 319.357 527.09 318.931 526.909 318.632C526.738 318.333 526.397 318.184 525.885 318.184C525.383 318.184 524.978 318.344 524.669 318.664C524.37 318.973 524.221 319.352 524.221 319.8V323.672L525.133 323.72V325H521.325V323.784L521.853 323.736C522.013 323.715 522.13 323.672 522.205 323.608C522.279 323.533 522.317 323.4 522.317 323.208ZM534.95 316.712C535.75 316.712 536.385 316.909 536.854 317.304C537.324 317.688 537.558 318.232 537.558 318.936C537.558 319.405 537.457 319.821 537.254 320.184C537.052 320.536 536.801 320.813 536.502 321.016C536.204 321.219 535.841 321.384 535.414 321.512C534.7 321.725 533.894 321.832 532.998 321.832C533.03 322.397 533.206 322.856 533.526 323.208C533.846 323.549 534.337 323.72 534.998 323.72C535.66 323.72 536.321 323.485 536.982 323.016L537.59 324.312C537.377 324.504 537.014 324.701 536.502 324.904C536.001 325.107 535.425 325.208 534.774 325.208C533.473 325.208 532.518 324.851 531.91 324.136C531.302 323.411 530.998 322.419 530.998 321.16C530.998 319.901 531.345 318.845 532.038 317.992C532.732 317.139 533.702 316.712 534.95 316.712ZM534.214 320.376C534.609 320.301 534.972 320.147 535.302 319.912C535.633 319.667 535.798 319.379 535.798 319.048C535.798 318.397 535.478 318.072 534.838 318.072C534.241 318.072 533.782 318.312 533.462 318.792C533.142 319.261 532.966 319.827 532.934 320.488C533.404 320.477 533.83 320.44 534.214 320.376ZM539.676 323.208V318.776C539.676 318.605 539.644 318.488 539.58 318.424C539.527 318.349 539.426 318.307 539.276 318.296L538.604 318.248V316.952H541.308V318.152C541.5 317.736 541.799 317.395 542.204 317.128C542.61 316.851 543.074 316.712 543.596 316.712C544.13 316.712 544.636 316.829 545.116 317.064V319.448L543.628 319.56V318.824C543.628 318.611 543.575 318.477 543.468 318.424C543.351 318.371 543.207 318.344 543.036 318.344C542.61 318.344 542.258 318.499 541.98 318.808C541.714 319.107 541.58 319.491 541.58 319.96V323.672L542.972 323.736V325H538.684V323.784L539.212 323.736C539.372 323.715 539.49 323.672 539.564 323.608C539.639 323.533 539.676 323.4 539.676 323.208ZM426.315 348.52V340.776C426.315 340.595 426.283 340.472 426.219 340.408C426.165 340.333 426.064 340.296 425.915 340.296L425.243 340.248V338.952H427.947V339.992C428.117 339.672 428.427 339.379 428.875 339.112C429.323 338.845 429.856 338.712 430.475 338.712C432.405 338.712 433.371 340.067 433.371 342.776C433.371 344.216 433.056 345.32 432.427 346.088C431.797 346.856 430.944 347.24 429.867 347.24C429.227 347.24 428.656 347.085 428.155 346.776V348.984L429.451 349.048V350.312H425.323V349.096L425.851 349.048C426.011 349.027 426.128 348.979 426.203 348.904C426.277 348.84 426.315 348.712 426.315 348.52ZM431.387 342.936C431.387 341.155 430.848 340.264 429.771 340.264C429.323 340.264 428.939 340.403 428.619 340.68C428.309 340.947 428.155 341.267 428.155 341.64V345.32C428.56 345.587 429.051 345.72 429.627 345.72C430.213 345.72 430.651 345.453 430.939 344.92C431.237 344.387 431.387 343.725 431.387 342.936ZM437.376 335.592V345.672L438.288 345.72V347H434.48V345.784L435.008 345.736C435.318 345.704 435.472 345.533 435.472 345.224V337.336C435.472 337.101 435.339 336.973 435.072 336.952L434.512 336.92V335.592H437.376ZM446.462 339.272V345.224C446.462 345.395 446.489 345.512 446.542 345.576C446.606 345.64 446.713 345.677 446.862 345.688L447.374 345.72V347H444.83V346.072L444.782 346.056C444.249 346.824 443.518 347.208 442.59 347.208C441.502 347.208 440.697 346.861 440.174 346.168C439.651 345.475 439.39 344.525 439.39 343.32C439.39 341.869 439.742 340.739 440.446 339.928C441.15 339.117 442.206 338.712 443.614 338.712C444.521 338.712 445.47 338.899 446.462 339.272ZM444.606 344.456V340.312C444.307 340.173 443.897 340.104 443.374 340.104C442.659 340.104 442.142 340.392 441.822 340.968C441.502 341.544 441.342 342.307 441.342 343.256C441.342 344.984 441.897 345.848 443.006 345.848C443.475 345.848 443.859 345.709 444.158 345.432C444.457 345.144 444.606 344.819 444.606 344.456ZM448.26 340.232V338.952H450.964V339.992C451.241 339.597 451.609 339.288 452.068 339.064C452.527 338.829 453.023 338.712 453.556 338.712C454.367 338.712 454.991 338.947 455.428 339.416C455.876 339.875 456.1 340.568 456.1 341.496V345.672L457.012 345.72V347H453.204V345.784L453.732 345.736C453.892 345.715 454.009 345.672 454.084 345.608C454.159 345.533 454.196 345.4 454.196 345.208V341.912C454.196 341.325 454.105 340.893 453.924 340.616C453.743 340.328 453.396 340.184 452.884 340.184C452.383 340.184 451.983 340.344 451.684 340.664C451.385 340.984 451.236 341.363 451.236 341.8V345.672L452.148 345.72V347H448.34V345.784L448.868 345.736C449.028 345.715 449.145 345.672 449.22 345.608C449.295 345.533 449.332 345.4 449.332 345.208V340.776C449.332 340.456 449.199 340.291 448.932 340.28L448.26 340.232ZM462.142 340.168C461.886 340.072 461.577 340.024 461.214 340.024C460.851 340.024 460.558 340.109 460.334 340.28C460.121 340.44 460.014 340.643 460.014 340.888C460.014 341.123 460.051 341.309 460.126 341.448C460.211 341.576 460.339 341.688 460.51 341.784C460.777 341.923 461.097 342.045 461.47 342.152C461.843 342.248 462.121 342.328 462.302 342.392C462.483 342.445 462.707 342.541 462.974 342.68C463.251 342.819 463.459 342.968 463.598 343.128C463.971 343.523 464.158 344.029 464.158 344.648C464.158 345.448 463.865 346.077 463.278 346.536C462.702 346.984 461.966 347.208 461.07 347.208C459.769 347.208 458.787 347.043 458.126 346.712V344.488L459.566 344.376V345.144C459.566 345.613 460.014 345.848 460.91 345.848C461.806 345.848 462.254 345.523 462.254 344.872C462.254 344.637 462.174 344.445 462.014 344.296C461.865 344.147 461.715 344.045 461.566 343.992C461.417 343.939 461.235 343.885 461.022 343.832C460.819 343.779 460.617 343.725 460.414 343.672C460.222 343.619 460.009 343.549 459.774 343.464C459.55 343.368 459.299 343.235 459.022 343.064C458.478 342.712 458.206 342.125 458.206 341.304C458.206 340.472 458.499 339.832 459.086 339.384C459.673 338.936 460.409 338.712 461.294 338.712C462.19 338.712 463.075 338.925 463.95 339.352V341.272L462.51 341.384V340.712C462.51 340.445 462.387 340.264 462.142 340.168ZM469.38 345.208V340.296H468.004V338.952H469.38V338.344C469.38 337.299 469.62 336.547 470.1 336.088C470.548 335.651 471.204 335.432 472.068 335.432C472.932 335.432 473.7 335.619 474.372 335.992L473.908 337.272C473.396 337.005 472.916 336.872 472.468 336.872C472.02 336.872 471.71 336.984 471.54 337.208C471.369 337.421 471.284 337.752 471.284 338.2V338.952H473.652V340.296H471.284V345.656L472.628 345.72V347H468.388V345.784L468.916 345.736C469.076 345.715 469.193 345.672 469.268 345.608C469.342 345.533 469.38 345.4 469.38 345.208ZM477.817 345.832C478.98 345.832 479.561 344.893 479.561 343.016C479.561 342.067 479.428 341.347 479.161 340.856C478.905 340.365 478.468 340.12 477.849 340.12C477.241 340.12 476.793 340.355 476.505 340.824C476.217 341.293 476.073 341.933 476.073 342.744C476.073 344.248 476.351 345.192 476.905 345.576C477.151 345.747 477.455 345.832 477.817 345.832ZM474.137 342.968C474.137 342.179 474.255 341.496 474.489 340.92C474.724 340.333 475.039 339.885 475.433 339.576C476.191 339 477.028 338.712 477.945 338.712C478.585 338.712 479.124 338.819 479.561 339.032C480.009 339.235 480.356 339.475 480.601 339.752C480.857 340.019 481.071 340.413 481.241 340.936C481.423 341.448 481.513 342.056 481.513 342.76C481.513 344.232 481.156 345.347 480.441 346.104C479.727 346.861 478.809 347.24 477.689 347.24C476.58 347.24 475.711 346.883 475.081 346.168C474.452 345.443 474.137 344.376 474.137 342.968ZM483.583 345.208V340.776C483.583 340.605 483.551 340.488 483.487 340.424C483.433 340.349 483.332 340.307 483.183 340.296L482.511 340.248V338.952H485.215V340.152C485.407 339.736 485.705 339.395 486.111 339.128C486.516 338.851 486.98 338.712 487.503 338.712C488.036 338.712 488.543 338.829 489.023 339.064V341.448L487.535 341.56V340.824C487.535 340.611 487.481 340.477 487.375 340.424C487.257 340.371 487.113 340.344 486.943 340.344C486.516 340.344 486.164 340.499 485.887 340.808C485.62 341.107 485.487 341.491 485.487 341.96V345.672L486.879 345.736V347H482.59V345.784L483.118 345.736C483.279 345.715 483.396 345.672 483.471 345.608C483.545 345.533 483.583 345.4 483.583 345.208ZM499.072 346.696V345.48C498.486 346.312 497.622 346.728 496.48 346.728C494.827 346.728 494 345.805 494 343.96V340.744C494 340.456 493.867 340.307 493.6 340.296L493.088 340.264V338.952H495.904V343.544C495.904 344.109 495.984 344.536 496.144 344.824C496.304 345.112 496.635 345.256 497.136 345.256C497.638 345.256 498.038 345.101 498.336 344.792C498.646 344.483 498.8 344.109 498.8 343.672V340.776C498.8 340.595 498.768 340.472 498.704 340.408C498.651 340.333 498.55 340.296 498.4 340.296L497.888 340.264V338.952H500.704V346.696C500.704 347.987 500.39 348.931 499.76 349.528C499.142 350.125 498.198 350.424 496.928 350.424C495.67 350.424 494.688 350.248 493.984 349.896V347.672L495.504 347.544V348.312C495.504 348.6 495.638 348.792 495.904 348.888C496.171 348.995 496.539 349.048 497.008 349.048C498.384 349.048 499.072 348.264 499.072 346.696ZM506.036 345.832C507.199 345.832 507.78 344.893 507.78 343.016C507.78 342.067 507.647 341.347 507.38 340.856C507.124 340.365 506.687 340.12 506.068 340.12C505.46 340.12 505.012 340.355 504.724 340.824C504.436 341.293 504.292 341.933 504.292 342.744C504.292 344.248 504.569 345.192 505.124 345.576C505.369 345.747 505.673 345.832 506.036 345.832ZM502.356 342.968C502.356 342.179 502.473 341.496 502.708 340.92C502.943 340.333 503.257 339.885 503.652 339.576C504.409 339 505.247 338.712 506.164 338.712C506.804 338.712 507.343 338.819 507.78 339.032C508.228 339.235 508.575 339.475 508.82 339.752C509.076 340.019 509.289 340.413 509.46 340.936C509.641 341.448 509.732 342.056 509.732 342.76C509.732 344.232 509.375 345.347 508.66 346.104C507.945 346.861 507.028 347.24 505.908 347.24C504.799 347.24 503.929 346.883 503.3 346.168C502.671 345.443 502.356 344.376 502.356 342.968ZM519.055 345.736V347H516.463V345.96C515.876 346.792 515.012 347.208 513.871 347.208C512.218 347.208 511.391 346.285 511.391 344.44V340.744C511.391 340.456 511.258 340.307 510.991 340.296L510.479 340.264V338.952H513.295V344.024C513.295 344.589 513.375 345.016 513.535 345.304C513.695 345.592 514.026 345.736 514.527 345.736C515.028 345.736 515.428 345.581 515.727 345.272C516.036 344.963 516.191 344.589 516.191 344.152V340.776C516.191 340.605 516.159 340.488 516.095 340.424C516.042 340.349 515.94 340.307 515.791 340.296L515.279 340.264V338.952H518.095V345.224C518.095 345.395 518.122 345.512 518.175 345.576C518.228 345.629 518.335 345.667 518.495 345.688L519.055 345.736ZM521.308 347.24C520.935 347.24 520.647 347.139 520.444 346.936C520.241 346.723 520.14 346.451 520.14 346.12C520.14 345.779 520.241 345.501 520.444 345.288C520.657 345.064 520.94 344.952 521.292 344.952C521.655 344.952 521.943 345.059 522.156 345.272C522.369 345.475 522.476 345.747 522.476 346.088C522.476 346.419 522.375 346.696 522.172 346.92C521.969 347.133 521.681 347.24 521.308 347.24Z" fill="black"/>
</g>
<defs>
<linearGradient id="paint0_linear_1338_2525" x1="450" y1="0" x2="450" y2="600" gradientUnits="userSpaceOnUse">
<stop stop-color="#1D9DBE"/>
<stop offset="1" stop-color="#F7C59F"/>
</linearGradient>
<linearGradient id="paint1_linear_1338_2525" x1="148" y1="75" x2="179.5" y2="57.5" gradientUnits="userSpaceOnUse">
<stop offset="0.277153" stop-color="#2A5C68"/>
<stop offset="1" stop-color="#2B1E36"/>
</linearGradient>
<clipPath id="clip0_1338_2525">
<rect width="900" height="600" fill="white"/>
</clipPath>
<clipPath id="clip1_1338_2525">
<rect width="3.59929" height="3.59929" fill="white" transform="translate(150.596 54.8643)"/>
</clipPath>
</defs>
</svg>
