<svg width="900" height="600" viewBox="0 0 900 600" fill="none" xmlns="http://www.w3.org/2000/svg">
<g clip-path="url(#clip0_1338_2525)">
<path d="M900 0H0V600H900V0Z" fill="url(#paint0_linear_1338_2525)"/>
<path d="M0 360L21.5 363C43 366 86 372 128.8 379.2C171.7 386.3 214.3 394.7 257.2 398.7C300 402.7 343 402.3 385.8 404.7C428.7 407 471.3 412 514.2 406C557 400 600 383 642.8 387.3C685.7 391.7 728.3 417.3 771.2 417.3C814 417.3 857 391.7 878.5 378.8L900 366V601H878.5C857 601 814 601 771.2 601C728.3 601 685.7 601 642.8 601C600 601 557 601 514.2 601C471.3 601 428.7 601 385.8 601C343 601 300 601 257.2 601C214.3 601 171.7 601 128.8 601C86 601 43 601 21.5 601H0V360Z" fill="#BE8961"/>
<path d="M0 407L21.5 413.7C43 420.3 86 433.7 128.8 438.2C171.7 442.7 214.3 438.3 257.2 438.2C300 438 343 442 385.8 436.2C428.7 430.3 471.3 414.7 514.2 413.2C557 411.7 600 424.3 642.8 426C685.7 427.7 728.3 418.3 771.2 421C814 423.7 857 438.3 878.5 445.7L900 453V601H878.5C857 601 814 601 771.2 601C728.3 601 685.7 601 642.8 601C600 601 557 601 514.2 601C471.3 601 428.7 601 385.8 601C343 601 300 601 257.2 601C214.3 601 171.7 601 128.8 601C86 601 43 601 21.5 601H0V407Z" fill="#FFA968"/>
<path d="M0 484L21.5 484.7C43 485.3 86 486.7 128.8 485C171.7 483.3 214.3 478.7 257.2 470.3C300 462 343 450 385.8 454.7C428.7 459.3 471.3 480.7 514.2 482.3C557 484 600 466 642.8 455.8C685.7 445.7 728.3 443.3 771.2 451.8C814 460.3 857 479.7 878.5 489.3L900 499V601H878.5C857 601 814 601 771.2 601C728.3 601 685.7 601 642.8 601C600 601 557 601 514.2 601C471.3 601 428.7 601 385.8 601C343 601 300 601 257.2 601C214.3 601 171.7 601 128.8 601C86 601 43 601 21.5 601H0V484Z" fill="#2A5C68"/>
<path d="M0 510L21.5 510.8C43 511.7 86 513.3 128.8 516.2C171.7 519 214.3 523 257.2 519.3C300 515.7 343 504.3 385.8 504.7C428.7 505 471.3 517 514.2 521.5C557 526 600 523 642.8 524.2C685.7 525.3 728.3 530.7 771.2 528.8C814 527 857 518 878.5 513.5L900 509V601H878.5C857 601 814 601 771.2 601C728.3 601 685.7 601 642.8 601C600 601 557 601 514.2 601C471.3 601 428.7 601 385.8 601C343 601 300 601 257.2 601C214.3 601 171.7 601 128.8 601C86 601 43 601 21.5 601H0V510Z" fill="#F6A478"/>
<path d="M0 574L21.5 568.2C43 562.3 86 550.7 128.8 548.2C171.7 545.7 214.3 552.3 257.2 554.5C300 556.7 343 554.3 385.8 556.2C428.7 558 471.3 564 514.2 565.7C557 567.3 600 564.7 642.8 564.2C685.7 563.7 728.3 565.3 771.2 565.5C814 565.7 857 564.3 878.5 563.7L900 563V601H878.5C857 601 814 601 771.2 601C728.3 601 685.7 601 642.8 601C600 601 557 601 514.2 601C471.3 601 428.7 601 385.8 601C343 601 300 601 257.2 601C214.3 601 171.7 601 128.8 601C86 601 43 601 21.5 601H0V574Z" fill="#F7C59F"/>
<path d="M761.841 481.887C801.758 487.982 804.511 494.505 807.256 499.484C808.446 500.655 812.115 504.079 813.402 500.784C814.179 498.796 813.304 493.079 797.055 486.49C790.742 484.645 743.82 479.136 761.841 481.887Z" fill="white"/>
<path d="M816.671 522.519C818.921 540.794 816.364 542.745 814.493 544.518C814.121 545.175 813.055 547.179 814.678 547.373C815.659 547.49 818.09 546.457 819 538.553C819.035 535.563 815.656 514.269 816.671 522.519Z" fill="white"/>
<path d="M695.191 504.915C735.89 503.279 728.769 504.915 734.304 504.915C739.84 504.915 742.938 508.759 741.468 504.915C739.997 501.071 733.328 502.593 731.006 502.593C724.467 501.85 676.816 505.653 695.191 504.915Z" fill="white"/>
<path d="M807.112 515.882C805.968 511.67 804.077 508.029 801.641 504.96M801.641 504.96C786.131 485.424 748.491 489.065 740.443 515.882C744.976 533.82 759.719 564.59 782.425 544.164C805.131 523.737 796.518 507.395 789.373 501.778C780.738 501.335 768.694 502.233 760.029 506.285M801.641 504.96C817.162 508.143 801.051 544.164 792.181 555.52C783.312 566.876 768.455 565.574 752.121 532.301C745.37 518.55 750.769 510.616 760.029 506.285M780.06 495.34C761.286 508.408 728.483 538.016 747.464 551.903C771.19 569.263 765.129 522.655 760.029 506.285M766.09 498.089C734.899 495.34 723.635 554.073 747.464 561.017C774.442 573.819 809.209 545.542 801.641 527.311C801.74 513.005 795.788 486.584 771.19 495.34" stroke="#562E2E" stroke-width="3"/>
<path d="M795.09 557.431C798.791 555.007 801.698 552.077 803.875 548.827M803.875 548.827C817.734 528.136 802.016 494.47 773.483 495.71C757.611 505.72 732.644 529.341 759.749 543.742C786.854 558.143 799.86 544.873 802.976 536.438C800.606 528.301 795.834 517.441 789.109 510.733M803.875 548.827C805.828 564.227 765.785 560.986 751.933 556.455C738.08 551.924 734.524 537.748 761.395 511.843C772.501 501.136 781.921 503.563 789.109 510.733M806.181 525.73C787.464 512.584 748.211 491.811 740.937 513.884C731.844 541.475 774.937 520.76 789.109 510.733M798.996 513.688C791.545 483.921 731.116 492.527 732.127 516.838C728.493 545.963 767.097 568.985 782.269 556.07C796.13 551.526 819.742 537.453 803.306 517.518" stroke="#562E2E" stroke-width="3"/>
<path d="M205.747 176V172.112L207.475 171.968C208.307 171.904 208.723 171.456 208.723 170.624V148.304L205.987 148.16V144.08H214.627L228.211 166.112H228.307V148.304L225.139 148.16V144.08H236.851V147.968L235.123 148.112C234.355 148.176 233.971 148.672 233.971 149.6V176H228.355L214.483 153.632H214.387V171.776L217.507 171.92V176H205.747ZM249.741 172.496C253.229 172.496 254.973 169.68 254.973 164.048C254.973 161.2 254.573 159.04 253.773 157.568C253.005 156.096 251.693 155.36 249.837 155.36C248.013 155.36 246.669 156.064 245.805 157.472C244.941 158.88 244.509 160.8 244.509 163.232C244.509 167.744 245.341 170.576 247.005 171.728C247.741 172.24 248.653 172.496 249.741 172.496ZM238.701 163.904C238.701 161.536 239.053 159.488 239.757 157.76C240.461 156 241.405 154.656 242.589 153.728C244.861 152 247.373 151.136 250.125 151.136C252.045 151.136 253.661 151.456 254.973 152.096C256.317 152.704 257.357 153.424 258.093 154.256C258.861 155.056 259.501 156.24 260.013 157.808C260.557 159.344 260.829 161.168 260.829 163.28C260.829 167.696 259.757 171.04 257.613 173.312C255.469 175.584 252.717 176.72 249.357 176.72C246.029 176.72 243.421 175.648 241.533 173.504C239.645 171.328 238.701 168.128 238.701 163.904ZM281.734 149.696V165.632C281.734 167.872 282.262 169.456 283.318 170.384C284.406 171.28 285.942 171.728 287.926 171.728C289.942 171.728 291.494 171.232 292.582 170.24C293.702 169.248 294.262 167.792 294.262 165.872V148.304L291.478 148.16V144.08H302.854V147.968L301.27 148.112C300.342 148.208 299.878 148.688 299.878 149.552V166.688C299.878 169.792 298.79 172.224 296.614 173.984C294.438 175.744 291.43 176.624 287.59 176.624C283.75 176.624 280.838 175.776 278.854 174.08C276.902 172.352 275.926 169.632 275.926 165.92V148.304L273.142 148.16V144.08H284.758V147.968L283.174 148.112C282.662 148.176 282.294 148.32 282.07 148.544C281.846 148.736 281.734 149.12 281.734 149.696ZM307.999 180.56V157.328C307.999 156.784 307.903 156.416 307.711 156.224C307.551 156 307.247 155.888 306.799 155.888L304.783 155.744V151.856H312.895V154.976C313.407 154.016 314.335 153.136 315.679 152.336C317.023 151.536 318.623 151.136 320.479 151.136C326.271 151.136 329.167 155.2 329.167 163.328C329.167 167.648 328.223 170.96 326.335 173.264C324.447 175.568 321.887 176.72 318.655 176.72C316.735 176.72 315.023 176.256 313.519 175.328V181.952L317.407 182.144V185.936H305.023V182.288L306.607 182.144C307.087 182.08 307.439 181.936 307.663 181.712C307.887 181.52 307.999 181.136 307.999 180.56ZM323.215 163.808C323.215 158.464 321.599 155.792 318.367 155.792C317.023 155.792 315.871 156.208 314.911 157.04C313.983 157.84 313.519 158.8 313.519 159.92V170.96C314.735 171.76 316.207 172.16 317.935 172.16C319.695 172.16 321.007 171.36 321.871 169.76C322.767 168.16 323.215 166.176 323.215 163.808ZM338.4 163.664C338.4 166.384 338.912 168.496 339.936 170C340.96 171.504 342.432 172.256 344.352 172.256C346.304 172.256 348.224 171.568 350.112 170.192L352.176 173.888C349.904 175.744 347.056 176.672 343.632 176.672C340.208 176.672 337.504 175.6 335.52 173.456C333.568 171.28 332.592 168.08 332.592 163.856C332.592 159.632 333.712 156.464 335.952 154.352C338.224 152.208 340.768 151.136 343.584 151.136C346.432 151.136 349.072 151.792 351.504 153.104V159.344L347.088 159.68V157.376C347.088 156.512 346.768 155.984 346.128 155.792C345.52 155.568 344.88 155.456 344.208 155.456C340.336 155.456 338.4 158.192 338.4 163.664ZM365.757 172.496C369.245 172.496 370.989 169.68 370.989 164.048C370.989 161.2 370.589 159.04 369.789 157.568C369.021 156.096 367.709 155.36 365.853 155.36C364.029 155.36 362.685 156.064 361.821 157.472C360.957 158.88 360.525 160.8 360.525 163.232C360.525 167.744 361.357 170.576 363.021 171.728C363.757 172.24 364.669 172.496 365.757 172.496ZM354.717 163.904C354.717 161.536 355.069 159.488 355.773 157.76C356.477 156 357.421 154.656 358.605 153.728C360.877 152 363.389 151.136 366.141 151.136C368.061 151.136 369.677 151.456 370.989 152.096C372.333 152.704 373.373 153.424 374.109 154.256C374.877 155.056 375.517 156.24 376.029 157.808C376.573 159.344 376.845 161.168 376.845 163.28C376.845 167.696 375.773 171.04 373.629 173.312C371.485 175.584 368.733 176.72 365.373 176.72C362.045 176.72 359.437 175.648 357.549 173.504C355.661 171.328 354.717 168.128 354.717 163.904ZM379.788 155.744V151.856H387.9V154.976C389.692 152.416 392.14 151.136 395.244 151.136C398.38 151.136 400.492 152.416 401.58 154.976C403.372 152.416 405.804 151.136 408.876 151.136C411.18 151.136 412.956 151.84 414.204 153.248C415.452 154.624 416.076 156.704 416.076 159.488V172.016L418.812 172.16V176H407.388V172.352L408.972 172.208C409.452 172.144 409.788 172.016 409.98 171.824C410.204 171.6 410.332 171.216 410.364 170.672V160.736C410.364 158.976 410.156 157.68 409.74 156.848C409.356 155.984 408.428 155.552 406.956 155.552C405.484 155.552 404.348 156 403.548 156.896C402.78 157.792 402.396 158.992 402.396 160.496V172.016L405.036 172.16V176H393.708V172.352L395.292 172.208C395.772 172.144 396.124 172.016 396.348 171.824C396.572 171.6 396.684 171.2 396.684 170.624V160.736C396.684 158.976 396.476 157.68 396.06 156.848C395.676 155.984 394.732 155.552 393.228 155.552C391.756 155.552 390.636 156.016 389.868 156.944C389.1 157.872 388.716 159.024 388.716 160.4V172.016L391.308 172.16V176H379.98V172.352L381.564 172.208C382.044 172.144 382.396 172.016 382.62 171.824C382.844 171.6 382.956 171.2 382.956 170.624H383.004V157.376C383.004 156.832 382.908 156.464 382.716 156.272C382.556 156.048 382.252 155.92 381.804 155.888L379.788 155.744ZM430.342 151.856V172.016L433.078 172.16V176H421.654V172.352L423.238 172.208C424.166 172.112 424.63 171.6 424.63 170.672V157.328C424.63 156.784 424.534 156.416 424.342 156.224C424.182 156.032 423.878 155.936 423.43 155.936L421.75 155.84V151.856H430.342ZM424.294 147.728C423.622 147.056 423.286 146.208 423.286 145.184C423.286 144.16 423.622 143.312 424.294 142.64C424.966 141.936 425.846 141.584 426.934 141.584C428.022 141.584 428.902 141.936 429.574 142.64C430.278 143.312 430.63 144.16 430.63 145.184C430.63 146.208 430.278 147.056 429.574 147.728C428.902 148.368 428.022 148.688 426.934 148.688C425.846 148.688 424.966 148.368 424.294 147.728ZM435.569 155.696V151.856H443.681V154.976C444.513 153.792 445.617 152.864 446.993 152.192C448.369 151.488 449.857 151.136 451.457 151.136C453.889 151.136 455.761 151.84 457.073 153.248C458.417 154.624 459.089 156.704 459.089 159.488V172.016L461.825 172.16V176H450.401V172.352L451.985 172.208C452.465 172.144 452.817 172.016 453.041 171.824C453.265 171.6 453.377 171.2 453.377 170.624V160.736C453.377 158.976 453.105 157.68 452.561 156.848C452.017 155.984 450.977 155.552 449.441 155.552C447.937 155.552 446.737 156.032 445.841 156.992C444.945 157.952 444.497 159.088 444.497 160.4V172.016L447.233 172.16V176H435.809V172.352L437.393 172.208C437.873 172.144 438.225 172.016 438.449 171.824C438.673 171.6 438.785 171.2 438.785 170.624V157.328C438.785 156.368 438.385 155.872 437.585 155.84L435.569 155.696ZM485.999 175.952C485.711 179.504 484.687 182.112 482.927 183.776C481.167 185.44 478.415 186.272 474.671 186.272C470.927 186.272 467.999 185.744 465.887 184.688V178.016L470.447 177.632V179.936C470.447 180.8 470.847 181.376 471.647 181.664C472.447 181.984 473.551 182.144 474.959 182.144C477.007 182.144 478.447 181.52 479.279 180.272C480.111 179.056 480.527 177.328 480.527 175.088V172.448C478.991 174.24 476.863 175.136 474.143 175.136C472.479 175.136 471.007 174.816 469.727 174.176C468.479 173.536 467.503 172.672 466.799 171.584C465.423 169.408 464.735 166.848 464.735 163.904C464.735 159.712 465.871 156.544 468.143 154.4C470.415 152.224 473.439 151.136 477.215 151.136C480.351 151.136 483.311 151.728 486.095 152.912V170.72C486.095 173.44 486.063 175.184 485.999 175.952ZM480.527 166.208V155.888C479.407 155.504 478.127 155.312 476.687 155.312C474.735 155.312 473.231 156.032 472.175 157.472C471.151 158.912 470.639 160.864 470.639 163.328C470.639 168.384 472.303 170.912 475.631 170.912C477.007 170.912 478.159 170.496 479.087 169.664C480.047 168.8 480.527 167.648 480.527 166.208ZM500.645 144.08H514.181C521.093 144.08 524.549 146.752 524.549 152.096C524.549 155.04 523.077 157.28 520.133 158.816C522.021 159.296 523.493 160.176 524.549 161.456C525.637 162.736 526.181 164.4 526.181 166.448C526.181 169.552 525.125 171.92 523.013 173.552C520.933 175.184 517.893 176 513.893 176H500.405V172.112L501.989 171.968C502.917 171.872 503.381 171.424 503.381 170.624V148.304L500.645 148.16V144.08ZM509.237 161.456V171.488H513.749C517.909 171.488 519.989 169.792 519.989 166.4C519.989 164.8 519.461 163.584 518.405 162.752C517.381 161.888 515.909 161.456 513.989 161.456H509.237ZM509.237 148.496V157.184H512.789C514.773 157.184 516.229 156.784 517.157 155.984C518.117 155.152 518.597 154 518.597 152.528C518.597 151.056 518.117 150.016 517.157 149.408C516.229 148.8 514.885 148.496 513.125 148.496H509.237ZM540.272 172.496C543.76 172.496 545.504 169.68 545.504 164.048C545.504 161.2 545.104 159.04 544.304 157.568C543.536 156.096 542.224 155.36 540.368 155.36C538.544 155.36 537.2 156.064 536.336 157.472C535.472 158.88 535.04 160.8 535.04 163.232C535.04 167.744 535.872 170.576 537.536 171.728C538.272 172.24 539.184 172.496 540.272 172.496ZM529.232 163.904C529.232 161.536 529.584 159.488 530.288 157.76C530.992 156 531.936 154.656 533.12 153.728C535.392 152 537.904 151.136 540.656 151.136C542.576 151.136 544.192 151.456 545.504 152.096C546.848 152.704 547.888 153.424 548.624 154.256C549.392 155.056 550.032 156.24 550.544 157.808C551.088 159.344 551.36 161.168 551.36 163.28C551.36 167.696 550.288 171.04 548.144 173.312C546 175.584 543.248 176.72 539.888 176.72C536.56 176.72 533.952 175.648 532.064 173.504C530.176 171.328 529.232 168.128 529.232 163.904ZM565.632 172.496C569.12 172.496 570.864 169.68 570.864 164.048C570.864 161.2 570.464 159.04 569.664 157.568C568.896 156.096 567.584 155.36 565.728 155.36C563.904 155.36 562.56 156.064 561.696 157.472C560.832 158.88 560.4 160.8 560.4 163.232C560.4 167.744 561.232 170.576 562.896 171.728C563.632 172.24 564.544 172.496 565.632 172.496ZM554.592 163.904C554.592 161.536 554.944 159.488 555.648 157.76C556.352 156 557.296 154.656 558.48 153.728C560.752 152 563.264 151.136 566.016 151.136C567.936 151.136 569.552 151.456 570.864 152.096C572.208 152.704 573.248 153.424 573.984 154.256C574.752 155.056 575.392 156.24 575.904 157.808C576.448 159.344 576.72 161.168 576.72 163.28C576.72 167.696 575.648 171.04 573.504 173.312C571.36 175.584 568.608 176.72 565.248 176.72C561.92 176.72 559.312 175.648 557.424 173.504C555.536 171.328 554.592 168.128 554.592 163.904ZM582.927 170.624V147.248C582.927 146.736 582.831 146.384 582.639 146.192C582.479 146 582.175 145.888 581.727 145.856L580.047 145.76V141.776H588.591V162.56C590.351 162.4 591.887 161.856 593.199 160.928C594.511 160 595.407 158.784 595.887 157.28C595.983 156.96 596.031 156.704 596.031 156.512C596.031 155.968 595.727 155.696 595.119 155.696L593.295 155.6V151.856H603.231V155.744L600.927 155.84C600.511 159.104 599.103 161.68 596.703 163.568L601.407 172.016L604.335 172.16V176H597.327L591.855 166.016C590.799 166.304 589.711 166.528 588.591 166.688V172.016H588.639L591.375 172.16V176H579.951V172.352L581.535 172.208C582.015 172.144 582.367 172.016 582.591 171.824C582.815 171.6 582.927 171.2 582.927 170.624ZM615.311 151.856V172.016L618.047 172.16V176H606.623V172.352L608.207 172.208C609.135 172.112 609.599 171.6 609.599 170.672V157.328C609.599 156.784 609.503 156.416 609.311 156.224C609.151 156.032 608.847 155.936 608.399 155.936L606.719 155.84V151.856H615.311ZM609.263 147.728C608.591 147.056 608.255 146.208 608.255 145.184C608.255 144.16 608.591 143.312 609.263 142.64C609.935 141.936 610.815 141.584 611.903 141.584C612.991 141.584 613.871 141.936 614.543 142.64C615.247 143.312 615.599 144.16 615.599 145.184C615.599 146.208 615.247 147.056 614.543 147.728C613.871 148.368 612.991 148.688 611.903 148.688C610.815 148.688 609.935 148.368 609.263 147.728ZM620.538 155.696V151.856H628.65V154.976C629.482 153.792 630.586 152.864 631.962 152.192C633.338 151.488 634.826 151.136 636.426 151.136C638.858 151.136 640.73 151.84 642.042 153.248C643.386 154.624 644.058 156.704 644.058 159.488V172.016L646.794 172.16V176H635.37V172.352L636.954 172.208C637.434 172.144 637.786 172.016 638.01 171.824C638.234 171.6 638.346 171.2 638.346 170.624V160.736C638.346 158.976 638.074 157.68 637.53 156.848C636.986 155.984 635.946 155.552 634.41 155.552C632.906 155.552 631.706 156.032 630.81 156.992C629.914 157.952 629.466 159.088 629.466 160.4V172.016L632.202 172.16V176H620.778V172.352L622.362 172.208C622.842 172.144 623.194 172.016 623.418 171.824C623.642 171.6 623.754 171.2 623.754 170.624V157.328C623.754 156.368 623.354 155.872 622.554 155.84L620.538 155.696ZM670.967 175.952C670.679 179.504 669.655 182.112 667.895 183.776C666.135 185.44 663.383 186.272 659.639 186.272C655.895 186.272 652.967 185.744 650.855 184.688V178.016L655.415 177.632V179.936C655.415 180.8 655.815 181.376 656.615 181.664C657.415 181.984 658.519 182.144 659.927 182.144C661.975 182.144 663.415 181.52 664.247 180.272C665.079 179.056 665.495 177.328 665.495 175.088V172.448C663.959 174.24 661.831 175.136 659.111 175.136C657.447 175.136 655.975 174.816 654.695 174.176C653.447 173.536 652.471 172.672 651.767 171.584C650.391 169.408 649.703 166.848 649.703 163.904C649.703 159.712 650.839 156.544 653.111 154.4C655.383 152.224 658.407 151.136 662.183 151.136C665.319 151.136 668.279 151.728 671.063 152.912V170.72C671.063 173.44 671.031 175.184 670.967 175.952ZM665.495 166.208V155.888C664.375 155.504 663.095 155.312 661.655 155.312C659.703 155.312 658.199 156.032 657.143 157.472C656.119 158.912 655.607 160.864 655.607 163.328C655.607 168.384 657.271 170.912 660.599 170.912C661.975 170.912 663.127 170.496 664.055 169.664C665.015 168.8 665.495 167.648 665.495 166.208ZM688.293 155.504C687.525 155.216 686.597 155.072 685.509 155.072C684.421 155.072 683.541 155.328 682.869 155.84C682.229 156.32 681.909 156.928 681.909 157.664C681.909 158.368 682.021 158.928 682.245 159.344C682.501 159.728 682.885 160.064 683.397 160.352C684.197 160.768 685.157 161.136 686.277 161.456C687.397 161.744 688.229 161.984 688.773 162.176C689.317 162.336 689.989 162.624 690.789 163.04C691.621 163.456 692.245 163.904 692.661 164.384C693.781 165.568 694.341 167.088 694.341 168.944C694.341 171.344 693.461 173.232 691.701 174.608C689.973 175.952 687.765 176.624 685.077 176.624C681.173 176.624 678.229 176.128 676.245 175.136V168.464L680.565 168.128V170.432C680.565 171.84 681.909 172.544 684.597 172.544C687.285 172.544 688.629 171.568 688.629 169.616C688.629 168.912 688.389 168.336 687.909 167.888C687.461 167.44 687.013 167.136 686.565 166.976C686.117 166.816 685.573 166.656 684.933 166.496C684.325 166.336 683.717 166.176 683.109 166.016C682.533 165.856 681.893 165.648 681.189 165.392C680.517 165.104 679.765 164.704 678.933 164.192C677.301 163.136 676.485 161.376 676.485 158.912C676.485 156.416 677.365 154.496 679.125 153.152C680.885 151.808 683.093 151.136 685.749 151.136C688.437 151.136 691.093 151.776 693.717 153.056V158.816L689.397 159.152V157.136C689.397 156.336 689.029 155.792 688.293 155.504Z" fill="#2B1E36"/>
<path d="M259.343 558.808C235.421 560.762 236.539 563.16 235.643 591.831L234.953 613.918L219.458 613.434C219.458 613.434 223.397 583.102 213.857 573.143C205.474 564.392 199.055 569.585 189.441 562.251C179.827 554.916 188.664 520.303 191.005 512.216C193.345 504.13 204.423 502.788 205.904 512.682C207.384 522.576 199.662 540.623 204.762 549.224C209.862 557.824 217.723 554.412 221.448 549.745C225.173 545.079 223.17 494.651 228.692 489.759C234.214 484.867 239.747 485.978 241.803 490.169C243.859 494.36 239.923 550.323 239.923 550.323C259.589 550.937 250.504 517.171 260.591 518.893C270.678 520.615 270.707 557.88 259.343 558.808Z" fill="#0B1D2B"/>
<path d="M28.3906 482.479C80.2118 492.979 77.1416 497.934 71.6389 560.885L67.3999 609.38L101.42 612.353C101.42 612.353 100.698 544.978 124.159 525.676C144.775 508.715 157.465 521.746 180.403 508.205C203.342 494.663 193.021 416.647 190.006 398.349C186.991 380.051 163.108 374.232 157.294 395.49C151.481 416.747 163.676 458.236 150.281 475.721C136.886 493.207 120.577 483.697 113.644 472.519C106.71 461.341 124.217 351.554 113.412 339.416C102.607 327.278 90.2148 328.267 84.6258 336.9C79.0368 345.532 73.0809 468.973 73.0809 468.973C29.9012 465.198 58.5651 393.7 36.0513 394.842C13.5375 395.983 3.77562 477.492 28.3906 482.479Z" fill="#0B1D2B"/>
<path d="M584.547 398C585.081 398.036 585.658 398.218 586.122 398.482C586.37 398.255 586.755 397.989 587.026 398.196C587.612 398.639 587.139 399.169 586.708 399.506C586.45 401.187 585.737 403.873 587.167 404.473C589.412 405.321 589.816 398.433 592.975 398.517C594.869 398.568 594.034 401.313 595.909 401.407C597.292 401.478 597.189 398.852 598.342 398.812C599.556 398.77 600.434 399.698 601.047 402.889C602.249 402.884 602.722 403.831 603.27 405.664C603.818 407.492 603.411 411.082 603.214 413.276L602.845 409.7C602.731 410.262 602.555 410.829 602.287 411.42C602.103 412.296 602.032 413.173 602.014 414.045C602.399 414.523 602.427 415.273 602.034 415.709C602.077 416.965 602.159 418.217 602.113 419.473C600.496 419.496 599.017 419.426 597.447 419.473C597.362 418.915 598.145 418.517 599.055 418.053C599.041 417.41 599.045 416.623 599.055 415.826C598.642 415.348 598.633 414.509 599.064 414.101C599.059 413.103 599.026 412.292 598.909 412.043C598.534 411.242 597.944 410.548 597.545 409.831C596.2 410.079 594.747 409.967 593.237 409.61L593.205 413.618C593.566 414.148 593.58 414.917 593.191 415.39C592.97 416.75 593.162 418.114 593.153 419.473H590.434C590.326 418.77 591.489 418.39 592.056 418.062C592.056 417.026 592.239 416.243 592.075 415.235C591.841 414.771 591.826 414.228 592.056 413.792C592.014 412.245 591.901 410.698 591.555 409.151C591.48 409.123 591.184 408.978 591.119 408.903L590.608 413.515C590.87 414.073 590.814 414.795 590.42 415.235C590.111 416.646 590.209 418.025 590.05 419.435L587.181 419.473C587.167 418.896 588.545 418.535 589.07 418.278C589.37 417.275 589.337 416.257 589.384 415.235C589.009 414.668 589.028 413.881 589.436 413.384C589.412 411.589 589.178 409.784 588.573 408.012C583.576 407.735 584.064 404.637 583.919 401.768C583.853 400.491 581.317 401.848 581.106 401.224C580.994 400.9 580.937 400.573 581.106 400.2C581.509 399.296 582.226 399.248 582.826 399.233C583.403 398.888 583.886 398.016 584.491 398H584.547ZM584.233 398.918C584.003 399.042 584.055 399.268 584.106 399.392C584.416 399.484 584.87 399.341 585.081 399.177C584.898 399.036 584.509 398.924 584.233 398.918ZM600.494 410.909C600.351 411.275 600.225 411.64 600.149 411.996C599.998 412.714 599.919 413.435 599.881 414.162C600.232 414.645 600.246 415.385 599.853 415.803C599.865 416.815 599.914 417.828 599.925 418.835C600.137 418.484 600.53 418.179 601.094 418.034C601.086 417.359 601.114 416.515 601.144 415.662C600.82 415.184 600.816 414.462 601.196 414.054C601.228 412.789 601.212 411.739 601.019 411.518C600.834 411.307 600.66 411.106 600.494 410.909Z" fill="black"/>
<path d="M173.829 40.4698C170.564 36.585 133.855 57.9796 132.616 61.0762L152.097 86.9751C152.097 86.9751 174.505 77.1223 173.829 73.5752C173.153 70.0282 156.826 81.4575 155.587 77.629C154.349 73.8004 186.891 62.3149 182.612 57.9796C178.333 53.6444 161.161 69.2963 159.078 65.4678C156.995 61.6393 173.21 58.3175 170.901 53.9822C168.593 49.647 155.193 61.6393 152.716 57.9796C150.239 54.32 179.035 46.663 173.829 40.4698Z" fill="url(#paint1_linear_1338_2525)"/>
<path d="M165.893 70.3111C165.893 80.4987 157.634 88.7574 147.446 88.7574C137.259 88.7574 129 80.4987 129 70.3111C129 60.1235 137.259 51.8647 147.446 51.8647C157.634 51.8647 165.893 60.1235 165.893 70.3111Z" fill="#D8D8D8"/>
<path d="M153.939 74.2957C153.349 76.952 148.369 82.9655 143.019 86.9868C139.387 86.2656 136.4 83.8997 134.718 82.117C136.12 81.3422 145.205 77.8031 147.483 74.1113C149.329 71.1208 140.363 70.1171 147.188 66.5114C151.837 64.0556 157.002 62.785 162.425 61.3462L161.798 62.1947C161.798 62.1947 152.685 65.7366 150.804 68.7987C150.037 70.1269 154.8 70.422 153.939 74.2957Z" fill="#424242"/>
<path d="M150.914 72.8569L150.324 72.9675C150.693 71.6763 146.672 69.5734 147.041 68.7249C147.151 68.2453 150.103 65.4045 161.982 61.6784C153.534 64.9249 148.553 67.1016 147.557 68.7249C147.257 69.5734 151.136 71.2705 150.914 72.8569Z" fill="#D9D9D9" fill-opacity="0.53"/>
<path d="M154.235 71.3074C154.972 72.4142 154.965 73.5209 154.53 74.8491C153.903 77.0626 152.648 78.4277 150.619 80.8257C148.549 83.5807 143.831 87.2819 143.831 87.2819C150.545 88.5732 157.998 86.2858 162.425 78.9811C165.155 74.3326 165.598 68.3191 163.052 62.7852C162.794 62.8221 153.607 66.3269 151.689 68.7249C151.209 69.6103 153.017 69.7579 154.235 71.3074Z" fill="#A03F03"/>
<path d="M143.831 87.2819C150.545 88.5732 157.998 86.2858 162.425 78.9811C164.194 75.9683 165.003 72.3822 164.66 68.7249C161.724 73.2258 158.367 70.8647 154.822 73.4472C154.794 73.8914 154.692 74.3549 154.53 74.8491C153.903 77.0626 152.648 78.4277 150.619 80.8257C148.549 83.5807 143.831 87.2819 143.831 87.2819Z" fill="#A0510C"/>
<path d="M143.831 87.2819C150.545 88.5732 157.998 86.2858 162.425 78.9811C163.319 77.5054 163.79 76.2141 164.122 74.9598C159.695 79.4238 156.891 77.2102 152.171 78.9811C151.714 79.541 151.198 80.1412 150.619 80.8257C148.549 83.5807 143.831 87.2819 143.831 87.2819Z" fill="#824B11"/>
<path d="M143.093 77.1364C140.031 78.9442 136.932 80.3092 134.202 81.5267C130.918 77.5423 130.107 73.5948 130.107 70.9386C130.107 67.36 130.838 64.593 132.136 62.1582C134.968 56.8455 140.621 53.0228 147.299 52.9718C154.124 52.9348 158.514 56.5872 160.728 59.2066C161.023 60.4241 160.469 60.9406 160.469 60.9406L160.396 60.1658C160.064 58.5425 158.44 57.4358 156.817 57.6571C155.009 57.8416 153.054 60.0551 154.493 62.6376C151.984 63.523 149.586 64.3716 145.675 66.5851C144.901 67.0237 143.831 68.1346 143.831 68.8725C143.646 70.7171 146.635 71.8977 146.782 73.0783C147.004 74.1481 146.155 74.9967 143.093 77.1364Z" fill="#133455"/>
<path d="M143.093 77.1364C140.031 78.9442 136.932 80.3092 134.202 81.5267C130.918 77.5423 130.107 73.5948 130.107 70.9386C130.107 67.36 130.838 64.593 132.136 62.1582C134.736 57.2818 139.712 53.6606 145.675 53.0594C145.934 58.6532 151.652 60.2027 151.652 63.6839C149.988 64.3444 148.13 65.196 145.675 66.5851C144.901 67.0237 143.831 68.1346 143.831 68.8725C143.646 70.7171 146.635 71.8977 146.782 73.0783C147.004 74.1481 146.155 74.9967 143.093 77.1364Z" fill="#A03F03"/>
<path d="M143.093 77.1364C140.031 78.9442 136.932 80.3092 134.202 81.5267C130.918 77.5423 130.107 73.5948 130.107 70.9386C130.107 67.36 130.838 64.593 132.136 62.1582C133.35 59.8814 135.082 57.8783 137.19 56.3284C137.965 60.0552 145.27 60.7192 145.675 66.5851C144.901 67.0237 143.831 68.1346 143.831 68.8725C143.646 70.7171 146.635 71.8977 146.782 73.0783C147.004 74.1481 146.155 74.9967 143.093 77.1364Z" fill="#A0510C"/>
<path d="M143.093 77.1364C140.031 78.9442 136.932 80.3092 134.202 81.5267C130.918 77.5423 130.107 73.5948 130.107 70.9386C130.107 68.0793 130.573 65.7382 131.423 63.6706C135.124 68.2084 141.175 64.4823 143.831 68.8725C143.646 70.7171 146.635 71.8977 146.782 73.0783C147.004 74.1481 146.155 74.9967 143.093 77.1364Z" fill="#824B11"/>
<g clip-path="url(#clip1_1338_2525)">
<path d="M153.567 55.014L153.37 55.4452L152.94 55.6412L153.37 55.8387L153.567 56.2683L153.763 55.8387L154.194 55.6412L153.763 55.4452M151.999 55.4844L151.607 56.3467L150.745 56.7387L151.607 57.1307L151.999 57.993L152.391 57.1307L153.254 56.7387L152.391 56.3467M153.567 57.2091L153.37 57.6387L152.94 57.8362L153.37 58.0322L153.567 58.4634L153.763 58.0322L154.194 57.8362L153.763 57.6387" fill="#D8D8D8"/>
</g>
<ellipse cx="475.5" cy="328.5" rx="102.5" ry="42.5" fill="#D9D9D9"/>
<path d="M578.763 398.966L526.168 356.506L546.845 339.382L578.763 398.966Z" fill="#D9D9D9"/>
<path d="M432.613 301.484L432.189 301.523C431.966 301.54 431.824 301.694 431.764 301.986L430.142 309H428.379L427.028 303.273H426.989L425.677 309H423.862L422.086 301.574L421.353 301.536V300.442H424.544V301.484L424.12 301.523C423.854 301.549 423.721 301.66 423.721 301.857C423.721 301.892 423.725 301.93 423.733 301.973L424.853 306.941H424.905L426.243 301.124H427.903L429.293 306.967H429.319L430.413 301.587L429.718 301.536V300.442H432.613V301.484ZM435.429 302.527V307.932L436.162 307.97V309H433.099V308.022L433.524 307.983C433.773 307.958 433.897 307.82 433.897 307.571V303.994C433.897 303.848 433.872 303.749 433.82 303.698C433.777 303.646 433.696 303.621 433.576 303.621L433.125 303.595V302.527H435.429ZM433.807 301.42C433.627 301.24 433.537 301.012 433.537 300.738C433.537 300.463 433.627 300.236 433.807 300.056C433.987 299.867 434.223 299.773 434.515 299.773C434.807 299.773 435.043 299.867 435.223 300.056C435.412 300.236 435.506 300.463 435.506 300.738C435.506 301.012 435.412 301.24 435.223 301.42C435.043 301.591 434.807 301.677 434.515 301.677C434.223 301.677 433.987 301.591 433.807 301.42ZM438.336 301.162H439.173V302.527H440.884L440.756 303.608H439.173V306.992C439.173 307.37 439.241 307.636 439.379 307.79C439.516 307.936 439.726 308.009 440.009 308.009C440.301 308.009 440.593 307.919 440.884 307.739L441.27 308.73C440.841 309.03 440.297 309.18 439.636 309.18C439.25 309.18 438.924 309.129 438.658 309.026C438.392 308.931 438.195 308.824 438.066 308.704C437.937 308.584 437.838 308.408 437.77 308.176C437.701 307.945 437.663 307.765 437.654 307.636C437.645 307.499 437.641 307.301 437.641 307.044V303.608H436.727L436.856 302.668C437.259 302.634 437.564 302.492 437.77 302.243C437.976 301.986 438.164 301.626 438.336 301.162ZM442.544 307.559V301.291C442.544 301.154 442.518 301.059 442.467 301.008C442.424 300.957 442.342 300.926 442.222 300.918L441.772 300.892V299.824H444.062V303.286C444.509 302.651 445.135 302.334 445.941 302.334C446.593 302.334 447.095 302.522 447.447 302.9C447.807 303.269 447.988 303.826 447.988 304.573V307.932L448.721 307.97V309H445.658V308.022L446.083 307.983C446.212 307.966 446.306 307.932 446.366 307.88C446.426 307.82 446.456 307.713 446.456 307.559V304.907C446.456 304.461 446.383 304.118 446.237 303.878C446.1 303.638 445.826 303.518 445.414 303.518C445.01 303.518 444.684 303.646 444.436 303.904C444.195 304.152 444.075 304.457 444.075 304.817V307.932L444.809 307.97V309H441.746V308.022L442.171 307.983C442.299 307.966 442.394 307.932 442.454 307.88C442.514 307.82 442.544 307.713 442.544 307.559ZM452.435 308.061C453.371 308.061 453.838 307.306 453.838 305.795C453.838 305.032 453.731 304.453 453.517 304.058C453.311 303.663 452.959 303.466 452.461 303.466C451.972 303.466 451.612 303.655 451.38 304.032C451.149 304.41 451.033 304.925 451.033 305.577C451.033 306.786 451.256 307.546 451.702 307.855C451.899 307.992 452.144 308.061 452.435 308.061ZM449.475 305.757C449.475 305.122 449.57 304.573 449.759 304.11C449.947 303.638 450.2 303.277 450.518 303.029C451.127 302.565 451.801 302.334 452.538 302.334C453.053 302.334 453.486 302.419 453.838 302.591C454.199 302.754 454.477 302.947 454.675 303.17C454.881 303.385 455.052 303.702 455.19 304.122C455.335 304.534 455.408 305.023 455.408 305.59C455.408 306.774 455.121 307.67 454.546 308.279C453.971 308.888 453.233 309.193 452.333 309.193C451.44 309.193 450.741 308.906 450.235 308.331C449.729 307.747 449.475 306.889 449.475 305.757ZM462.907 307.983V309H460.822V308.163C460.35 308.833 459.655 309.167 458.737 309.167C457.407 309.167 456.743 308.425 456.743 306.941V303.968C456.743 303.736 456.635 303.616 456.421 303.608L456.009 303.582V302.527H458.274V306.606C458.274 307.061 458.338 307.404 458.467 307.636C458.596 307.867 458.862 307.983 459.265 307.983C459.668 307.983 459.99 307.859 460.23 307.61C460.479 307.361 460.603 307.061 460.603 306.709V303.994C460.603 303.856 460.578 303.762 460.526 303.711C460.483 303.651 460.402 303.616 460.282 303.608L459.87 303.582V302.527H462.135V307.571C462.135 307.709 462.156 307.803 462.199 307.855C462.242 307.898 462.328 307.928 462.457 307.945L462.907 307.983ZM464.729 301.162H465.565V302.527H467.277L467.148 303.608H465.565V306.992C465.565 307.37 465.634 307.636 465.771 307.79C465.908 307.936 466.119 308.009 466.402 308.009C466.693 308.009 466.985 307.919 467.277 307.739L467.663 308.73C467.234 309.03 466.689 309.18 466.029 309.18C465.642 309.18 465.316 309.129 465.05 309.026C464.784 308.931 464.587 308.824 464.458 308.704C464.33 308.584 464.231 308.408 464.162 308.176C464.094 307.945 464.055 307.765 464.047 307.636C464.038 307.499 464.034 307.301 464.034 307.044V303.608H463.12L463.249 302.668C463.652 302.634 463.957 302.492 464.162 302.243C464.368 301.986 464.557 301.626 464.729 301.162ZM476.506 302.784V307.571C476.506 307.709 476.528 307.803 476.571 307.855C476.622 307.906 476.708 307.936 476.828 307.945L477.24 307.97V309H475.194V308.254L475.155 308.241C474.726 308.858 474.138 309.167 473.392 309.167C472.517 309.167 471.869 308.888 471.449 308.331C471.028 307.773 470.818 307.01 470.818 306.04C470.818 304.873 471.101 303.964 471.667 303.312C472.234 302.66 473.083 302.334 474.216 302.334C474.945 302.334 475.708 302.484 476.506 302.784ZM475.013 306.954V303.621C474.773 303.509 474.443 303.453 474.022 303.453C473.448 303.453 473.032 303.685 472.774 304.148C472.517 304.611 472.388 305.225 472.388 305.989C472.388 307.378 472.834 308.073 473.726 308.073C474.104 308.073 474.413 307.962 474.653 307.739C474.893 307.507 475.013 307.245 475.013 306.954ZM481.173 308.614V301.227C481.173 301.029 481.065 300.926 480.851 300.918L480.4 300.892V299.824H482.665V302.874C483.051 302.514 483.571 302.334 484.223 302.334C485.029 302.334 485.668 302.608 486.14 303.157C486.612 303.698 486.848 304.461 486.848 305.448C486.848 307.928 485.81 309.167 483.734 309.167C483.287 309.167 482.816 309.112 482.318 309C481.829 308.897 481.447 308.768 481.173 308.614ZM482.665 304.444V307.777C482.991 307.949 483.369 308.035 483.798 308.035C484.776 308.035 485.265 307.241 485.265 305.654C485.265 304.204 484.785 303.479 483.824 303.479C483.515 303.479 483.245 303.569 483.013 303.749C482.781 303.929 482.665 304.161 482.665 304.444ZM490.717 308.061C491.653 308.061 492.12 307.306 492.12 305.795C492.12 305.032 492.013 304.453 491.798 304.058C491.593 303.663 491.241 303.466 490.743 303.466C490.254 303.466 489.894 303.655 489.662 304.032C489.43 304.41 489.315 304.925 489.315 305.577C489.315 306.786 489.538 307.546 489.984 307.855C490.181 307.992 490.426 308.061 490.717 308.061ZM487.757 305.757C487.757 305.122 487.852 304.573 488.041 304.11C488.229 303.638 488.482 303.277 488.8 303.029C489.409 302.565 490.083 302.334 490.82 302.334C491.335 302.334 491.768 302.419 492.12 302.591C492.481 302.754 492.759 302.947 492.957 303.17C493.163 303.385 493.334 303.702 493.471 304.122C493.617 304.534 493.69 305.023 493.69 305.59C493.69 306.774 493.403 307.67 492.828 308.279C492.253 308.888 491.515 309.193 490.614 309.193C489.722 309.193 489.023 308.906 488.517 308.331C488.011 307.747 487.757 306.889 487.757 305.757ZM497.517 308.061C498.452 308.061 498.919 307.306 498.919 305.795C498.919 305.032 498.812 304.453 498.598 304.058C498.392 303.663 498.04 303.466 497.542 303.466C497.053 303.466 496.693 303.655 496.461 304.032C496.23 304.41 496.114 304.925 496.114 305.577C496.114 306.786 496.337 307.546 496.783 307.855C496.98 307.992 497.225 308.061 497.517 308.061ZM494.557 305.757C494.557 305.122 494.651 304.573 494.84 304.11C495.029 303.638 495.282 303.277 495.599 303.029C496.208 302.565 496.882 302.334 497.62 302.334C498.134 302.334 498.568 302.419 498.919 302.591C499.28 302.754 499.559 302.947 499.756 303.17C499.962 303.385 500.133 303.702 500.271 304.122C500.417 304.534 500.49 305.023 500.49 305.59C500.49 306.774 500.202 307.67 499.627 308.279C499.052 308.888 498.315 309.193 497.414 309.193C496.521 309.193 495.822 308.906 495.316 308.331C494.81 307.747 494.557 306.889 494.557 305.757ZM502.154 307.559V301.291C502.154 301.154 502.128 301.059 502.077 301.008C502.034 300.957 501.952 300.926 501.832 300.918L501.382 300.892V299.824H503.672V305.397C504.144 305.354 504.556 305.208 504.908 304.959C505.26 304.71 505.5 304.384 505.629 303.981C505.654 303.895 505.667 303.826 505.667 303.775C505.667 303.629 505.586 303.556 505.423 303.556L504.934 303.53V302.527H507.598V303.569L506.98 303.595C506.868 304.47 506.491 305.161 505.847 305.667L507.109 307.932L507.894 307.97V309H506.015L504.548 306.323C504.264 306.4 503.973 306.46 503.672 306.503V307.932H503.685L504.419 307.97V309H501.356V308.022L501.781 307.983C501.909 307.966 502.004 307.932 502.064 307.88C502.124 307.82 502.154 307.713 502.154 307.559ZM510.836 302.527V307.932L511.57 307.97V309H508.507V308.022L508.932 307.983C509.181 307.958 509.305 307.82 509.305 307.571V303.994C509.305 303.848 509.279 303.749 509.228 303.698C509.185 303.646 509.103 303.621 508.983 303.621L508.533 303.595V302.527H510.836ZM509.215 301.42C509.035 301.24 508.945 301.012 508.945 300.738C508.945 300.463 509.035 300.236 509.215 300.056C509.395 299.867 509.631 299.773 509.923 299.773C510.214 299.773 510.45 299.867 510.631 300.056C510.819 300.236 510.914 300.463 510.914 300.738C510.914 301.012 510.819 301.24 510.631 301.42C510.45 301.591 510.214 301.677 509.923 301.677C509.631 301.677 509.395 301.591 509.215 301.42ZM512.238 303.556V302.527H514.413V303.363C514.636 303.046 514.932 302.797 515.301 302.617C515.67 302.428 516.069 302.334 516.498 302.334C517.15 302.334 517.652 302.522 518.004 302.9C518.364 303.269 518.544 303.826 518.544 304.573V307.932L519.278 307.97V309H516.215V308.022L516.639 307.983C516.768 307.966 516.862 307.932 516.922 307.88C516.983 307.82 517.013 307.713 517.013 307.559V304.907C517.013 304.436 516.94 304.088 516.794 303.865C516.648 303.633 516.369 303.518 515.957 303.518C515.554 303.518 515.232 303.646 514.992 303.904C514.752 304.161 514.632 304.466 514.632 304.817V307.932L515.365 307.97V309H512.302V308.022L512.727 307.983C512.856 307.966 512.95 307.932 513.01 307.88C513.07 307.82 513.1 307.713 513.1 307.559V303.994C513.1 303.736 512.993 303.603 512.778 303.595L512.238 303.556ZM525.759 308.987C525.682 309.939 525.407 310.639 524.935 311.085C524.463 311.531 523.725 311.754 522.722 311.754C521.718 311.754 520.933 311.613 520.366 311.329V309.541L521.589 309.438V310.055C521.589 310.287 521.696 310.441 521.911 310.519C522.125 310.604 522.421 310.647 522.799 310.647C523.348 310.647 523.734 310.48 523.957 310.145C524.18 309.819 524.292 309.356 524.292 308.755V308.048C523.88 308.528 523.309 308.768 522.58 308.768C522.134 308.768 521.739 308.683 521.396 308.511C521.061 308.339 520.8 308.108 520.611 307.816C520.242 307.233 520.058 306.546 520.058 305.757C520.058 304.633 520.362 303.784 520.971 303.209C521.581 302.625 522.391 302.334 523.404 302.334C524.245 302.334 525.038 302.492 525.785 302.81V307.584C525.785 308.314 525.776 308.781 525.759 308.987ZM524.292 306.375V303.608C523.991 303.505 523.648 303.453 523.262 303.453C522.739 303.453 522.336 303.646 522.052 304.032C521.778 304.418 521.641 304.942 521.641 305.602C521.641 306.958 522.087 307.636 522.979 307.636C523.348 307.636 523.657 307.524 523.906 307.301C524.163 307.07 524.292 306.761 524.292 306.375ZM529.207 307.983L527.882 310.995L527.071 310.75L527.47 308.138C527.53 307.709 527.74 307.494 528.1 307.494C528.281 307.494 528.418 307.524 528.512 307.584C528.615 307.636 528.697 307.679 528.757 307.713C528.825 307.747 528.873 307.773 528.898 307.79C528.924 307.807 528.976 307.842 529.053 307.893C529.13 307.936 529.181 307.966 529.207 307.983ZM436.771 318.162H437.608V319.527H439.32L439.191 320.608H437.608V323.992C437.608 324.37 437.677 324.636 437.814 324.79C437.951 324.936 438.161 325.009 438.444 325.009C438.736 325.009 439.028 324.919 439.32 324.739L439.706 325.73C439.277 326.03 438.732 326.18 438.071 326.18C437.685 326.18 437.359 326.129 437.093 326.026C436.827 325.931 436.63 325.824 436.501 325.704C436.372 325.584 436.274 325.408 436.205 325.176C436.136 324.945 436.098 324.765 436.089 324.636C436.081 324.499 436.076 324.301 436.076 324.044V320.608H435.163L435.291 319.668C435.695 319.634 435.999 319.492 436.205 319.243C436.411 318.986 436.6 318.626 436.771 318.162ZM440.979 324.559V318.291C440.979 318.154 440.953 318.059 440.902 318.008C440.859 317.957 440.777 317.926 440.657 317.918L440.207 317.892V316.824H442.498V320.286C442.944 319.651 443.57 319.334 444.377 319.334C445.029 319.334 445.531 319.522 445.882 319.9C446.243 320.269 446.423 320.826 446.423 321.573V324.932L447.156 324.97V326H444.094V325.022L444.518 324.983C444.647 324.966 444.741 324.932 444.801 324.88C444.861 324.82 444.891 324.713 444.891 324.559V321.907C444.891 321.461 444.819 321.118 444.673 320.878C444.535 320.638 444.261 320.518 443.849 320.518C443.446 320.518 443.12 320.646 442.871 320.904C442.631 321.152 442.511 321.457 442.511 321.817V324.932L443.244 324.97V326H440.181V325.022L440.606 324.983C440.735 324.966 440.829 324.932 440.889 324.88C440.949 324.82 440.979 324.713 440.979 324.559ZM451.141 319.334C451.785 319.334 452.295 319.492 452.673 319.81C453.05 320.119 453.239 320.556 453.239 321.122C453.239 321.5 453.157 321.835 452.994 322.126C452.831 322.409 452.63 322.632 452.389 322.795C452.149 322.958 451.857 323.091 451.514 323.194C450.939 323.366 450.292 323.452 449.571 323.452C449.597 323.907 449.738 324.275 449.996 324.559C450.253 324.833 450.648 324.97 451.18 324.97C451.712 324.97 452.244 324.782 452.775 324.404L453.265 325.447C453.093 325.601 452.801 325.76 452.389 325.923C451.986 326.086 451.523 326.167 450.999 326.167C449.953 326.167 449.185 325.88 448.696 325.305C448.207 324.722 447.962 323.924 447.962 322.911C447.962 321.899 448.241 321.05 448.799 320.363C449.356 319.677 450.137 319.334 451.141 319.334ZM450.549 322.281C450.866 322.221 451.158 322.096 451.424 321.907C451.69 321.71 451.823 321.478 451.823 321.213C451.823 320.689 451.566 320.427 451.051 320.427C450.57 320.427 450.202 320.621 449.944 321.007C449.687 321.384 449.545 321.839 449.519 322.371C449.897 322.362 450.24 322.332 450.549 322.281ZM459.951 319.334C460.32 319.334 460.672 319.385 461.006 319.488V318.188C461.006 317.999 460.895 317.896 460.672 317.879L460.118 317.841V316.824H462.512V324.649C462.521 324.846 462.628 324.945 462.834 324.945L463.284 324.97V326H461.2V325.241L461.161 325.228C460.775 325.854 460.191 326.167 459.411 326.167C458.433 326.167 457.746 325.841 457.352 325.189C456.991 324.597 456.811 323.872 456.811 323.014C456.811 321.899 457.086 321.007 457.635 320.337C458.192 319.668 458.964 319.334 459.951 319.334ZM461.006 323.992V320.659C460.698 320.522 460.372 320.453 460.028 320.453C459.462 320.453 459.046 320.681 458.78 321.135C458.523 321.59 458.394 322.169 458.394 322.873C458.394 324.314 458.857 325.035 459.784 325.035C460.136 325.035 460.427 324.936 460.659 324.739C460.891 324.533 461.006 324.284 461.006 323.992ZM467.266 319.334C467.909 319.334 468.42 319.492 468.797 319.81C469.175 320.119 469.363 320.556 469.363 321.122C469.363 321.5 469.282 321.835 469.119 322.126C468.956 322.409 468.754 322.632 468.514 322.795C468.274 322.958 467.982 323.091 467.639 323.194C467.064 323.366 466.416 323.452 465.696 323.452C465.721 323.907 465.863 324.275 466.12 324.559C466.378 324.833 466.772 324.97 467.304 324.97C467.836 324.97 468.368 324.782 468.9 324.404L469.389 325.447C469.218 325.601 468.926 325.76 468.514 325.923C468.111 326.086 467.647 326.167 467.124 326.167C466.077 326.167 465.31 325.88 464.82 325.305C464.331 324.722 464.087 323.924 464.087 322.911C464.087 321.899 464.366 321.05 464.923 320.363C465.481 319.677 466.262 319.334 467.266 319.334ZM466.674 322.281C466.991 322.221 467.283 322.096 467.549 321.907C467.815 321.71 467.948 321.478 467.948 321.213C467.948 320.689 467.69 320.427 467.176 320.427C466.695 320.427 466.326 320.621 466.069 321.007C465.811 321.384 465.67 321.839 465.644 322.371C466.022 322.362 466.365 322.332 466.674 322.281ZM473.641 320.505C473.435 320.427 473.186 320.389 472.895 320.389C472.603 320.389 472.367 320.458 472.187 320.595C472.015 320.723 471.929 320.886 471.929 321.084C471.929 321.273 471.959 321.423 472.019 321.534C472.088 321.637 472.191 321.727 472.328 321.805C472.543 321.916 472.8 322.015 473.1 322.101C473.401 322.178 473.624 322.242 473.77 322.294C473.916 322.336 474.096 322.414 474.31 322.525C474.533 322.637 474.701 322.757 474.812 322.886C475.112 323.203 475.263 323.611 475.263 324.108C475.263 324.752 475.027 325.258 474.555 325.627C474.091 325.987 473.499 326.167 472.779 326.167C471.732 326.167 470.943 326.034 470.411 325.768V323.979L471.569 323.889V324.507C471.569 324.885 471.929 325.073 472.65 325.073C473.371 325.073 473.731 324.812 473.731 324.288C473.731 324.1 473.667 323.945 473.538 323.825C473.418 323.705 473.298 323.623 473.178 323.581C473.058 323.538 472.912 323.495 472.74 323.452C472.577 323.409 472.414 323.366 472.251 323.323C472.097 323.28 471.925 323.224 471.736 323.156C471.556 323.079 471.354 322.971 471.131 322.834C470.694 322.551 470.475 322.079 470.475 321.418C470.475 320.749 470.711 320.234 471.183 319.874C471.655 319.514 472.247 319.334 472.959 319.334C473.68 319.334 474.392 319.505 475.095 319.848V321.393L473.937 321.483V320.942C473.937 320.728 473.838 320.582 473.641 320.505ZM479.306 319.334C479.949 319.334 480.46 319.492 480.837 319.81C481.215 320.119 481.404 320.556 481.404 321.122C481.404 321.5 481.322 321.835 481.159 322.126C480.996 322.409 480.794 322.632 480.554 322.795C480.314 322.958 480.022 323.091 479.679 323.194C479.104 323.366 478.456 323.452 477.736 323.452C477.761 323.907 477.903 324.275 478.16 324.559C478.418 324.833 478.812 324.97 479.344 324.97C479.876 324.97 480.408 324.782 480.94 324.404L481.429 325.447C481.258 325.601 480.966 325.76 480.554 325.923C480.151 326.086 479.688 326.167 479.164 326.167C478.117 326.167 477.35 325.88 476.861 325.305C476.372 324.722 476.127 323.924 476.127 322.911C476.127 321.899 476.406 321.05 476.964 320.363C477.521 319.677 478.302 319.334 479.306 319.334ZM478.714 322.281C479.031 322.221 479.323 322.096 479.589 321.907C479.855 321.71 479.988 321.478 479.988 321.213C479.988 320.689 479.73 320.427 479.216 320.427C478.735 320.427 478.366 320.621 478.109 321.007C477.852 321.384 477.71 321.839 477.684 322.371C478.062 322.362 478.405 322.332 478.714 322.281ZM483.107 324.559V320.994C483.107 320.856 483.081 320.762 483.03 320.711C482.987 320.651 482.905 320.616 482.785 320.608L482.245 320.569V319.527H484.42V320.492C484.574 320.157 484.814 319.883 485.141 319.668C485.467 319.445 485.84 319.334 486.26 319.334C486.689 319.334 487.097 319.428 487.483 319.617V321.534L486.286 321.624V321.032C486.286 320.861 486.243 320.754 486.157 320.711C486.063 320.668 485.947 320.646 485.81 320.646C485.467 320.646 485.183 320.771 484.96 321.019C484.746 321.26 484.639 321.569 484.639 321.946V324.932L485.758 324.983V326H482.309V325.022L482.734 324.983C482.863 324.966 482.957 324.932 483.017 324.88C483.077 324.82 483.107 324.713 483.107 324.559ZM489.682 318.162H490.519V319.527H492.231L492.102 320.608H490.519V323.992C490.519 324.37 490.588 324.636 490.725 324.79C490.862 324.936 491.072 325.009 491.355 325.009C491.647 325.009 491.939 324.919 492.231 324.739L492.617 325.73C492.188 326.03 491.643 326.18 490.982 326.18C490.596 326.18 490.27 326.129 490.004 326.026C489.738 325.931 489.541 325.824 489.412 325.704C489.283 325.584 489.185 325.408 489.116 325.176C489.047 324.945 489.009 324.765 489 324.636C488.992 324.499 488.987 324.301 488.987 324.044V320.608H488.074L488.202 319.668C488.606 319.634 488.91 319.492 489.116 319.243C489.322 318.986 489.511 318.626 489.682 318.162ZM496.467 324.559V318.291C496.467 318.154 496.441 318.059 496.389 318.008C496.346 317.957 496.265 317.926 496.145 317.918L495.694 317.892V316.824H497.985V320.286C498.431 319.651 499.058 319.334 499.864 319.334C500.516 319.334 501.018 319.522 501.37 319.9C501.73 320.269 501.91 320.826 501.91 321.573V324.932L502.644 324.97V326H499.581V325.022L500.006 324.983C500.134 324.966 500.229 324.932 500.289 324.88C500.349 324.82 500.379 324.713 500.379 324.559V321.907C500.379 321.461 500.306 321.118 500.16 320.878C500.023 320.638 499.748 320.518 499.336 320.518C498.933 320.518 498.607 320.646 498.358 320.904C498.118 321.152 497.998 321.457 497.998 321.817V324.932L498.732 324.97V326H495.669V325.022L496.093 324.983C496.222 324.966 496.316 324.932 496.376 324.88C496.437 324.82 496.467 324.713 496.467 324.559ZM509.177 319.784V324.571C509.177 324.709 509.198 324.803 509.241 324.855C509.292 324.906 509.378 324.936 509.498 324.945L509.91 324.97V326H507.864V325.254L507.825 325.241C507.396 325.858 506.809 326.167 506.062 326.167C505.187 326.167 504.539 325.888 504.119 325.331C503.698 324.773 503.488 324.01 503.488 323.04C503.488 321.873 503.771 320.964 504.338 320.312C504.904 319.66 505.753 319.334 506.886 319.334C507.615 319.334 508.379 319.484 509.177 319.784ZM507.684 323.954V320.621C507.444 320.509 507.113 320.453 506.693 320.453C506.118 320.453 505.702 320.685 505.444 321.148C505.187 321.611 505.058 322.225 505.058 322.989C505.058 324.378 505.505 325.073 506.397 325.073C506.774 325.073 507.083 324.962 507.323 324.739C507.564 324.507 507.684 324.245 507.684 323.954ZM514.072 320.505C513.866 320.427 513.617 320.389 513.326 320.389C513.034 320.389 512.798 320.458 512.618 320.595C512.446 320.723 512.36 320.886 512.36 321.084C512.36 321.273 512.39 321.423 512.45 321.534C512.519 321.637 512.622 321.727 512.759 321.805C512.974 321.916 513.231 322.015 513.531 322.101C513.832 322.178 514.055 322.242 514.201 322.294C514.347 322.336 514.527 322.414 514.741 322.525C514.964 322.637 515.132 322.757 515.243 322.886C515.543 323.203 515.694 323.611 515.694 324.108C515.694 324.752 515.458 325.258 514.986 325.627C514.522 325.987 513.93 326.167 513.21 326.167C512.163 326.167 511.374 326.034 510.842 325.768V323.979L512 323.889V324.507C512 324.885 512.36 325.073 513.081 325.073C513.802 325.073 514.162 324.812 514.162 324.288C514.162 324.1 514.098 323.945 513.969 323.825C513.849 323.705 513.729 323.623 513.609 323.581C513.489 323.538 513.343 323.495 513.171 323.452C513.008 323.409 512.845 323.366 512.682 323.323C512.528 323.28 512.356 323.224 512.167 323.156C511.987 323.079 511.786 322.971 511.562 322.834C511.125 322.551 510.906 322.079 510.906 321.418C510.906 320.749 511.142 320.234 511.614 319.874C512.086 319.514 512.678 319.334 513.39 319.334C514.111 319.334 514.823 319.505 515.526 319.848V321.393L514.368 321.483V320.942C514.368 320.728 514.269 320.582 514.072 320.505ZM435.953 342.061C436.888 342.061 437.355 341.306 437.355 339.795C437.355 339.032 437.248 338.453 437.034 338.058C436.828 337.663 436.476 337.466 435.978 337.466C435.489 337.466 435.129 337.655 434.897 338.032C434.666 338.41 434.55 338.925 434.55 339.577C434.55 340.786 434.773 341.546 435.219 341.855C435.416 341.992 435.661 342.061 435.953 342.061ZM432.993 339.757C432.993 339.122 433.087 338.573 433.276 338.11C433.465 337.638 433.718 337.277 434.035 337.029C434.644 336.565 435.318 336.334 436.056 336.334C436.57 336.334 437.004 336.419 437.355 336.591C437.716 336.754 437.995 336.947 438.192 337.17C438.398 337.385 438.569 337.702 438.707 338.122C438.853 338.534 438.926 339.023 438.926 339.59C438.926 340.774 438.638 341.67 438.063 342.279C437.488 342.888 436.751 343.193 435.85 343.193C434.957 343.193 434.258 342.906 433.752 342.331C433.246 341.747 432.993 340.889 432.993 339.757ZM441.032 335.162H441.868V336.527H443.58L443.451 337.608H441.868V340.992C441.868 341.37 441.937 341.636 442.074 341.79C442.212 341.936 442.422 342.009 442.705 342.009C442.997 342.009 443.288 341.919 443.58 341.739L443.966 342.73C443.537 343.03 442.992 343.18 442.332 343.18C441.946 343.18 441.62 343.129 441.354 343.026C441.088 342.931 440.89 342.824 440.762 342.704C440.633 342.584 440.534 342.408 440.466 342.176C440.397 341.945 440.358 341.765 440.35 341.636C440.341 341.499 440.337 341.301 440.337 341.044V337.608H439.423L439.552 336.668C439.955 336.634 440.26 336.492 440.466 336.243C440.672 335.986 440.86 335.626 441.032 335.162ZM445.24 341.559V335.291C445.24 335.154 445.214 335.059 445.162 335.008C445.12 334.957 445.038 334.926 444.918 334.918L444.467 334.892V333.824H446.758V337.286C447.204 336.651 447.831 336.334 448.637 336.334C449.289 336.334 449.791 336.522 450.143 336.9C450.503 337.269 450.683 337.826 450.683 338.573V341.932L451.417 341.97V343H448.354V342.022L448.779 341.983C448.907 341.966 449.002 341.932 449.062 341.88C449.122 341.82 449.152 341.713 449.152 341.559V338.907C449.152 338.461 449.079 338.118 448.933 337.878C448.796 337.638 448.521 337.518 448.11 337.518C447.706 337.518 447.38 337.646 447.131 337.904C446.891 338.152 446.771 338.457 446.771 338.817V341.932L447.505 341.97V343H444.442V342.022L444.866 341.983C444.995 341.966 445.089 341.932 445.15 341.88C445.21 341.82 445.24 341.713 445.24 341.559ZM455.402 336.334C456.045 336.334 456.556 336.492 456.933 336.81C457.311 337.119 457.499 337.556 457.499 338.122C457.499 338.5 457.418 338.835 457.255 339.126C457.092 339.409 456.89 339.632 456.65 339.795C456.41 339.958 456.118 340.091 455.775 340.194C455.2 340.366 454.552 340.452 453.831 340.452C453.857 340.907 453.999 341.275 454.256 341.559C454.514 341.833 454.908 341.97 455.44 341.97C455.972 341.97 456.504 341.782 457.036 341.404L457.525 342.447C457.353 342.601 457.062 342.76 456.65 342.923C456.247 343.086 455.783 343.167 455.26 343.167C454.213 343.167 453.445 342.88 452.956 342.305C452.467 341.722 452.223 340.924 452.223 339.911C452.223 338.899 452.502 338.05 453.059 337.363C453.617 336.677 454.398 336.334 455.402 336.334ZM454.81 339.281C455.127 339.221 455.419 339.096 455.685 338.907C455.951 338.71 456.084 338.478 456.084 338.213C456.084 337.689 455.826 337.427 455.311 337.427C454.831 337.427 454.462 337.621 454.205 338.007C453.947 338.384 453.806 338.839 453.78 339.371C454.158 339.362 454.501 339.332 454.81 339.281ZM459.203 341.559V337.994C459.203 337.856 459.177 337.762 459.126 337.711C459.083 337.651 459.001 337.616 458.881 337.608L458.341 337.569V336.527H460.516V337.492C460.67 337.157 460.91 336.883 461.236 336.668C461.562 336.445 461.936 336.334 462.356 336.334C462.785 336.334 463.192 336.428 463.579 336.617V338.534L462.382 338.624V338.032C462.382 337.861 462.339 337.754 462.253 337.711C462.159 337.668 462.043 337.646 461.906 337.646C461.562 337.646 461.279 337.771 461.056 338.019C460.842 338.26 460.734 338.569 460.734 338.946V341.932L461.854 341.983V343H458.405V342.022L458.83 341.983C458.958 341.966 459.053 341.932 459.113 341.88C459.173 341.82 459.203 341.713 459.203 341.559ZM467.647 344.223V337.994C467.647 337.848 467.621 337.749 467.57 337.698C467.527 337.638 467.445 337.608 467.325 337.608L466.784 337.569V336.527H468.959V337.363C469.097 337.106 469.346 336.87 469.706 336.655C470.066 336.441 470.495 336.334 470.993 336.334C472.546 336.334 473.322 337.423 473.322 339.602C473.322 340.761 473.069 341.649 472.563 342.266C472.057 342.884 471.37 343.193 470.504 343.193C469.989 343.193 469.53 343.069 469.127 342.82V344.596L470.169 344.647V345.664H466.849V344.686L467.274 344.647C467.402 344.63 467.497 344.592 467.557 344.531C467.617 344.48 467.647 344.377 467.647 344.223ZM471.726 339.731C471.726 338.298 471.293 337.582 470.427 337.582C470.066 337.582 469.757 337.693 469.5 337.917C469.251 338.131 469.127 338.388 469.127 338.689V341.649C469.453 341.863 469.847 341.97 470.311 341.97C470.783 341.97 471.134 341.756 471.366 341.327C471.606 340.898 471.726 340.366 471.726 339.731ZM476.544 333.824V341.932L477.278 341.97V343H474.215V342.022L474.64 341.983C474.888 341.958 475.013 341.82 475.013 341.571V335.227C475.013 335.038 474.906 334.935 474.691 334.918L474.241 334.892V333.824H476.544ZM483.852 336.784V341.571C483.852 341.709 483.874 341.803 483.917 341.855C483.968 341.906 484.054 341.936 484.174 341.945L484.586 341.97V343H482.54V342.254L482.501 342.241C482.072 342.858 481.484 343.167 480.738 343.167C479.863 343.167 479.215 342.888 478.795 342.331C478.374 341.773 478.164 341.01 478.164 340.04C478.164 338.873 478.447 337.964 479.013 337.312C479.58 336.66 480.429 336.334 481.561 336.334C482.291 336.334 483.054 336.484 483.852 336.784ZM482.359 340.954V337.621C482.119 337.509 481.789 337.453 481.368 337.453C480.794 337.453 480.377 337.685 480.12 338.148C479.863 338.611 479.734 339.225 479.734 339.989C479.734 341.378 480.18 342.073 481.072 342.073C481.45 342.073 481.759 341.962 481.999 341.739C482.239 341.507 482.359 341.245 482.359 340.954ZM485.299 337.556V336.527H487.474V337.363C487.697 337.046 487.993 336.797 488.362 336.617C488.73 336.428 489.129 336.334 489.558 336.334C490.21 336.334 490.712 336.522 491.064 336.9C491.424 337.269 491.605 337.826 491.605 338.573V341.932L492.338 341.97V343H489.275V342.022L489.7 341.983C489.829 341.966 489.923 341.932 489.983 341.88C490.043 341.82 490.073 341.713 490.073 341.559V338.907C490.073 338.436 490 338.088 489.854 337.865C489.709 337.633 489.43 337.518 489.018 337.518C488.615 337.518 488.293 337.646 488.053 337.904C487.812 338.161 487.692 338.466 487.692 338.817V341.932L488.426 341.97V343H485.363V342.022L485.788 341.983C485.916 341.966 486.011 341.932 486.071 341.88C486.131 341.82 486.161 341.713 486.161 341.559V337.994C486.161 337.736 486.054 337.603 485.839 337.595L485.299 337.556ZM496.464 337.505C496.258 337.427 496.01 337.389 495.718 337.389C495.426 337.389 495.19 337.458 495.01 337.595C494.838 337.723 494.753 337.886 494.753 338.084C494.753 338.273 494.783 338.423 494.843 338.534C494.911 338.637 495.014 338.727 495.152 338.805C495.366 338.916 495.624 339.015 495.924 339.101C496.224 339.178 496.447 339.242 496.593 339.294C496.739 339.336 496.919 339.414 497.134 339.525C497.357 339.637 497.524 339.757 497.635 339.886C497.936 340.203 498.086 340.611 498.086 341.108C498.086 341.752 497.85 342.258 497.378 342.627C496.915 342.987 496.323 343.167 495.602 343.167C494.555 343.167 493.766 343.034 493.234 342.768V340.979L494.392 340.889V341.507C494.392 341.885 494.753 342.073 495.473 342.073C496.194 342.073 496.554 341.812 496.554 341.288C496.554 341.1 496.49 340.945 496.361 340.825C496.241 340.705 496.121 340.623 496.001 340.581C495.881 340.538 495.735 340.495 495.563 340.452C495.4 340.409 495.237 340.366 495.074 340.323C494.92 340.28 494.748 340.224 494.56 340.156C494.379 340.079 494.178 339.971 493.955 339.834C493.517 339.551 493.298 339.079 493.298 338.418C493.298 337.749 493.534 337.234 494.006 336.874C494.478 336.514 495.07 336.334 495.782 336.334C496.503 336.334 497.215 336.505 497.919 336.848V338.393L496.76 338.483V337.942C496.76 337.728 496.662 337.582 496.464 337.505ZM502.286 341.559V337.608H501.179V336.527H502.286V336.038C502.286 335.197 502.479 334.592 502.865 334.223C503.226 333.871 503.753 333.695 504.448 333.695C505.143 333.695 505.761 333.845 506.301 334.146L505.928 335.175C505.516 334.961 505.13 334.854 504.77 334.854C504.41 334.854 504.161 334.944 504.023 335.124C503.886 335.295 503.818 335.561 503.818 335.922V336.527H505.722V337.608H503.818V341.919L504.899 341.97V343H501.488V342.022L501.913 341.983C502.042 341.966 502.136 341.932 502.196 341.88C502.256 341.82 502.286 341.713 502.286 341.559ZM509.073 342.061C510.008 342.061 510.476 341.306 510.476 339.795C510.476 339.032 510.368 338.453 510.154 338.058C509.948 337.663 509.596 337.466 509.099 337.466C508.61 337.466 508.249 337.655 508.018 338.032C507.786 338.41 507.67 338.925 507.67 339.577C507.67 340.786 507.893 341.546 508.339 341.855C508.537 341.992 508.781 342.061 509.073 342.061ZM506.113 339.757C506.113 339.122 506.207 338.573 506.396 338.11C506.585 337.638 506.838 337.277 507.155 337.029C507.764 336.565 508.438 336.334 509.176 336.334C509.691 336.334 510.124 336.419 510.476 336.591C510.836 336.754 511.115 336.947 511.312 337.17C511.518 337.385 511.69 337.702 511.827 338.122C511.973 338.534 512.046 339.023 512.046 339.59C512.046 340.774 511.758 341.67 511.183 342.279C510.609 342.888 509.871 343.193 508.97 343.193C508.078 343.193 507.378 342.906 506.872 342.331C506.366 341.747 506.113 340.889 506.113 339.757ZM513.71 341.559V337.994C513.71 337.856 513.684 337.762 513.633 337.711C513.59 337.651 513.508 337.616 513.388 337.608L512.848 337.569V336.527H515.023V337.492C515.177 337.157 515.417 336.883 515.743 336.668C516.069 336.445 516.443 336.334 516.863 336.334C517.292 336.334 517.7 336.428 518.086 336.617V338.534L516.889 338.624V338.032C516.889 337.861 516.846 337.754 516.76 337.711C516.666 337.668 516.55 337.646 516.413 337.646C516.069 337.646 515.786 337.771 515.563 338.019C515.349 338.26 515.242 338.569 515.242 338.946V341.932L516.361 341.983V343H512.912V342.022L513.337 341.983C513.466 341.966 513.56 341.932 513.62 341.88C513.68 341.82 513.71 341.713 513.71 341.559ZM468.413 359.755V358.777C467.941 359.447 467.246 359.781 466.328 359.781C464.999 359.781 464.334 359.039 464.334 357.555V354.968C464.334 354.736 464.226 354.616 464.012 354.608L463.6 354.582V353.527H465.865V357.22C465.865 357.675 465.929 358.018 466.058 358.25C466.187 358.481 466.453 358.597 466.856 358.597C467.259 358.597 467.581 358.473 467.821 358.224C468.07 357.975 468.194 357.675 468.194 357.323V354.994C468.194 354.848 468.169 354.749 468.117 354.698C468.074 354.638 467.993 354.608 467.873 354.608L467.461 354.582V353.527H469.726V359.755C469.726 360.794 469.473 361.553 468.967 362.033C468.469 362.514 467.71 362.754 466.689 362.754C465.676 362.754 464.887 362.613 464.321 362.329V360.541L465.543 360.438V361.055C465.543 361.287 465.651 361.441 465.865 361.519C466.08 361.604 466.376 361.647 466.753 361.647C467.86 361.647 468.413 361.017 468.413 359.755ZM474.015 359.061C474.95 359.061 475.417 358.306 475.417 356.795C475.417 356.032 475.31 355.453 475.096 355.058C474.89 354.663 474.538 354.466 474.04 354.466C473.551 354.466 473.191 354.655 472.959 355.032C472.728 355.41 472.612 355.925 472.612 356.577C472.612 357.786 472.835 358.546 473.281 358.855C473.478 358.992 473.723 359.061 474.015 359.061ZM471.055 356.757C471.055 356.122 471.149 355.573 471.338 355.11C471.527 354.638 471.78 354.277 472.097 354.029C472.706 353.565 473.38 353.334 474.118 353.334C474.632 353.334 475.066 353.419 475.417 353.591C475.778 353.754 476.057 353.947 476.254 354.17C476.46 354.385 476.631 354.702 476.769 355.122C476.915 355.534 476.987 356.023 476.987 356.59C476.987 357.774 476.7 358.67 476.125 359.279C475.55 359.888 474.813 360.193 473.912 360.193C473.019 360.193 472.32 359.906 471.814 359.331C471.308 358.747 471.055 357.889 471.055 356.757ZM484.486 358.983V360H482.401V359.163C481.929 359.833 481.235 360.167 480.316 360.167C478.987 360.167 478.322 359.425 478.322 357.941V354.968C478.322 354.736 478.214 354.616 478 354.608L477.588 354.582V353.527H479.853V357.606C479.853 358.061 479.918 358.404 480.046 358.636C480.175 358.867 480.441 358.983 480.844 358.983C481.247 358.983 481.569 358.859 481.809 358.61C482.058 358.361 482.183 358.061 482.183 357.709V354.994C482.183 354.856 482.157 354.762 482.105 354.711C482.062 354.651 481.981 354.616 481.861 354.608L481.449 354.582V353.527H483.714V358.571C483.714 358.709 483.736 358.803 483.778 358.855C483.821 358.898 483.907 358.928 484.036 358.945L484.486 358.983ZM486.299 360.193C485.998 360.193 485.767 360.112 485.604 359.949C485.441 359.777 485.359 359.558 485.359 359.292C485.359 359.018 485.441 358.795 485.604 358.623C485.775 358.443 486.003 358.353 486.286 358.353C486.577 358.353 486.809 358.438 486.981 358.61C487.152 358.773 487.238 358.992 487.238 359.266C487.238 359.532 487.156 359.755 486.993 359.936C486.83 360.107 486.599 360.193 486.299 360.193Z" fill="black"/>
</g>
<defs>
<linearGradient id="paint0_linear_1338_2525" x1="450" y1="0" x2="450" y2="600" gradientUnits="userSpaceOnUse">
<stop stop-color="#1D9DBE"/>
<stop offset="1" stop-color="#F7C59F"/>
</linearGradient>
<linearGradient id="paint1_linear_1338_2525" x1="148" y1="75" x2="179.5" y2="57.5" gradientUnits="userSpaceOnUse">
<stop offset="0.277153" stop-color="#2A5C68"/>
<stop offset="1" stop-color="#2B1E36"/>
</linearGradient>
<clipPath id="clip0_1338_2525">
<rect width="900" height="600" fill="white"/>
</clipPath>
<clipPath id="clip1_1338_2525">
<rect width="3.59929" height="3.59929" fill="white" transform="translate(150.596 54.8641)"/>
</clipPath>
</defs>
</svg>
