<svg width="900" height="600" viewBox="0 0 900 600" fill="none" xmlns="http://www.w3.org/2000/svg">
<g clip-path="url(#clip0_1164_1732)">
<path d="M900 0H0V600H900V0Z" fill="url(#paint0_linear_1164_1732)"/>
<path d="M0 360L21.5 363C43 366 86 372 128.8 379.2C171.7 386.3 214.3 394.7 257.2 398.7C300 402.7 343 402.3 385.8 404.7C428.7 407 471.3 412 514.2 406C557 400 600 383 642.8 387.3C685.7 391.7 728.3 417.3 771.2 417.3C814 417.3 857 391.7 878.5 378.8L900 366V601H878.5C857 601 814 601 771.2 601C728.3 601 685.7 601 642.8 601C600 601 557 601 514.2 601C471.3 601 428.7 601 385.8 601C343 601 300 601 257.2 601C214.3 601 171.7 601 128.8 601C86 601 43 601 21.5 601H0V360Z" fill="#BE8961"/>
<path d="M0 407L21.5 413.7C43 420.3 86 433.7 128.8 438.2C171.7 442.7 214.3 438.3 257.2 438.2C300 438 343 442 385.8 436.2C428.7 430.3 471.3 414.7 514.2 413.2C557 411.7 600 424.3 642.8 426C685.7 427.7 728.3 418.3 771.2 421C814 423.7 857 438.3 878.5 445.7L900 453V601H878.5C857 601 814 601 771.2 601C728.3 601 685.7 601 642.8 601C600 601 557 601 514.2 601C471.3 601 428.7 601 385.8 601C343 601 300 601 257.2 601C214.3 601 171.7 601 128.8 601C86 601 43 601 21.5 601H0V407Z" fill="#FFA968"/>
<path d="M0 484L21.5 484.7C43 485.3 86 486.7 128.8 485C171.7 483.3 214.3 478.7 257.2 470.3C300 462 343 450 385.8 454.7C428.7 459.3 471.3 480.7 514.2 482.3C557 484 600 466 642.8 455.8C685.7 445.7 728.3 443.3 771.2 451.8C814 460.3 857 479.7 878.5 489.3L900 499V601H878.5C857 601 814 601 771.2 601C728.3 601 685.7 601 642.8 601C600 601 557 601 514.2 601C471.3 601 428.7 601 385.8 601C343 601 300 601 257.2 601C214.3 601 171.7 601 128.8 601C86 601 43 601 21.5 601H0V484Z" fill="#2A5C68"/>
<path d="M0 510L21.5 510.8C43 511.7 86 513.3 128.8 516.2C171.7 519 214.3 523 257.2 519.3C300 515.7 343 504.3 385.8 504.7C428.7 505 471.3 517 514.2 521.5C557 526 600 523 642.8 524.2C685.7 525.3 728.3 530.7 771.2 528.8C814 527 857 518 878.5 513.5L900 509V601H878.5C857 601 814 601 771.2 601C728.3 601 685.7 601 642.8 601C600 601 557 601 514.2 601C471.3 601 428.7 601 385.8 601C343 601 300 601 257.2 601C214.3 601 171.7 601 128.8 601C86 601 43 601 21.5 601H0V510Z" fill="#F6A478"/>
<path d="M0 574L21.5 568.2C43 562.3 86 550.7 128.8 548.2C171.7 545.7 214.3 552.3 257.2 554.5C300 556.7 343 554.3 385.8 556.2C428.7 558 471.3 564 514.2 565.7C557 567.3 600 564.7 642.8 564.2C685.7 563.7 728.3 565.3 771.2 565.5C814 565.7 857 564.3 878.5 563.7L900 563V601H878.5C857 601 814 601 771.2 601C728.3 601 685.7 601 642.8 601C600 601 557 601 514.2 601C471.3 601 428.7 601 385.8 601C343 601 300 601 257.2 601C214.3 601 171.7 601 128.8 601C86 601 43 601 21.5 601H0V574Z" fill="#F7C59F"/>
<path d="M761.841 481.887C801.758 487.982 804.511 494.505 807.256 499.484C808.446 500.655 812.115 504.079 813.402 500.784C814.179 498.796 813.304 493.079 797.055 486.49C790.742 484.645 743.82 479.136 761.841 481.887Z" fill="white"/>
<path d="M816.671 522.519C818.921 540.794 816.364 542.745 814.493 544.518C814.121 545.175 813.055 547.179 814.678 547.373C815.659 547.49 818.09 546.457 819 538.554C819.035 535.563 815.656 514.269 816.671 522.519Z" fill="white"/>
<path d="M695.191 504.915C735.89 503.279 728.769 504.915 734.304 504.915C739.84 504.915 742.938 508.759 741.468 504.915C739.997 501.071 733.328 502.593 731.006 502.593C724.467 501.85 676.816 505.653 695.191 504.915Z" fill="white"/>
<path d="M807.112 515.882C805.968 511.669 804.077 508.029 801.641 504.96M801.641 504.96C786.131 485.424 748.491 489.064 740.443 515.882C744.976 533.82 759.719 564.59 782.425 544.163C805.131 523.737 796.518 507.395 789.373 501.777C780.738 501.334 768.694 502.232 760.029 506.285M801.641 504.96C817.162 508.142 801.051 544.163 792.181 555.519C783.312 566.875 768.455 565.573 752.121 532.301C745.37 518.55 750.769 510.616 760.029 506.285M780.06 495.34C761.286 508.408 728.483 538.015 747.464 551.903C771.19 569.262 765.129 522.654 760.029 506.285M766.09 498.088C734.899 495.34 723.635 554.073 747.464 561.016C774.442 573.819 809.209 545.542 801.641 527.31C801.74 513.005 795.788 486.584 771.19 495.34" stroke="#562E2E" stroke-width="3"/>
<path d="M795.09 557.431C798.791 555.007 801.698 552.077 803.875 548.827M803.875 548.827C817.734 528.136 802.016 494.47 773.483 495.71C757.611 505.72 732.644 529.341 759.749 543.742C786.854 558.143 799.86 544.873 802.976 536.438C800.606 528.301 795.834 517.441 789.109 510.733M803.875 548.827C805.828 564.227 765.785 560.986 751.933 556.455C738.08 551.924 734.524 537.748 761.395 511.842C772.501 501.136 781.921 503.563 789.109 510.733M806.181 525.729C787.464 512.584 748.211 491.811 740.937 513.884C731.844 541.475 774.937 520.759 789.109 510.733M798.996 513.687C791.545 483.92 731.116 492.526 732.127 516.838C728.493 545.963 767.097 568.985 782.269 556.07C796.13 551.526 819.742 537.453 803.306 517.518" stroke="#562E2E" stroke-width="3"/>
<path d="M274.419 176V172.112L276.147 171.968C276.979 171.904 277.395 171.456 277.395 170.624V148.304L274.659 148.16V144.08H283.299L296.883 166.112H296.979V148.304L293.811 148.16V144.08H305.523V147.968L303.795 148.112C303.027 148.176 302.643 148.672 302.643 149.6V176H297.027L283.155 153.632H283.059V171.776L286.179 171.92V176H274.419ZM318.413 172.496C321.901 172.496 323.645 169.68 323.645 164.048C323.645 161.2 323.245 159.04 322.445 157.568C321.677 156.096 320.365 155.36 318.509 155.36C316.685 155.36 315.341 156.064 314.477 157.472C313.613 158.88 313.181 160.8 313.181 163.232C313.181 167.744 314.013 170.576 315.677 171.728C316.413 172.24 317.325 172.496 318.413 172.496ZM307.373 163.904C307.373 161.536 307.725 159.488 308.429 157.76C309.133 156 310.077 154.656 311.261 153.728C313.533 152 316.045 151.136 318.797 151.136C320.717 151.136 322.333 151.456 323.645 152.096C324.989 152.704 326.029 153.424 326.765 154.256C327.533 155.056 328.173 156.24 328.685 157.808C329.229 159.344 329.501 161.168 329.501 163.28C329.501 167.696 328.429 171.04 326.285 173.312C324.141 175.584 321.389 176.72 318.029 176.72C314.701 176.72 312.093 175.648 310.205 173.504C308.317 171.328 307.373 168.128 307.373 163.904ZM356.934 151.856H367.062V155.6L365.574 155.696C364.934 155.76 364.502 156.144 364.278 156.848L358.086 176H350.742L344.022 156.896C343.862 156.448 343.686 156.144 343.494 155.984C343.334 155.824 343.046 155.728 342.63 155.696L341.238 155.6V151.856H352.518V155.696L349.59 155.84L354.534 171.632H354.63L359.43 155.84L356.934 155.696V151.856ZM381.155 151.136C383.555 151.136 385.459 151.728 386.867 152.912C388.275 154.064 388.979 155.696 388.979 157.808C388.979 159.216 388.675 160.464 388.067 161.552C387.459 162.608 386.707 163.44 385.811 164.048C384.915 164.656 383.827 165.152 382.547 165.536C380.403 166.176 377.987 166.496 375.299 166.496C375.395 168.192 375.923 169.568 376.883 170.624C377.843 171.648 379.315 172.16 381.299 172.16C383.283 172.16 385.267 171.456 387.251 170.048L389.075 173.936C388.435 174.512 387.347 175.104 385.811 175.712C384.307 176.32 382.579 176.624 380.627 176.624C376.723 176.624 373.859 175.552 372.035 173.408C370.211 171.232 369.299 168.256 369.299 164.48C369.299 160.704 370.339 157.536 372.419 154.976C374.499 152.416 377.411 151.136 381.155 151.136ZM378.947 162.128C380.131 161.904 381.219 161.44 382.211 160.736C383.203 160 383.699 159.136 383.699 158.144C383.699 156.192 382.739 155.216 380.819 155.216C379.027 155.216 377.651 155.936 376.691 157.376C375.731 158.784 375.203 160.48 375.107 162.464C376.515 162.432 377.795 162.32 378.947 162.128ZM392.069 155.696V151.856H400.181V154.976C401.013 153.792 402.117 152.864 403.493 152.192C404.869 151.488 406.357 151.136 407.957 151.136C410.389 151.136 412.261 151.84 413.573 153.248C414.917 154.624 415.589 156.704 415.589 159.488V172.016L418.325 172.16V176H406.901V172.352L408.485 172.208C408.965 172.144 409.317 172.016 409.541 171.824C409.765 171.6 409.877 171.2 409.877 170.624V160.736C409.877 158.976 409.605 157.68 409.061 156.848C408.517 155.984 407.477 155.552 405.941 155.552C404.437 155.552 403.237 156.032 402.341 156.992C401.445 157.952 400.997 159.088 400.997 160.4V172.016L403.733 172.16V176H392.309V172.352L393.893 172.208C394.373 172.144 394.725 172.016 394.949 171.824C395.173 171.6 395.285 171.2 395.285 170.624V157.328C395.285 156.368 394.885 155.872 394.085 155.84L392.069 155.696ZM444.891 172.208V176H437.115V172.88C435.355 175.376 432.763 176.624 429.339 176.624C424.379 176.624 421.899 173.856 421.899 168.32V157.232C421.899 156.368 421.499 155.92 420.699 155.888L419.163 155.792V151.856H427.611V167.072C427.611 168.768 427.851 170.048 428.331 170.912C428.811 171.776 429.803 172.208 431.307 172.208C432.811 172.208 434.011 171.744 434.907 170.816C435.835 169.888 436.299 168.768 436.299 167.456V157.328C436.299 156.816 436.203 156.464 436.011 156.272C435.851 156.048 435.547 155.92 435.099 155.888L433.563 155.792V151.856H442.011V170.672C442.011 171.184 442.091 171.536 442.251 171.728C442.411 171.888 442.731 172 443.211 172.064L444.891 172.208ZM459.859 151.136C462.259 151.136 464.163 151.728 465.571 152.912C466.979 154.064 467.683 155.696 467.683 157.808C467.683 159.216 467.379 160.464 466.771 161.552C466.163 162.608 465.411 163.44 464.515 164.048C463.619 164.656 462.531 165.152 461.251 165.536C459.107 166.176 456.691 166.496 454.003 166.496C454.099 168.192 454.627 169.568 455.587 170.624C456.547 171.648 458.019 172.16 460.003 172.16C461.987 172.16 463.971 171.456 465.955 170.048L467.779 173.936C467.139 174.512 466.051 175.104 464.515 175.712C463.011 176.32 461.283 176.624 459.331 176.624C455.427 176.624 452.563 175.552 450.739 173.408C448.915 171.232 448.003 168.256 448.003 164.48C448.003 160.704 449.043 157.536 451.123 154.976C453.203 152.416 456.115 151.136 459.859 151.136ZM457.651 162.128C458.835 161.904 459.923 161.44 460.915 160.736C461.907 160 462.403 159.136 462.403 158.144C462.403 156.192 461.443 155.216 459.523 155.216C457.731 155.216 456.355 155.936 455.395 157.376C454.435 158.784 453.907 160.48 453.811 162.464C455.219 162.432 456.499 162.32 457.651 162.128ZM483.637 155.504C482.869 155.216 481.941 155.072 480.853 155.072C479.765 155.072 478.885 155.328 478.213 155.84C477.573 156.32 477.253 156.928 477.253 157.664C477.253 158.368 477.365 158.928 477.589 159.344C477.845 159.728 478.229 160.064 478.741 160.352C479.541 160.768 480.501 161.136 481.621 161.456C482.741 161.744 483.573 161.984 484.117 162.176C484.661 162.336 485.333 162.624 486.133 163.04C486.965 163.456 487.589 163.904 488.005 164.384C489.125 165.568 489.685 167.088 489.685 168.944C489.685 171.344 488.805 173.232 487.045 174.608C485.317 175.952 483.109 176.624 480.421 176.624C476.517 176.624 473.573 176.128 471.589 175.136V168.464L475.909 168.128V170.432C475.909 171.84 477.253 172.544 479.941 172.544C482.629 172.544 483.973 171.568 483.973 169.616C483.973 168.912 483.733 168.336 483.253 167.888C482.805 167.44 482.357 167.136 481.909 166.976C481.461 166.816 480.917 166.656 480.277 166.496C479.669 166.336 479.061 166.176 478.453 166.016C477.877 165.856 477.237 165.648 476.533 165.392C475.861 165.104 475.109 164.704 474.277 164.192C472.645 163.136 471.829 161.376 471.829 158.912C471.829 156.416 472.709 154.496 474.469 153.152C476.229 151.808 478.437 151.136 481.093 151.136C483.781 151.136 486.437 151.776 489.061 153.056V158.816L484.741 159.152V157.136C484.741 156.336 484.373 155.792 483.637 155.504ZM505.35 170.624V155.888H501.222V151.856H505.35V150.032C505.35 146.896 506.07 144.64 507.51 143.264C508.854 141.952 510.822 141.296 513.414 141.296C516.006 141.296 518.31 141.856 520.326 142.976L518.934 146.816C517.398 146.016 515.958 145.616 514.614 145.616C513.27 145.616 512.342 145.952 511.83 146.624C511.318 147.264 511.062 148.256 511.062 149.6V151.856H518.166V155.888H511.062V171.968L515.094 172.16V176H502.374V172.352L503.958 172.208C504.438 172.144 504.79 172.016 505.014 171.824C505.238 171.6 505.35 171.2 505.35 170.624ZM530.663 172.496C534.151 172.496 535.895 169.68 535.895 164.048C535.895 161.2 535.495 159.04 534.695 157.568C533.927 156.096 532.615 155.36 530.759 155.36C528.935 155.36 527.591 156.064 526.727 157.472C525.863 158.88 525.431 160.8 525.431 163.232C525.431 167.744 526.263 170.576 527.927 171.728C528.663 172.24 529.575 172.496 530.663 172.496ZM519.623 163.904C519.623 161.536 519.975 159.488 520.679 157.76C521.383 156 522.327 154.656 523.511 153.728C525.783 152 528.295 151.136 531.047 151.136C532.967 151.136 534.583 151.456 535.895 152.096C537.239 152.704 538.279 153.424 539.015 154.256C539.783 155.056 540.423 156.24 540.935 157.808C541.479 159.344 541.751 161.168 541.751 163.28C541.751 167.696 540.679 171.04 538.535 173.312C536.391 175.584 533.639 176.72 530.279 176.72C526.951 176.72 524.343 175.648 522.455 173.504C520.567 171.328 519.623 168.128 519.623 163.904ZM569.719 172.208V176H561.943V172.88C560.183 175.376 557.591 176.624 554.167 176.624C549.207 176.624 546.727 173.856 546.727 168.32V157.232C546.727 156.368 546.327 155.92 545.527 155.888L543.991 155.792V151.856H552.439V167.072C552.439 168.768 552.679 170.048 553.159 170.912C553.639 171.776 554.631 172.208 556.135 172.208C557.639 172.208 558.839 171.744 559.735 170.816C560.663 169.888 561.127 168.768 561.127 167.456V157.328C561.127 156.816 561.031 156.464 560.839 156.272C560.679 156.048 560.375 155.92 559.927 155.888L558.391 155.792V151.856H566.839V170.672C566.839 171.184 566.919 171.536 567.079 171.728C567.239 171.888 567.559 172 568.039 172.064L569.719 172.208ZM572.351 155.696V151.856H580.463V154.976C581.295 153.792 582.399 152.864 583.775 152.192C585.151 151.488 586.639 151.136 588.239 151.136C590.671 151.136 592.543 151.84 593.855 153.248C595.199 154.624 595.871 156.704 595.871 159.488V172.016L598.607 172.16V176H587.183V172.352L588.767 172.208C589.247 172.144 589.599 172.016 589.823 171.824C590.047 171.6 590.159 171.2 590.159 170.624V160.736C590.159 158.976 589.887 157.68 589.343 156.848C588.799 155.984 587.759 155.552 586.223 155.552C584.719 155.552 583.519 156.032 582.623 156.992C581.727 157.952 581.279 159.088 581.279 160.4V172.016L584.015 172.16V176H572.591V172.352L574.175 172.208C574.655 172.144 575.007 172.016 575.231 171.824C575.455 171.6 575.567 171.2 575.567 170.624V157.328C575.567 156.368 575.167 155.872 574.367 155.84L572.351 155.696ZM613.468 151.136C614.844 151.136 616.156 151.328 617.404 151.712V146.864C617.404 146.16 616.988 145.776 616.156 145.712L614.092 145.568V141.776H623.02V170.96C623.052 171.696 623.452 172.064 624.22 172.064L625.9 172.16V176H618.124V173.168L617.98 173.12C616.54 175.456 614.364 176.624 611.452 176.624C607.804 176.624 605.244 175.408 603.772 172.976C602.428 170.768 601.756 168.064 601.756 164.864C601.756 160.704 602.78 157.376 604.828 154.88C606.908 152.384 609.788 151.136 613.468 151.136ZM617.404 168.512V156.08C616.252 155.568 615.036 155.312 613.756 155.312C611.644 155.312 610.092 156.16 609.1 157.856C608.14 159.552 607.66 161.712 607.66 164.336C607.66 169.712 609.388 172.4 612.844 172.4C614.156 172.4 615.244 172.032 616.108 171.296C616.972 170.528 617.404 169.6 617.404 168.512Z" fill="#2B1E36"/>
<path d="M259.343 558.808C235.421 560.762 236.539 563.16 235.643 591.831L234.953 613.918L219.458 613.434C219.458 613.434 223.397 583.102 213.857 573.143C205.474 564.392 199.055 569.585 189.441 562.251C179.827 554.916 188.664 520.303 191.005 512.216C193.345 504.13 204.423 502.788 205.904 512.682C207.384 522.576 199.662 540.623 204.762 549.224C209.862 557.824 217.723 554.412 221.448 549.745C225.173 545.079 223.17 494.651 228.692 489.759C234.214 484.867 239.747 485.978 241.803 490.169C243.859 494.36 239.923 550.323 239.923 550.323C259.589 550.937 250.504 517.171 260.591 518.893C270.678 520.615 270.707 557.88 259.343 558.808Z" fill="#0B1D2B"/>
<path d="M28.3906 482.479C80.2118 492.979 77.1416 497.934 71.6389 560.885L67.3999 609.38L101.42 612.353C101.42 612.353 100.698 544.978 124.159 525.676C144.775 508.715 157.465 521.746 180.403 508.205C203.342 494.663 193.021 416.647 190.006 398.349C186.991 380.051 163.108 374.232 157.294 395.49C151.481 416.747 163.676 458.236 150.281 475.721C136.886 493.207 120.577 483.697 113.644 472.519C106.71 461.341 124.217 351.554 113.412 339.416C102.607 327.278 90.2148 328.267 84.6258 336.9C79.0368 345.532 73.0809 468.973 73.0809 468.973C29.9012 465.198 58.5651 393.7 36.0513 394.842C13.5375 395.983 3.77562 477.492 28.3906 482.479Z" fill="#0B1D2B"/>
<path d="M584.547 398C585.081 398.036 585.658 398.218 586.122 398.482C586.37 398.255 586.755 397.989 587.026 398.196C587.612 398.639 587.139 399.169 586.708 399.506C586.45 401.187 585.737 403.873 587.167 404.473C589.412 405.321 589.816 398.433 592.975 398.517C594.869 398.568 594.034 401.313 595.909 401.407C597.292 401.478 597.189 398.852 598.342 398.812C599.556 398.77 600.434 399.698 601.047 402.889C602.249 402.884 602.722 403.831 603.27 405.664C603.818 407.492 603.411 411.082 603.214 413.276L602.845 409.7C602.731 410.262 602.555 410.829 602.287 411.42C602.103 412.296 602.032 413.173 602.014 414.045C602.399 414.523 602.427 415.273 602.034 415.709C602.077 416.965 602.159 418.217 602.113 419.473C600.496 419.496 599.017 419.426 597.447 419.473C597.362 418.915 598.145 418.517 599.055 418.053C599.041 417.41 599.045 416.623 599.055 415.826C598.642 415.348 598.633 414.509 599.064 414.101C599.059 413.103 599.026 412.292 598.909 412.043C598.534 411.242 597.944 410.548 597.545 409.831C596.2 410.079 594.747 409.967 593.237 409.61L593.205 413.618C593.566 414.148 593.58 414.917 593.191 415.39C592.97 416.75 593.162 418.114 593.153 419.473H590.434C590.326 418.77 591.489 418.39 592.056 418.062C592.056 417.026 592.239 416.243 592.075 415.235C591.841 414.771 591.826 414.228 592.056 413.792C592.014 412.245 591.901 410.698 591.555 409.151C591.48 409.123 591.184 408.978 591.119 408.903L590.608 413.515C590.87 414.073 590.814 414.795 590.42 415.235C590.111 416.646 590.209 418.025 590.05 419.435L587.181 419.473C587.167 418.896 588.545 418.535 589.07 418.278C589.37 417.275 589.337 416.257 589.384 415.235C589.009 414.668 589.028 413.881 589.436 413.384C589.412 411.589 589.178 409.784 588.573 408.012C583.576 407.735 584.064 404.637 583.919 401.768C583.853 400.491 581.317 401.848 581.106 401.224C580.994 400.9 580.937 400.573 581.106 400.2C581.509 399.296 582.226 399.248 582.826 399.233C583.403 398.888 583.886 398.016 584.491 398H584.547ZM584.233 398.918C584.003 399.042 584.055 399.268 584.106 399.392C584.416 399.484 584.87 399.341 585.081 399.177C584.898 399.036 584.509 398.924 584.233 398.918ZM600.494 410.909C600.351 411.275 600.225 411.64 600.149 411.996C599.998 412.714 599.919 413.435 599.881 414.162C600.232 414.645 600.246 415.385 599.853 415.803C599.865 416.815 599.914 417.828 599.925 418.835C600.137 418.484 600.53 418.179 601.094 418.034C601.086 417.359 601.114 416.515 601.144 415.662C600.82 415.184 600.816 414.462 601.196 414.054C601.228 412.789 601.212 411.739 601.019 411.518C600.834 411.307 600.66 411.106 600.494 410.909Z" fill="black"/>
<path d="M173.829 40.4698C170.564 36.585 133.855 57.9796 132.616 61.0762L152.097 86.9751C152.097 86.9751 174.505 77.1223 173.829 73.5752C173.153 70.0282 156.826 81.4575 155.587 77.629C154.349 73.8004 186.891 62.3149 182.612 57.9796C178.333 53.6444 161.161 69.2963 159.078 65.4678C156.995 61.6393 173.21 58.3175 170.901 53.9822C168.593 49.647 155.193 61.6393 152.716 57.9796C150.239 54.32 179.035 46.663 173.829 40.4698Z" fill="url(#paint1_linear_1164_1732)"/>
<path d="M165.893 70.3116C165.893 80.4992 157.634 88.7579 147.446 88.7579C137.259 88.7579 129 80.4992 129 70.3116C129 60.1239 137.259 51.8652 147.446 51.8652C157.634 51.8652 165.893 60.1239 165.893 70.3116Z" fill="#D8D8D8"/>
<path d="M153.939 74.2962C153.349 76.9525 148.369 82.966 143.019 86.9873C139.387 86.2661 136.4 83.9002 134.718 82.1175C136.12 81.3427 145.205 77.8036 147.483 74.1118C149.329 71.1213 140.363 70.1176 147.188 66.5119C151.837 64.0561 157.002 62.7855 162.425 61.3467L161.798 62.1952C161.798 62.1952 152.685 65.7371 150.804 68.7992C150.037 70.1274 154.8 70.4225 153.939 74.2962Z" fill="#424242"/>
<path d="M150.914 72.8573L150.324 72.968C150.693 71.6768 146.672 69.5739 147.041 68.7254C147.151 68.2458 150.103 65.405 161.982 61.6789C153.534 64.9254 148.553 67.1021 147.557 68.7254C147.257 69.5739 151.136 71.271 150.914 72.8573Z" fill="#D9D9D9" fill-opacity="0.53"/>
<path d="M154.235 71.3079C154.972 72.4146 154.965 73.5214 154.53 74.8496C153.903 77.0631 152.648 78.4282 150.619 80.8262C148.549 83.5812 143.831 87.2824 143.831 87.2824C150.545 88.5736 157.998 86.2863 162.425 78.9815C165.155 74.3331 165.598 68.3196 163.052 62.7857C162.794 62.8225 153.607 66.3274 151.689 68.7254C151.209 69.6108 153.017 69.7584 154.235 71.3079Z" fill="#A03F03"/>
<path d="M143.831 87.2824C150.545 88.5736 157.998 86.2863 162.425 78.9815C164.194 75.9688 165.003 72.3827 164.66 68.7254C161.724 73.2263 158.367 70.8652 154.822 73.4477C154.794 73.8919 154.692 74.3554 154.53 74.8496C153.903 77.0631 152.648 78.4282 150.619 80.8262C148.549 83.5812 143.831 87.2824 143.831 87.2824Z" fill="#A0510C"/>
<path d="M143.831 87.2824C150.545 88.5736 157.998 86.2863 162.425 78.9815C163.319 77.5059 163.79 76.2146 164.122 74.9603C159.695 79.4243 156.891 77.2107 152.171 78.9815C151.714 79.5414 151.198 80.1417 150.619 80.8262C148.549 83.5812 143.831 87.2824 143.831 87.2824Z" fill="#824B11"/>
<path d="M143.093 77.1369C140.031 78.9447 136.932 80.3097 134.202 81.5272C130.918 77.5428 130.107 73.5953 130.107 70.9391C130.107 67.3604 130.838 64.5935 132.136 62.1586C134.968 56.846 140.621 53.0232 147.299 52.9723C154.124 52.9353 158.514 56.5877 160.728 59.2071C161.023 60.4245 160.469 60.941 160.469 60.941L160.396 60.1663C160.064 58.543 158.44 57.4362 156.817 57.6576C155.009 57.8421 153.054 60.0556 154.493 62.6381C151.984 63.5235 149.586 64.3721 145.675 66.5856C144.901 67.0242 143.831 68.1351 143.831 68.873C143.646 70.7176 146.635 71.8982 146.782 73.0787C147.004 74.1486 146.155 74.9972 143.093 77.1369Z" fill="#133455"/>
<path d="M143.093 77.1369C140.031 78.9447 136.932 80.3097 134.202 81.5272C130.918 77.5428 130.107 73.5953 130.107 70.9391C130.107 67.3604 130.838 64.5935 132.136 62.1586C134.736 57.2823 139.712 53.6611 145.675 53.0599C145.934 58.6537 151.652 60.2032 151.652 63.6844C149.988 64.3449 148.13 65.1965 145.675 66.5856C144.901 67.0242 143.831 68.1351 143.831 68.873C143.646 70.7176 146.635 71.8982 146.782 73.0787C147.004 74.1486 146.155 74.9972 143.093 77.1369Z" fill="#A03F03"/>
<path d="M143.093 77.1369C140.031 78.9447 136.932 80.3097 134.202 81.5272C130.918 77.5428 130.107 73.5953 130.107 70.9391C130.107 67.3604 130.838 64.5935 132.136 62.1586C133.35 59.8819 135.082 57.8788 137.19 56.3289C137.965 60.0556 145.27 60.7197 145.675 66.5856C144.901 67.0242 143.831 68.1351 143.831 68.873C143.646 70.7176 146.635 71.8982 146.782 73.0787C147.004 74.1486 146.155 74.9972 143.093 77.1369Z" fill="#A0510C"/>
<path d="M143.093 77.1369C140.031 78.9447 136.932 80.3097 134.202 81.5272C130.918 77.5428 130.107 73.5953 130.107 70.9391C130.107 68.0798 130.573 65.7387 131.423 63.6711C135.124 68.2089 141.175 64.4827 143.831 68.873C143.646 70.7176 146.635 71.8982 146.782 73.0787C147.004 74.1486 146.155 74.9972 143.093 77.1369Z" fill="#824B11"/>
<g clip-path="url(#clip1_1164_1732)">
<path d="M153.567 55.0146L153.37 55.4458L152.94 55.6418L153.37 55.8393L153.567 56.2689L153.763 55.8393L154.194 55.6418L153.763 55.4458M151.999 55.485L151.607 56.3473L150.745 56.7393L151.607 57.1313L151.999 57.9936L152.391 57.1313L153.254 56.7393L152.391 56.3473M153.567 57.2097L153.37 57.6393L152.94 57.8368L153.37 58.0328L153.567 58.464L153.763 58.0328L154.194 57.8368L153.763 57.6393" fill="#D8D8D8"/>
</g>
<ellipse cx="471.5" cy="318.5" rx="106.5" ry="52.5" fill="#D9D9D9"/>
<path d="M578.763 398.967L526.168 356.506L546.845 339.382L578.763 398.967Z" fill="#D9D9D9"/>
<path d="M415.957 303.128V295.768L415.045 295.72V294.36H418.917V295.656L418.389 295.704C418.08 295.736 417.925 295.907 417.925 296.216V303.592L418.837 303.64V305H414.965V303.704L415.493 303.656C415.653 303.635 415.77 303.592 415.845 303.528C415.92 303.453 415.957 303.32 415.957 303.128ZM421.663 295.256H422.703V296.952H424.831L424.671 298.296H422.703V302.504C422.703 302.973 422.789 303.304 422.959 303.496C423.13 303.677 423.391 303.768 423.743 303.768C424.106 303.768 424.469 303.656 424.831 303.432L425.311 304.664C424.778 305.037 424.101 305.224 423.279 305.224C422.799 305.224 422.394 305.16 422.063 305.032C421.733 304.915 421.487 304.781 421.327 304.632C421.167 304.483 421.045 304.264 420.959 303.976C420.874 303.688 420.826 303.464 420.815 303.304C420.805 303.133 420.799 302.888 420.799 302.568V298.296H419.663L419.823 297.128C420.325 297.085 420.703 296.909 420.959 296.6C421.215 296.28 421.45 295.832 421.663 295.256ZM425.887 297.032L426.815 293.256C427.465 293.331 427.956 293.453 428.287 293.624C428.489 293.731 428.591 293.896 428.591 294.12C428.591 294.344 428.532 294.557 428.415 294.76L426.895 297.4L425.887 297.032ZM432.22 298.168C431.964 298.072 431.655 298.024 431.292 298.024C430.929 298.024 430.636 298.109 430.412 298.28C430.199 298.44 430.092 298.643 430.092 298.888C430.092 299.123 430.129 299.309 430.204 299.448C430.289 299.576 430.417 299.688 430.588 299.784C430.855 299.923 431.175 300.045 431.548 300.152C431.921 300.248 432.199 300.328 432.38 300.392C432.561 300.445 432.785 300.541 433.052 300.68C433.329 300.819 433.537 300.968 433.676 301.128C434.049 301.523 434.236 302.029 434.236 302.648C434.236 303.448 433.943 304.077 433.356 304.536C432.78 304.984 432.044 305.208 431.148 305.208C429.847 305.208 428.865 305.043 428.204 304.712V302.488L429.644 302.376V303.144C429.644 303.613 430.092 303.848 430.988 303.848C431.884 303.848 432.332 303.523 432.332 302.872C432.332 302.637 432.252 302.445 432.092 302.296C431.943 302.147 431.793 302.045 431.644 301.992C431.495 301.939 431.313 301.885 431.1 301.832C430.897 301.779 430.695 301.725 430.492 301.672C430.3 301.619 430.087 301.549 429.852 301.464C429.628 301.368 429.377 301.235 429.1 301.064C428.556 300.712 428.284 300.125 428.284 299.304C428.284 298.472 428.577 297.832 429.164 297.384C429.751 296.936 430.487 296.712 431.372 296.712C432.268 296.712 433.153 296.925 434.028 297.352V299.272L432.588 299.384V298.712C432.588 298.445 432.465 298.264 432.22 298.168ZM442.466 296.712C442.925 296.712 443.362 296.776 443.778 296.904V295.288C443.778 295.053 443.639 294.925 443.362 294.904L442.674 294.856V293.592H445.65V303.32C445.661 303.565 445.794 303.688 446.05 303.688L446.61 303.72V305H444.018V304.056L443.97 304.04C443.49 304.819 442.765 305.208 441.794 305.208C440.578 305.208 439.725 304.803 439.234 303.992C438.786 303.256 438.562 302.355 438.562 301.288C438.562 299.901 438.903 298.792 439.586 297.96C440.279 297.128 441.239 296.712 442.466 296.712ZM443.778 302.504V298.36C443.394 298.189 442.989 298.104 442.562 298.104C441.858 298.104 441.341 298.387 441.01 298.952C440.69 299.517 440.53 300.237 440.53 301.112C440.53 302.904 441.106 303.8 442.258 303.8C442.695 303.8 443.058 303.677 443.346 303.432C443.634 303.176 443.778 302.867 443.778 302.504ZM448.536 303.208V298.776C448.536 298.605 448.504 298.488 448.44 298.424C448.386 298.349 448.285 298.307 448.136 298.296L447.464 298.248V296.952H450.168V298.152C450.36 297.736 450.658 297.395 451.064 297.128C451.469 296.851 451.933 296.712 452.456 296.712C452.989 296.712 453.496 296.829 453.976 297.064V299.448L452.488 299.56V298.824C452.488 298.611 452.434 298.477 452.328 298.424C452.21 298.371 452.066 298.344 451.896 298.344C451.469 298.344 451.117 298.499 450.84 298.808C450.573 299.107 450.44 299.491 450.44 299.96V303.672L451.832 303.736V305H447.544V303.784L448.072 303.736C448.232 303.715 448.349 303.672 448.424 303.608C448.498 303.533 448.536 303.4 448.536 303.208ZM460.822 304.696V303.48C460.236 304.312 459.372 304.728 458.23 304.728C456.577 304.728 455.75 303.805 455.75 301.96V298.744C455.75 298.456 455.617 298.307 455.35 298.296L454.838 298.264V296.952H457.654V301.544C457.654 302.109 457.734 302.536 457.894 302.824C458.054 303.112 458.385 303.256 458.886 303.256C459.388 303.256 459.788 303.101 460.086 302.792C460.396 302.483 460.55 302.109 460.55 301.672V298.776C460.55 298.595 460.518 298.472 460.454 298.408C460.401 298.333 460.3 298.296 460.15 298.296L459.638 298.264V296.952H462.454V304.696C462.454 305.987 462.14 306.931 461.51 307.528C460.892 308.125 459.948 308.424 458.678 308.424C457.42 308.424 456.438 308.248 455.734 307.896V305.672L457.254 305.544V306.312C457.254 306.6 457.388 306.792 457.654 306.888C457.921 306.995 458.289 307.048 458.758 307.048C460.134 307.048 460.822 306.264 460.822 304.696ZM470.989 303.832C472.152 303.832 472.733 302.893 472.733 301.016C472.733 300.067 472.6 299.347 472.333 298.856C472.077 298.365 471.64 298.12 471.021 298.12C470.413 298.12 469.965 298.355 469.677 298.824C469.389 299.293 469.245 299.933 469.245 300.744C469.245 302.248 469.523 303.192 470.077 303.576C470.323 303.747 470.627 303.832 470.989 303.832ZM467.309 300.968C467.309 300.179 467.427 299.496 467.661 298.92C467.896 298.333 468.211 297.885 468.605 297.576C469.363 297 470.2 296.712 471.117 296.712C471.757 296.712 472.296 296.819 472.733 297.032C473.181 297.235 473.528 297.475 473.773 297.752C474.029 298.019 474.243 298.413 474.413 298.936C474.595 299.448 474.685 300.056 474.685 300.76C474.685 302.232 474.328 303.347 473.613 304.104C472.899 304.861 471.981 305.24 470.861 305.24C469.752 305.24 468.883 304.883 468.253 304.168C467.624 303.443 467.309 302.376 467.309 300.968ZM484.008 303.736V305H481.416V303.96C480.829 304.792 479.965 305.208 478.824 305.208C477.171 305.208 476.344 304.285 476.344 302.44V298.744C476.344 298.456 476.211 298.307 475.944 298.296L475.432 298.264V296.952H478.248V302.024C478.248 302.589 478.328 303.016 478.488 303.304C478.648 303.592 478.979 303.736 479.48 303.736C479.981 303.736 480.381 303.581 480.68 303.272C480.989 302.963 481.144 302.589 481.144 302.152V298.776C481.144 298.605 481.112 298.488 481.048 298.424C480.995 298.349 480.893 298.307 480.744 298.296L480.232 298.264V296.952H483.048V303.224C483.048 303.395 483.075 303.512 483.128 303.576C483.181 303.629 483.288 303.667 483.448 303.688L484.008 303.736ZM486.273 295.256H487.313V296.952H489.441L489.281 298.296H487.313V302.504C487.313 302.973 487.398 303.304 487.569 303.496C487.739 303.677 488.001 303.768 488.353 303.768C488.715 303.768 489.078 303.656 489.441 303.432L489.921 304.664C489.387 305.037 488.71 305.224 487.889 305.224C487.409 305.224 487.003 305.16 486.673 305.032C486.342 304.915 486.097 304.781 485.937 304.632C485.777 304.483 485.654 304.264 485.569 303.976C485.483 303.688 485.435 303.464 485.425 303.304C485.414 303.133 485.409 302.888 485.409 302.568V298.296H484.273L484.433 297.128C484.934 297.085 485.313 296.909 485.569 296.6C485.825 296.28 486.059 295.832 486.273 295.256ZM494.707 303.208V295.416C494.707 295.245 494.675 295.128 494.611 295.064C494.558 295 494.456 294.963 494.307 294.952L493.747 294.92V293.592H496.595V297.896C497.15 297.107 497.928 296.712 498.931 296.712C499.742 296.712 500.366 296.947 500.803 297.416C501.251 297.875 501.475 298.568 501.475 299.496V303.672L502.387 303.72V305H498.579V303.784L499.107 303.736C499.267 303.715 499.384 303.672 499.459 303.608C499.534 303.533 499.571 303.4 499.571 303.208V299.912C499.571 299.357 499.48 298.931 499.299 298.632C499.128 298.333 498.787 298.184 498.275 298.184C497.774 298.184 497.368 298.344 497.059 298.664C496.76 298.973 496.611 299.352 496.611 299.8V303.672L497.523 303.72V305H493.715V303.784L494.243 303.736C494.403 303.715 494.52 303.672 494.595 303.608C494.67 303.533 494.707 303.4 494.707 303.208ZM507.341 296.712C508.141 296.712 508.776 296.909 509.245 297.304C509.714 297.688 509.949 298.232 509.949 298.936C509.949 299.405 509.848 299.821 509.645 300.184C509.442 300.536 509.192 300.813 508.893 301.016C508.594 301.219 508.232 301.384 507.805 301.512C507.09 301.725 506.285 301.832 505.389 301.832C505.421 302.397 505.597 302.856 505.917 303.208C506.237 303.549 506.728 303.72 507.389 303.72C508.05 303.72 508.712 303.485 509.373 303.016L509.981 304.312C509.768 304.504 509.405 304.701 508.893 304.904C508.392 305.107 507.816 305.208 507.165 305.208C505.864 305.208 504.909 304.851 504.301 304.136C503.693 303.411 503.389 302.419 503.389 301.16C503.389 299.901 503.736 298.845 504.429 297.992C505.122 297.139 506.093 296.712 507.341 296.712ZM506.605 300.376C507 300.301 507.362 300.147 507.693 299.912C508.024 299.667 508.189 299.379 508.189 299.048C508.189 298.397 507.869 298.072 507.229 298.072C506.632 298.072 506.173 298.312 505.853 298.792C505.533 299.261 505.357 299.827 505.325 300.488C505.794 300.477 506.221 300.44 506.605 300.376ZM512.067 303.208V298.776C512.067 298.605 512.035 298.488 511.971 298.424C511.918 298.349 511.816 298.307 511.667 298.296L510.995 298.248V296.952H513.699V298.152C513.891 297.736 514.19 297.395 514.595 297.128C515 296.851 515.464 296.712 515.987 296.712C516.52 296.712 517.027 296.829 517.507 297.064V299.448L516.019 299.56V298.824C516.019 298.611 515.966 298.477 515.859 298.424C515.742 298.371 515.598 298.344 515.427 298.344C515 298.344 514.648 298.499 514.371 298.808C514.104 299.107 513.971 299.491 513.971 299.96V303.672L515.363 303.736V305H511.075V303.784L511.603 303.736C511.763 303.715 511.88 303.672 511.955 303.608C512.03 303.533 512.067 303.4 512.067 303.208ZM522.482 296.712C523.282 296.712 523.916 296.909 524.386 297.304C524.855 297.688 525.09 298.232 525.09 298.936C525.09 299.405 524.988 299.821 524.786 300.184C524.583 300.536 524.332 300.813 524.034 301.016C523.735 301.219 523.372 301.384 522.946 301.512C522.231 301.725 521.426 301.832 520.53 301.832C520.562 302.397 520.738 302.856 521.058 303.208C521.378 303.549 521.868 303.72 522.53 303.72C523.191 303.72 523.852 303.485 524.514 303.016L525.122 304.312C524.908 304.504 524.546 304.701 524.034 304.904C523.532 305.107 522.956 305.208 522.306 305.208C521.004 305.208 520.05 304.851 519.442 304.136C518.834 303.411 518.53 302.419 518.53 301.16C518.53 299.901 518.876 298.845 519.57 297.992C520.263 297.139 521.234 296.712 522.482 296.712ZM521.746 300.376C522.14 300.301 522.503 300.147 522.834 299.912C523.164 299.667 523.33 299.379 523.33 299.048C523.33 298.397 523.01 298.072 522.37 298.072C521.772 298.072 521.314 298.312 520.994 298.792C520.674 299.261 520.498 299.827 520.466 300.488C520.935 300.477 521.362 300.44 521.746 300.376ZM528.92 303.736L527.272 307.48L526.264 307.176L526.76 303.928C526.834 303.395 527.096 303.128 527.544 303.128C527.768 303.128 527.938 303.165 528.056 303.24C528.184 303.304 528.285 303.357 528.36 303.4C528.445 303.443 528.504 303.475 528.536 303.496C528.568 303.517 528.632 303.56 528.728 303.624C528.824 303.677 528.888 303.715 528.92 303.736ZM423.492 317.256H424.532V318.952H426.66L426.5 320.296H424.532V324.504C424.532 324.973 424.617 325.304 424.788 325.496C424.958 325.677 425.22 325.768 425.572 325.768C425.934 325.768 426.297 325.656 426.66 325.432L427.14 326.664C426.606 327.037 425.929 327.224 425.108 327.224C424.628 327.224 424.222 327.16 423.892 327.032C423.561 326.915 423.316 326.781 423.156 326.632C422.996 326.483 422.873 326.264 422.788 325.976C422.702 325.688 422.654 325.464 422.644 325.304C422.633 325.133 422.628 324.888 422.628 324.568V320.296H421.492L421.652 319.128C422.153 319.085 422.532 318.909 422.788 318.6C423.044 318.28 423.278 317.832 423.492 317.256ZM428.739 325.208V320.776C428.739 320.605 428.707 320.488 428.643 320.424C428.589 320.349 428.488 320.307 428.339 320.296L427.667 320.248V318.952H430.371V320.152C430.563 319.736 430.861 319.395 431.267 319.128C431.672 318.851 432.136 318.712 432.659 318.712C433.192 318.712 433.699 318.829 434.179 319.064V321.448L432.691 321.56V320.824C432.691 320.611 432.637 320.477 432.531 320.424C432.413 320.371 432.269 320.344 432.099 320.344C431.672 320.344 431.32 320.499 431.043 320.808C430.776 321.107 430.643 321.491 430.643 321.96V325.672L432.035 325.736V327H427.747V325.784L428.275 325.736C428.435 325.715 428.552 325.672 428.627 325.608C428.701 325.533 428.739 325.4 428.739 325.208ZM441.025 326.696V325.48C440.439 326.312 439.575 326.728 438.433 326.728C436.78 326.728 435.953 325.805 435.953 323.96V320.744C435.953 320.456 435.82 320.307 435.553 320.296L435.041 320.264V318.952H437.857V323.544C437.857 324.109 437.937 324.536 438.097 324.824C438.257 325.112 438.588 325.256 439.089 325.256C439.591 325.256 439.991 325.101 440.289 324.792C440.599 324.483 440.753 324.109 440.753 323.672V320.776C440.753 320.595 440.721 320.472 440.657 320.408C440.604 320.333 440.503 320.296 440.353 320.296L439.841 320.264V318.952H442.657V326.696C442.657 327.987 442.343 328.931 441.713 329.528C441.095 330.125 440.151 330.424 438.881 330.424C437.623 330.424 436.641 330.248 435.937 329.896V327.672L437.457 327.544V328.312C437.457 328.6 437.591 328.792 437.857 328.888C438.124 328.995 438.492 329.048 438.961 329.048C440.337 329.048 441.025 328.264 441.025 326.696ZM454.696 319.272V325.224C454.696 325.395 454.723 325.512 454.776 325.576C454.84 325.64 454.947 325.677 455.096 325.688L455.608 325.72V327H453.064V326.072L453.016 326.056C452.483 326.824 451.752 327.208 450.824 327.208C449.736 327.208 448.931 326.861 448.408 326.168C447.886 325.475 447.624 324.525 447.624 323.32C447.624 321.869 447.976 320.739 448.68 319.928C449.384 319.117 450.44 318.712 451.848 318.712C452.755 318.712 453.704 318.899 454.696 319.272ZM452.84 324.456V320.312C452.542 320.173 452.131 320.104 451.608 320.104C450.894 320.104 450.376 320.392 450.056 320.968C449.736 321.544 449.576 322.307 449.576 323.256C449.576 324.984 450.131 325.848 451.24 325.848C451.71 325.848 452.094 325.709 452.392 325.432C452.691 325.144 452.84 324.819 452.84 324.456ZM463.81 318.712C464.268 318.712 464.706 318.776 465.122 318.904V317.288C465.122 317.053 464.983 316.925 464.706 316.904L464.018 316.856V315.592H466.994V325.32C467.004 325.565 467.138 325.688 467.394 325.688L467.954 325.72V327H465.362V326.056L465.314 326.04C464.834 326.819 464.108 327.208 463.138 327.208C461.922 327.208 461.068 326.803 460.578 325.992C460.13 325.256 459.906 324.355 459.906 323.288C459.906 321.901 460.247 320.792 460.93 319.96C461.623 319.128 462.583 318.712 463.81 318.712ZM465.122 324.504V320.36C464.738 320.189 464.332 320.104 463.906 320.104C463.202 320.104 462.684 320.387 462.354 320.952C462.034 321.517 461.874 322.237 461.874 323.112C461.874 324.904 462.45 325.8 463.602 325.8C464.039 325.8 464.402 325.677 464.69 325.432C464.978 325.176 465.122 324.867 465.122 324.504ZM471.783 318.952V325.672L472.695 325.72V327H468.887V325.784L469.415 325.736C469.725 325.704 469.879 325.533 469.879 325.224V320.776C469.879 320.595 469.847 320.472 469.783 320.408C469.73 320.344 469.629 320.312 469.479 320.312L468.919 320.28V318.952H471.783ZM469.767 317.576C469.543 317.352 469.431 317.069 469.431 316.728C469.431 316.387 469.543 316.104 469.767 315.88C469.991 315.645 470.285 315.528 470.647 315.528C471.01 315.528 471.303 315.645 471.527 315.88C471.762 316.104 471.879 316.387 471.879 316.728C471.879 317.069 471.762 317.352 471.527 317.576C471.303 317.789 471.01 317.896 470.647 317.896C470.285 317.896 469.991 317.789 469.767 317.576ZM474.63 325.208V320.296H473.254V318.952H474.63V318.344C474.63 317.299 474.87 316.547 475.35 316.088C475.798 315.651 476.454 315.432 477.318 315.432C478.182 315.432 478.95 315.619 479.622 315.992L479.158 317.272C478.646 317.005 478.166 316.872 477.718 316.872C477.27 316.872 476.96 316.984 476.79 317.208C476.619 317.421 476.534 317.752 476.534 318.2V318.952H478.902V320.296H476.534V325.656L477.878 325.72V327H473.638V325.784L474.166 325.736C474.326 325.715 474.443 325.672 474.518 325.608C474.592 325.533 474.63 325.4 474.63 325.208ZM480.552 325.208V320.296H479.176V318.952H480.552V318.344C480.552 317.299 480.792 316.547 481.272 316.088C481.72 315.651 482.376 315.432 483.24 315.432C484.104 315.432 484.872 315.619 485.544 315.992L485.08 317.272C484.568 317.005 484.088 316.872 483.64 316.872C483.192 316.872 482.882 316.984 482.712 317.208C482.541 317.421 482.456 317.752 482.456 318.2V318.952H484.824V320.296H482.456V325.656L483.8 325.72V327H479.56V325.784L480.088 325.736C480.248 325.715 480.365 325.672 480.44 325.608C480.514 325.533 480.552 325.4 480.552 325.208ZM489.482 318.712C490.282 318.712 490.916 318.909 491.386 319.304C491.855 319.688 492.09 320.232 492.09 320.936C492.09 321.405 491.988 321.821 491.786 322.184C491.583 322.536 491.332 322.813 491.034 323.016C490.735 323.219 490.372 323.384 489.946 323.512C489.231 323.725 488.426 323.832 487.53 323.832C487.562 324.397 487.738 324.856 488.058 325.208C488.378 325.549 488.868 325.72 489.53 325.72C490.191 325.72 490.852 325.485 491.514 325.016L492.122 326.312C491.908 326.504 491.546 326.701 491.034 326.904C490.532 327.107 489.956 327.208 489.306 327.208C488.004 327.208 487.05 326.851 486.442 326.136C485.834 325.411 485.53 324.419 485.53 323.16C485.53 321.901 485.876 320.845 486.57 319.992C487.263 319.139 488.234 318.712 489.482 318.712ZM488.746 322.376C489.14 322.301 489.503 322.147 489.834 321.912C490.164 321.667 490.33 321.379 490.33 321.048C490.33 320.397 490.01 320.072 489.37 320.072C488.772 320.072 488.314 320.312 487.994 320.792C487.674 321.261 487.498 321.827 487.466 322.488C487.935 322.477 488.362 322.44 488.746 322.376ZM494.208 325.208V320.776C494.208 320.605 494.176 320.488 494.112 320.424C494.058 320.349 493.957 320.307 493.808 320.296L493.136 320.248V318.952H495.84V320.152C496.032 319.736 496.33 319.395 496.736 319.128C497.141 318.851 497.605 318.712 498.128 318.712C498.661 318.712 499.168 318.829 499.648 319.064V321.448L498.16 321.56V320.824C498.16 320.611 498.106 320.477 498 320.424C497.882 320.371 497.738 320.344 497.568 320.344C497.141 320.344 496.789 320.499 496.512 320.808C496.245 321.107 496.112 321.491 496.112 321.96V325.672L497.504 325.736V327H493.215V325.784L493.743 325.736C493.904 325.715 494.021 325.672 494.096 325.608C494.17 325.533 494.208 325.4 494.208 325.208ZM504.622 318.712C505.422 318.712 506.057 318.909 506.526 319.304C506.995 319.688 507.23 320.232 507.23 320.936C507.23 321.405 507.129 321.821 506.926 322.184C506.723 322.536 506.473 322.813 506.174 323.016C505.875 323.219 505.513 323.384 505.086 323.512C504.371 323.725 503.566 323.832 502.67 323.832C502.702 324.397 502.878 324.856 503.198 325.208C503.518 325.549 504.009 325.72 504.67 325.72C505.331 325.72 505.993 325.485 506.654 325.016L507.262 326.312C507.049 326.504 506.686 326.701 506.174 326.904C505.673 327.107 505.097 327.208 504.446 327.208C503.145 327.208 502.19 326.851 501.582 326.136C500.974 325.411 500.67 324.419 500.67 323.16C500.67 321.901 501.017 320.845 501.71 319.992C502.403 319.139 503.374 318.712 504.622 318.712ZM503.886 322.376C504.281 322.301 504.643 322.147 504.974 321.912C505.305 321.667 505.47 321.379 505.47 321.048C505.47 320.397 505.15 320.072 504.51 320.072C503.913 320.072 503.454 320.312 503.134 320.792C502.814 321.261 502.638 321.827 502.606 322.488C503.075 322.477 503.502 322.44 503.886 322.376ZM508.26 320.232V318.952H510.964V319.992C511.241 319.597 511.609 319.288 512.068 319.064C512.527 318.829 513.023 318.712 513.556 318.712C514.367 318.712 514.991 318.947 515.428 319.416C515.876 319.875 516.1 320.568 516.1 321.496V325.672L517.012 325.72V327H513.204V325.784L513.732 325.736C513.892 325.715 514.009 325.672 514.084 325.608C514.159 325.533 514.196 325.4 514.196 325.208V321.912C514.196 321.325 514.105 320.893 513.924 320.616C513.743 320.328 513.396 320.184 512.884 320.184C512.383 320.184 511.983 320.344 511.684 320.664C511.385 320.984 511.236 321.363 511.236 321.8V325.672L512.148 325.72V327H508.34V325.784L508.868 325.736C509.028 325.715 509.145 325.672 509.22 325.608C509.295 325.533 509.332 325.4 509.332 325.208V320.776C509.332 320.456 509.199 320.291 508.932 320.28L508.26 320.232ZM519.085 317.256H520.125V318.952H522.253L522.093 320.296H520.125V324.504C520.125 324.973 520.211 325.304 520.381 325.496C520.552 325.677 520.813 325.768 521.165 325.768C521.528 325.768 521.891 325.656 522.253 325.432L522.733 326.664C522.2 327.037 521.523 327.224 520.701 327.224C520.221 327.224 519.816 327.16 519.485 327.032C519.155 326.915 518.909 326.781 518.749 326.632C518.589 326.483 518.467 326.264 518.381 325.976C518.296 325.688 518.248 325.464 518.237 325.304C518.227 325.133 518.221 324.888 518.221 324.568V320.296H517.085L517.245 319.128C517.747 319.085 518.125 318.909 518.381 318.6C518.637 318.28 518.872 317.832 519.085 317.256ZM452.439 342.168C452.183 342.072 451.873 342.024 451.511 342.024C451.148 342.024 450.855 342.109 450.631 342.28C450.417 342.44 450.311 342.643 450.311 342.888C450.311 343.123 450.348 343.309 450.423 343.448C450.508 343.576 450.636 343.688 450.807 343.784C451.073 343.923 451.393 344.045 451.767 344.152C452.14 344.248 452.417 344.328 452.599 344.392C452.78 344.445 453.004 344.541 453.271 344.68C453.548 344.819 453.756 344.968 453.895 345.128C454.268 345.523 454.455 346.029 454.455 346.648C454.455 347.448 454.161 348.077 453.575 348.536C452.999 348.984 452.263 349.208 451.367 349.208C450.065 349.208 449.084 349.043 448.423 348.712V346.488L449.863 346.376V347.144C449.863 347.613 450.311 347.848 451.207 347.848C452.103 347.848 452.551 347.523 452.551 346.872C452.551 346.637 452.471 346.445 452.311 346.296C452.161 346.147 452.012 346.045 451.863 345.992C451.713 345.939 451.532 345.885 451.319 345.832C451.116 345.779 450.913 345.725 450.711 345.672C450.519 345.619 450.305 345.549 450.071 345.464C449.847 345.368 449.596 345.235 449.319 345.064C448.775 344.712 448.503 344.125 448.503 343.304C448.503 342.472 448.796 341.832 449.383 341.384C449.969 340.936 450.705 340.712 451.591 340.712C452.487 340.712 453.372 340.925 454.247 341.352V343.272L452.807 343.384V342.712C452.807 342.445 452.684 342.264 452.439 342.168ZM459.482 340.712C460.282 340.712 460.916 340.909 461.386 341.304C461.855 341.688 462.09 342.232 462.09 342.936C462.09 343.405 461.988 343.821 461.786 344.184C461.583 344.536 461.332 344.813 461.034 345.016C460.735 345.219 460.372 345.384 459.946 345.512C459.231 345.725 458.426 345.832 457.53 345.832C457.562 346.397 457.738 346.856 458.058 347.208C458.378 347.549 458.868 347.72 459.53 347.72C460.191 347.72 460.852 347.485 461.514 347.016L462.122 348.312C461.908 348.504 461.546 348.701 461.034 348.904C460.532 349.107 459.956 349.208 459.306 349.208C458.004 349.208 457.05 348.851 456.442 348.136C455.834 347.411 455.53 346.419 455.53 345.16C455.53 343.901 455.876 342.845 456.57 341.992C457.263 341.139 458.234 340.712 459.482 340.712ZM458.746 344.376C459.14 344.301 459.503 344.147 459.834 343.912C460.164 343.667 460.33 343.379 460.33 343.048C460.33 342.397 460.01 342.072 459.37 342.072C458.772 342.072 458.314 342.312 457.994 342.792C457.674 343.261 457.498 343.827 457.466 344.488C457.935 344.477 458.362 344.44 458.746 344.376ZM470.4 341.272V347.224C470.4 347.395 470.426 347.512 470.48 347.576C470.544 347.64 470.65 347.677 470.8 347.688L471.312 347.72V349H468.768V348.072L468.72 348.056C468.186 348.824 467.456 349.208 466.528 349.208C465.44 349.208 464.634 348.861 464.112 348.168C463.589 347.475 463.328 346.525 463.328 345.32C463.328 343.869 463.68 342.739 464.384 341.928C465.088 341.117 466.144 340.712 467.552 340.712C468.458 340.712 469.408 340.899 470.4 341.272ZM468.544 346.456V342.312C468.245 342.173 467.834 342.104 467.312 342.104C466.597 342.104 466.08 342.392 465.76 342.968C465.44 343.544 465.28 344.307 465.28 345.256C465.28 346.984 465.834 347.848 466.944 347.848C467.413 347.848 467.797 347.709 468.096 347.432C468.394 347.144 468.544 346.819 468.544 346.456ZM473.286 347.208V342.776C473.286 342.605 473.254 342.488 473.19 342.424C473.136 342.349 473.035 342.307 472.886 342.296L472.214 342.248V340.952H474.918V342.152C475.11 341.736 475.408 341.395 475.814 341.128C476.219 340.851 476.683 340.712 477.206 340.712C477.739 340.712 478.246 340.829 478.726 341.064V343.448L477.238 343.56V342.824C477.238 342.611 477.184 342.477 477.078 342.424C476.96 342.371 476.816 342.344 476.646 342.344C476.219 342.344 475.867 342.499 475.59 342.808C475.323 343.107 475.19 343.491 475.19 343.96V347.672L476.582 347.736V349H472.294V347.784L472.822 347.736C472.982 347.715 473.099 347.672 473.174 347.608C473.248 347.533 473.286 347.4 473.286 347.208ZM481.62 344.888C481.62 345.795 481.791 346.499 482.132 347C482.474 347.501 482.964 347.752 483.604 347.752C484.255 347.752 484.895 347.523 485.524 347.064L486.212 348.296C485.455 348.915 484.506 349.224 483.364 349.224C482.223 349.224 481.322 348.867 480.66 348.152C480.01 347.427 479.684 346.36 479.684 344.952C479.684 343.544 480.058 342.488 480.804 341.784C481.562 341.069 482.41 340.712 483.348 340.712C484.298 340.712 485.178 340.931 485.988 341.368V343.448L484.516 343.56V342.792C484.516 342.504 484.41 342.328 484.196 342.264C483.994 342.189 483.78 342.152 483.556 342.152C482.266 342.152 481.62 343.064 481.62 344.888ZM488.192 347.208V339.416C488.192 339.245 488.16 339.128 488.096 339.064C488.042 339 487.941 338.963 487.792 338.952L487.232 338.92V337.592H490.08V341.896C490.634 341.107 491.413 340.712 492.416 340.712C493.226 340.712 493.85 340.947 494.288 341.416C494.736 341.875 494.96 342.568 494.96 343.496V347.672L495.872 347.72V349H492.064V347.784L492.592 347.736C492.752 347.715 492.869 347.672 492.944 347.608C493.018 347.533 493.056 347.4 493.056 347.208V343.912C493.056 343.357 492.965 342.931 492.784 342.632C492.613 342.333 492.272 342.184 491.76 342.184C491.258 342.184 490.853 342.344 490.544 342.664C490.245 342.973 490.096 343.352 490.096 343.8V347.672L491.008 347.72V349H487.2V347.784L487.728 347.736C487.888 347.715 488.005 347.672 488.08 347.608C488.154 347.533 488.192 347.4 488.192 347.208Z" fill="black"/>
</g>
<defs>
<linearGradient id="paint0_linear_1164_1732" x1="450" y1="0" x2="450" y2="600" gradientUnits="userSpaceOnUse">
<stop stop-color="#1D9DBE"/>
<stop offset="1" stop-color="#F7C59F"/>
</linearGradient>
<linearGradient id="paint1_linear_1164_1732" x1="148" y1="75" x2="179.5" y2="57.5" gradientUnits="userSpaceOnUse">
<stop offset="0.277153" stop-color="#2A5C68"/>
<stop offset="1" stop-color="#2B1E36"/>
</linearGradient>
<clipPath id="clip0_1164_1732">
<rect width="900" height="600" fill="white"/>
</clipPath>
<clipPath id="clip1_1164_1732">
<rect width="3.59929" height="3.59929" fill="white" transform="translate(150.596 54.8643)"/>
</clipPath>
</defs>
</svg>
