<svg width="900" height="600" viewBox="0 0 900 600" fill="none" xmlns="http://www.w3.org/2000/svg">
<g clip-path="url(#clip0_1164_1732)">
<path d="M900 0H0V600H900V0Z" fill="url(#paint0_linear_1164_1732)"/>
<path d="M0 360L21.5 363C43 366 86 372 128.8 379.2C171.7 386.3 214.3 394.7 257.2 398.7C300 402.7 343 402.3 385.8 404.7C428.7 407 471.3 412 514.2 406C557 400 600 383 642.8 387.3C685.7 391.7 728.3 417.3 771.2 417.3C814 417.3 857 391.7 878.5 378.8L900 366V601H878.5C857 601 814 601 771.2 601C728.3 601 685.7 601 642.8 601C600 601 557 601 514.2 601C471.3 601 428.7 601 385.8 601C343 601 300 601 257.2 601C214.3 601 171.7 601 128.8 601C86 601 43 601 21.5 601H0V360Z" fill="#BE8961"/>
<path d="M0 407L21.5 413.7C43 420.3 86 433.7 128.8 438.2C171.7 442.7 214.3 438.3 257.2 438.2C300 438 343 442 385.8 436.2C428.7 430.3 471.3 414.7 514.2 413.2C557 411.7 600 424.3 642.8 426C685.7 427.7 728.3 418.3 771.2 421C814 423.7 857 438.3 878.5 445.7L900 453V601H878.5C857 601 814 601 771.2 601C728.3 601 685.7 601 642.8 601C600 601 557 601 514.2 601C471.3 601 428.7 601 385.8 601C343 601 300 601 257.2 601C214.3 601 171.7 601 128.8 601C86 601 43 601 21.5 601H0V407Z" fill="#FFA968"/>
<path d="M0 484L21.5 484.7C43 485.3 86 486.7 128.8 485C171.7 483.3 214.3 478.7 257.2 470.3C300 462 343 450 385.8 454.7C428.7 459.3 471.3 480.7 514.2 482.3C557 484 600 466 642.8 455.8C685.7 445.7 728.3 443.3 771.2 451.8C814 460.3 857 479.7 878.5 489.3L900 499V601H878.5C857 601 814 601 771.2 601C728.3 601 685.7 601 642.8 601C600 601 557 601 514.2 601C471.3 601 428.7 601 385.8 601C343 601 300 601 257.2 601C214.3 601 171.7 601 128.8 601C86 601 43 601 21.5 601H0V484Z" fill="#2A5C68"/>
<path d="M0 510L21.5 510.8C43 511.7 86 513.3 128.8 516.2C171.7 519 214.3 523 257.2 519.3C300 515.7 343 504.3 385.8 504.7C428.7 505 471.3 517 514.2 521.5C557 526 600 523 642.8 524.2C685.7 525.3 728.3 530.7 771.2 528.8C814 527 857 518 878.5 513.5L900 509V601H878.5C857 601 814 601 771.2 601C728.3 601 685.7 601 642.8 601C600 601 557 601 514.2 601C471.3 601 428.7 601 385.8 601C343 601 300 601 257.2 601C214.3 601 171.7 601 128.8 601C86 601 43 601 21.5 601H0V510Z" fill="#F6A478"/>
<path d="M0 574L21.5 568.2C43 562.3 86 550.7 128.8 548.2C171.7 545.7 214.3 552.3 257.2 554.5C300 556.7 343 554.3 385.8 556.2C428.7 558 471.3 564 514.2 565.7C557 567.3 600 564.7 642.8 564.2C685.7 563.7 728.3 565.3 771.2 565.5C814 565.7 857 564.3 878.5 563.7L900 563V601H878.5C857 601 814 601 771.2 601C728.3 601 685.7 601 642.8 601C600 601 557 601 514.2 601C471.3 601 428.7 601 385.8 601C343 601 300 601 257.2 601C214.3 601 171.7 601 128.8 601C86 601 43 601 21.5 601H0V574Z" fill="#F7C59F"/>
<path d="M761.841 481.887C801.758 487.982 804.511 494.505 807.256 499.484C808.446 500.655 812.115 504.079 813.402 500.784C814.179 498.796 813.304 493.079 797.055 486.49C790.742 484.645 743.82 479.136 761.841 481.887Z" fill="white"/>
<path d="M816.671 522.519C818.921 540.794 816.364 542.745 814.493 544.518C814.121 545.175 813.055 547.179 814.678 547.373C815.659 547.49 818.09 546.457 819 538.553C819.035 535.563 815.656 514.269 816.671 522.519Z" fill="white"/>
<path d="M695.191 504.915C735.89 503.279 728.769 504.915 734.304 504.915C739.84 504.915 742.938 508.759 741.468 504.915C739.997 501.071 733.328 502.593 731.006 502.593C724.467 501.85 676.816 505.653 695.191 504.915Z" fill="white"/>
<path d="M807.112 515.882C805.968 511.67 804.077 508.029 801.641 504.96M801.641 504.96C786.131 485.424 748.491 489.065 740.443 515.882C744.976 533.82 759.719 564.59 782.425 544.164C805.131 523.737 796.518 507.395 789.373 501.778C780.738 501.335 768.694 502.233 760.029 506.285M801.641 504.96C817.162 508.143 801.051 544.164 792.181 555.52C783.312 566.876 768.455 565.574 752.121 532.301C745.37 518.55 750.769 510.616 760.029 506.285M780.06 495.34C761.286 508.408 728.483 538.016 747.464 551.903C771.19 569.263 765.129 522.655 760.029 506.285M766.09 498.089C734.899 495.34 723.635 554.073 747.464 561.017C774.442 573.819 809.209 545.542 801.641 527.311C801.74 513.005 795.788 486.584 771.19 495.34" stroke="#562E2E" stroke-width="3"/>
<path d="M795.09 557.431C798.791 555.007 801.698 552.077 803.875 548.827M803.875 548.827C817.734 528.136 802.016 494.47 773.483 495.71C757.611 505.72 732.644 529.341 759.749 543.742C786.854 558.143 799.86 544.873 802.976 536.438C800.606 528.301 795.834 517.441 789.109 510.733M803.875 548.827C805.828 564.227 765.785 560.986 751.933 556.455C738.08 551.924 734.524 537.748 761.395 511.843C772.501 501.136 781.921 503.563 789.109 510.733M806.181 525.73C787.464 512.584 748.211 491.811 740.937 513.884C731.844 541.475 774.937 520.76 789.109 510.733M798.996 513.688C791.545 483.921 731.116 492.527 732.127 516.838C728.493 545.963 767.097 568.985 782.269 556.07C796.13 551.526 819.742 537.453 803.306 517.518" stroke="#562E2E" stroke-width="3"/>
<path d="M274.419 176V172.112L276.147 171.968C276.979 171.904 277.395 171.456 277.395 170.624V148.304L274.659 148.16V144.08H283.299L296.883 166.112H296.979V148.304L293.811 148.16V144.08H305.523V147.968L303.795 148.112C303.027 148.176 302.643 148.672 302.643 149.6V176H297.027L283.155 153.632H283.059V171.776L286.179 171.92V176H274.419ZM318.413 172.496C321.901 172.496 323.645 169.68 323.645 164.048C323.645 161.2 323.245 159.04 322.445 157.568C321.677 156.096 320.365 155.36 318.509 155.36C316.685 155.36 315.341 156.064 314.477 157.472C313.613 158.88 313.181 160.8 313.181 163.232C313.181 167.744 314.013 170.576 315.677 171.728C316.413 172.24 317.325 172.496 318.413 172.496ZM307.373 163.904C307.373 161.536 307.725 159.488 308.429 157.76C309.133 156 310.077 154.656 311.261 153.728C313.533 152 316.045 151.136 318.797 151.136C320.717 151.136 322.333 151.456 323.645 152.096C324.989 152.704 326.029 153.424 326.765 154.256C327.533 155.056 328.173 156.24 328.685 157.808C329.229 159.344 329.501 161.168 329.501 163.28C329.501 167.696 328.429 171.04 326.285 173.312C324.141 175.584 321.389 176.72 318.029 176.72C314.701 176.72 312.093 175.648 310.205 173.504C308.317 171.328 307.373 168.128 307.373 163.904ZM356.934 151.856H367.062V155.6L365.574 155.696C364.934 155.76 364.502 156.144 364.278 156.848L358.086 176H350.742L344.022 156.896C343.862 156.448 343.686 156.144 343.494 155.984C343.334 155.824 343.046 155.728 342.63 155.696L341.238 155.6V151.856H352.518V155.696L349.59 155.84L354.534 171.632H354.63L359.43 155.84L356.934 155.696V151.856ZM381.155 151.136C383.555 151.136 385.459 151.728 386.867 152.912C388.275 154.064 388.979 155.696 388.979 157.808C388.979 159.216 388.675 160.464 388.067 161.552C387.459 162.608 386.707 163.44 385.811 164.048C384.915 164.656 383.827 165.152 382.547 165.536C380.403 166.176 377.987 166.496 375.299 166.496C375.395 168.192 375.923 169.568 376.883 170.624C377.843 171.648 379.315 172.16 381.299 172.16C383.283 172.16 385.267 171.456 387.251 170.048L389.075 173.936C388.435 174.512 387.347 175.104 385.811 175.712C384.307 176.32 382.579 176.624 380.627 176.624C376.723 176.624 373.859 175.552 372.035 173.408C370.211 171.232 369.299 168.256 369.299 164.48C369.299 160.704 370.339 157.536 372.419 154.976C374.499 152.416 377.411 151.136 381.155 151.136ZM378.947 162.128C380.131 161.904 381.219 161.44 382.211 160.736C383.203 160 383.699 159.136 383.699 158.144C383.699 156.192 382.739 155.216 380.819 155.216C379.027 155.216 377.651 155.936 376.691 157.376C375.731 158.784 375.203 160.48 375.107 162.464C376.515 162.432 377.795 162.32 378.947 162.128ZM392.069 155.696V151.856H400.181V154.976C401.013 153.792 402.117 152.864 403.493 152.192C404.869 151.488 406.357 151.136 407.957 151.136C410.389 151.136 412.261 151.84 413.573 153.248C414.917 154.624 415.589 156.704 415.589 159.488V172.016L418.325 172.16V176H406.901V172.352L408.485 172.208C408.965 172.144 409.317 172.016 409.541 171.824C409.765 171.6 409.877 171.2 409.877 170.624V160.736C409.877 158.976 409.605 157.68 409.061 156.848C408.517 155.984 407.477 155.552 405.941 155.552C404.437 155.552 403.237 156.032 402.341 156.992C401.445 157.952 400.997 159.088 400.997 160.4V172.016L403.733 172.16V176H392.309V172.352L393.893 172.208C394.373 172.144 394.725 172.016 394.949 171.824C395.173 171.6 395.285 171.2 395.285 170.624V157.328C395.285 156.368 394.885 155.872 394.085 155.84L392.069 155.696ZM444.891 172.208V176H437.115V172.88C435.355 175.376 432.763 176.624 429.339 176.624C424.379 176.624 421.899 173.856 421.899 168.32V157.232C421.899 156.368 421.499 155.92 420.699 155.888L419.163 155.792V151.856H427.611V167.072C427.611 168.768 427.851 170.048 428.331 170.912C428.811 171.776 429.803 172.208 431.307 172.208C432.811 172.208 434.011 171.744 434.907 170.816C435.835 169.888 436.299 168.768 436.299 167.456V157.328C436.299 156.816 436.203 156.464 436.011 156.272C435.851 156.048 435.547 155.92 435.099 155.888L433.563 155.792V151.856H442.011V170.672C442.011 171.184 442.091 171.536 442.251 171.728C442.411 171.888 442.731 172 443.211 172.064L444.891 172.208ZM459.859 151.136C462.259 151.136 464.163 151.728 465.571 152.912C466.979 154.064 467.683 155.696 467.683 157.808C467.683 159.216 467.379 160.464 466.771 161.552C466.163 162.608 465.411 163.44 464.515 164.048C463.619 164.656 462.531 165.152 461.251 165.536C459.107 166.176 456.691 166.496 454.003 166.496C454.099 168.192 454.627 169.568 455.587 170.624C456.547 171.648 458.019 172.16 460.003 172.16C461.987 172.16 463.971 171.456 465.955 170.048L467.779 173.936C467.139 174.512 466.051 175.104 464.515 175.712C463.011 176.32 461.283 176.624 459.331 176.624C455.427 176.624 452.563 175.552 450.739 173.408C448.915 171.232 448.003 168.256 448.003 164.48C448.003 160.704 449.043 157.536 451.123 154.976C453.203 152.416 456.115 151.136 459.859 151.136ZM457.651 162.128C458.835 161.904 459.923 161.44 460.915 160.736C461.907 160 462.403 159.136 462.403 158.144C462.403 156.192 461.443 155.216 459.523 155.216C457.731 155.216 456.355 155.936 455.395 157.376C454.435 158.784 453.907 160.48 453.811 162.464C455.219 162.432 456.499 162.32 457.651 162.128ZM483.637 155.504C482.869 155.216 481.941 155.072 480.853 155.072C479.765 155.072 478.885 155.328 478.213 155.84C477.573 156.32 477.253 156.928 477.253 157.664C477.253 158.368 477.365 158.928 477.589 159.344C477.845 159.728 478.229 160.064 478.741 160.352C479.541 160.768 480.501 161.136 481.621 161.456C482.741 161.744 483.573 161.984 484.117 162.176C484.661 162.336 485.333 162.624 486.133 163.04C486.965 163.456 487.589 163.904 488.005 164.384C489.125 165.568 489.685 167.088 489.685 168.944C489.685 171.344 488.805 173.232 487.045 174.608C485.317 175.952 483.109 176.624 480.421 176.624C476.517 176.624 473.573 176.128 471.589 175.136V168.464L475.909 168.128V170.432C475.909 171.84 477.253 172.544 479.941 172.544C482.629 172.544 483.973 171.568 483.973 169.616C483.973 168.912 483.733 168.336 483.253 167.888C482.805 167.44 482.357 167.136 481.909 166.976C481.461 166.816 480.917 166.656 480.277 166.496C479.669 166.336 479.061 166.176 478.453 166.016C477.877 165.856 477.237 165.648 476.533 165.392C475.861 165.104 475.109 164.704 474.277 164.192C472.645 163.136 471.829 161.376 471.829 158.912C471.829 156.416 472.709 154.496 474.469 153.152C476.229 151.808 478.437 151.136 481.093 151.136C483.781 151.136 486.437 151.776 489.061 153.056V158.816L484.741 159.152V157.136C484.741 156.336 484.373 155.792 483.637 155.504ZM505.35 170.624V155.888H501.222V151.856H505.35V150.032C505.35 146.896 506.07 144.64 507.51 143.264C508.854 141.952 510.822 141.296 513.414 141.296C516.006 141.296 518.31 141.856 520.326 142.976L518.934 146.816C517.398 146.016 515.958 145.616 514.614 145.616C513.27 145.616 512.342 145.952 511.83 146.624C511.318 147.264 511.062 148.256 511.062 149.6V151.856H518.166V155.888H511.062V171.968L515.094 172.16V176H502.374V172.352L503.958 172.208C504.438 172.144 504.79 172.016 505.014 171.824C505.238 171.6 505.35 171.2 505.35 170.624ZM530.663 172.496C534.151 172.496 535.895 169.68 535.895 164.048C535.895 161.2 535.495 159.04 534.695 157.568C533.927 156.096 532.615 155.36 530.759 155.36C528.935 155.36 527.591 156.064 526.727 157.472C525.863 158.88 525.431 160.8 525.431 163.232C525.431 167.744 526.263 170.576 527.927 171.728C528.663 172.24 529.575 172.496 530.663 172.496ZM519.623 163.904C519.623 161.536 519.975 159.488 520.679 157.76C521.383 156 522.327 154.656 523.511 153.728C525.783 152 528.295 151.136 531.047 151.136C532.967 151.136 534.583 151.456 535.895 152.096C537.239 152.704 538.279 153.424 539.015 154.256C539.783 155.056 540.423 156.24 540.935 157.808C541.479 159.344 541.751 161.168 541.751 163.28C541.751 167.696 540.679 171.04 538.535 173.312C536.391 175.584 533.639 176.72 530.279 176.72C526.951 176.72 524.343 175.648 522.455 173.504C520.567 171.328 519.623 168.128 519.623 163.904ZM569.719 172.208V176H561.943V172.88C560.183 175.376 557.591 176.624 554.167 176.624C549.207 176.624 546.727 173.856 546.727 168.32V157.232C546.727 156.368 546.327 155.92 545.527 155.888L543.991 155.792V151.856H552.439V167.072C552.439 168.768 552.679 170.048 553.159 170.912C553.639 171.776 554.631 172.208 556.135 172.208C557.639 172.208 558.839 171.744 559.735 170.816C560.663 169.888 561.127 168.768 561.127 167.456V157.328C561.127 156.816 561.031 156.464 560.839 156.272C560.679 156.048 560.375 155.92 559.927 155.888L558.391 155.792V151.856H566.839V170.672C566.839 171.184 566.919 171.536 567.079 171.728C567.239 171.888 567.559 172 568.039 172.064L569.719 172.208ZM572.351 155.696V151.856H580.463V154.976C581.295 153.792 582.399 152.864 583.775 152.192C585.151 151.488 586.639 151.136 588.239 151.136C590.671 151.136 592.543 151.84 593.855 153.248C595.199 154.624 595.871 156.704 595.871 159.488V172.016L598.607 172.16V176H587.183V172.352L588.767 172.208C589.247 172.144 589.599 172.016 589.823 171.824C590.047 171.6 590.159 171.2 590.159 170.624V160.736C590.159 158.976 589.887 157.68 589.343 156.848C588.799 155.984 587.759 155.552 586.223 155.552C584.719 155.552 583.519 156.032 582.623 156.992C581.727 157.952 581.279 159.088 581.279 160.4V172.016L584.015 172.16V176H572.591V172.352L574.175 172.208C574.655 172.144 575.007 172.016 575.231 171.824C575.455 171.6 575.567 171.2 575.567 170.624V157.328C575.567 156.368 575.167 155.872 574.367 155.84L572.351 155.696ZM613.468 151.136C614.844 151.136 616.156 151.328 617.404 151.712V146.864C617.404 146.16 616.988 145.776 616.156 145.712L614.092 145.568V141.776H623.02V170.96C623.052 171.696 623.452 172.064 624.22 172.064L625.9 172.16V176H618.124V173.168L617.98 173.12C616.54 175.456 614.364 176.624 611.452 176.624C607.804 176.624 605.244 175.408 603.772 172.976C602.428 170.768 601.756 168.064 601.756 164.864C601.756 160.704 602.78 157.376 604.828 154.88C606.908 152.384 609.788 151.136 613.468 151.136ZM617.404 168.512V156.08C616.252 155.568 615.036 155.312 613.756 155.312C611.644 155.312 610.092 156.16 609.1 157.856C608.14 159.552 607.66 161.712 607.66 164.336C607.66 169.712 609.388 172.4 612.844 172.4C614.156 172.4 615.244 172.032 616.108 171.296C616.972 170.528 617.404 169.6 617.404 168.512Z" fill="#2B1E36"/>
<path d="M259.343 558.808C235.421 560.762 236.539 563.16 235.643 591.831L234.953 613.918L219.458 613.434C219.458 613.434 223.397 583.102 213.857 573.143C205.474 564.392 199.055 569.585 189.441 562.251C179.827 554.916 188.664 520.303 191.005 512.216C193.345 504.13 204.423 502.788 205.904 512.682C207.384 522.576 199.662 540.623 204.762 549.224C209.862 557.824 217.723 554.412 221.448 549.745C225.173 545.079 223.17 494.651 228.692 489.759C234.214 484.867 239.747 485.978 241.803 490.169C243.859 494.36 239.923 550.323 239.923 550.323C259.589 550.937 250.504 517.171 260.591 518.893C270.678 520.615 270.707 557.88 259.343 558.808Z" fill="#0B1D2B"/>
<path d="M28.3906 482.479C80.2118 492.979 77.1416 497.934 71.6389 560.885L67.3999 609.38L101.42 612.353C101.42 612.353 100.698 544.978 124.159 525.676C144.775 508.715 157.465 521.746 180.403 508.205C203.342 494.663 193.021 416.647 190.006 398.349C186.991 380.051 163.108 374.232 157.294 395.49C151.481 416.747 163.676 458.236 150.281 475.721C136.886 493.207 120.577 483.697 113.644 472.519C106.71 461.341 124.217 351.554 113.412 339.416C102.607 327.278 90.2148 328.267 84.6258 336.9C79.0368 345.532 73.0809 468.973 73.0809 468.973C29.9012 465.198 58.5651 393.7 36.0513 394.842C13.5375 395.983 3.77562 477.492 28.3906 482.479Z" fill="#0B1D2B"/>
<path d="M584.547 398C585.081 398.036 585.658 398.218 586.122 398.482C586.37 398.255 586.755 397.989 587.026 398.196C587.612 398.639 587.139 399.169 586.708 399.506C586.45 401.187 585.737 403.873 587.167 404.473C589.412 405.321 589.816 398.433 592.975 398.517C594.869 398.568 594.034 401.313 595.909 401.407C597.292 401.478 597.189 398.852 598.342 398.812C599.556 398.77 600.434 399.698 601.047 402.889C602.249 402.884 602.722 403.831 603.27 405.664C603.818 407.492 603.411 411.082 603.214 413.276L602.845 409.7C602.731 410.262 602.555 410.829 602.287 411.42C602.103 412.296 602.032 413.173 602.014 414.045C602.399 414.523 602.427 415.273 602.034 415.709C602.077 416.965 602.159 418.217 602.113 419.473C600.496 419.496 599.017 419.426 597.447 419.473C597.362 418.915 598.145 418.517 599.055 418.053C599.041 417.41 599.045 416.623 599.055 415.826C598.642 415.348 598.633 414.509 599.064 414.101C599.059 413.103 599.026 412.292 598.909 412.043C598.534 411.242 597.944 410.548 597.545 409.831C596.2 410.079 594.747 409.967 593.237 409.61L593.205 413.618C593.566 414.148 593.58 414.917 593.191 415.39C592.97 416.75 593.162 418.114 593.153 419.473H590.434C590.326 418.77 591.489 418.39 592.056 418.062C592.056 417.026 592.239 416.243 592.075 415.235C591.841 414.771 591.826 414.228 592.056 413.792C592.014 412.245 591.901 410.698 591.555 409.151C591.48 409.123 591.184 408.978 591.119 408.903L590.608 413.515C590.87 414.073 590.814 414.795 590.42 415.235C590.111 416.646 590.209 418.025 590.05 419.435L587.181 419.473C587.167 418.896 588.545 418.535 589.07 418.278C589.37 417.275 589.337 416.257 589.384 415.235C589.009 414.668 589.028 413.881 589.436 413.384C589.412 411.589 589.178 409.784 588.573 408.012C583.576 407.735 584.064 404.637 583.919 401.768C583.853 400.491 581.317 401.848 581.106 401.224C580.994 400.9 580.937 400.573 581.106 400.2C581.509 399.296 582.226 399.248 582.826 399.233C583.403 398.888 583.886 398.016 584.491 398H584.547ZM584.233 398.918C584.003 399.042 584.055 399.268 584.106 399.392C584.416 399.484 584.87 399.341 585.081 399.177C584.898 399.036 584.509 398.924 584.233 398.918ZM600.494 410.909C600.351 411.275 600.225 411.64 600.149 411.996C599.998 412.714 599.919 413.435 599.881 414.162C600.232 414.645 600.246 415.385 599.853 415.803C599.865 416.815 599.914 417.828 599.925 418.835C600.137 418.484 600.53 418.179 601.094 418.034C601.086 417.359 601.114 416.515 601.144 415.662C600.82 415.184 600.816 414.462 601.196 414.054C601.228 412.789 601.212 411.739 601.019 411.518C600.834 411.307 600.66 411.106 600.494 410.909Z" fill="black"/>
<path d="M173.829 40.4698C170.564 36.585 133.855 57.9796 132.616 61.0762L152.097 86.9751C152.097 86.9751 174.505 77.1223 173.829 73.5752C173.153 70.0282 156.826 81.4575 155.587 77.629C154.349 73.8004 186.891 62.3149 182.612 57.9796C178.333 53.6444 161.161 69.2963 159.078 65.4678C156.995 61.6393 173.21 58.3175 170.901 53.9822C168.593 49.647 155.193 61.6393 152.716 57.9796C150.239 54.32 179.035 46.663 173.829 40.4698Z" fill="url(#paint1_linear_1164_1732)"/>
<path d="M165.893 70.3111C165.893 80.4987 157.634 88.7574 147.446 88.7574C137.259 88.7574 129 80.4987 129 70.3111C129 60.1235 137.259 51.8647 147.446 51.8647C157.634 51.8647 165.893 60.1235 165.893 70.3111Z" fill="#D8D8D8"/>
<path d="M153.939 74.2957C153.349 76.952 148.369 82.9655 143.019 86.9868C139.387 86.2656 136.4 83.8997 134.718 82.117C136.12 81.3422 145.205 77.8031 147.483 74.1113C149.329 71.1208 140.363 70.1171 147.188 66.5114C151.837 64.0556 157.002 62.785 162.425 61.3462L161.798 62.1947C161.798 62.1947 152.685 65.7366 150.804 68.7987C150.037 70.1269 154.8 70.422 153.939 74.2957Z" fill="#424242"/>
<path d="M150.914 72.8569L150.324 72.9675C150.693 71.6763 146.672 69.5734 147.041 68.7249C147.151 68.2453 150.103 65.4045 161.982 61.6784C153.534 64.9249 148.553 67.1016 147.557 68.7249C147.257 69.5734 151.136 71.2705 150.914 72.8569Z" fill="#D9D9D9" fill-opacity="0.53"/>
<path d="M154.235 71.3074C154.972 72.4142 154.965 73.5209 154.53 74.8491C153.903 77.0626 152.648 78.4277 150.619 80.8257C148.549 83.5807 143.831 87.2819 143.831 87.2819C150.545 88.5732 157.998 86.2858 162.425 78.9811C165.155 74.3326 165.598 68.3191 163.052 62.7852C162.794 62.8221 153.607 66.3269 151.689 68.7249C151.209 69.6103 153.017 69.7579 154.235 71.3074Z" fill="#A03F03"/>
<path d="M143.831 87.2819C150.545 88.5732 157.998 86.2858 162.425 78.9811C164.194 75.9683 165.003 72.3822 164.66 68.7249C161.724 73.2258 158.367 70.8647 154.822 73.4472C154.794 73.8914 154.692 74.3549 154.53 74.8491C153.903 77.0626 152.648 78.4277 150.619 80.8257C148.549 83.5807 143.831 87.2819 143.831 87.2819Z" fill="#A0510C"/>
<path d="M143.831 87.2819C150.545 88.5732 157.998 86.2858 162.425 78.9811C163.319 77.5054 163.79 76.2141 164.122 74.9598C159.695 79.4238 156.891 77.2102 152.171 78.9811C151.714 79.541 151.198 80.1412 150.619 80.8257C148.549 83.5807 143.831 87.2819 143.831 87.2819Z" fill="#824B11"/>
<path d="M143.093 77.1364C140.031 78.9442 136.932 80.3092 134.202 81.5267C130.918 77.5423 130.107 73.5948 130.107 70.9386C130.107 67.36 130.838 64.593 132.136 62.1582C134.968 56.8455 140.621 53.0228 147.299 52.9718C154.124 52.9348 158.514 56.5872 160.728 59.2066C161.023 60.4241 160.469 60.9406 160.469 60.9406L160.396 60.1658C160.064 58.5425 158.44 57.4358 156.817 57.6571C155.009 57.8416 153.054 60.0551 154.493 62.6376C151.984 63.523 149.586 64.3716 145.675 66.5851C144.901 67.0237 143.831 68.1346 143.831 68.8725C143.646 70.7171 146.635 71.8977 146.782 73.0783C147.004 74.1481 146.155 74.9967 143.093 77.1364Z" fill="#133455"/>
<path d="M143.093 77.1364C140.031 78.9442 136.932 80.3092 134.202 81.5267C130.918 77.5423 130.107 73.5948 130.107 70.9386C130.107 67.36 130.838 64.593 132.136 62.1582C134.736 57.2818 139.712 53.6606 145.675 53.0594C145.934 58.6532 151.652 60.2027 151.652 63.6839C149.988 64.3444 148.13 65.196 145.675 66.5851C144.901 67.0237 143.831 68.1346 143.831 68.8725C143.646 70.7171 146.635 71.8977 146.782 73.0783C147.004 74.1481 146.155 74.9967 143.093 77.1364Z" fill="#A03F03"/>
<path d="M143.093 77.1364C140.031 78.9442 136.932 80.3092 134.202 81.5267C130.918 77.5423 130.107 73.5948 130.107 70.9386C130.107 67.36 130.838 64.593 132.136 62.1582C133.35 59.8814 135.082 57.8783 137.19 56.3284C137.965 60.0552 145.27 60.7192 145.675 66.5851C144.901 67.0237 143.831 68.1346 143.831 68.8725C143.646 70.7171 146.635 71.8977 146.782 73.0783C147.004 74.1481 146.155 74.9967 143.093 77.1364Z" fill="#A0510C"/>
<path d="M143.093 77.1364C140.031 78.9442 136.932 80.3092 134.202 81.5267C130.918 77.5423 130.107 73.5948 130.107 70.9386C130.107 68.0793 130.573 65.7382 131.423 63.6706C135.124 68.2084 141.175 64.4823 143.831 68.8725C143.646 70.7171 146.635 71.8977 146.782 73.0783C147.004 74.1481 146.155 74.9967 143.093 77.1364Z" fill="#824B11"/>
<g clip-path="url(#clip1_1164_1732)">
<path d="M153.567 55.0142L153.37 55.4453L152.94 55.6413L153.37 55.8389L153.567 56.2685L153.763 55.8389L154.194 55.6413L153.763 55.4453M151.999 55.4845L151.607 56.3469L150.745 56.7388L151.607 57.1308L151.999 57.9931L152.391 57.1308L153.254 56.7388L152.391 56.3469M153.567 57.2092L153.37 57.6388L152.94 57.8363L153.37 58.0323L153.567 58.4635L153.763 58.0323L154.194 57.8363L153.763 57.6388" fill="#D8D8D8"/>
</g>
<ellipse cx="475.5" cy="328.5" rx="102.5" ry="42.5" fill="#D9D9D9"/>
<path d="M578.763 398.966L526.168 356.506L546.845 339.382L578.763 398.966Z" fill="#D9D9D9"/>
<path d="M419.957 311.128V303.768L419.045 303.72V302.36H422.917V303.656L422.389 303.704C422.08 303.736 421.925 303.907 421.925 304.216V311.592L422.837 311.64V313H418.965V311.704L419.493 311.656C419.653 311.635 419.77 311.592 419.845 311.528C419.92 311.453 419.957 311.32 419.957 311.128ZM425.663 303.256H426.703V304.952H428.831L428.671 306.296H426.703V310.504C426.703 310.973 426.789 311.304 426.959 311.496C427.13 311.677 427.391 311.768 427.743 311.768C428.106 311.768 428.469 311.656 428.831 311.432L429.311 312.664C428.778 313.037 428.101 313.224 427.279 313.224C426.799 313.224 426.394 313.16 426.063 313.032C425.733 312.915 425.487 312.781 425.327 312.632C425.167 312.483 425.045 312.264 424.959 311.976C424.874 311.688 424.826 311.464 424.815 311.304C424.805 311.133 424.799 310.888 424.799 310.568V306.296H423.663L423.823 305.128C424.325 305.085 424.703 304.909 424.959 304.6C425.215 304.28 425.45 303.832 425.663 303.256ZM429.887 305.032L430.815 301.256C431.465 301.331 431.956 301.453 432.287 301.624C432.489 301.731 432.591 301.896 432.591 302.12C432.591 302.344 432.532 302.557 432.415 302.76L430.895 305.4L429.887 305.032ZM436.22 306.168C435.964 306.072 435.655 306.024 435.292 306.024C434.929 306.024 434.636 306.109 434.412 306.28C434.199 306.44 434.092 306.643 434.092 306.888C434.092 307.123 434.129 307.309 434.204 307.448C434.289 307.576 434.417 307.688 434.588 307.784C434.855 307.923 435.175 308.045 435.548 308.152C435.921 308.248 436.199 308.328 436.38 308.392C436.561 308.445 436.785 308.541 437.052 308.68C437.329 308.819 437.537 308.968 437.676 309.128C438.049 309.523 438.236 310.029 438.236 310.648C438.236 311.448 437.943 312.077 437.356 312.536C436.78 312.984 436.044 313.208 435.148 313.208C433.847 313.208 432.865 313.043 432.204 312.712V310.488L433.644 310.376V311.144C433.644 311.613 434.092 311.848 434.988 311.848C435.884 311.848 436.332 311.523 436.332 310.872C436.332 310.637 436.252 310.445 436.092 310.296C435.943 310.147 435.793 310.045 435.644 309.992C435.495 309.939 435.313 309.885 435.1 309.832C434.897 309.779 434.695 309.725 434.492 309.672C434.3 309.619 434.087 309.549 433.852 309.464C433.628 309.368 433.377 309.235 433.1 309.064C432.556 308.712 432.284 308.125 432.284 307.304C432.284 306.472 432.577 305.832 433.164 305.384C433.751 304.936 434.487 304.712 435.372 304.712C436.268 304.712 437.153 304.925 438.028 305.352V307.272L436.588 307.384V306.712C436.588 306.445 436.465 306.264 436.22 306.168ZM446.466 304.712C446.925 304.712 447.362 304.776 447.778 304.904V303.288C447.778 303.053 447.639 302.925 447.362 302.904L446.674 302.856V301.592H449.65V311.32C449.661 311.565 449.794 311.688 450.05 311.688L450.61 311.72V313H448.018V312.056L447.97 312.04C447.49 312.819 446.765 313.208 445.794 313.208C444.578 313.208 443.725 312.803 443.234 311.992C442.786 311.256 442.562 310.355 442.562 309.288C442.562 307.901 442.903 306.792 443.586 305.96C444.279 305.128 445.239 304.712 446.466 304.712ZM447.778 310.504V306.36C447.394 306.189 446.989 306.104 446.562 306.104C445.858 306.104 445.341 306.387 445.01 306.952C444.69 307.517 444.53 308.237 444.53 309.112C444.53 310.904 445.106 311.8 446.258 311.8C446.695 311.8 447.058 311.677 447.346 311.432C447.634 311.176 447.778 310.867 447.778 310.504ZM452.536 311.208V306.776C452.536 306.605 452.504 306.488 452.44 306.424C452.386 306.349 452.285 306.307 452.136 306.296L451.464 306.248V304.952H454.168V306.152C454.36 305.736 454.658 305.395 455.064 305.128C455.469 304.851 455.933 304.712 456.456 304.712C456.989 304.712 457.496 304.829 457.976 305.064V307.448L456.488 307.56V306.824C456.488 306.611 456.434 306.477 456.328 306.424C456.21 306.371 456.066 306.344 455.896 306.344C455.469 306.344 455.117 306.499 454.84 306.808C454.573 307.107 454.44 307.491 454.44 307.96V311.672L455.832 311.736V313H451.544V311.784L452.072 311.736C452.232 311.715 452.349 311.672 452.424 311.608C452.498 311.533 452.536 311.4 452.536 311.208ZM464.822 312.696V311.48C464.236 312.312 463.372 312.728 462.23 312.728C460.577 312.728 459.75 311.805 459.75 309.96V306.744C459.75 306.456 459.617 306.307 459.35 306.296L458.838 306.264V304.952H461.654V309.544C461.654 310.109 461.734 310.536 461.894 310.824C462.054 311.112 462.385 311.256 462.886 311.256C463.388 311.256 463.788 311.101 464.086 310.792C464.396 310.483 464.55 310.109 464.55 309.672V306.776C464.55 306.595 464.518 306.472 464.454 306.408C464.401 306.333 464.3 306.296 464.15 306.296L463.638 306.264V304.952H466.454V312.696C466.454 313.987 466.14 314.931 465.51 315.528C464.892 316.125 463.948 316.424 462.678 316.424C461.42 316.424 460.438 316.248 459.734 315.896V313.672L461.254 313.544V314.312C461.254 314.6 461.388 314.792 461.654 314.888C461.921 314.995 462.289 315.048 462.758 315.048C464.134 315.048 464.822 314.264 464.822 312.696ZM474.989 311.832C476.152 311.832 476.733 310.893 476.733 309.016C476.733 308.067 476.6 307.347 476.333 306.856C476.077 306.365 475.64 306.12 475.021 306.12C474.413 306.12 473.965 306.355 473.677 306.824C473.389 307.293 473.245 307.933 473.245 308.744C473.245 310.248 473.523 311.192 474.077 311.576C474.323 311.747 474.627 311.832 474.989 311.832ZM471.309 308.968C471.309 308.179 471.427 307.496 471.661 306.92C471.896 306.333 472.211 305.885 472.605 305.576C473.363 305 474.2 304.712 475.117 304.712C475.757 304.712 476.296 304.819 476.733 305.032C477.181 305.235 477.528 305.475 477.773 305.752C478.029 306.019 478.243 306.413 478.413 306.936C478.595 307.448 478.685 308.056 478.685 308.76C478.685 310.232 478.328 311.347 477.613 312.104C476.899 312.861 475.981 313.24 474.861 313.24C473.752 313.24 472.883 312.883 472.253 312.168C471.624 311.443 471.309 310.376 471.309 308.968ZM488.008 311.736V313H485.416V311.96C484.829 312.792 483.965 313.208 482.824 313.208C481.171 313.208 480.344 312.285 480.344 310.44V306.744C480.344 306.456 480.211 306.307 479.944 306.296L479.432 306.264V304.952H482.248V310.024C482.248 310.589 482.328 311.016 482.488 311.304C482.648 311.592 482.979 311.736 483.48 311.736C483.981 311.736 484.381 311.581 484.68 311.272C484.989 310.963 485.144 310.589 485.144 310.152V306.776C485.144 306.605 485.112 306.488 485.048 306.424C484.995 306.349 484.893 306.307 484.744 306.296L484.232 306.264V304.952H487.048V311.224C487.048 311.395 487.075 311.512 487.128 311.576C487.181 311.629 487.288 311.667 487.448 311.688L488.008 311.736ZM490.273 303.256H491.313V304.952H493.441L493.281 306.296H491.313V310.504C491.313 310.973 491.398 311.304 491.569 311.496C491.739 311.677 492.001 311.768 492.353 311.768C492.715 311.768 493.078 311.656 493.441 311.432L493.921 312.664C493.387 313.037 492.71 313.224 491.889 313.224C491.409 313.224 491.003 313.16 490.673 313.032C490.342 312.915 490.097 312.781 489.937 312.632C489.777 312.483 489.654 312.264 489.569 311.976C489.483 311.688 489.435 311.464 489.425 311.304C489.414 311.133 489.409 310.888 489.409 310.568V306.296H488.273L488.433 305.128C488.934 305.085 489.313 304.909 489.569 304.6C489.825 304.28 490.059 303.832 490.273 303.256ZM498.707 311.208V303.416C498.707 303.245 498.675 303.128 498.611 303.064C498.558 303 498.456 302.963 498.307 302.952L497.747 302.92V301.592H500.595V305.896C501.15 305.107 501.928 304.712 502.931 304.712C503.742 304.712 504.366 304.947 504.803 305.416C505.251 305.875 505.475 306.568 505.475 307.496V311.672L506.387 311.72V313H502.579V311.784L503.107 311.736C503.267 311.715 503.384 311.672 503.459 311.608C503.534 311.533 503.571 311.4 503.571 311.208V307.912C503.571 307.357 503.48 306.931 503.299 306.632C503.128 306.333 502.787 306.184 502.275 306.184C501.774 306.184 501.368 306.344 501.059 306.664C500.76 306.973 500.611 307.352 500.611 307.8V311.672L501.523 311.72V313H497.715V311.784L498.243 311.736C498.403 311.715 498.52 311.672 498.595 311.608C498.67 311.533 498.707 311.4 498.707 311.208ZM511.341 304.712C512.141 304.712 512.776 304.909 513.245 305.304C513.714 305.688 513.949 306.232 513.949 306.936C513.949 307.405 513.848 307.821 513.645 308.184C513.442 308.536 513.192 308.813 512.893 309.016C512.594 309.219 512.232 309.384 511.805 309.512C511.09 309.725 510.285 309.832 509.389 309.832C509.421 310.397 509.597 310.856 509.917 311.208C510.237 311.549 510.728 311.72 511.389 311.72C512.05 311.72 512.712 311.485 513.373 311.016L513.981 312.312C513.768 312.504 513.405 312.701 512.893 312.904C512.392 313.107 511.816 313.208 511.165 313.208C509.864 313.208 508.909 312.851 508.301 312.136C507.693 311.411 507.389 310.419 507.389 309.16C507.389 307.901 507.736 306.845 508.429 305.992C509.122 305.139 510.093 304.712 511.341 304.712ZM510.605 308.376C511 308.301 511.362 308.147 511.693 307.912C512.024 307.667 512.189 307.379 512.189 307.048C512.189 306.397 511.869 306.072 511.229 306.072C510.632 306.072 510.173 306.312 509.853 306.792C509.533 307.261 509.357 307.827 509.325 308.488C509.794 308.477 510.221 308.44 510.605 308.376ZM516.067 311.208V306.776C516.067 306.605 516.035 306.488 515.971 306.424C515.918 306.349 515.816 306.307 515.667 306.296L514.995 306.248V304.952H517.699V306.152C517.891 305.736 518.19 305.395 518.595 305.128C519 304.851 519.464 304.712 519.987 304.712C520.52 304.712 521.027 304.829 521.507 305.064V307.448L520.019 307.56V306.824C520.019 306.611 519.966 306.477 519.859 306.424C519.742 306.371 519.598 306.344 519.427 306.344C519 306.344 518.648 306.499 518.371 306.808C518.104 307.107 517.971 307.491 517.971 307.96V311.672L519.363 311.736V313H515.075V311.784L515.603 311.736C515.763 311.715 515.88 311.672 515.955 311.608C516.03 311.533 516.067 311.4 516.067 311.208ZM526.482 304.712C527.282 304.712 527.916 304.909 528.386 305.304C528.855 305.688 529.09 306.232 529.09 306.936C529.09 307.405 528.988 307.821 528.786 308.184C528.583 308.536 528.332 308.813 528.034 309.016C527.735 309.219 527.372 309.384 526.946 309.512C526.231 309.725 525.426 309.832 524.53 309.832C524.562 310.397 524.738 310.856 525.058 311.208C525.378 311.549 525.868 311.72 526.53 311.72C527.191 311.72 527.852 311.485 528.514 311.016L529.122 312.312C528.908 312.504 528.546 312.701 528.034 312.904C527.532 313.107 526.956 313.208 526.306 313.208C525.004 313.208 524.05 312.851 523.442 312.136C522.834 311.411 522.53 310.419 522.53 309.16C522.53 307.901 522.876 306.845 523.57 305.992C524.263 305.139 525.234 304.712 526.482 304.712ZM525.746 308.376C526.14 308.301 526.503 308.147 526.834 307.912C527.164 307.667 527.33 307.379 527.33 307.048C527.33 306.397 527.01 306.072 526.37 306.072C525.772 306.072 525.314 306.312 524.994 306.792C524.674 307.261 524.498 307.827 524.466 308.488C524.935 308.477 525.362 308.44 525.746 308.376ZM532.92 311.736L531.272 315.48L530.264 315.176L530.76 311.928C530.834 311.395 531.096 311.128 531.544 311.128C531.768 311.128 531.938 311.165 532.056 311.24C532.184 311.304 532.285 311.357 532.36 311.4C532.445 311.443 532.504 311.475 532.536 311.496C532.568 311.517 532.632 311.56 532.728 311.624C532.824 311.677 532.888 311.715 532.92 311.736ZM427.492 325.256H428.532V326.952H430.66L430.5 328.296H428.532V332.504C428.532 332.973 428.617 333.304 428.788 333.496C428.958 333.677 429.22 333.768 429.572 333.768C429.934 333.768 430.297 333.656 430.66 333.432L431.14 334.664C430.606 335.037 429.929 335.224 429.108 335.224C428.628 335.224 428.222 335.16 427.892 335.032C427.561 334.915 427.316 334.781 427.156 334.632C426.996 334.483 426.873 334.264 426.788 333.976C426.702 333.688 426.654 333.464 426.644 333.304C426.633 333.133 426.628 332.888 426.628 332.568V328.296H425.492L425.652 327.128C426.153 327.085 426.532 326.909 426.788 326.6C427.044 326.28 427.278 325.832 427.492 325.256ZM432.739 333.208V328.776C432.739 328.605 432.707 328.488 432.643 328.424C432.589 328.349 432.488 328.307 432.339 328.296L431.667 328.248V326.952H434.371V328.152C434.563 327.736 434.861 327.395 435.267 327.128C435.672 326.851 436.136 326.712 436.659 326.712C437.192 326.712 437.699 326.829 438.179 327.064V329.448L436.691 329.56V328.824C436.691 328.611 436.637 328.477 436.531 328.424C436.413 328.371 436.269 328.344 436.099 328.344C435.672 328.344 435.32 328.499 435.043 328.808C434.776 329.107 434.643 329.491 434.643 329.96V333.672L436.035 333.736V335H431.747V333.784L432.275 333.736C432.435 333.715 432.552 333.672 432.627 333.608C432.701 333.533 432.739 333.4 432.739 333.208ZM445.025 334.696V333.48C444.439 334.312 443.575 334.728 442.433 334.728C440.78 334.728 439.953 333.805 439.953 331.96V328.744C439.953 328.456 439.82 328.307 439.553 328.296L439.041 328.264V326.952H441.857V331.544C441.857 332.109 441.937 332.536 442.097 332.824C442.257 333.112 442.588 333.256 443.089 333.256C443.591 333.256 443.991 333.101 444.289 332.792C444.599 332.483 444.753 332.109 444.753 331.672V328.776C444.753 328.595 444.721 328.472 444.657 328.408C444.604 328.333 444.503 328.296 444.353 328.296L443.841 328.264V326.952H446.657V334.696C446.657 335.987 446.343 336.931 445.713 337.528C445.095 338.125 444.151 338.424 442.881 338.424C441.623 338.424 440.641 338.248 439.937 337.896V335.672L441.457 335.544V336.312C441.457 336.6 441.591 336.792 441.857 336.888C442.124 336.995 442.492 337.048 442.961 337.048C444.337 337.048 445.025 336.264 445.025 334.696ZM458.696 327.272V333.224C458.696 333.395 458.723 333.512 458.776 333.576C458.84 333.64 458.947 333.677 459.096 333.688L459.608 333.72V335H457.064V334.072L457.016 334.056C456.483 334.824 455.752 335.208 454.824 335.208C453.736 335.208 452.931 334.861 452.408 334.168C451.886 333.475 451.624 332.525 451.624 331.32C451.624 329.869 451.976 328.739 452.68 327.928C453.384 327.117 454.44 326.712 455.848 326.712C456.755 326.712 457.704 326.899 458.696 327.272ZM456.84 332.456V328.312C456.542 328.173 456.131 328.104 455.608 328.104C454.894 328.104 454.376 328.392 454.056 328.968C453.736 329.544 453.576 330.307 453.576 331.256C453.576 332.984 454.131 333.848 455.24 333.848C455.71 333.848 456.094 333.709 456.392 333.432C456.691 333.144 456.84 332.819 456.84 332.456ZM467.81 326.712C468.268 326.712 468.706 326.776 469.122 326.904V325.288C469.122 325.053 468.983 324.925 468.706 324.904L468.018 324.856V323.592H470.994V333.32C471.004 333.565 471.138 333.688 471.394 333.688L471.954 333.72V335H469.362V334.056L469.314 334.04C468.834 334.819 468.108 335.208 467.138 335.208C465.922 335.208 465.068 334.803 464.578 333.992C464.13 333.256 463.906 332.355 463.906 331.288C463.906 329.901 464.247 328.792 464.93 327.96C465.623 327.128 466.583 326.712 467.81 326.712ZM469.122 332.504V328.36C468.738 328.189 468.332 328.104 467.906 328.104C467.202 328.104 466.684 328.387 466.354 328.952C466.034 329.517 465.874 330.237 465.874 331.112C465.874 332.904 466.45 333.8 467.602 333.8C468.039 333.8 468.402 333.677 468.69 333.432C468.978 333.176 469.122 332.867 469.122 332.504ZM475.783 326.952V333.672L476.695 333.72V335H472.887V333.784L473.415 333.736C473.725 333.704 473.879 333.533 473.879 333.224V328.776C473.879 328.595 473.847 328.472 473.783 328.408C473.73 328.344 473.629 328.312 473.479 328.312L472.919 328.28V326.952H475.783ZM473.767 325.576C473.543 325.352 473.431 325.069 473.431 324.728C473.431 324.387 473.543 324.104 473.767 323.88C473.991 323.645 474.285 323.528 474.647 323.528C475.01 323.528 475.303 323.645 475.527 323.88C475.762 324.104 475.879 324.387 475.879 324.728C475.879 325.069 475.762 325.352 475.527 325.576C475.303 325.789 475.01 325.896 474.647 325.896C474.285 325.896 473.991 325.789 473.767 325.576ZM478.63 333.208V328.296H477.254V326.952H478.63V326.344C478.63 325.299 478.87 324.547 479.35 324.088C479.798 323.651 480.454 323.432 481.318 323.432C482.182 323.432 482.95 323.619 483.622 323.992L483.158 325.272C482.646 325.005 482.166 324.872 481.718 324.872C481.27 324.872 480.96 324.984 480.79 325.208C480.619 325.421 480.534 325.752 480.534 326.2V326.952H482.902V328.296H480.534V333.656L481.878 333.72V335H477.638V333.784L478.166 333.736C478.326 333.715 478.443 333.672 478.518 333.608C478.592 333.533 478.63 333.4 478.63 333.208ZM484.552 333.208V328.296H483.176V326.952H484.552V326.344C484.552 325.299 484.792 324.547 485.272 324.088C485.72 323.651 486.376 323.432 487.24 323.432C488.104 323.432 488.872 323.619 489.544 323.992L489.08 325.272C488.568 325.005 488.088 324.872 487.64 324.872C487.192 324.872 486.882 324.984 486.712 325.208C486.541 325.421 486.456 325.752 486.456 326.2V326.952H488.824V328.296H486.456V333.656L487.8 333.72V335H483.56V333.784L484.088 333.736C484.248 333.715 484.365 333.672 484.44 333.608C484.514 333.533 484.552 333.4 484.552 333.208ZM493.482 326.712C494.282 326.712 494.916 326.909 495.386 327.304C495.855 327.688 496.09 328.232 496.09 328.936C496.09 329.405 495.988 329.821 495.786 330.184C495.583 330.536 495.332 330.813 495.034 331.016C494.735 331.219 494.372 331.384 493.946 331.512C493.231 331.725 492.426 331.832 491.53 331.832C491.562 332.397 491.738 332.856 492.058 333.208C492.378 333.549 492.868 333.72 493.53 333.72C494.191 333.72 494.852 333.485 495.514 333.016L496.122 334.312C495.908 334.504 495.546 334.701 495.034 334.904C494.532 335.107 493.956 335.208 493.306 335.208C492.004 335.208 491.05 334.851 490.442 334.136C489.834 333.411 489.53 332.419 489.53 331.16C489.53 329.901 489.876 328.845 490.57 327.992C491.263 327.139 492.234 326.712 493.482 326.712ZM492.746 330.376C493.14 330.301 493.503 330.147 493.834 329.912C494.164 329.667 494.33 329.379 494.33 329.048C494.33 328.397 494.01 328.072 493.37 328.072C492.772 328.072 492.314 328.312 491.994 328.792C491.674 329.261 491.498 329.827 491.466 330.488C491.935 330.477 492.362 330.44 492.746 330.376ZM498.208 333.208V328.776C498.208 328.605 498.176 328.488 498.112 328.424C498.058 328.349 497.957 328.307 497.808 328.296L497.136 328.248V326.952H499.84V328.152C500.032 327.736 500.33 327.395 500.736 327.128C501.141 326.851 501.605 326.712 502.128 326.712C502.661 326.712 503.168 326.829 503.648 327.064V329.448L502.16 329.56V328.824C502.16 328.611 502.106 328.477 502 328.424C501.882 328.371 501.738 328.344 501.568 328.344C501.141 328.344 500.789 328.499 500.512 328.808C500.245 329.107 500.112 329.491 500.112 329.96V333.672L501.504 333.736V335H497.215V333.784L497.743 333.736C497.904 333.715 498.021 333.672 498.096 333.608C498.17 333.533 498.208 333.4 498.208 333.208ZM508.622 326.712C509.422 326.712 510.057 326.909 510.526 327.304C510.995 327.688 511.23 328.232 511.23 328.936C511.23 329.405 511.129 329.821 510.926 330.184C510.723 330.536 510.473 330.813 510.174 331.016C509.875 331.219 509.513 331.384 509.086 331.512C508.371 331.725 507.566 331.832 506.67 331.832C506.702 332.397 506.878 332.856 507.198 333.208C507.518 333.549 508.009 333.72 508.67 333.72C509.331 333.72 509.993 333.485 510.654 333.016L511.262 334.312C511.049 334.504 510.686 334.701 510.174 334.904C509.673 335.107 509.097 335.208 508.446 335.208C507.145 335.208 506.19 334.851 505.582 334.136C504.974 333.411 504.67 332.419 504.67 331.16C504.67 329.901 505.017 328.845 505.71 327.992C506.403 327.139 507.374 326.712 508.622 326.712ZM507.886 330.376C508.281 330.301 508.643 330.147 508.974 329.912C509.305 329.667 509.47 329.379 509.47 329.048C509.47 328.397 509.15 328.072 508.51 328.072C507.913 328.072 507.454 328.312 507.134 328.792C506.814 329.261 506.638 329.827 506.606 330.488C507.075 330.477 507.502 330.44 507.886 330.376ZM512.26 328.232V326.952H514.964V327.992C515.241 327.597 515.609 327.288 516.068 327.064C516.527 326.829 517.023 326.712 517.556 326.712C518.367 326.712 518.991 326.947 519.428 327.416C519.876 327.875 520.1 328.568 520.1 329.496V333.672L521.012 333.72V335H517.204V333.784L517.732 333.736C517.892 333.715 518.009 333.672 518.084 333.608C518.159 333.533 518.196 333.4 518.196 333.208V329.912C518.196 329.325 518.105 328.893 517.924 328.616C517.743 328.328 517.396 328.184 516.884 328.184C516.383 328.184 515.983 328.344 515.684 328.664C515.385 328.984 515.236 329.363 515.236 329.8V333.672L516.148 333.72V335H512.34V333.784L512.868 333.736C513.028 333.715 513.145 333.672 513.22 333.608C513.295 333.533 513.332 333.4 513.332 333.208V328.776C513.332 328.456 513.199 328.291 512.932 328.28L512.26 328.232ZM523.085 325.256H524.125V326.952H526.253L526.093 328.296H524.125V332.504C524.125 332.973 524.211 333.304 524.381 333.496C524.552 333.677 524.813 333.768 525.165 333.768C525.528 333.768 525.891 333.656 526.253 333.432L526.733 334.664C526.2 335.037 525.523 335.224 524.701 335.224C524.221 335.224 523.816 335.16 523.485 335.032C523.155 334.915 522.909 334.781 522.749 334.632C522.589 334.483 522.467 334.264 522.381 333.976C522.296 333.688 522.248 333.464 522.237 333.304C522.227 333.133 522.221 332.888 522.221 332.568V328.296H521.085L521.245 327.128C521.747 327.085 522.125 326.909 522.381 326.6C522.637 326.28 522.872 325.832 523.085 325.256ZM456.439 350.168C456.183 350.072 455.873 350.024 455.511 350.024C455.148 350.024 454.855 350.109 454.631 350.28C454.417 350.44 454.311 350.643 454.311 350.888C454.311 351.123 454.348 351.309 454.423 351.448C454.508 351.576 454.636 351.688 454.807 351.784C455.073 351.923 455.393 352.045 455.767 352.152C456.14 352.248 456.417 352.328 456.599 352.392C456.78 352.445 457.004 352.541 457.271 352.68C457.548 352.819 457.756 352.968 457.895 353.128C458.268 353.523 458.455 354.029 458.455 354.648C458.455 355.448 458.161 356.077 457.575 356.536C456.999 356.984 456.263 357.208 455.367 357.208C454.065 357.208 453.084 357.043 452.423 356.712V354.488L453.863 354.376V355.144C453.863 355.613 454.311 355.848 455.207 355.848C456.103 355.848 456.551 355.523 456.551 354.872C456.551 354.637 456.471 354.445 456.311 354.296C456.161 354.147 456.012 354.045 455.863 353.992C455.713 353.939 455.532 353.885 455.319 353.832C455.116 353.779 454.913 353.725 454.711 353.672C454.519 353.619 454.305 353.549 454.071 353.464C453.847 353.368 453.596 353.235 453.319 353.064C452.775 352.712 452.503 352.125 452.503 351.304C452.503 350.472 452.796 349.832 453.383 349.384C453.969 348.936 454.705 348.712 455.591 348.712C456.487 348.712 457.372 348.925 458.247 349.352V351.272L456.807 351.384V350.712C456.807 350.445 456.684 350.264 456.439 350.168ZM463.482 348.712C464.282 348.712 464.916 348.909 465.386 349.304C465.855 349.688 466.09 350.232 466.09 350.936C466.09 351.405 465.988 351.821 465.786 352.184C465.583 352.536 465.332 352.813 465.034 353.016C464.735 353.219 464.372 353.384 463.946 353.512C463.231 353.725 462.426 353.832 461.53 353.832C461.562 354.397 461.738 354.856 462.058 355.208C462.378 355.549 462.868 355.72 463.53 355.72C464.191 355.72 464.852 355.485 465.514 355.016L466.122 356.312C465.908 356.504 465.546 356.701 465.034 356.904C464.532 357.107 463.956 357.208 463.306 357.208C462.004 357.208 461.05 356.851 460.442 356.136C459.834 355.411 459.53 354.419 459.53 353.16C459.53 351.901 459.876 350.845 460.57 349.992C461.263 349.139 462.234 348.712 463.482 348.712ZM462.746 352.376C463.14 352.301 463.503 352.147 463.834 351.912C464.164 351.667 464.33 351.379 464.33 351.048C464.33 350.397 464.01 350.072 463.37 350.072C462.772 350.072 462.314 350.312 461.994 350.792C461.674 351.261 461.498 351.827 461.466 352.488C461.935 352.477 462.362 352.44 462.746 352.376ZM474.4 349.272V355.224C474.4 355.395 474.426 355.512 474.48 355.576C474.544 355.64 474.65 355.677 474.8 355.688L475.312 355.72V357H472.768V356.072L472.72 356.056C472.186 356.824 471.456 357.208 470.528 357.208C469.44 357.208 468.634 356.861 468.112 356.168C467.589 355.475 467.328 354.525 467.328 353.32C467.328 351.869 467.68 350.739 468.384 349.928C469.088 349.117 470.144 348.712 471.552 348.712C472.458 348.712 473.408 348.899 474.4 349.272ZM472.544 354.456V350.312C472.245 350.173 471.834 350.104 471.312 350.104C470.597 350.104 470.08 350.392 469.76 350.968C469.44 351.544 469.28 352.307 469.28 353.256C469.28 354.984 469.834 355.848 470.944 355.848C471.413 355.848 471.797 355.709 472.096 355.432C472.394 355.144 472.544 354.819 472.544 354.456ZM477.286 355.208V350.776C477.286 350.605 477.254 350.488 477.19 350.424C477.136 350.349 477.035 350.307 476.886 350.296L476.214 350.248V348.952H478.918V350.152C479.11 349.736 479.408 349.395 479.814 349.128C480.219 348.851 480.683 348.712 481.206 348.712C481.739 348.712 482.246 348.829 482.726 349.064V351.448L481.238 351.56V350.824C481.238 350.611 481.184 350.477 481.078 350.424C480.96 350.371 480.816 350.344 480.646 350.344C480.219 350.344 479.867 350.499 479.59 350.808C479.323 351.107 479.19 351.491 479.19 351.96V355.672L480.582 355.736V357H476.294V355.784L476.822 355.736C476.982 355.715 477.099 355.672 477.174 355.608C477.248 355.533 477.286 355.4 477.286 355.208ZM485.62 352.888C485.62 353.795 485.791 354.499 486.132 355C486.474 355.501 486.964 355.752 487.604 355.752C488.255 355.752 488.895 355.523 489.524 355.064L490.212 356.296C489.455 356.915 488.506 357.224 487.364 357.224C486.223 357.224 485.322 356.867 484.66 356.152C484.01 355.427 483.684 354.36 483.684 352.952C483.684 351.544 484.058 350.488 484.804 349.784C485.562 349.069 486.41 348.712 487.348 348.712C488.298 348.712 489.178 348.931 489.988 349.368V351.448L488.516 351.56V350.792C488.516 350.504 488.41 350.328 488.196 350.264C487.994 350.189 487.78 350.152 487.556 350.152C486.266 350.152 485.62 351.064 485.62 352.888ZM492.192 355.208V347.416C492.192 347.245 492.16 347.128 492.096 347.064C492.042 347 491.941 346.963 491.792 346.952L491.232 346.92V345.592H494.08V349.896C494.634 349.107 495.413 348.712 496.416 348.712C497.226 348.712 497.85 348.947 498.288 349.416C498.736 349.875 498.96 350.568 498.96 351.496V355.672L499.872 355.72V357H496.064V355.784L496.592 355.736C496.752 355.715 496.869 355.672 496.944 355.608C497.018 355.533 497.056 355.4 497.056 355.208V351.912C497.056 351.357 496.965 350.931 496.784 350.632C496.613 350.333 496.272 350.184 495.76 350.184C495.258 350.184 494.853 350.344 494.544 350.664C494.245 350.973 494.096 351.352 494.096 351.8V355.672L495.008 355.72V357H491.2V355.784L491.728 355.736C491.888 355.715 492.005 355.672 492.08 355.608C492.154 355.533 492.192 355.4 492.192 355.208Z" fill="black"/>
</g>
<defs>
<linearGradient id="paint0_linear_1164_1732" x1="450" y1="0" x2="450" y2="600" gradientUnits="userSpaceOnUse">
<stop stop-color="#1D9DBE"/>
<stop offset="1" stop-color="#F7C59F"/>
</linearGradient>
<linearGradient id="paint1_linear_1164_1732" x1="148" y1="75" x2="179.5" y2="57.5" gradientUnits="userSpaceOnUse">
<stop offset="0.277153" stop-color="#2A5C68"/>
<stop offset="1" stop-color="#2B1E36"/>
</linearGradient>
<clipPath id="clip0_1164_1732">
<rect width="900" height="600" fill="white"/>
</clipPath>
<clipPath id="clip1_1164_1732">
<rect width="3.59929" height="3.59929" fill="white" transform="translate(150.596 54.8642)"/>
</clipPath>
</defs>
</svg>
