<svg width="30" height="30" viewBox="0 0 30 30" fill="none" xmlns="http://www.w3.org/2000/svg">
<path d="M5.625 15.1562C4.75 15.1562 4.01042 14.8542 3.40625 14.25C2.80208 13.6458 2.5 12.9062 2.5 12.0312C2.5 11.1563 2.80208 10.4167 3.40625 9.8125C4.01042 9.20833 4.75 8.90625 5.625 8.90625C6.5 8.90625 7.23958 9.20833 7.84375 9.8125C8.44792 10.4167 8.75 11.1563 8.75 12.0312C8.75 12.9062 8.44792 13.6458 7.84375 14.25C7.23958 14.8542 6.5 15.1562 5.625 15.1562ZM11.25 10.1562C10.375 10.1562 9.63542 9.85417 9.03125 9.25C8.42708 8.64583 8.125 7.90625 8.125 7.03125C8.125 6.15625 8.42708 5.41667 9.03125 4.8125C9.63542 4.20833 10.375 3.90625 11.25 3.90625C12.125 3.90625 12.8646 4.20833 13.4687 4.8125C14.0729 5.41667 14.375 6.15625 14.375 7.03125C14.375 7.90625 14.0729 8.64583 13.4687 9.25C12.8646 9.85417 12.125 10.1563 11.25 10.1562ZM18.75 10.1562C17.875 10.1562 17.1354 9.85417 16.5313 9.25C15.9271 8.64583 15.625 7.90625 15.625 7.03125C15.625 6.15625 15.9271 5.41667 16.5313 4.8125C17.1354 4.20833 17.875 3.90625 18.75 3.90625C19.625 3.90625 20.3646 4.20833 20.9687 4.8125C21.5729 5.41667 21.875 6.15625 21.875 7.03125C21.875 7.90625 21.5729 8.64583 20.9687 9.25C20.3646 9.85417 19.625 10.1563 18.75 10.1562ZM24.375 15.1562C23.5 15.1562 22.7604 14.8542 22.1563 14.25C21.5521 13.6458 21.25 12.9062 21.25 12.0312C21.25 11.1563 21.5521 10.4167 22.1563 9.8125C22.7604 9.20833 23.5 8.90625 24.375 8.90625C25.25 8.90625 25.9896 9.20833 26.5937 9.8125C27.1979 10.4167 27.5 11.1563 27.5 12.0312C27.5 12.9062 27.1979 13.6458 26.5937 14.25C25.9896 14.8542 25.25 15.1562 24.375 15.1562ZM8.3125 27.6562C7.375 27.6562 6.58833 27.2971 5.9525 26.5788C5.31667 25.8604 4.99917 25.0113 5 24.0313C5 22.9479 5.37 22 6.11 21.1875C6.85 20.375 7.58417 19.5729 8.3125 18.7812C8.91667 18.1354 9.4375 17.4325 9.875 16.6725C10.3125 15.9125 10.8333 15.1987 11.4375 14.5312C11.8958 13.9896 12.4271 13.5417 13.0313 13.1875C13.6354 12.8333 14.2917 12.6563 15 12.6562C15.7083 12.6562 16.3646 12.8229 16.9687 13.1562C17.5729 13.4896 18.1042 13.9271 18.5625 14.4687C19.1458 15.1354 19.6617 15.8542 20.11 16.625C20.5583 17.3958 21.0842 18.1146 21.6875 18.7812C22.4167 19.5729 23.1508 20.375 23.89 21.1875C24.6292 22 24.9992 22.9479 25 24.0313C25 25.0104 24.6821 25.8596 24.0462 26.5788C23.4104 27.2979 22.6242 27.6571 21.6875 27.6562C20.5625 27.6562 19.4479 27.5625 18.3438 27.375C17.2396 27.1875 16.125 27.0937 15 27.0937C13.875 27.0937 12.7604 27.1875 11.6562 27.375C10.5521 27.5625 9.4375 27.6562 8.3125 27.6562Z" fill="#F9FBFA"/>
</svg>
