<svg width="30" height="30" viewBox="0 0 30 30" fill="none" xmlns="http://www.w3.org/2000/svg">
<path d="M16.4 21.279L11.1513 18.4165C10.466 19.1491 9.57624 19.6586 8.5976 19.8789C7.61896 20.0991 6.5967 20.0199 5.66366 19.6516C4.73063 19.2832 3.92996 18.6427 3.36572 17.8133C2.80148 16.9839 2.49976 16.004 2.49976 15.0009C2.49976 13.9978 2.80148 13.0178 3.36572 12.1885C3.92996 11.3591 4.73063 10.7186 5.66366 10.3502C6.5967 9.98184 7.61896 9.90264 8.5976 10.1229C9.57624 10.3432 10.466 10.8527 11.1513 11.5853L16.4013 8.72276C16.1036 7.54271 16.2466 6.29463 16.8034 5.21247C17.3602 4.13031 18.2926 3.28836 19.4257 2.84447C20.5589 2.40057 21.815 2.3852 22.9587 2.80123C24.1024 3.21726 25.0551 4.03613 25.6382 5.10434C26.2213 6.17255 26.3947 7.41676 26.1261 8.60373C25.8575 9.79071 25.1651 10.839 24.1789 11.552C23.1926 12.265 21.9802 12.5938 20.7688 12.4768C19.5574 12.3599 18.4303 11.8051 17.5988 10.9165L12.3488 13.779C12.5507 14.5807 12.5507 15.4199 12.3488 16.2215L17.5988 19.084C18.4308 18.1959 19.5581 17.6417 20.7695 17.5253C21.9809 17.4089 23.1932 17.7383 24.1791 18.4517C25.1649 19.1652 25.8568 20.2138 26.1249 21.4008C26.393 22.5879 26.219 23.832 25.6354 24.8999C25.0518 25.9679 24.0988 26.7863 22.955 27.2018C21.8112 27.6174 20.555 27.6015 19.4221 27.1571C18.2891 26.7128 17.3572 25.8705 16.8008 24.7881C16.2445 23.7058 16.102 22.4577 16.4 21.2778M7.50001 17.5003C8.16305 17.5003 8.79894 17.2369 9.26778 16.768C9.73662 16.2992 10 15.6633 10 15.0003C10 14.3372 9.73662 13.7013 9.26778 13.2325C8.79894 12.7637 8.16305 12.5003 7.50001 12.5003C6.83697 12.5003 6.20109 12.7637 5.73225 13.2325C5.26341 13.7013 5.00001 14.3372 5.00001 15.0003C5.00001 15.6633 5.26341 16.2992 5.73225 16.768C6.20109 17.2369 6.83697 17.5003 7.50001 17.5003ZM21.25 10.0003C21.9131 10.0003 22.5489 9.73687 23.0178 9.26802C23.4866 8.79918 23.75 8.1633 23.75 7.50026C23.75 6.83722 23.4866 6.20133 23.0178 5.73249C22.5489 5.26365 21.9131 5.00026 21.25 5.00026C20.587 5.00026 19.9511 5.26365 19.4822 5.73249C19.0134 6.20133 18.75 6.83722 18.75 7.50026C18.75 8.1633 19.0134 8.79918 19.4822 9.26802C19.9511 9.73687 20.587 10.0003 21.25 10.0003ZM21.25 25.0003C21.9131 25.0003 22.5489 24.7369 23.0178 24.268C23.4866 23.7992 23.75 23.1633 23.75 22.5003C23.75 21.8372 23.4866 21.2013 23.0178 20.7325C22.5489 20.2637 21.9131 20.0003 21.25 20.0003C20.587 20.0003 19.9511 20.2637 19.4822 20.7325C19.0134 21.2013 18.75 21.8372 18.75 22.5003C18.75 23.1633 19.0134 23.7992 19.4822 24.268C19.9511 24.7369 20.587 25.0003 21.25 25.0003Z" fill="#2A5C68"/>
</svg>
