<svg width="30" height="30" viewBox="0 0 30 30" fill="none" xmlns="http://www.w3.org/2000/svg">
<path d="M15.5404 12.0124C15.7145 11.4833 16.4523 11.4833 16.6264 12.0124L17.6476 15.1176C17.8723 15.8002 18.251 16.4205 18.7536 16.9291C19.2562 17.4378 19.8689 17.8209 20.5432 18.0482L23.6082 19.0822C24.1306 19.2585 24.1306 20.0056 23.6082 20.1819L20.5416 21.2159C19.8675 21.4435 19.255 21.827 18.7526 22.336C18.2503 22.8449 17.872 23.4653 17.6476 24.1481L16.6264 27.2517C16.5889 27.3676 16.5162 27.4685 16.4186 27.54C16.3211 27.6115 16.2038 27.65 16.0834 27.65C15.963 27.65 15.8457 27.6115 15.7481 27.54C15.6506 27.4685 15.5779 27.3676 15.5404 27.2517L14.5192 24.1465C14.2946 23.464 13.9162 22.8439 13.4138 22.3353C12.9115 21.8266 12.2991 21.4434 11.6252 21.2159L8.55861 20.1819C8.44421 20.1439 8.34459 20.0703 8.27396 19.9715C8.20334 19.8728 8.16531 19.754 8.16531 19.632C8.16531 19.5101 8.20334 19.3913 8.27396 19.2926C8.34459 19.1938 8.44421 19.1202 8.55861 19.0822L11.6252 18.0482C12.2991 17.8207 12.9115 17.4375 13.4138 16.9288C13.9162 16.4202 14.2946 15.8001 14.5192 15.1176L15.5404 12.0124ZM9.4246 3.83799C9.44731 3.76857 9.49104 3.70816 9.54959 3.66534C9.60813 3.62252 9.67852 3.59947 9.75074 3.59947C9.82296 3.59947 9.89334 3.62252 9.95189 3.66534C10.0104 3.70816 10.0542 3.76857 10.0769 3.83799L10.6896 5.70083C10.9634 6.53126 11.6062 7.18213 12.4263 7.45947L14.2659 8.07988C14.3345 8.10287 14.3941 8.14715 14.4364 8.20644C14.4787 8.26572 14.5015 8.337 14.5015 8.41013C14.5015 8.48326 14.4787 8.55453 14.4364 8.61382C14.3941 8.6731 14.3345 8.71738 14.2659 8.74037L12.4263 9.36078C12.0216 9.49679 11.6538 9.7266 11.3523 10.0319C11.0508 10.3372 10.8239 10.7096 10.6896 11.1194L10.0769 12.9823C10.0542 13.0517 10.0104 13.1121 9.95189 13.1549C9.89334 13.1977 9.82296 13.2208 9.75074 13.2208C9.67852 13.2208 9.60813 13.1977 9.54959 13.1549C9.49104 13.1121 9.44731 13.0517 9.4246 12.9823L8.81192 11.1194C8.67761 10.7096 8.45066 10.3372 8.14915 10.0319C7.84763 9.7266 7.47989 9.49679 7.07519 9.36078L5.23555 8.74037C5.16699 8.71738 5.10733 8.6731 5.06505 8.61382C5.02276 8.55453 5 8.48326 5 8.41013C5 8.337 5.02276 8.26572 5.06505 8.20644C5.10733 8.14715 5.16699 8.10287 5.23555 8.07988L7.07519 7.45947C7.47989 7.32346 7.84763 7.09365 8.14915 6.78834C8.45066 6.48302 8.67761 6.11064 8.81192 5.70083L9.4246 3.83799ZM20.616 2.15631C20.6316 2.11066 20.6609 2.07108 20.6998 2.04307C20.7386 2.01505 20.7852 2 20.8329 2C20.8806 2 20.9271 2.01505 20.966 2.04307C21.0049 2.07108 21.0341 2.11066 21.0498 2.15631L21.4582 3.39713C21.6403 3.95182 22.0693 4.38627 22.6171 4.57063L23.8425 4.98423C23.8876 5.00006 23.9266 5.02971 23.9543 5.06908C23.982 5.10844 23.9968 5.15555 23.9968 5.20386C23.9968 5.25218 23.982 5.29929 23.9543 5.33865C23.9266 5.37801 23.8876 5.40767 23.8425 5.42349L22.6171 5.8371C22.3474 5.92848 22.1023 6.08204 21.9012 6.28568C21.7001 6.48932 21.5485 6.73748 21.4582 7.01059L21.0498 8.25142C21.0341 8.29706 21.0049 8.33665 20.966 8.36466C20.9271 8.39267 20.8806 8.40773 20.8329 8.40773C20.7852 8.40773 20.7386 8.39267 20.6998 8.36466C20.6609 8.33665 20.6316 8.29706 20.616 8.25142L20.2075 7.01059C20.1173 6.73748 19.9656 6.48932 19.7645 6.28568C19.5634 6.08204 19.3184 5.92848 19.0487 5.8371L17.8249 5.42349C17.7798 5.40767 17.7407 5.37801 17.713 5.33865C17.6854 5.29929 17.6705 5.25218 17.6705 5.20386C17.6705 5.15555 17.6854 5.10844 17.713 5.06908C17.7407 5.02971 17.7798 5.00006 17.8249 4.98423L19.0502 4.57063C19.598 4.38627 20.0271 3.95182 20.2091 3.39713L20.616 2.15631Z" fill="#1D9DBE"/>
</svg>
