<svg width="30" height="30" viewBox="0 0 30 30" fill="none" xmlns="http://www.w3.org/2000/svg">
<path d="M15.0001 26.25C14.1251 26.25 13.3855 25.9479 12.7813 25.3437C12.1771 24.7396 11.8751 24 11.8751 23.125C11.8751 22.25 12.1771 21.5104 12.7813 20.9063C13.3855 20.3021 14.1251 20 15.0001 20C15.8751 20 16.6146 20.3021 17.2188 20.9063C17.823 21.5104 18.1251 22.25 18.1251 23.125C18.1251 24 17.823 24.7396 17.2188 25.3437C16.6146 25.9479 15.8751 26.25 15.0001 26.25ZM15.0001 12.5C16.5626 12.5 18.0471 12.75 19.4538 13.25C20.8605 13.75 22.1363 14.4375 23.2813 15.3125C23.698 15.625 23.9117 16.0367 23.9226 16.5475C23.9334 17.0583 23.7509 17.5008 23.3751 17.875C23.0209 18.2292 22.5834 18.4117 22.0626 18.4225C21.5417 18.4333 21.073 18.2925 20.6563 18C19.8646 17.4583 18.9896 17.0312 18.0313 16.7188C17.073 16.4062 16.0626 16.25 15.0001 16.25C13.9376 16.25 12.9271 16.4062 11.9688 16.7188C11.0105 17.0312 10.1355 17.4583 9.34381 18C8.92714 18.2917 8.45839 18.4271 7.93756 18.4063C7.41672 18.3854 6.97922 18.1979 6.62506 17.8437C6.27089 17.4687 6.09381 17.0263 6.09381 16.5163C6.09381 16.0063 6.30214 15.5946 6.71881 15.2813C7.86464 14.4063 9.14089 13.7237 10.5476 13.2337C11.9542 12.7437 13.4384 12.4992 15.0001 12.5ZM15.0001 5C17.6042 5 20.0576 5.42708 22.3601 6.28125C24.6626 7.13542 26.7301 8.34375 28.5626 9.90625C28.9792 10.2604 29.198 10.6979 29.2188 11.2188C29.2396 11.7396 29.0626 12.1875 28.6876 12.5625C28.3334 12.9167 27.8959 13.0992 27.3751 13.11C26.8542 13.1208 26.3855 12.9592 25.9688 12.625C24.4688 11.3958 22.7867 10.4429 20.9226 9.76625C19.0584 9.08958 17.0842 8.75083 15.0001 8.75C12.9159 8.74917 10.9421 9.08792 9.07881 9.76625C7.21547 10.4446 5.53297 11.3975 4.03131 12.625C3.61464 12.9583 3.14589 13.12 2.62506 13.11C2.10422 13.1 1.66672 12.9175 1.31256 12.5625C0.937558 12.1875 0.760474 11.7396 0.781308 11.2188C0.802141 10.6979 1.02089 10.2604 1.43756 9.90625C3.27089 8.34375 5.33881 7.13542 7.64131 6.28125C9.94381 5.42708 12.3967 5 15.0001 5Z" fill="#F9FBFA"/>
</svg>
